<svg id="icon_paypal" data-name="icon/paypal" xmlns="http://www.w3.org/2000/svg" width="72.024" height="18.269" viewBox="0 0 72.024 18.269">
  <path id="路径_7539" data-name="路径 7539" d="M114.2,117.476c-.846-.964-2.375-1.378-4.331-1.378H104.19a.813.813,0,0,0-.8.686l-2.363,14.994a.487.487,0,0,0,.482.563h3.5l.88-5.583-.027.175a.811.811,0,0,1,.8-.686h1.666c3.272,0,5.834-1.329,6.582-5.174q.033-.171.058-.333a3.63,3.63,0,0,0-.77-3.264" transform="translate(-101.017 -116.098)" fill="#003087"/>
  <path id="路径_7540" data-name="路径 7540" d="M1670.015,272.3c-.214,1.407-1.289,1.407-2.327,1.407h-.591l.415-2.627a.326.326,0,0,1,.322-.275h.271c.708,0,1.375,0,1.72.4a1.309,1.309,0,0,1,.19,1.093m-.452-3.671h-3.919a.545.545,0,0,0-.538.46l-1.584,10.049a.327.327,0,0,0,.323.377h2.011a.381.381,0,0,0,.376-.321l.45-2.85a.545.545,0,0,1,.538-.46h1.24c2.582,0,4.072-1.249,4.461-3.725a3.017,3.017,0,0,0-.5-2.529,3.636,3.636,0,0,0-2.857-1" transform="translate(-1613.925 -263.786)" fill="#009cde"/>
  <path id="路径_7541" data-name="路径 7541" d="M789.229,272.3c-.214,1.407-1.289,1.407-2.328,1.407h-.591l.415-2.627a.326.326,0,0,1,.322-.275h.271c.707,0,1.375,0,1.72.4a1.308,1.308,0,0,1,.191,1.093m-.452-3.671h-3.919a.545.545,0,0,0-.538.46l-1.584,10.049a.326.326,0,0,0,.271.373.33.33,0,0,0,.051,0h1.872a.545.545,0,0,0,.538-.46l.428-2.711a.544.544,0,0,1,.538-.46h1.24c2.582,0,4.072-1.249,4.461-3.726a3.018,3.018,0,0,0-.5-2.529,3.636,3.636,0,0,0-2.857-1m9.1,7.279a2.093,2.093,0,0,1-2.118,1.792,1.454,1.454,0,0,1-1.554-1.825,2.1,2.1,0,0,1,2.1-1.806,1.582,1.582,0,0,1,1.251.511,1.616,1.616,0,0,1,.318,1.327m2.616-3.653h-1.877a.327.327,0,0,0-.323.276l-.082.525-.131-.19a2.672,2.672,0,0,0-2.217-.787,4.316,4.316,0,0,0-4.189,3.775,3.543,3.543,0,0,0,.7,2.884,2.937,2.937,0,0,0,2.364.954,3.594,3.594,0,0,0,2.6-1.073l-.084.522a.327.327,0,0,0,.323.377h1.69a.545.545,0,0,0,.538-.46l1.015-6.424a.327.327,0,0,0-.272-.374.331.331,0,0,0-.051,0" transform="translate(-761.094 -263.786)" fill="#003087"/>
  <path id="路径_7542" data-name="路径 7542" d="M1949.723,381.138a2.093,2.093,0,0,1-2.118,1.792,1.454,1.454,0,0,1-1.555-1.825,2.1,2.1,0,0,1,2.1-1.806,1.581,1.581,0,0,1,1.251.511,1.615,1.615,0,0,1,.318,1.327m2.616-3.654h-1.877a.327.327,0,0,0-.323.276l-.082.525-.131-.19a2.671,2.671,0,0,0-2.217-.787,4.316,4.316,0,0,0-4.189,3.775,3.543,3.543,0,0,0,.7,2.884,2.936,2.936,0,0,0,2.363.954,3.594,3.594,0,0,0,2.6-1.073l-.084.522a.325.325,0,0,0,.269.373.329.329,0,0,0,.053,0h1.69a.546.546,0,0,0,.539-.46l1.015-6.424a.327.327,0,0,0-.273-.374.318.318,0,0,0-.051,0" transform="translate(-1884.987 -369.018)" fill="#009cde"/>
  <path id="路径_7543" data-name="路径 7543" d="M1390.485,382.866H1388.6a.543.543,0,0,0-.45.239l-2.6,3.832-1.1-3.683a.546.546,0,0,0-.522-.389h-1.854a.327.327,0,0,0-.327.327.323.323,0,0,0,.018.105l2.077,6.1-1.953,2.757a.327.327,0,0,0,.267.515h1.885a.546.546,0,0,0,.447-.234l6.273-9.054a.326.326,0,0,0-.268-.513" transform="translate(-1341.091 -374.398)" fill="#003087"/>
  <path id="路径_7544" data-name="路径 7544" d="M2243.594,268.919l-1.609,10.233a.327.327,0,0,0,.273.374.32.32,0,0,0,.05,0h1.617a.545.545,0,0,0,.538-.46l1.586-10.05a.327.327,0,0,0-.323-.378h-1.81a.326.326,0,0,0-.323.276" transform="translate(-2174.029 -263.801)" fill="#009cde"/>
  <path id="路径_7545" data-name="路径 7545" d="M114.2,117.476c-.846-.964-2.375-1.378-4.331-1.378H104.19a.813.813,0,0,0-.8.686l-2.363,14.994a.487.487,0,0,0,.482.563h3.5l.88-5.583-.027.175a.811.811,0,0,1,.8-.686h1.666c3.272,0,5.834-1.329,6.582-5.174q.033-.171.058-.333a3.63,3.63,0,0,0-.77-3.264" transform="translate(-101.017 -116.098)" fill="#003087"/>
  <path id="路径_7546" data-name="路径 7546" d="M106.818,120.774a.712.712,0,0,1,.7-.6h4.451a9.356,9.356,0,0,1,1.468.106,6.169,6.169,0,0,1,.728.163,4.02,4.02,0,0,1,.784.312,3.629,3.629,0,0,0-.77-3.264c-.846-.964-2.375-1.377-4.331-1.377h-5.678a.813.813,0,0,0-.8.686l-2.364,14.992a.487.487,0,0,0,.481.563h3.505l.88-5.584Z" transform="translate(-100.999 -116.113)" fill="#003087"/>
  <path id="路径_7547" data-name="路径 7547" d="M229.194,262.338q-.026.167-.058.333c-.748,3.844-3.31,5.174-6.582,5.174h-1.666a.81.81,0,0,0-.8.686l-.853,5.408-.243,1.534a.426.426,0,0,0,.421.493h2.955a.711.711,0,0,0,.7-.6l.029-.151.557-3.529.035-.2a.711.711,0,0,1,.7-.6h.442c2.862,0,5.1-1.162,5.758-4.526a3.859,3.859,0,0,0-.591-3.4,2.821,2.821,0,0,0-.809-.624" transform="translate(-215.243 -257.697)" fill="#009cde"/>
  <path id="路径_7548" data-name="路径 7548" d="M262,244.3q-.171-.051-.353-.091c-.121-.027-.247-.051-.375-.071a9.177,9.177,0,0,0-1.469-.108h-4.45a.709.709,0,0,0-.7.6l-.946,6-.027.174a.81.81,0,0,1,.8-.686h1.666c3.272,0,5.834-1.329,6.582-5.174.022-.114.041-.224.058-.333a4.043,4.043,0,0,0-.615-.26c-.055-.018-.111-.035-.168-.053" transform="translate(-248.827 -239.968)" fill="#012169"/>
</svg>
