<?xml version="1.0" encoding="UTF-8"?>
<svg width="60px" height="60px" viewBox="0 0 60 60" version="1.1" xmlns="http://www.w3.org/2000/svg" xmlns:xlink="http://www.w3.org/1999/xlink">
    <!-- Generator: Sketch 63.1 (92452) - https://sketch.com -->
    <title>t</title>
    <desc>Created with Sketch.</desc>
    <g id="t" stroke="none" stroke-width="1" fill="none" fill-rule="evenodd">
        <g id="twitter" transform="translate(5.000000, 10.000000)" fill="#1DA1F3" fill-rule="nonzero">
            <path d="M49.9392,4.75341762 C48.0615785,5.56399487 46.0758027,6.10291277 44.0429696,6.35359026 C46.1860761,5.09556546 47.788452,3.10353433 48.5465665,0.754838069 C46.5395857,1.93253996 44.3437839,2.76187233 42.0541617,3.20695447 C39.1819013,0.171237168 34.726212,-0.819065743 30.8177223,0.709590342 C26.9092325,2.23824643 24.3421255,5.97524718 24.3439444,10.1336277 C24.3357099,10.9100923 24.4151303,11.6850387 24.5807296,12.4440622 C16.3424147,12.0442519 8.66665734,8.18981443 3.47690414,1.84662253 C0.742108783,6.47264795 2.12104665,12.4057739 6.62343219,15.3851202 C5.00288992,15.3423396 3.4165197,14.9145221 1.99816698,14.1377634 L1.99816698,14.2488865 C2.00375363,19.0708028 5.42887743,23.226861 10.2014146,24.2027382 C9.32557169,24.4310757 8.42293363,24.543181 7.51722586,24.5361075 C6.86644567,24.5478434 6.21628428,24.4900958 5.57802118,24.3638667 C6.93404787,28.4838411 10.7670929,31.311013 15.144889,31.4201835 C11.5212229,34.2258774 7.05149324,35.7485255 2.45021132,35.7447242 C1.63121449,35.7486956 0.812801613,35.7007528 0,35.6011902 C4.6817104,38.5859384 10.1370546,40.1648603 15.7064348,40.1472 C34.5462949,40.1472 44.84598,24.7055702 44.84598,11.3207928 C44.84598,10.8725963 44.8300695,10.4410683 44.8085436,10.0113923 C46.8275272,8.58183807 48.5661746,6.80004585 49.9392,4.75341762 Z" id="路径_13"></path>
        </g>
    </g>
</svg>