<?xml version="1.0" encoding="UTF-8"?>
<svg width="60px" height="60px" viewBox="0 0 60 60" version="1.1" xmlns="http://www.w3.org/2000/svg" xmlns:xlink="http://www.w3.org/1999/xlink">
    <!-- Generator: Sketch 63.1 (92452) - https://sketch.com -->
    <title>mastercard</title>
    <desc>Created with Sketch.</desc>
    <g id="mastercard" stroke="none" stroke-width="1" fill="none" fill-rule="evenodd">
        <g transform="translate(9.000000, 14.000000)" fill-rule="nonzero">
            <path d="M7.68124,32.66144 L7.68124,30.48682 C7.70724779,30.1167913 7.57266886,29.7534806 7.31187883,29.4896887 C7.0510888,29.2258968 6.68934208,29.0871687 6.31904,29.10894 C5.83107597,29.0774412 5.36452546,29.3135315 5.1009,29.72536 C4.86062042,29.3257053 4.42118869,29.0892617 3.95528,29.10894 C3.54995409,29.0888566 3.16420578,29.284526 2.94098,29.62344 L2.94098,29.19616 L2.18736,29.19616 L2.18736,32.66144 L2.94882,32.66144 L2.94882,30.74064 C2.91533096,30.5006106 2.99101753,30.2581902 3.15512571,30.079853 C3.31923388,29.9015158 3.55453972,29.8059791 3.79652,29.81944 C4.29632,29.81944 4.55014,30.14578 4.55014,30.7328 L4.55014,32.66144 L5.31062,32.66144 L5.31062,30.74064 C5.27963937,30.5009481 5.35633085,30.259835 5.52008864,30.082084 C5.68384643,29.9043331 5.917877,29.8081728 6.1593,29.81944 C6.6738,29.81944 6.91978,30.14578 6.91978,30.7328 L6.91978,32.66144 L7.68124,32.66144 Z M18.94634,29.19616 L17.7135,29.19616 L17.7135,28.1456 L16.95302,28.1456 L16.95302,29.19616 L16.24938,29.19616 L16.24938,29.88216 L16.95302,29.88216 L16.95302,31.46192 C16.95302,32.2665 17.26466,32.744751 18.15548,32.744751 C18.4884581,32.7459145 18.8149689,32.6528199 19.09726,32.47622 L18.88068,31.8304 C18.6783976,31.9511726 18.4487646,32.0186126 18.2133,32.0264 C17.836,32.0264 17.7135,31.79414 17.7135,31.44722 L17.7135,29.87922 L18.94634,29.87922 L18.94634,29.19616 Z M25.37612,29.10894 C25.001642,29.0979826 24.651176,29.2927695 24.46276,29.61658 L24.46276,29.19518 L23.716,29.19518 L23.716,32.66046 L24.46864,32.66046 L24.46864,30.7181 C24.46864,30.14578 24.7156,29.8263 25.20854,29.8263 C25.3698513,29.8243517 25.5299856,29.8539815 25.67992,29.91352 L25.91218,29.20302 C25.7402845,29.1404083 25.5590495,29.1072758 25.37612,29.10502 M15.65452,29.46762 C15.2280475,29.2135878 14.7374562,29.0877079 14.24136,29.10502 C13.35936,29.10502 12.7988,29.52642 12.7988,30.21438 C12.7988,30.77984 13.21922,31.12774 13.9944,31.23652 L14.35014,31.28748 C14.76272,31.3453 14.95872,31.4531 14.95872,31.6491 C14.95872,31.91762 14.68334,32.06952 14.16884,32.06952 C13.7545641,32.0814668 13.3483054,31.9537559 13.01538,31.70692 L12.66062,32.29492 C13.0996796,32.6016476 13.62561,32.7593236 14.161,32.74474 C15.16158,32.74474 15.74174,32.27434 15.74174,31.6148 C15.74174,31.00622 15.28408,30.68674 14.53046,30.57796 L14.1757,30.52602 C13.85034,30.4829 13.5877,30.41822 13.5877,30.18596 C13.5877,29.93214 13.83368,29.77926 14.24724,29.77926 C14.6256976,29.7842098 14.9966712,29.8853844 15.32524,30.07326 L15.65452,29.46762 Z M35.84938,29.10502 C35.4751963,29.094211 35.1250915,29.2890061 34.937,29.61266 L34.937,29.19126 L34.19024,29.19126 L34.19024,32.65654 L34.94386,32.65654 L34.94386,30.71418 C34.94386,30.14186 35.19082,29.82238 35.68376,29.82238 C35.845067,29.8204821 36.0051916,29.8501102 36.15514,29.9096 L36.38642,29.1991 C36.2142495,29.1362515 36.0326519,29.1031132 35.84938,29.1011 M26.1366,30.92096 C26.1161597,31.4146126 26.305312,31.8939098 26.6573725,32.2405568 C27.0094329,32.5872038 27.4916034,32.7689068 27.98488,32.74082 C28.4375093,32.7637984 28.882304,32.6162329 29.23144,32.32726 L28.86982,31.71868 C28.6093769,31.9172907 28.2918101,32.0265831 27.9643,32.03032 C27.377196,31.9954049 26.9189537,31.5091013 26.9189537,30.92096 C26.9189537,30.3328187 27.377196,29.8465151 27.9643,29.8116 C28.2919218,29.8156189 28.6094997,29.9252589 28.86982,30.12422 L29.23144,29.51564 C28.8821163,29.227006 28.4374572,29.0794855 27.98488,29.10208 C27.4916034,29.0739932 27.0094329,29.2556962 26.6573725,29.6023432 C26.305312,29.9489902 26.1161597,30.4282874 26.1366,30.92194 M33.1926,30.92194 L33.1926,29.1893 L32.43898,29.1893 L32.43898,29.6107 C32.1783473,29.2740983 31.7706216,29.0848493 31.3453,29.10306 C30.377147,29.1533206 29.6179306,29.9529733 29.6179306,30.92243 C29.6179306,31.8918867 30.377147,32.6915394 31.3453,32.7418 C31.7703821,32.7599109 32.1779299,32.5711096 32.43898,32.23514 L32.43898,32.65556 L33.1926,32.65556 L33.1926,30.92194 Z M30.38686,30.92194 C30.4194094,30.3514475 30.9023521,29.9118166 31.4733849,29.9328582 C32.0444176,29.9538998 32.4936953,30.4278815 32.48417,30.9992224 C32.4746447,31.5705633 32.0098168,32.0293051 31.4384,32.0313 C31.1481066,32.0352361 30.8693874,31.9176269 30.6696645,31.7069221 C30.4699416,31.4962172 30.3674057,31.2116076 30.38686,30.92194 M21.28952,29.10208 C20.311823,29.1528088 19.5492415,29.9675498 19.5632147,30.9464623 C19.5771878,31.9253747 20.3627134,32.7180178 21.34146,32.74082 C21.8589116,32.7574061 22.3643718,32.5829892 22.76148,32.25082 L22.39202,31.6932 C22.1054449,31.9225237 21.7506002,32.0497712 21.3836,32.05482 C20.8658056,32.09852 20.4068309,31.7232713 20.34676,31.20712 L22.92024,31.20712 C22.92808,31.10912 22.93494,31.01798 22.93494,30.91312 C22.9780173,30.4488371 22.8245563,29.9877493 22.5118419,29.6418823 C22.1991275,29.2960153 21.7557818,29.0970258 21.28952,29.09326 M21.27482,29.7675 C21.5033747,29.7617136 21.7248354,29.8471263 21.8903149,30.0048834 C22.0557943,30.1626405 22.1516853,30.3797697 22.15682,30.60834 L20.3595,30.60834 C20.3869136,30.1246272 20.7955024,29.7512841 21.27972,29.7675 M40.19372,30.91312 L40.19372,27.78888 L39.4401,27.78888 L39.4401,29.60188 C39.1793619,29.2654105 38.7717087,29.0761951 38.34642,29.09424 C37.378267,29.1445006 36.6190506,29.9441533 36.6190506,30.91361 C36.6190506,31.8830667 37.378267,32.6827194 38.34642,32.73298 C38.7715021,32.7510909 39.1790499,32.5622896 39.4401,32.22632 L39.4401,32.64674 L40.19372,32.64674 L40.19372,30.91312 Z M37.38798,30.91312 C37.420535,30.3425002 37.903676,29.9028243 38.4748296,29.9240473 C39.0459832,29.9452703 39.4951618,30.4195895 39.4852791,30.9910518 C39.4753964,31.5625141 39.0100859,32.0210184 38.43854,32.02248 C38.1484158,32.02614 37.8699584,31.9084101 37.6704525,31.6977379 C37.4709466,31.4870656 37.3685408,31.2026153 37.38798,30.91312 M11.93052,30.91312 L11.93052,29.18048 L11.1769,29.18048 L11.1769,29.60188 C10.9157481,29.2653853 10.5078028,29.0762039 10.08224,29.09424 C9.11408703,29.1445006 8.3548706,29.9441533 8.3548706,30.91361 C8.3548706,31.8830667 9.11408703,32.6827194 10.08224,32.73298 C10.5075638,32.7509178 10.9153321,32.5621835 11.1769,32.22632 L11.1769,32.64674 L11.93052,32.64674 L11.93052,30.91312 Z M9.12576,30.91312 C9.15883476,30.3433349 9.64153804,29.9046408 10.2118816,29.9260227 C10.7822253,29.9474046 11.230727,30.421009 11.221047,30.9916712 C11.211367,31.5623333 10.7470607,32.020454 10.17632,32.02248 C9.88610371,32.0264379 9.60746651,31.9087999 9.40789457,31.6980579 C9.20832262,31.4873158 9.10601837,31.2026911 9.12576,30.91312 M41.45008,32.144 C41.4968913,32.1436732 41.543266,32.1530148 41.5863,32.17144 C41.6275254,32.1887237 41.6651017,32.2136637 41.69704,32.24494 C41.728669,32.2766249 41.7542422,32.3138224 41.7725,32.3547 C41.7905845,32.397152 41.7999174,32.4428165 41.79994,32.48896 C41.7999754,32.5347928 41.7906374,32.5801487 41.7725,32.62224 C41.7544405,32.6632285 41.7288435,32.7004605 41.69704,32.732 C41.6649263,32.7633092 41.6274074,32.7885431 41.5863,32.80648 C41.5431703,32.8244888 41.4968152,32.833493 41.45008,32.83294 C41.402372,32.8337289 41.3550092,32.8247233 41.31092,32.80648 C41.2692555,32.7890341 41.2313287,32.7637496 41.1992,32.732 C41.1671742,32.7006469 41.1415459,32.6633693 41.12374,32.62224 C41.1056026,32.5801487 41.0962646,32.5347928 41.0963,32.48896 C41.0963226,32.4428165 41.1056555,32.397152 41.12374,32.3547 C41.1417378,32.3136771 41.1673423,32.2764342 41.1992,32.24494 C41.2311582,32.2132255 41.2691455,32.1882339 41.31092,32.17144 C41.3549219,32.1528071 41.4022986,32.1434652 41.45008,32.144 M41.45008,32.7565 C41.4858537,32.7568618 41.521285,32.7495081 41.55396,32.73494 C41.5854749,32.7216407 41.6141004,32.7023351 41.63824,32.6781 C41.7427809,32.5732921 41.7427809,32.4036479 41.63824,32.29884 C41.6139713,32.2745118 41.5853928,32.2549056 41.55396,32.24102 C41.5210818,32.2272041 41.4857423,32.2202028 41.45008,32.22044 C41.413791,32.2202844 41.3778266,32.2272775 41.34424,32.24102 C41.244779,32.2825272 41.1804315,32.3802114 41.18156,32.48798 C41.1803926,32.5592533 41.2083539,32.6279179 41.25898,32.6781 C41.2832922,32.7025829 41.3122896,32.7219144 41.34424,32.73494 C41.3776366,32.7494095 41.4136845,32.7567526 41.45008,32.7565 M41.47066,32.32726 C41.5055184,32.3247847 41.5401555,32.334483 41.56866,32.3547 C41.5903274,32.3737264 41.6025158,32.4013296 41.60198,32.43016 C41.6025966,32.4547599 41.5930211,32.4785213 41.57552,32.49582 C41.554342,32.5140326 41.5279084,32.525018 41.50006,32.52718 L41.60492,32.64772 L41.51574,32.64772 L41.41774,32.52816 L41.38638,32.52816 L41.38638,32.64772 L41.31778,32.64772 L41.31778,32.33804 L41.47066,32.32726 Z M41.39128,32.38704 L41.39128,32.4723 L41.46968,32.4723 C41.484687,32.47313 41.4996259,32.4697348 41.5128,32.4625 C41.5235366,32.4549354 41.5294947,32.4422746 41.52848,32.42918 C41.5295476,32.4163461 41.5235374,32.4039502 41.5128,32.39684 C41.4996259,32.3896052 41.484687,32.38621 41.46968,32.38704 L41.39128,32.38704 Z" id="路径_7730" fill="#050605"></path>
            <rect id="矩形_196" fill="#ED4C14" x="15.40364" y="2.79006" width="11.41896" height="20.51924"></rect>
            <path d="M16.13374,13.04968 C16.1302755,9.04557448 17.9682578,5.26227983 21.11802,2.79006 C15.7677103,-1.41545355 8.08383282,-0.803384553 3.46675836,4.19609361 C-1.1503161,9.19557177 -1.1503161,16.9037882 3.46675836,21.9032664 C8.08383282,26.9027446 15.7677103,27.5148135 21.11802,23.3093 C17.9682578,20.8370802 16.1302755,17.0537855 16.13374,13.04968" id="路径_7731" fill="#DB0019"></path>
            <path d="M42.22722,13.0487 C42.2277071,18.0448699 39.3753562,22.6027109 34.8816518,24.7863625 C30.3879474,26.9700142 25.041882,26.3960769 21.1141,23.30832 C24.2606382,20.8335821 26.0975759,17.0518276 26.0975759,13.0487 C26.0975759,9.04557242 24.2606382,5.26381789 21.1141,2.78908 C25.042082,-0.297851939 30.3877128,-0.871324761 34.8811001,1.31217283 C39.3744875,3.49567042 42.2269349,8.0528826 42.22722,13.0487 M40.98262,21.13566 L40.98262,20.72014 L41.15216,20.72014 L41.15216,20.63488 L40.71998,20.63488 L40.71998,20.72014 L40.88952,20.72014 L40.88952,21.14056 L40.98262,21.13566 Z M41.82052,21.13566 L41.82052,20.62998 L41.68724,20.62998 L41.53534,20.97788 L41.38344,20.62998 L41.25114,20.62998 L41.25114,21.13566 L41.34424,21.13566 L41.34424,20.75346 L41.48732,21.08372 L41.58532,21.08372 L41.7284,20.75346 L41.7284,21.13664 L41.82052,21.13566 Z" id="路径_7732" fill="#FA8A06"></path>
        </g>
    </g>
</svg>