<?xml version="1.0" encoding="UTF-8"?>
<svg width="60px" height="60px" viewBox="0 0 60 60" version="1.1" xmlns="http://www.w3.org/2000/svg" xmlns:xlink="http://www.w3.org/1999/xlink">
    <!-- Generator: Sketch 63.1 (92452) - https://sketch.com -->
    <title>visa</title>
    <desc>Created with Sketch.</desc>
    <g id="visa" stroke="none" stroke-width="1" fill="none" fill-rule="evenodd">
        <g id="组-1326" transform="translate(4.000000, 21.000000)" fill-rule="nonzero">
            <g id="组_1325" fill="#0055A5">
                <polygon id="路径_7612" points="22.83028 16.801 18.53092 16.801 21.21696 0.29468 25.51632 0.29468"></polygon>
                <path d="M14.91738,0.29574 L10.82048,11.65152 L10.33606,9.20716 L10.33606,9.20716 L8.88916,1.78716 C8.7090567,0.831280601 7.8157698,0.180941725 6.85078,0.30316 L0.07738,0.30316 L-0.00212,0.58194 C1.58337902,0.978773227 3.09898154,1.61539778 4.49228,2.4698 L8.2256,16.80948 L12.70304,16.80948 L19.54004,0.30316 L14.91738,0.29574 Z" id="路径_7613"></path>
                <path d="M48.71866,16.80206 L52.6608,16.80206 L49.22004,0.29574 L45.7708,0.29574 C44.9119731,0.228946782 44.1089421,0.726551478 43.78648,1.52534 L37.37666,16.80206 L41.85516,16.80206 L42.75192,14.35028 L48.21516,14.35028 L48.71866,16.80206 Z M43.99,10.96252 L46.24886,4.7859 L47.52086,10.96252 L43.99,10.96252 Z" id="路径_7614"></path>
                <path d="M37.71268,4.26438 L38.32536,0.71974 C37.0835658,0.275877542 35.778926,0.0329125243 34.4606,-7.531753e-15 C32.32788,-7.531753e-15 27.26426,0.9328 27.26426,5.4643 C27.26426,9.72868 33.20768,9.78168 33.20768,12.0204 C33.20768,14.25912 27.87694,13.8595 26.11734,12.4444 L25.48134,16.1544 C27.0163207,16.7973182 28.6679469,17.1149386 30.3319,17.0872 C33.26386,17.0872 37.6883,15.56822 37.6883,11.43634 C37.6883,7.1444 31.69082,6.74478 31.69082,4.88024 C31.69082,3.0157 35.87358,3.25102 37.71268,4.26438 Z" id="路径_7615"></path>
            </g>
            <path d="M10.33606,9.20398 L8.88916,1.78398 C8.7090567,0.828100601 7.8157698,0.177761725 6.85078,0.29998 L0.07738,0.29998 L-0.00212,0.57876 C2.33022886,1.17296723 4.50614803,2.26544717 6.3759,3.78102 C8.15245255,5.20650616 9.51899483,7.07782049 10.33606,9.20398 L10.33606,9.20398 Z" id="路径_7616" fill="#FC9220"></path>
        </g>
    </g>
</svg>