<?xml version="1.0" encoding="UTF-8"?>
<svg width="60px" height="60px" viewBox="0 0 60 60" version="1.1" xmlns="http://www.w3.org/2000/svg" xmlns:xlink="http://www.w3.org/1999/xlink">
    <!-- Generator: Sketch 63.1 (92452) - https://sketch.com -->
    <title>领英</title>
    <desc>Created with Sketch.</desc>
    <g id="领英" stroke="none" stroke-width="1" fill="none" fill-rule="evenodd">
        <g id="lingying" transform="translate(9.000000, 9.000000)" fill-rule="nonzero">
            <path d="M38.4258,0 L3.4923,0 C1.5645,0 0,1.5645 0,3.4923 L0,38.5077 C0,40.4355 1.5645,42 3.4923,42 L38.4258,42 C40.3536,42 41.9181,40.4355 41.9181,38.5077 L41.9181,3.4923 C41.916,1.5645 40.3536,0 38.4258,0 Z" id="形状" fill="#008DC2"></path>
            <path d="M35.7315,34.6332 L29.5092,34.6332 L29.3622,23.5788 C29.3622,23.5788 29.5092,20.6304 26.3067,20.6682 C23.1063,20.7039 22.6443,23.5788 22.6443,23.5788 L22.6443,34.6332 L16.3779,34.6332 L16.3779,16.023 L22.3839,16.023 L22.3839,18.5892 C22.3839,18.5892 22.6317,17.7534 24.0156,16.7706 C25.3974,15.7878 27.6906,15.5694 28.6734,15.6051 C29.6562,15.6429 31.0023,15.4707 33.2577,17.0247 C35.6706,18.6837 35.7315,23.0286 35.7315,23.0286 L35.7315,34.6311 L35.7315,34.6332 Z" id="路径" fill="#FFFFFF"></path>
            <path d="M12.411,16.023 L12.411,34.629 L12.4089,34.6332 L6.2076,34.6332 L6.2076,16.023 L12.411,16.023 Z M9.3093,6.72629984 C11.2542812,6.72629984 12.8309999,8.30301882 12.8309999,10.248 C12.8309999,12.1929812 11.2542812,13.7697 9.3093,13.7697 L9.3072,13.7697 C8.04901776,13.7693249 6.88660955,13.097746 6.25784329,12.0079407 C5.62907704,10.9181353 5.62947729,9.57567087 6.25889329,8.48624066 C6.88830929,7.39681044 8.05111776,6.72592485 9.3093,6.72629984 Z" id="路径-2" fill="#FFFFFF"></path>
        </g>
    </g>
</svg>