<?xml version="1.0" encoding="UTF-8"?>
<svg width="44px" height="44px" viewBox="0 0 44 44" version="1.1" xmlns="http://www.w3.org/2000/svg" xmlns:xlink="http://www.w3.org/1999/xlink">
    <title>twitter</title>
    <g id="twitter" stroke="none" stroke-width="1" fill="none" fill-rule="evenodd">
        <g transform="translate(0.000000, 3.000000)" fill="#1DA1F3" fill-rule="nonzero" id="路径_13">
            <path d="M44,4.26358643 C42.344719,4.99000504 40.5941777,5.47259075 38.8022782,5.69648397 C40.690735,4.56841633 42.1027202,2.78203312 42.7707289,0.67577021 C41.002454,1.7318222 39.067792,2.47544994 37.050468,2.87447187 C34.5198065,0.153448671 30.5949821,-0.734117678 27.151943,0.636002856 C23.7089038,2.00612339 21.44687,5.35568364 21.4470256,9.08369453 C21.4399479,9.77927643 21.5099472,10.4734827 21.655725,11.1534354 C14.3988458,10.7958915 7.63686679,7.34219354 3.06329614,1.65730502 C0.653493597,5.80564725 1.86848204,11.1262404 5.83567797,13.7979274 C4.4078901,13.7594705 3.01021595,13.3758702 1.76050594,12.6794713 L1.76050594,12.7789781 C1.76558764,17.1024606 4.7829715,20.8289319 8.98751325,21.7043376 C8.21575339,21.9092403 7.42036306,22.0098945 6.62225336,22.003654 C6.04918764,22.0138444 5.4767006,21.9618002 4.9147128,21.8484234 C6.10926151,25.5428114 9.48623693,28.0780981 13.3433227,28.1762582 C10.1501932,30.6904704 6.21230855,32.0543166 2.15893207,32.0498578 C1.4373423,32.054135 0.716221554,32.0118575 0,31.9232852 C4.12360383,34.5991794 8.9286091,36.0150903 13.8342406,36 C30.4353294,36 39.5082197,22.1533122 39.5082197,10.1519993 C39.5082197,9.75397216 39.4947807,9.36310955 39.4750175,8.97781933 C41.2554464,7.69653369 42.7888669,6.09898024 44,4.26358643 Z"></path>
        </g>
    </g>
</svg>