<svg xmlns="http://www.w3.org/2000/svg" width="153.221" height="119.146" viewBox="0 0 153.221 119.146">
  <g id="cloud_software_service" data-name="cloud software service" transform="translate(768.229 -623.114)">
    <path id="路径_4463" data-name="路径 4463" d="M-735.585,648.348a43.247,43.247,0,0,1,20.228,4.742c3.1-6.618,12.348-11.421,23.28-11.421,9.927,0,18.462,3.962,22.267,9.646a68.183,68.183,0,0,1,8.79-.569c20.5,0,37.846,9,43.671,21.405a21.389,21.389,0,0,0,2.09-9.152c0-16.877-20.488-30.557-45.761-30.557a68.194,68.194,0,0,0-8.79.569c-3.805-5.684-12.34-9.646-22.267-9.646-10.932,0-20.183,4.8-23.28,11.421a43.247,43.247,0,0,0-20.228-4.742c-17.891,0-32.394,9.685-32.394,21.631a15.84,15.84,0,0,0,3.042,9.152C-759.774,653.456-748.576,648.348-735.585,648.348Z" transform="translate(0 0)" fill="#c6ced3" stroke="#fff" stroke-miterlimit="10" stroke-width="0.5" opacity="0.7"/>
    <path id="路径_4464" data-name="路径 4464" d="M-628.884,712.747c8.41-5.541,13.626-13.237,13.626-21.749,0-16.877-20.488-30.557-45.761-30.557a68.172,68.172,0,0,0-8.79.569c-3.805-5.684-12.34-9.646-22.267-9.646-10.932,0-20.183,4.8-23.28,11.421a43.246,43.246,0,0,0-20.228-4.742c-17.891,0-32.394,9.685-32.394,21.631,0,7.567,5.822,14.222,14.634,18.088l87.273,50.059.135-.078a43.611,43.611,0,0,0,18.58,3.961c17.728,0,32.1-9.6,32.1-21.435C-615.258,723.027-620.645,716.627-628.884,712.747Z" transform="translate(0 -9.696)" fill="#bec4c6" stroke="#fff" stroke-miterlimit="10" stroke-width="0.5" opacity="0.7"/>
    <g id="组_258" data-name="组 258" transform="translate(-700.709 641.669)">
      <path id="路径_4465" data-name="路径 4465" d="M-659.669,661.641a1.594,1.594,0,0,0,1.025-1.043c-.007-.21-.206-.26-.341-.34-.691-.407-1.4-.792-2.088-1.2-.3-.178-.586-.388-.879-.583-.107-.492.19-.749.56-.963q3.495-2.012,6.988-4.028a2.16,2.16,0,0,1,2.3-.027c.878.5,1.754,1,2.621,1.52a.74.74,0,0,0,.618.088,11,11,0,0,1,1.175-.288c.343-.054.47-.195.451-.55-.029-.543,0-1.088,0-1.633,0-.771.15-.957.906-1.171a2.648,2.648,0,0,1,.741-.058q4.924,0,9.848,0a3.53,3.53,0,0,1,.558.024c.853.137,1.107.443,1.11,1.312,0,.56.014,1.12,0,1.68,0,.226.066.329.3.373a12.513,12.513,0,0,1,1.22.3.815.815,0,0,0,.7-.109q1.3-.777,2.626-1.513a2.139,2.139,0,0,1,2.18-.007c.382.208.754.435,1.13.654q2.962,1.724,5.924,3.447c.326.19.6.407.5.846a3.912,3.912,0,0,1-1.268.907c-.6.373-1.224.722-1.848,1.061-.272.147-.21.246-.091.494a1.39,1.39,0,0,0,1.609.815,15.538,15.538,0,0,1,1.628-.016,12.434,12.434,0,0,1,2.227.1c.564.141.823.4.824.861,0,2.019,0,4.039,0,6.059a2.152,2.152,0,0,1-1.659.569c-1.2-.037-2.4.006-3.6-.02a.682.682,0,0,0-.736.421c-.125.282-.532.458-.476.752s.484.342.739.507c.652.419,1.335.79,2.008,1.177.729.42.767.887.056,1.309-1.6.951-3.219,1.868-4.83,2.8-.564.327-1.148.626-1.686.99a2.968,2.968,0,0,1-3.633-.15c-.564-.383-1.17-.7-1.747-1.064a.874.874,0,0,0-.793-.083c-.469.159-1.106.085-1.39.437s-.063.959-.09,1.453c-.011.2,0,.4,0,.607,0,.643-.175.89-.805,1.06a4.382,4.382,0,0,1-1.146.16q-4.718-.006-9.435,0a3.266,3.266,0,0,1-1.094-.192.885.885,0,0,1-.7-.964c.034-.605-.005-1.214.013-1.821.01-.314-.109-.458-.418-.484a1.772,1.772,0,0,1-.635-.122,1.683,1.683,0,0,0-1.747.267c-.612.367-1.224.735-1.84,1.1a2.469,2.469,0,0,1-2.681-.033c-2.259-1.332-4.528-2.644-6.795-3.962-.62-.361-.643-.883-.033-1.241.843-.5,1.685-.995,2.549-1.452.387-.2.358-.371.16-.709a1.408,1.408,0,0,0-1.515-.765c-1.034.1-2.076-.033-3.12.078a1.741,1.741,0,0,1-1.579-.622q0-3.021,0-6.043a.764.764,0,0,1,.469-.737,2.184,2.184,0,0,1,.984-.23c.558,0,1.116-.005,1.674-.008C-661.185,661.637-660.427,661.642-659.669,661.641Zm15.792,7.536a11.343,11.343,0,0,0,7.508-.467c.173-.073.409-.093.454-.346.6-.007.936-.477,1.3-.819a2.638,2.638,0,0,0,.128-4.054,7.365,7.365,0,0,0-4.577-2.034,11.479,11.479,0,0,0-4.792.286,6.168,6.168,0,0,0-3.48,2.168,2.53,2.53,0,0,0,.122,3.289,3.022,3.022,0,0,0,1.609,1.2A3.708,3.708,0,0,0-643.876,669.176Z" transform="translate(665.075 -651.364)" fill="#c6ced3"/>
      <g id="组_257" data-name="组 257" transform="translate(0 7.011)">
        <path id="路径_4466" data-name="路径 4466" d="M-616.414,677.811a2.152,2.152,0,0,1-1.659.569c-1.2-.037-2.4.006-3.6-.02a.682.682,0,0,0-.736.421c-.125.282-.532.458-.476.752s.484.342.739.507c.652.419,1.335.79,2.008,1.177.729.42.767.887.056,1.309-1.6.951-3.219,1.868-4.83,2.8-.564.327-1.148.626-1.686.99a2.968,2.968,0,0,1-3.633-.15c-.564-.382-1.17-.7-1.747-1.064a.874.874,0,0,0-.793-.083c-.469.16-1.106.085-1.39.437s-.063.959-.09,1.453c-.011.2,0,.4,0,.607,0,.643-.175.89-.805,1.06a4.379,4.379,0,0,1-1.146.16q-4.718-.006-9.435,0a3.266,3.266,0,0,1-1.094-.192.885.885,0,0,1-.7-.964c.034-.605-.005-1.214.013-1.821.01-.314-.109-.458-.418-.484a1.774,1.774,0,0,1-.635-.122,1.683,1.683,0,0,0-1.747.267c-.612.367-1.224.735-1.84,1.1a2.469,2.469,0,0,1-2.681-.033c-2.259-1.332-4.528-2.644-6.795-3.962-.62-.361-.643-.883-.033-1.241.843-.5,1.685-.995,2.549-1.452.387-.2.358-.371.16-.709a1.408,1.408,0,0,0-1.515-.765c-1.034.1-2.076-.033-3.12.078a1.741,1.741,0,0,1-1.579-.622q0,2.825-.008,5.651c0,.462.313.655.675.788a4.548,4.548,0,0,0,1.806.106c.488-.022.605.137.587.6-.035.9.006,1.806-.009,2.709a.822.822,0,0,0,.453.8c2.382,1.381,4.756,2.778,7.147,4.145a2.143,2.143,0,0,0,2.227-.047q1.3-.739,2.582-1.5a.69.69,0,0,1,.654-.089,5.47,5.47,0,0,0,.675.178c.879.21.879.209.879,1.086q0,.607,0,1.215a.99.99,0,0,0,.945,1.156,3.221,3.221,0,0,0,.6.038q5.045,0,10.089,0a3.614,3.614,0,0,0,.559-.029.973.973,0,0,0,.962-1.129c0-.592.014-1.183,0-1.775-.005-.237.051-.375.3-.428.486-.1.973-.211,1.449-.352a.54.54,0,0,1,.471.122c.876.5,1.747,1.018,2.628,1.515a2.221,2.221,0,0,0,2.347-.038q3.473-2.013,6.956-4.008a1,1,0,0,0,.575-.975c-.026-.918-.022-1.836-.05-2.754-.01-.316.076-.448.416-.432a14.616,14.616,0,0,0,1.54-.008c.862-.052,1.185-.412,1.187-1.266Q-616.415,680.45-616.414,677.811Z" transform="translate(665.077 -667.533)" fill="#b6bdc1"/>
        <path id="路径_4467" data-name="路径 4467" d="M-597.1,662.089a3.912,3.912,0,0,1-1.268.907c-.6.373-1.224.722-1.848,1.061-.272.147-.21.246-.091.494a1.39,1.39,0,0,0,1.609.815,15.522,15.522,0,0,1,1.628-.016Q-597.084,663.72-597.1,662.089Z" transform="translate(642.684 -662.089)" fill="#b6bdc1"/>
        <path id="路径_4468" data-name="路径 4468" d="M-660.292,665.4c.759,0,1.517.007,2.276.005a1.594,1.594,0,0,0,1.025-1.043c-.007-.21-.206-.26-.341-.34-.691-.407-1.4-.792-2.088-1.2-.3-.178-.586-.388-.879-.583Q-660.3,663.823-660.292,665.4Z" transform="translate(663.422 -662.142)" fill="#b6bdc1"/>
        <path id="路径_4469" data-name="路径 4469" d="M-626.814,673.643c.6-.007.935-.477,1.3-.819a2.638,2.638,0,0,0,.128-4.054,7.365,7.365,0,0,0-4.577-2.034,11.479,11.479,0,0,0-4.792.286,6.168,6.168,0,0,0-3.48,2.168,2.53,2.53,0,0,0,.122,3.289,3.022,3.022,0,0,0,1.609,1.2A11.1,11.1,0,0,1-626.814,673.643Z" transform="translate(655.974 -663.655)" fill="#b6bdc1"/>
      </g>
    </g>
    <g id="组_260" data-name="组 260" transform="translate(-709.167 671.897)">
      <path id="路径_4470" data-name="路径 4470" d="M-669.713,713.379a2.448,2.448,0,0,0,1.573-1.6c-.01-.324-.316-.4-.523-.522-1.062-.626-2.144-1.216-3.206-1.84-.464-.273-.9-.595-1.349-.895-.163-.754.291-1.15.86-1.478q5.365-3.089,10.728-6.182a3.313,3.313,0,0,1,3.528-.041c1.347.767,2.692,1.54,4.024,2.332a1.134,1.134,0,0,0,.949.135,16.866,16.866,0,0,1,1.8-.441c.526-.084.722-.3.693-.844-.044-.833-.006-1.671-.006-2.506,0-1.185.23-1.47,1.39-1.8a4.073,4.073,0,0,1,1.137-.089q7.559-.006,15.118,0a5.514,5.514,0,0,1,.858.036c1.309.21,1.7.681,1.7,2.015,0,.86.022,1.719.007,2.579-.006.346.1.505.461.573a19.072,19.072,0,0,1,1.872.463,1.246,1.246,0,0,0,1.077-.167q2-1.191,4.031-2.321a3.286,3.286,0,0,1,3.347-.012c.586.319,1.156.669,1.734,1q4.546,2.647,9.093,5.292c.5.291.92.624.771,1.3a6.013,6.013,0,0,1-1.946,1.393c-.928.572-1.879,1.109-2.837,1.629-.416.226-.322.377-.139.758a2.133,2.133,0,0,0,2.47,1.252,23.605,23.605,0,0,1,2.5-.025,19.153,19.153,0,0,1,3.418.148c.867.216,1.264.622,1.266,1.322.008,3.1,0,6.2,0,9.3a3.306,3.306,0,0,1-2.546.873c-1.838-.057-3.68.009-5.52-.031a1.046,1.046,0,0,0-1.13.647c-.192.432-.817.7-.73,1.154s.742.525,1.135.777c1,.643,2.049,1.213,3.082,1.808,1.118.644,1.177,1.361.086,2.01-2.456,1.459-4.941,2.869-7.413,4.3-.866.5-1.762.96-2.588,1.52-1.933,1.31-3.752,1-5.576-.231-.866-.586-1.8-1.076-2.682-1.632a1.344,1.344,0,0,0-1.219-.127c-.719.245-1.7.13-2.133.67s-.1,1.472-.139,2.23c-.016.31,0,.621,0,.932,0,.987-.268,1.366-1.237,1.626a6.733,6.733,0,0,1-1.758.246q-7.242-.009-14.484,0a5.033,5.033,0,0,1-1.678-.3,1.357,1.357,0,0,1-1.07-1.479c.052-.929-.008-1.864.02-2.8.014-.482-.167-.7-.643-.743a2.716,2.716,0,0,1-.975-.187,2.583,2.583,0,0,0-2.682.411c-.939.564-1.878,1.128-2.825,1.68a3.789,3.789,0,0,1-4.115-.05c-3.467-2.045-6.951-4.059-10.431-6.082-.952-.554-.986-1.355-.05-1.906,1.293-.762,2.586-1.527,3.913-2.228.594-.314.55-.569.245-1.089a2.163,2.163,0,0,0-2.325-1.174c-1.587.154-3.188-.052-4.789.12a2.674,2.674,0,0,1-2.425-.955q0-4.638-.005-9.276a1.173,1.173,0,0,1,.719-1.131,3.362,3.362,0,0,1,1.511-.353c.856,0,1.713-.008,2.569-.012C-672.042,713.374-670.878,713.381-669.713,713.379Zm24.241,11.567a17.413,17.413,0,0,0,11.525-.716c.264-.112.627-.145.7-.532.916-.012,1.436-.732,1.989-1.258,1.936-1.84,2.149-4.224.2-6.222a11.308,11.308,0,0,0-7.026-3.124,17.625,17.625,0,0,0-7.356.439,9.468,9.468,0,0,0-5.343,3.329,3.885,3.885,0,0,0,.187,5.049,4.649,4.649,0,0,0,2.471,1.838A5.7,5.7,0,0,0-645.472,724.946Z" transform="translate(678.012 -697.605)" fill="#32c69b"/>
      <g id="组_259" data-name="组 259" transform="translate(0 10.762)">
        <path id="路径_4471" data-name="路径 4471" d="M-603.318,738.2a3.306,3.306,0,0,1-2.546.873c-1.838-.057-3.681.009-5.52-.031a1.046,1.046,0,0,0-1.13.647c-.192.432-.817.7-.73,1.154s.742.525,1.135.777c1,.643,2.049,1.213,3.082,1.808,1.118.644,1.177,1.361.086,2.01-2.455,1.459-4.941,2.869-7.413,4.3-.866.5-1.762.96-2.588,1.52-1.933,1.31-3.752,1-5.576-.231-.865-.586-1.8-1.076-2.682-1.632a1.344,1.344,0,0,0-1.219-.127c-.719.245-1.7.13-2.133.67s-.1,1.472-.139,2.23c-.016.31,0,.621,0,.932,0,.987-.268,1.366-1.237,1.626a6.728,6.728,0,0,1-1.759.246q-7.242-.009-14.484,0a5.033,5.033,0,0,1-1.678-.3,1.357,1.357,0,0,1-1.069-1.479c.052-.929-.008-1.864.02-2.8.014-.482-.167-.7-.642-.743a2.717,2.717,0,0,1-.975-.187,2.583,2.583,0,0,0-2.682.411c-.939.564-1.878,1.128-2.825,1.68a3.789,3.789,0,0,1-4.115-.05c-3.467-2.045-6.951-4.059-10.431-6.082-.952-.554-.986-1.355-.05-1.906,1.293-.762,2.586-1.527,3.913-2.228.594-.314.55-.569.245-1.089a2.163,2.163,0,0,0-2.325-1.174c-1.587.154-3.188-.052-4.789.12A2.674,2.674,0,0,1-678,738.2q-.005,4.336-.011,8.674c0,.709.48,1.005,1.036,1.21a6.966,6.966,0,0,0,2.771.163c.749-.033.93.21.9.926-.054,1.384.009,2.772-.014,4.158a1.262,1.262,0,0,0,.695,1.224c3.657,2.119,7.3,4.264,10.97,6.361a3.289,3.289,0,0,0,3.418-.073c1.328-.756,2.652-1.521,3.964-2.3a1.057,1.057,0,0,1,1-.136,8.417,8.417,0,0,0,1.037.273c1.348.322,1.348.321,1.348,1.667q0,.933,0,1.864a1.521,1.521,0,0,0,1.451,1.776,4.993,4.993,0,0,0,.928.058q7.743,0,15.486,0a5.612,5.612,0,0,0,.858-.045,1.5,1.5,0,0,0,1.477-1.733c0-.908.022-1.817,0-2.724-.008-.364.078-.575.465-.656.746-.157,1.493-.325,2.225-.54a.828.828,0,0,1,.722.186c1.345.775,2.682,1.564,4.034,2.326a3.41,3.41,0,0,0,3.6-.058q5.331-3.09,10.677-6.152a1.53,1.53,0,0,0,.883-1.5c-.04-1.409-.034-2.819-.078-4.227-.015-.485.118-.688.639-.664a22.3,22.3,0,0,0,2.365-.013c1.323-.08,1.819-.632,1.82-1.943Q-603.32,742.251-603.318,738.2Z" transform="translate(678.015 -722.424)" fill="#21887a"/>
        <path id="路径_4472" data-name="路径 4472" d="M-573.67,714.067a6.012,6.012,0,0,1-1.946,1.393c-.928.572-1.879,1.109-2.837,1.629-.416.226-.322.377-.139.758a2.133,2.133,0,0,0,2.47,1.252,23.572,23.572,0,0,1,2.5-.025Q-573.647,716.57-573.67,714.067Z" transform="translate(643.642 -714.067)" fill="#21887a"/>
        <path id="路径_4473" data-name="路径 4473" d="M-670.67,719.153c1.164,0,2.329.01,3.493.008a2.448,2.448,0,0,0,1.573-1.6c-.01-.324-.316-.4-.523-.522-1.062-.626-2.144-1.216-3.206-1.84-.464-.273-.9-.595-1.349-.895Q-670.676,716.729-670.67,719.153Z" transform="translate(675.476 -714.149)" fill="#21887a"/>
        <path id="路径_4474" data-name="路径 4474" d="M-619.282,731.8c.916-.012,1.436-.732,1.989-1.258,1.936-1.84,2.149-4.224.2-6.222a11.308,11.308,0,0,0-7.026-3.124,17.627,17.627,0,0,0-7.356.439,9.468,9.468,0,0,0-5.343,3.329,3.885,3.885,0,0,0,.187,5.049,4.645,4.645,0,0,0,2.471,1.837A17.03,17.03,0,0,1-619.282,731.8Z" transform="translate(664.043 -716.471)" fill="#21887a"/>
      </g>
    </g>
    <g id="组_262" data-name="组 262" transform="translate(-752.756 654.408)">
      <path id="路径_4475" data-name="路径 4475" d="M-735.363,692.968c.566-.294.665-.575.127-1.031a10.365,10.365,0,0,1-2.1-2.572,1.951,1.951,0,0,1-.335-.708c-.1-.84-.552-1.028-1.354-1-1.827.067-3.659.025-5.488.026-.008-.984.019-1.97-.037-2.951-.037-.628.21-.754.782-.743,1.7.034,3.406.016,5.109.008.249,0,.584.107.69-.236a18.1,18.1,0,0,1,1.722-3.11c.478-.4.977-.775,1.426-1.2.357-.341-.057-.426-.254-.544-1.178-.7-2.363-1.391-3.54-2.094a1.973,1.973,0,0,1-.331-.322c1.344-.8,2.693-1.6,4.03-2.411.328-.2.555-.02.8.124q1.76,1.021,3.516,2.049a1.045,1.045,0,0,0,.974.188,26.4,26.4,0,0,1,7.255-1.749c.455-.045.708-.224.679-.76-.045-.822.009-1.65-.012-2.475-.012-.452.16-.6.605-.592,1.73.017,3.461.018,5.191-.01.51-.008.639.187.622.657-.029.771.035,1.547-.016,2.315-.041.615.172.854.787.9a12.747,12.747,0,0,1,4.587.922,5.029,5.029,0,0,0,5.834-.771,2.266,2.266,0,0,1,3.227-.071c.9.724,2.068,1.052,2.924,1.862-1.479.593-2.753,1.563-4.162,2.287-.307.158-.3.42-.044.645.419.363.849.715,1.274,1.071a13.839,13.839,0,0,1,1.549,2.75.737.737,0,0,0,.862.595c1.728-.025,3.456.006,5.184-.02.511-.008.714.131.689.669-.048,1.007-.037,2.018-.052,3.027q-2.952,0-5.9-.012a.691.691,0,0,0-.79.476,9.136,9.136,0,0,1-2.625,3.722c-.7.589-.658.737.148,1.16.277.145.573.255.859.381.8.68,1.859.954,2.622,1.69-.1.522-.609.547-.949.76-.9.564-1.823,1.079-2.723,1.636a.983.983,0,0,1-1.169-.023c-1.167-.727-2.367-1.4-3.543-2.116a.7.7,0,0,0-.669-.12,30.077,30.077,0,0,1-7.524,1.838c-.472.065-.592.265-.538.666.079.59-.2,1.215.174,1.776-.332.439-.086.958-.2,1.428l-6.367-.007q-.007-.69-.014-1.381a11.285,11.285,0,0,1,.022-1.511c.112-.774-.267-1.052-.947-1.093a24.152,24.152,0,0,1-6.985-1.665.863.863,0,0,0-.816.115c-1.19.691-2.375,1.389-3.571,2.07a.936.936,0,0,1-1.039.077c-1.3-.8-2.617-1.585-3.927-2.375a14.985,14.985,0,0,1,2.729-1.588C-736.046,693.382-735.717,693.151-735.363,692.968Zm20.957-8.307a4.786,4.786,0,0,0-2.806-1.373,6.872,6.872,0,0,0-4.7.694c-1.107.673-1.786,1.565-1.005,2.9.044.075.171.1.26.151a2.623,2.623,0,0,0,1.863,1.2,6.874,6.874,0,0,0,5.517-.488c.328-.178.743-.325.735-.823A1.487,1.487,0,0,0-714.406,684.661Z" transform="translate(744.644 -670.852)" fill="#606060"/>
      <g id="组_261" data-name="组 261" transform="translate(0 5.637)">
        <path id="路径_4476" data-name="路径 4476" d="M-682.925,707.951c-.1.522-.609.547-.949.76-.9.564-1.823,1.079-2.724,1.636a.983.983,0,0,1-1.169-.023c-1.167-.727-2.367-1.4-3.543-2.115a.7.7,0,0,0-.669-.12,30.079,30.079,0,0,1-7.524,1.838c-.472.065-.592.265-.538.666.079.59-.2,1.215.175,1.776a25.544,25.544,0,0,0,7.421-1.682,1.381,1.381,0,0,1,1.387.132c1.1.688,2.251,1.3,3.362,1.982a.919.919,0,0,0,1.091-.013q1.7-1.033,3.449-1.987a.864.864,0,0,0,.548-.933,13.158,13.158,0,0,1-.007-1.354C-682.613,708.263-682.624,708.03-682.925,707.951Z" transform="translate(729.24 -689.335)" fill="#3c3e3f"/>
        <path id="路径_4477" data-name="路径 4477" d="M-719.059,712.449a11.3,11.3,0,0,1,.022-1.511c.112-.774-.267-1.052-.947-1.093a24.154,24.154,0,0,1-6.985-1.665.863.863,0,0,0-.816.115c-1.19.691-2.375,1.389-3.571,2.07a.936.936,0,0,1-1.039.077c-1.3-.8-2.617-1.585-3.927-2.375a6.156,6.156,0,0,0-.118,2.264c-.007.271.286.358.489.476,1.195.7,2.4,1.374,3.582,2.092a.815.815,0,0,0,.952-.053c1.192-.7,2.4-1.37,3.584-2.091a1.028,1.028,0,0,1,1.031-.088A27.819,27.819,0,0,0-719.059,712.449Z" transform="translate(741.852 -689.375)" fill="#3c3e3f"/>
        <path id="路径_4478" data-name="路径 4478" d="M-670.34,696.6q-2.953,0-5.9-.012a.691.691,0,0,0-.79.476,9.136,9.136,0,0,1-2.625,3.722c-.7.589-.658.737.148,1.16.277.145.573.255.859.381a8.954,8.954,0,0,0,1.6-2.65.779.779,0,0,1,.88-.588c1.73.025,3.46-.007,5.19.019.514.008.724-.133.679-.674C-670.354,697.826-670.331,697.212-670.34,696.6Z" transform="translate(722.345 -685.4)" fill="#3c3e3f"/>
        <path id="路径_4479" data-name="路径 4479" d="M-736.434,702.493c.34-.211.669-.442,1.023-.625.566-.294.665-.575.127-1.031a10.362,10.362,0,0,1-2.1-2.572,1.951,1.951,0,0,1-.335-.708c-.1-.84-.552-1.028-1.354-1-1.827.067-3.659.025-5.488.026-.038.794-.328,1.791.092,2.323s1.443.154,2.2.173q1.79.044,3.583,0a.7.7,0,0,1,.8.561,7.5,7.5,0,0,0,1.173,2.158C-736.555,702-736.309,702.176-736.434,702.493Z" transform="translate(744.693 -685.389)" fill="#3c3e3f"/>
        <path id="路径_4480" data-name="路径 4480" d="M-703.5,716.89l-6.367-.007c-.006.766-.324,1.73.12,2.239.428.49,1.406.133,2.141.152,1.143.029,2.29-.024,3.432.02.582.023.741-.188.7-.73S-703.5,717.448-703.5,716.89Z" transform="translate(732.674 -692.428)" fill="#3c3e3f"/>
        <path id="路径_4481" data-name="路径 4481" d="M-675.58,679.743c-1.479.593-2.753,1.563-4.162,2.287-.307.158-.3.42-.044.645.419.364.849.715,1.274,1.071a8.351,8.351,0,0,1,1.254-.667C-675.575,682.515-675.246,681.3-675.58,679.743Z" transform="translate(722.283 -679.567)" fill="#3c3e3f"/>
        <path id="路径_4482" data-name="路径 4482" d="M-733.388,683.638c.478-.4.977-.775,1.426-1.2.357-.341-.057-.426-.254-.544-1.178-.7-2.362-1.391-3.54-2.094a1.976,1.976,0,0,1-.331-.322c-.393.772-.11,1.589-.15,2.384-.012.236.267.3.444.4C-734.993,682.724-734.19,683.181-733.388,683.638Z" transform="translate(741.786 -679.474)" fill="#3c3e3f"/>
        <path id="路径_4483" data-name="路径 4483" d="M-703.264,693.444a1.487,1.487,0,0,0,.139-2.26,4.787,4.787,0,0,0-2.806-1.373,6.872,6.872,0,0,0-4.7.694c-1.107.673-1.786,1.565-1.005,2.9.044.075.171.1.26.151A6.621,6.621,0,0,1-703.264,693.444Z" transform="translate(733.364 -683.011)" fill="#3c3e3f"/>
      </g>
    </g>
    <g id="组_263" data-name="组 263" transform="translate(-767.979 651.675)" opacity="0.7">
      <path id="路径_4484" data-name="路径 4484" d="M-555.208,705.741a27.04,27.04,0,0,1,10.28,8.011,21.9,21.9,0,0,0,3.346-11.456v-18.3C-541.582,692.5-546.8,700.2-555.208,705.741Z" transform="translate(694.303 -672.669)" fill="#c6ced3" stroke="#fff" stroke-miterlimit="10" stroke-width="0.5" opacity="0.7"/>
      <path id="路径_4485" data-name="路径 4485" d="M-647.358,738.7a43.612,43.612,0,0,1-18.58-3.961l-.135.078-87.273-50.059c-8.812-3.866-14.634-10.521-14.634-18.088v18.3c0,7.567,5.822,14.222,14.634,18.088l87.273,50.059.135-.078a43.612,43.612,0,0,0,18.58,3.961c17.728,0,32.1-9.6,32.1-21.435v-18.3C-615.258,729.1-629.63,738.7-647.358,738.7Z" transform="translate(767.979 -666.671)" fill="#c6ced3" stroke="#fff" stroke-miterlimit="10" stroke-width="0.5" opacity="0.7"/>
    </g>
    <path id="路径_4486" data-name="路径 4486" d="M-548.628,725.276s-11.1-6.091-17.271-8.015l.854,15.412c4.516,2.127,14.3,7.906,16.686,11.27a15.737,15.737,0,0,0,3.075-9.159A15.839,15.839,0,0,0-548.628,725.276Z" transform="translate(-69.974 -32.514)" fill="#c6ced3" stroke="#fff" stroke-miterlimit="10" stroke-width="0.5" opacity="0.7"/>
    <path id="路径_4487" data-name="路径 4487" d="M-628.884,684.747c8.41-5.541,13.626-13.237,13.626-21.749,0-16.877-20.488-30.557-45.761-30.557a68.194,68.194,0,0,0-8.79.569c-3.805-5.684-12.34-9.646-22.267-9.646-10.932,0-20.183,4.8-23.28,11.421a43.247,43.247,0,0,0-20.228-4.742c-17.891,0-32.394,9.685-32.394,21.631,0,7.567,5.822,14.222,14.634,18.088l87.273,50.059.135-.078a43.612,43.612,0,0,0,18.58,3.961c17.728,0,32.1-9.6,32.1-21.435C-615.258,695.027-620.645,688.627-628.884,684.747ZM-650,720.27c-6.186,0-14-3.241-18.687-5.466l-.12.07-77.944-44.709c-7.87-3.452-16.445-10.3-16.445-17.054,0-10.67,12.953-19.319,28.932-19.319,6.836,0,15.8,3.237,20.756,5.884,2.766-5.91,11.713-10.949,21.476-10.949,8.865,0,17.377,3.431,20.776,8.506a48.015,48.015,0,0,1,6.961-.4c22.572,0,42.219,11.8,42.219,26.867,0,7.6-6.292,16.1-13.8,21.046,7.358,3.465,14.546,9.911,14.546,16.38C-621.328,711.7-634.163,720.27-650,720.27Z" transform="translate(0 0)" fill="#c6ced3" stroke="#fff" stroke-miterlimit="10" stroke-width="0.5" opacity="0.7"/>
  </g>
</svg>
