<svg id="partners6" xmlns="http://www.w3.org/2000/svg" width="291.273" height="48.877" viewBox="0 0 291.273 48.877">
  <g id="_2691417074176" transform="translate(0 0)">
    <g id="_2027535495136">
      <path id="路径_4346" data-name="路径 4346" d="M43.939,24.532l-.118-14.187C52.063,9.874,58.6,8.873,58.6,17.468c0,8.653-7.064,7.417-14.658,7.123h0ZM64.13,33.185c.589-.883.059-.294.765-1l2.767-2c1.177-5.475,2.3-.824,2.178-14.658C69.782,9.638,68.6,5.518,64.66,2.869,59.068-.9,40.878-.016,32.578.4L32.46,48.2H43.7l.118-12.774L51,35.363c1.707,3.709,3.885,9.007,5.828,12.774l13.245.059C69.9,44.6,63.424,37.129,63.012,33.538l1.06-.471h0Z" transform="translate(158.622 -0.003)" fill-rule="evenodd"/>
      <path id="路径_4347" data-name="路径 4347" d="M38.793,1.177C32.259,8.241,25.9,16.364,19.132,24.37,17.483,26.313.294,45.739,0,47.975l16.836-.059L30.2,30.728c2.237-2.884,12.48-15.482,12.951-16.953.883-1.707,0-.824,1.413-1.354,1,1.413.648,2.237.589,4.3V47.681l11.479.059L56.689.353c-4.886,0-14.363-1.06-17.9.942h0Z" transform="translate(0 0.335)" fill-rule="evenodd"/>
      <path id="路径_4348" data-name="路径 4348" d="M52.173,12.679c1.3.824.765.589,1.236,1.884.765.235,8.771,10.6,9.772,12.068.824.53.294.059.942.706a10.062,10.062,0,0,1,.648.824,8.206,8.206,0,0,1,1,1.766c4.886,5.828,9.654,12.244,14.01,17.9l16.659-.059c-.353-2-7.241-9.419-9.183-11.656-2.767-3.238-6.24-8.006-9.183-10.831a7.183,7.183,0,0,1-1.943-1.766c-1.177-1.413-.589-.353-1.236-1.943L57.059.67C54.469-.037,42.46-.1,39.87.493V47.056c2.119.824,8.359.353,11.126.353l.118-35.32c1.707-.177.412-.177.942.648h0Z" transform="translate(194.832 0.43)" fill-rule="evenodd"/>
      <path id="路径_4349" data-name="路径 4349" d="M46.94,15.051c.294-2,0-1.648,1.531-2.3.942,1.3.589,1.118.589,1.825C49.295,17.288,53.18,28,54.24,31.475l5.416,16.953,12.833-.059c0-2.237-13.951-45.386-15.305-48.329L38.875.1,23.57,48.31c2.649.412,10.655.706,12.539-.235,1.06-1,.471-.235,1.06-1.825L46.94,14.992Z" transform="translate(115.179 0.177)" fill-rule="evenodd"/>
      <path id="路径_4350" data-name="路径 4350" d="M26.792,2.157a10.312,10.312,0,0,1-1.648,1.589c-.118.118-.824.648-.824.648A5.316,5.316,0,0,1,23.2,5.1c-.589,1.884-1.531,2.531-2,4.709-1.3,5.887-1.413,12.126,3.65,15.717,5.121,3.591,18.308,4.356,17.6,9.419-1.531,3.473-5.357,2.767-9.419,2.767-4.18,0-8.359-.059-12.539,0-.883,2.237-3.355,8.124-3.473,10.419,6.887.53,16.542.235,23.606.059,7.712-.177,12.3-3.355,13.834-9.948C57.815,24.055,49.691,21.583,39.213,18.7c-3.355-.883-6.593-1.825-5.651-6.122,4-3.061,15.6-1.236,21.545-1.648.824-1.472,3.414-8.889,3.414-10.655C53.341-.2,46.807.156,41.509.156,34.327.156,32.737-.2,26.733,2.1h0Z" transform="translate(83.171 0.12)" fill-rule="evenodd"/>
      <path id="路径_4351" data-name="路径 4351" d="M32.551,23.44c-.471.706-.059.824-2.649.942-1.825.059-7.653.294-8.477-.589-.294-.353-1.707-14.01.883-14.717,1.825-.471-.765.059.883-.177l8.771.412c2.884.648,2.06.765,2.414,1.472,1.766,2.3,2,3.414,1.766,7.476C35.965,21.321,35.2,22.675,32.551,23.44ZM21.9,34.33c5.887.883,12.774-.235,18.249-1.06,7.358-3,7.712-9.419,7.476-18.9-.118-4.827-.589-7.653-3.12-10.36-1.648-1.766-5.3-4.3-8.595-3.826H10.77V47.045L20.9,46.927l-.118-11.185,1.06-1.354h0Z" transform="translate(52.63 0.618)" fill-rule="evenodd"/>
    </g>
  </g>
</svg>
