<svg id="partners3" xmlns="http://www.w3.org/2000/svg" width="350.926" height="65.069" viewBox="0 0 350.926 65.069">
  <g id="_2691416442560" transform="translate(0 0)">
    <path id="路径_4352" data-name="路径 4352" d="M.55,5.87c-2.325,26.1,1.8,20.475,32.85,20.475,32.625,0,34.05,4.8,32.55-20.4L51.4,5.87a14.728,14.728,0,0,1-1.425,5.1l-30.825.525c-3.975-.45-3.6-1.575-3.825-5.625H.475Z" transform="translate(0.055 38.214)" fill="#ce3428" fill-rule="evenodd"/>
    <path id="路径_4353" data-name="路径 4353" d="M51.378,20.6H65.853V4.627C63.978-1.673,55.428.277,47.778.277c-6.225,0-41.1-.9-44.175.9C-.746,3.727-.446,15.052.829,20.9h14.25c.975-4.425.525-5.55,5.55-5.7h24.15c5.25,0,6.3-.225,6.525,5.325h0Z" transform="translate(0.001 0.008)" fill="#ce3428" fill-rule="evenodd"/>
    <path id="路径_4354" data-name="路径 4354" d="M28.835,8.834c10.575-2.925,12.225,18.975,3.45,21.15C20.96,32.759,18.785,11.609,28.835,8.834Zm-6.3,23.175a2.279,2.279,0,0,0,.525.375c.15.075.375.3.525.375,12.9,9.9,21.6-.75,21.675-13.2.075-20.55-18-20.625-21.75-12.6a2.245,2.245,0,0,1-.3-.6l-.3-.6a5.168,5.168,0,0,1-.225-.6l-.75-2.55-6.525.075v42.6l7.125-.225v-13.2h0Z" transform="translate(100.168 13.05)" fill="#6e6d6e" fill-rule="evenodd"/>
    <path id="路径_4355" data-name="路径 4355" d="M24.128,9.093c10.95-4.575,13.8,17.475,5.175,20.625C18.128,33.767,13.253,13.593,24.128,9.093ZM11.153,23.268c3.525,20.625,33.675,17.1,30.3-7.425C38.527-5.532,6.953-1.407,11.153,23.268Z" transform="translate(70.001 13.167)" fill="#6e6d6e" fill-rule="evenodd"/>
    <path id="路径_4356" data-name="路径 4356" d="M27.662,17.11c.15-11.55,12.9-12.225,13.425,0H27.662ZM43.637,27.234c-4.05,2.1-13.5,8.175-16.125-5.025l20.4-.375c3.975-20.475-21.225-27.749-26.925-9-6.75,22.05,18.075,30.449,26.025,18.6l-3.375-4.275h0Z" transform="translate(128.941 13.1)" fill="#6e6d6e" fill-rule="evenodd"/>
    <path id="路径_4357" data-name="路径 4357" d="M42.931,21.6c2.325-1.425,9-3.525,11.625.3-.075,8.25-5.025,10.425-11.625,7.05a12.906,12.906,0,0,1-.075-7.35Zm11.55-5.775c-9.975-1.8-20.55-.9-19.35,11.175a9.589,9.589,0,0,0,7.65,8.775c6.75,1.425,8.25-1.725,11.625-3.6v3.375l7.125-.45c0-26.7,3.825-37.649-24.3-31.2l2.1,5.85c7.275-1.2,14.775-5.025,15.15,6.075h0Z" transform="translate(227.746 13.706)" fill="#ce3428" fill-rule="evenodd"/>
    <path id="路径_4358" data-name="路径 4358" d="M31.57,17.423c0-11.55,12-12.075,12-.75v19.5l7.35-.225c0-5.925.75-22.95-.825-27.3A10.2,10.2,0,0,0,31.87,6.773l-.3-4.125-7.35.3v33l7.35.15V17.348h0Z" transform="translate(157.433 12.936)" fill="#6e6d6e" fill-rule="evenodd"/>
    <path id="路径_4359" data-name="路径 4359" d="M43.15,45.714l7.35.225c0-10.2-1.05-8.625,4.5-15.075,2.325-2.7,2.925-3.375,5.175-6.075,1.875-2.175,9-10.275,9.6-12.3-14.325,0-5.55.45-19.125,13.95L50.575.49l-7.35.15V45.789h0Z" transform="translate(280.476 3.245)" fill="#ce3428" fill-rule="evenodd"/>
    <path id="路径_4360" data-name="路径 4360" d="M31.25,27.053c-.825,2.475-1.725,2.925-2.85,5.55,4.95,2.1,8.625,5.925,16.5,3.675,4.875-1.35,9.6-6.825,6.45-13.35-2.55-5.4-8.7-5.025-13.05-8.85-1.95-1.725-2.325-4.95,1.275-5.7,3.3-.6,6.375,1.5,8.925,2.475l3-4.725C40.625-4.9,22.475,8.453,31.925,18.128c2.7,2.775,12.3,5.1,13.125,8.55.825,3.375-2.775,4.35-6,3.825-3.375-.525-5.25-2.4-7.95-3.6h0Z" transform="translate(184.602 12.906)" fill="#ce3428" fill-rule="evenodd"/>
    <path id="路径_4361" data-name="路径 4361" d="M61.072,11.743a4.779,4.779,0,0,0,1.275-1.2c2.475-2.55,2.175-2.625,2.7-4.65-5.1-2.55-11.175-6.525-18.525-1.5-10.2,6.975-9.975,25.425,1.125,30.974,7.125,3.525,13.125.075,17.775-2.85l-3.375-5.4c-3,1.275-5.775,4.8-10.725,2.4-8.1-3.975-6.45-28.424,9.75-17.775h0Z" transform="translate(254.079 12.916)" fill="#ce3428" fill-rule="evenodd"/>
    <path id="路径_4362" data-name="路径 4362" d="M32.21,9.875c1.35,7.875,1.2,4.575,3.6,6.75,0,13.95-4.2,31.724,14.625,25.5V36.049c-6.675,1.725-7.425,1.05-7.35-5.85.075-4.725,0-9.525,0-14.4l7.275-.075-.375-6.15-6.975-.3V.95h-6.9l-.45,8.775-3.6.225h0Z" transform="translate(208.392 6.235)" fill="#ce3428" fill-rule="evenodd"/>
    <path id="路径_4363" data-name="路径 4363" d="M.385,15.545l.15,2.775h14.7l.225-2.775L15.385,3.32H.01Z" transform="translate(0.069 21.64)" fill="#ce3428" fill-rule="evenodd"/>
    <path id="路径_4364" data-name="路径 4364" d="M6.85,15.61,7,18.385l14.55-.075L21.7,3.835,19,3.31,6.85,3.385Z" transform="translate(44.529 21.575)" fill="#ce3428" fill-rule="evenodd"/>
    <path id="路径_4365" data-name="路径 4365" d="M44.83,9.5c7.725,12.225,1.95,12.3,14.7,11.7L49.93,5c-.075-.075-.375-.15-.45-.375-.075-.3-.3-.3-.375-.375L44.83,9.5h0Z" transform="translate(291.396 27.684)" fill="#ce3428" fill-rule="evenodd"/>
  </g>
</svg>
