<svg id="partners1" xmlns="http://www.w3.org/2000/svg" width="271.03" height="88.241" viewBox="0 0 271.03 88.241">
  <path id="路径_7702" data-name="路径 7702" d="M-2262.738,3279.11a.164.164,0,0,0,.016-.095h3.557c0,.031.01.062.017.093a.589.589,0,0,1-.5.189q-1.3.03-2.594,0A.6.6,0,0,1-2262.738,3279.11Z" transform="translate(2304.9 -3279.015)" fill="#646464"/>
  <path id="路径_7703" data-name="路径 7703" d="M-2367.672,3279.341l3.59,0a42.174,42.174,0,0,1,16.771,3.955,43.752,43.752,0,0,1,21.97,22.238,42.14,42.14,0,0,1,3.484,12.837,43.715,43.715,0,0,1-3.086,21.956,43.632,43.632,0,0,1-13.008,17.359,43.378,43.378,0,0,1-16.645,8.4,44,44,0,0,1-14.921,1.236,43.5,43.5,0,0,1-18.581-5.94,43.822,43.822,0,0,1-14.344-13.6,43.572,43.572,0,0,1-6.495-15.663,43.354,43.354,0,0,1-.7-12.874,43.709,43.709,0,0,1,9.586-23.525,42.937,42.937,0,0,1,22.35-14.795A41.63,41.63,0,0,1-2367.672,3279.341Z" transform="translate(2409.834 -3279.246)" fill="#010101"/>
  <path id="路径_7704" data-name="路径 7704" d="M-2063.045,3372.631a11.076,11.076,0,0,1,1.121-2.192,8.16,8.16,0,0,1,8.1-3.745c.879.092.877.119.877.986,0,1.8-.009,3.593.008,5.388,0,.342-.065.419-.425.384a10.071,10.071,0,0,0-3.642.037,6.8,6.8,0,0,0-4.389,4.012,10.254,10.254,0,0,0-.885,4.532c.005,4.629-.005,9.258.013,13.887,0,.471-.086.622-.594.613-2-.035-4-.03-6,0-.463.007-.578-.114-.577-.575q.025-8.637.009-17.275c0-3.629-.044-7.259-.22-10.884-.022-.459.121-.54.54-.534,1.7.022,3.407.025,5.11,0,.42-.007.521.118.538.516.068,1.607.173,3.213.263,4.819Z" transform="translate(2167.158 -3341.52)" fill="#010101"/>
  <path id="路径_7705" data-name="路径 7705" d="M-1758.876,3350.692c.148-.241.291-.486.447-.722a10.911,10.911,0,0,1,3.627-3.21,12.015,12.015,0,0,1,6.387-1.949,7.649,7.649,0,0,1,6.372,3.566,14.377,14.377,0,0,1,2.371,6.78,76.949,76.949,0,0,1,.214,8.881c.025,3.316,0,6.631.017,9.946,0,.445-.119.568-.549.54a12.424,12.424,0,0,0-1.721,0c-.476.034-.623-.087-.618-.6.028-3.149.019-6.3.012-9.446-.005-2.5.036-5-.054-7.5a14.48,14.48,0,0,0-1.414-6.223,6,6,0,0,0-6.251-3.406,9.517,9.517,0,0,0-7.651,4.464,8.274,8.274,0,0,0-1.312,4.73c.023,4.371.008,8.742.007,13.114,0,1.464-.01,2.927.007,4.39,0,.346-.062.494-.45.474-.665-.034-1.334-.027-2,0-.327.012-.437-.1-.4-.412a2.223,2.223,0,0,0,0-.278q0-18.725-.008-37.452c0-.474.031-.712.606-.533a14.047,14.047,0,0,0,1.789.38c.346.06.468.192.463.571-.025,1.982-.012,3.964-.012,5.946v7.917Z" transform="translate(1947.574 -3319.515)" fill="#010101"/>
  <path id="路径_7706" data-name="路径 7706" d="M-1553.448,3381.235c.113.672.215,1.31.329,1.945.032.176-.01.278-.188.334-2.591.808-5.193,1.128-7.715-.167a6.189,6.189,0,0,1-3.07-4.465,17.279,17.279,0,0,1-.347-3.919q-.006-8.806.009-17.613c0-.47-.081-.637-.595-.616-1.165.046-2.333,0-3.5.021-.342.006-.5-.053-.467-.442a8.316,8.316,0,0,0,0-1.387c-.034-.4.137-.443.471-.439,1.148.018,2.3-.016,3.445.018.483.014.667-.082.65-.619-.044-1.369,0-2.741-.025-4.111-.009-.435.08-.66.544-.763a18.7,18.7,0,0,0,1.906-.58c.33-.111.412-.016.409.317-.013,1.722.01,3.445-.016,5.167-.007.449.094.595.568.59,2.482-.025,4.963,0,7.445-.02.4,0,.614.051.558.524-.067.562.232,1.321-.118,1.642-.306.281-1.053.092-1.6.093-2.111,0-4.223.015-6.334-.01-.433-.005-.513.128-.513.53.012,6.074,0,12.149.015,18.224a9.352,9.352,0,0,0,.694,4.009,3.716,3.716,0,0,0,3.48,2.232A11.357,11.357,0,0,0-1553.448,3381.235Z" transform="translate(1810.004 -3328.503)" fill="#010101"/>
  <path id="路径_7707" data-name="路径 7707" d="M-1818.379,3511.606c-.052-1.091-.129-2.174-.151-3.259-.038-1.832-.029-3.666-.067-5.5-.009-.4.111-.5.495-.484.646.032,1.3.021,1.943,0,.273-.008.339.085.339.346q-.011,6.305,0,12.61c0,.258-.062.359-.339.353-.833-.017-1.667-.019-2.5,0a.5.5,0,0,1-.5-.342c-1.639-3.057-3.463-6.017-4.843-9.211-.024-.054-.015-.155-.139-.154,0,.563-.023,1.125,0,1.685.119,2.517.06,5.035.089,7.553,0,.355-.077.488-.454.47-.647-.031-1.3-.02-1.944,0-.278.008-.387-.057-.386-.364q.015-6.3,0-12.61c0-.279.1-.337.353-.333.944.012,1.889.027,2.832-.006.348-.012.439.2.562.418a81.057,81.057,0,0,1,4.552,8.673C-1818.507,3511.51-1818.509,3511.6-1818.379,3511.606Z" transform="translate(1993.937 -3438.344)" fill="#010101"/>
  <path id="路径_7708" data-name="路径 7708" d="M-1679.364,3506.683c0-1.3.012-2.594-.008-3.889-.006-.345.089-.442.433-.429.74.028,1.482.018,2.222,0,.26-.005.359.068.354.341-.045,2.814.117,5.633-.106,8.442a4.8,4.8,0,0,1-4.849,4.675,7.682,7.682,0,0,1-2.417-.2,4.262,4.262,0,0,1-3.155-3.246,10.258,10.258,0,0,1-.332-2.748c-.011-2.26.005-4.52-.013-6.78,0-.382.083-.512.483-.492.7.035,1.408.032,2.111,0,.359-.017.423.109.421.437-.013,2.334-.007,4.668-.007,7a6.085,6.085,0,0,0,.323,2.183,2.139,2.139,0,0,0,2.113,1.49,2.139,2.139,0,0,0,2.129-1.546,6.443,6.443,0,0,0,.294-2.135C-1679.354,3508.758-1679.364,3507.72-1679.364,3506.683Z" transform="translate(1894.351 -3438.344)" fill="#010101"/>
  <path id="路径_7709" data-name="路径 7709" d="M-1545.55,3507.042c.6-1.49,1.2-2.854,1.819-4.209a.673.673,0,0,1,.738-.469c.939.032,1.881.011,2.908.011-.167.292-.3.526-.435.759-1.013,1.761-2.017,3.527-3.049,5.277a.749.749,0,0,0-.013.893c1.159,1.954,2.275,3.933,3.433,5.887.261.442.157.5-.3.488-.814-.027-1.63-.025-2.444,0a.623.623,0,0,1-.673-.416c-.7-1.444-1.427-2.874-2.166-4.351a5.418,5.418,0,0,0-.541,1.16c-.491,1.054-.985,2.106-1.445,3.174a.59.59,0,0,1-.649.434c-.958-.027-1.918-.009-2.886-.009-.02-.248.137-.4.233-.565,1.095-1.927,2.186-3.856,3.3-5.771a.687.687,0,0,0,0-.8c-1.066-1.858-2.111-3.728-3.162-5.595-.089-.158-.172-.32-.3-.567,1.128,0,2.188,0,3.247,0,.285,0,.3.244.381.41C-1546.9,3504.166-1546.249,3505.553-1545.55,3507.042Z" transform="translate(1797.343 -3438.345)" fill="#010101"/>
  <path id="路径_7710" data-name="路径 7710" d="M-2065.776,3508.985c0-2.054.008-4.109-.008-6.163,0-.354.078-.481.453-.463a18.762,18.762,0,0,0,2.053,0c.445-.027.506.143.5.535-.015,3.239,0,6.478-.019,9.717,0,.438.114.549.545.54,1.425-.028,2.85,0,4.275-.018.34,0,.493.053.468.442-.037.572-.023,1.148,0,1.72.01.291-.086.378-.378.377-2.5-.01-5-.015-7.5,0-.395,0-.4-.177-.4-.469C-2065.773,3513.132-2065.776,3511.059-2065.776,3508.985Z" transform="translate(2164.398 -3438.338)" fill="#010101"/>
  <path id="路径_7711" data-name="路径 7711" d="M-1935.515,3509c0,2.073-.01,4.147.009,6.221,0,.366-.094.475-.46.46-.721-.028-1.444-.018-2.166,0-.272.006-.391-.046-.39-.359q.015-6.3,0-12.608c0-.27.082-.345.345-.339.741.016,1.482.029,2.221,0,.384-.017.449.122.447.467C-1935.523,3504.887-1935.515,3506.942-1935.515,3509Z" transform="translate(2073.613 -3438.345)" fill="#010101"/>
  <path id="路径_7712" data-name="路径 7712" d="M-2331.253,3357.538a53.633,53.633,0,0,1-21.076-4.463,93.142,93.142,0,0,1-14.2-7.152,43.349,43.349,0,0,1-11.273-9.861,7.691,7.691,0,0,1-1.455-2.907c-.5-2.093.58-3.568,2.015-4.849a9.642,9.642,0,0,1,5.537-2.185,57.512,57.512,0,0,1,7.88,0c.395.009.374.162.237.441a6.363,6.363,0,0,0-.754,3.038,4.692,4.692,0,0,0,1.991,3.5,9.912,9.912,0,0,0,2.47,1.477c3.45,1.434,6.79,3.115,10.232,4.563a24.117,24.117,0,0,0,9.043,2.238c.176,0,.393.115.5-.106s-.09-.343-.2-.477c-.322-.382-.643-.767-.993-1.123a3.236,3.236,0,0,1-.962-2.179,4.179,4.179,0,0,0-2.807-3.9,44.212,44.212,0,0,0-4.757-1.491,67.2,67.2,0,0,1-8.77-2.757,7.76,7.76,0,0,1-3.537-2.763,3.64,3.64,0,0,1-.653-2.033,26.134,26.134,0,0,1,3.243-12.71,5.931,5.931,0,0,1,4.376-2.732,14.51,14.51,0,0,1,5.56.262,23.153,23.153,0,0,0,4.955.545,25.811,25.811,0,0,0,3.652-.655,20.406,20.406,0,0,1,8.427.123,9.626,9.626,0,0,1,5.893,4.312,15.147,15.147,0,0,1,1.8,3.739c.709,2.205,1.726,4.285,2.565,6.438a26.192,26.192,0,0,1,1.709,6.411,12.206,12.206,0,0,1-.584,4.318c-.163.683-.334,1.365-.477,2.051-.037.18-.184.429.038.558s.358-.124.492-.258a8.254,8.254,0,0,0,1.87-3.425c.27-.82.261-.831,1.035-.5a48.435,48.435,0,0,1,6.285,2.912,9.342,9.342,0,0,1,3.773,3.818,7.818,7.818,0,0,1-.154,7.016,17.58,17.58,0,0,1-6.662,7.2,21.8,21.8,0,0,1-9.668,3.142A64.518,64.518,0,0,1-2331.253,3357.538Z" transform="translate(2388.111 -3300.325)" fill="#ea2227"/>
  <path id="路径_7713" data-name="路径 7713" d="M-2346.422,3476.6a5.625,5.625,0,0,0,3.174-1.147,15.737,15.737,0,0,0,2.5-2.366,9.019,9.019,0,0,1,3.939-2.582c.61-.207,1.2-.478,1.788-.743.814-.368.965-.733.694-1.576-.045-.141-.094-.281-.128-.425-.126-.546.105-.913.67-.881,1.768.1,3.553-.234,5.306.2a13.673,13.673,0,0,0,3.815.078,6.269,6.269,0,0,1,2.027.242c.376.112.322.208.129.46a43.77,43.77,0,0,1-13,11.447,41.282,41.282,0,0,1-15.184,5.3c-13.5,1.825-25.438-1.721-35.651-10.762a42.11,42.11,0,0,1-11.5-16.831c-.111-.291-.135-.375.246-.414.76-.077.961-.436.8-1.186a6.7,6.7,0,0,1-.277-1.467c0-.389.141-.6.559-.557.092.01.185,0,.278.008a55.2,55.2,0,0,0,7.381-.071,7.934,7.934,0,0,1,2.377.141,4.923,4.923,0,0,1,3.429,2.406,5.162,5.162,0,0,0,3.345,2.366,3.6,3.6,0,0,0,1.159.066c.41-.028.847-.054,1.01-.527a1.4,1.4,0,0,0-.185-1.371,1.067,1.067,0,0,0-.315-.309c-2.088-1.1-3.2-3.064-4.347-4.984a3.927,3.927,0,0,1-.572-2.383,3.713,3.713,0,0,1,5.67-3.038,6.052,6.052,0,0,1,2.072,1.964,14.833,14.833,0,0,0,1.757,2.42,6.086,6.086,0,0,0,.74.58.878.878,0,0,0,1.078.008c1.126-.694,1.57-.651,2.611.233a12.912,12.912,0,0,1,1.711,1.817,19.233,19.233,0,0,0,2.755,3.111,6.274,6.274,0,0,0,3.021,1.283,20.773,20.773,0,0,0,5.591-.075,28.329,28.329,0,0,1,4.711-.169,6.406,6.406,0,0,1,1.7.462,2.389,2.389,0,0,0,1.621.022,6.052,6.052,0,0,1,2.71-.466c.73.1,1.443.31,2.169.444a7.188,7.188,0,0,0,4.346-.324c1.306-.572,1.565-.3,1.379,1.111a20.916,20.916,0,0,1-.856,3.379,11.565,11.565,0,0,0-.508,2.606,5.185,5.185,0,0,1-1.165,2.881c-1.711,2.207-3.517,4.345-5.02,6.708A19.288,19.288,0,0,0-2346.422,3476.6Z" transform="translate(2401.333 -3397.507)" fill="#fefefe"/>
  <path id="路径_7714" data-name="路径 7714" d="M-1865.166,3364.851c-.153-2.811-.213-5.626-.216-8.441q-.017-15.53,0-31.06c0-.425-.1-.594-.54-.7q-3.317-.777-6.613-1.645c-.492-.129-.617-.079-.614.463.021,4.889.013,9.779.008,14.668,0,.187.077.4-.1.606a6.615,6.615,0,0,0-1.466-1.52,11.365,11.365,0,0,0-9.327-1.32,11.858,11.858,0,0,0-7.729,6.452,18.557,18.557,0,0,0-.816,16.035c1.869,4.6,5.336,7.365,10.459,7.544a9.974,9.974,0,0,0,9.334-4.705c.073-.115.1-.281.273-.31.12.053.081.159.088.242.1,1.236.227,2.471.291,3.709.022.435.182.5.564.492q2.944-.027,5.89,0C-1865.269,3365.37-1865.142,3365.29-1865.166,3364.851Zm-7.965-13.816a24.336,24.336,0,0,1-.178,3.806,6.481,6.481,0,0,1-5.212,5.3,6.267,6.267,0,0,1-6.925-3.569,11.931,11.931,0,0,1,.535-11.767,5.982,5.982,0,0,1,6.51-2.81,6.043,6.043,0,0,1,5.055,4.825A17,17,0,0,1-1873.131,3351.035Z" transform="translate(2041.864 -3310.356)" fill="#010101"/>
  <path id="路径_7715" data-name="路径 7715" d="M-1977.367,3372.98a11.96,11.96,0,0,0-4.727-5.512,12.707,12.707,0,0,0-7.5-1.689,11.988,11.988,0,0,0-7.894,3.346,17.307,17.307,0,0,0-5.063,16.639c1.091,5.535,4.7,8.834,10.125,10.181a21.612,21.612,0,0,0,7.284.387,23.906,23.906,0,0,0,6.63-1.495c.323-.128.459-.236.369-.617-.3-1.276-.594-2.557-.819-3.848-.1-.579-.306-.579-.788-.423a20.836,20.836,0,0,1-9.035.949c-3.656-.447-6.518-2.622-6.9-6.686-.039-.42.042-.527.474-.524,3.111.02,6.222.011,9.333.011,3.13,0,6.259-.007,9.389.009.37,0,.511-.095.553-.474A19.384,19.384,0,0,0-1977.367,3372.98Zm-6.026,5.144c-1.98-.019-3.959-.009-5.939-.009s-3.96,0-5.939,0c-.184,0-.478.13-.424-.283.355-2.706,1.443-4.99,3.951-6.3a5.853,5.853,0,0,1,8.573,4.263c.111.616.135,1.248.22,1.87C-1982.9,3378.025-1983.024,3378.128-1983.394,3378.125Z" transform="translate(2119.586 -3340.889)" fill="#010101"/>
  <path id="路径_7716" data-name="路径 7716" d="M-1637.9,3396.766a44.386,44.386,0,0,1-.414-6.646c-.009-3.76.011-7.521-.026-11.281a17.143,17.143,0,0,0-.765-5.2,7.625,7.625,0,0,0-5.779-5.5,15.9,15.9,0,0,0-11.458,1.826c-.831.46-.82.484-.432,1.333.169.368.256.9.543,1.054.326.173.651-.355,1.023-.49a1.276,1.276,0,0,0,.146-.078,14.28,14.28,0,0,1,8.167-1.547,5.625,5.625,0,0,1,5.2,3.93,14.987,14.987,0,0,1,.541,5c0,.339-.234.268-.424.267a40.2,40.2,0,0,0-4.824.234,21.352,21.352,0,0,0-7.24,1.944,9.23,9.23,0,0,0-5.436,7.088,7.529,7.529,0,0,0,2.312,7.067,8.558,8.558,0,0,0,5.282,2.182,10.532,10.532,0,0,0,9.361-3.565c.386-.44.736-.911,1.186-1.472.149,1.4.292,2.669.41,3.935.034.358.148.51.537.484a9.82,9.82,0,0,1,1.61,0C-1637.871,3397.385-1637.839,3397.158-1637.9,3396.766Zm-4.744-4.712c-2.33,3.536-6.649,4.157-9.682,3.281a5.49,5.49,0,0,1-3.839-5.709c.152-3.307,2.07-5.205,4.922-6.392a21.785,21.785,0,0,1,7.594-1.413c.684-.028,1.371.007,2.056-.02.337-.013.45.083.443.43-.021,1.019-.008,2.038-.008,3.057,0,.7-.044,1.411.009,2.111A7.324,7.324,0,0,1-1642.642,3392.055Z" transform="translate(1874.348 -3342.328)" fill="#010101"/>
  <path id="路径_7717" data-name="路径 7717" d="M-1489.911,3444.965a4.3,4.3,0,0,0-4.246,4.3,4.3,4.3,0,0,0,4.288,4.262,4.325,4.325,0,0,0,4.283-4.278A4.317,4.317,0,0,0-1489.911,3444.965Zm.052,7.675a3.4,3.4,0,0,1-3.409-3.414,3.388,3.388,0,0,1,3.395-3.369,3.413,3.413,0,0,1,3.393,3.382A3.424,3.424,0,0,1-1489.859,3452.639Z" transform="translate(1756.616 -3397.399)" fill="#010101"/>
  <path id="路径_7718" data-name="路径 7718" d="M-2291,3340.633a6.9,6.9,0,0,1-2.665.568,17.414,17.414,0,0,0-4.3.773,4.6,4.6,0,0,0-1.918,1.067.553.553,0,0,1-.558.137,4.475,4.475,0,0,1-3.408-3.556,2.2,2.2,0,0,1,.723-1.957c.142-.145.283-.239.438.012,1.033,1.677,2.717,2.055,4.493,2.188a24.759,24.759,0,0,0,3.437-.165,6.658,6.658,0,0,1,2.992.444A2.213,2.213,0,0,1-2291,3340.633Z" transform="translate(2334.248 -3320.751)" fill="#010101"/>
  <path id="路径_7719" data-name="路径 7719" d="M-2233.3,3322.809c.245-.182.488-.369.737-.545a1.314,1.314,0,0,0-.124-2.263,6.448,6.448,0,0,0-2.325-.413,4.128,4.128,0,0,1-.533-.088,13.534,13.534,0,0,1,4.948.149,2.689,2.689,0,0,1,1.667,1.2c.392.644.35.82-.293,1.241a3.873,3.873,0,0,1-1.486.582A9.257,9.257,0,0,1-2233.3,3322.809Z" transform="translate(2285.501 -3307.786)" fill="#010101"/>
  <path id="路径_7720" data-name="路径 7720" d="M-2244.292,3510.115a3.064,3.064,0,0,1-1.314-.262,25.22,25.22,0,0,0-2.484-.762c-.307-.089-.74-.071-.7-.539s.116-.967.652-1.187a1.422,1.422,0,0,1,1.128.035,12.836,12.836,0,0,0,1.856.714,2.566,2.566,0,0,0,2.449-.464c.188-.161.328-.562.65-.358a1,1,0,0,1,.454,1,1.954,1.954,0,0,1-1.514,1.65A2.533,2.533,0,0,1-2244.292,3510.115Z" transform="translate(2294.952 -3441.82)" fill="#010101"/>
  <path id="路径_7721" data-name="路径 7721" d="M-1481.965,3454.5c-.147-.22-.277-.362.068-.583a1.247,1.247,0,0,0,.491-1.464,1.192,1.192,0,0,0-1.144-.886c-.494-.048-1-.009-1.493-.035-.313-.016-.4.094-.4.406.018,1.256.013,2.512,0,3.769,0,.315-.032.542.432.536.434-.006.478-.179.453-.524a7.824,7.824,0,0,1,0-1c.008-.144-.115-.365.126-.417a.46.46,0,0,1,.555.237c.217.385.523.725.706,1.123.272.592.708.642,1.3.511C-1481.24,3455.6-1481.6,3455.043-1481.965,3454.5Zm-1.24-.917c-.6.011-.241-.441-.371-.66.126-.233-.228-.692.376-.672.664.022.979.213.986.643C-1482.207,3453.365-1482.528,3453.567-1483.205,3453.58Z" transform="translate(1749.683 -3402.08)" fill="#020202"/>
</svg>
