<svg id="partners5" xmlns="http://www.w3.org/2000/svg" width="228.402" height="59.467" viewBox="0 0 228.402 59.467">
  <path id="路径_7722" data-name="路径 7722" d="M-2278.466,4128.024q-51.5,0-103,.006a19.991,19.991,0,0,1-9.487-2.224,19.483,19.483,0,0,1-10.4-13.562,19.308,19.308,0,0,1-.453-4.219q0-19.453,0-38.907c0-.112,0-.224.005-.335a.186.186,0,0,1,.21-.2l.224,0c1.4,0,2.8,0,4.2,0,.42,0,.421.009.429.436,0,.149,0,.3,0,.448q0,14.611,0,29.222a17.842,17.842,0,0,0,1.709,7.855,15.665,15.665,0,0,0,10.149,8.487,17.313,17.313,0,0,0,4.751.649c.242,0,.485,0,.728,0h205c.889,0,.889,0,.889.881q0,5.373,0,10.748c0,.813.111.716-.708.716Z" transform="translate(2401.81 -4068.563)" fill="#54b848"/>
  <path id="路径_7723" data-name="路径 7723" d="M-1704.409,4068.55c6.885,0,13.77-.023,20.654.009a12.132,12.132,0,0,1,10.633,5.858,12.149,12.149,0,0,1,1.855,5.4,3.012,3.012,0,0,1,.008.335q-.008,12.146-.021,24.293c0,1.119-.051,2.239-.062,3.358,0,.281-.081.385-.38.384q-4.226-.015-8.452,0c-.317,0-.37-.124-.359-.394.017-.391,0-.784,0-1.175q0-12.175,0-24.349a7.934,7.934,0,0,0-.505-3.07,5.693,5.693,0,0,0-4.682-3.605,10.367,10.367,0,0,0-1.673-.1q-3.3,0-6.6,0c-.635,0-.589-.089-.589.606q0,15.674,0,31.346c0,.735,0,.735-.739.735h-7.781c-.13,0-.261-.005-.392,0-.161.007-.241-.054-.233-.224.007-.149,0-.3,0-.448q0-15.673,0-31.345c0-.779.1-.669-.691-.669q-6.017-.006-12.034,0c-.747,0-.666-.095-.666.642q0,15.673,0,31.346c0,.7,0,.7-.709.7q-3.918,0-7.836,0c-.676,0-.58.083-.58-.6q0-19.226,0-38.454c0-.093.005-.187,0-.28-.013-.205.055-.319.285-.295a3.611,3.611,0,0,0,.392,0Z" transform="translate(1899.659 -4068.537)" fill="#231f20"/>
  <path id="路径_7724" data-name="路径 7724" d="M-2022.341,4091.754h-11.251a3.341,3.341,0,0,1-.335,0c-.256-.024-.372.053-.352.342a10.337,10.337,0,0,0,4.021,7.86,6.135,6.135,0,0,0,3.851,1.293q7.7-.01,15.393,0c.7,0,.614-.078.615.636q0,2.911,0,5.821c0,.481-.005.486-.485.486-5.971,0-11.941.014-17.912-.006a12.5,12.5,0,0,1-7.957-2.989,17.335,17.335,0,0,1-5.3-7.624,24.936,24.936,0,0,1-1.483-7.315,31.991,31.991,0,0,1,.7-9.062,18.187,18.187,0,0,1,3.324-7.323,13.316,13.316,0,0,1,8.64-5.11,16.266,16.266,0,0,1,2.618-.2h17.24c.627,0,.617-.11.617.584q0,2.939,0,5.877c0,.474,0,.478-.492.478h-13.77a13.256,13.256,0,0,0-4.03.537,7.479,7.479,0,0,0-5.285,5.765,13.841,13.841,0,0,0-.306,2.5c-.014.255.039.4.328.365a3.494,3.494,0,0,1,.392,0q11.251,0,22.5,0c.745,0,.659-.087.66.648q.005,2.967,0,5.934c0,.507,0,.511-.523.511Z" transform="translate(2135.552 -4068.546)" fill="#231f20"/>
  <path id="路径_7725" data-name="路径 7725" d="M-2168.136,4091.764h-11.194c-.112,0-.224,0-.336,0-.4.01-.411.011-.4.4a9.947,9.947,0,0,0,.552,2.9,9.96,9.96,0,0,0,3.33,4.8,6.369,6.369,0,0,0,3.988,1.389q7.584-.009,15.167,0h.336c.513,0,.481-.048.481.482q0,2.994,0,5.988c0,.5.048.474-.43.474-6.007,0-12.015.019-18.022-.01a12.436,12.436,0,0,1-7.854-2.959,17.245,17.245,0,0,1-5.3-7.56,25.891,25.891,0,0,1-1.574-9.155,30.921,30.921,0,0,1,.919-7.979,17.526,17.526,0,0,1,3.7-7.317,13.3,13.3,0,0,1,8.055-4.446,17.165,17.165,0,0,1,2.786-.206q8.479,0,16.958,0c.674,0,.6-.069.6.592q0,2.881,0,5.764c0,.645.092.583-.607.583q-6.828,0-13.656,0a12.9,12.9,0,0,0-3.918.524,7.635,7.635,0,0,0-5.413,5.927,10.264,10.264,0,0,0-.27,2.329c0,.365,0,.366.365.377.13,0,.261,0,.392,0h22.779c.52,0,.481-.043.481.483q0,3.051,0,6.1c0,.56.046.511-.509.511Z" transform="translate(2243.915 -4068.557)" fill="#231f20"/>
  <path id="路径_7726" data-name="路径 7726" d="M-2331.2,4096.526c.207-.119.228-.319.3-.482q5.935-13.485,11.855-26.977a.745.745,0,0,1,.812-.545c2.929.025,5.859.013,8.788.013h.543c.054.217-.069.352-.136.5q-8.845,19.351-17.683,38.7a.643.643,0,0,1-.711.436q-3.722-.021-7.445,0a.666.666,0,0,1-.735-.482q-2.951-7.038-5.936-14.062-5.173-12.229-10.345-24.46a1.537,1.537,0,0,1-.2-.584.858.858,0,0,1,.48-.048q4.449,0,8.9,0c.647,0,.505-.082.74.518q5.251,13.4,10.5,26.81C-2331.384,4096.083-2331.292,4096.3-2331.2,4096.526Z" transform="translate(2364.854 -4068.522)" fill="#231f20"/>
  <path id="路径_7727" data-name="路径 7727" d="M-1860.192,4107.731q0-6.772,0-13.545,0-6.382,0-12.762a16.239,16.239,0,0,0-.318-3.391,11.8,11.8,0,0,0-3.539-6.406,11.571,11.571,0,0,0-8.067-3.063c-4.982-.026-9.964-.008-14.945-.008h-8.509c-.586,0-.533-.049-.534.548q0,2.883,0,5.766c0,.7-.106.626.618.626q9.515,0,19.032,0c.317,0,.635,0,.951.019a5.754,5.754,0,0,1,5.413,3.9,11.7,11.7,0,0,1,.728,3.883c.029.795.094.679-.672.68q-7.976.005-15.953,0a14.176,14.176,0,0,0-3.328.36,12,12,0,0,0-8.855,14.376,12.477,12.477,0,0,0,12.213,9.664c8.377-.045,16.755-.011,25.133-.011C-1860.086,4108.364-1860.193,4108.385-1860.192,4107.731Zm-9.151-7.049c.008.172-.082.227-.239.222-.13,0-.261,0-.391,0h-6.991c-2.312,0-4.625.053-6.935-.015a5.293,5.293,0,0,1-4.807-3.03,4.528,4.528,0,0,1,1.431-5.6,5.278,5.278,0,0,1,3.36-1.187q7.019-.015,14.039,0l.335,0c.141,0,.195.083.2.212q0,.168,0,.336,0,4.39,0,8.781C-1869.343,4100.5-1869.348,4100.589-1869.343,4100.682Z" transform="translate(2027.68 -4068.542)" fill="#231f20"/>
</svg>
