<svg id="partners4" xmlns="http://www.w3.org/2000/svg" width="323.69" height="49.343" viewBox="0 0 323.69 49.343">
  <g id="_2691416444576" transform="translate(0 0)">
    <g id="_1992784404816">
      <path id="路径_4366" data-name="路径 4366" d="M88.115,49.065c11.639-2.7.346-29.375,7.76-35.611,3.187-2.633,11.778-3.118,11.778,6.443,0,7-.346,14.826,0,21.754.416,8.383,8.245,9.422,11.917,5.473,3.118-3.326,2.009-14.618,2.009-19.884,0-7,.9-14.133-2.356-19.537-5.681-9.63-20.508-10.115-29.029-1.455-2.009-1.178-4.78-6.3-14.411-6.166C71,.152,63.658,3.754,61.926,6.249,60.056,5.14,56.453.013,48.9.082A15.058,15.058,0,0,0,36.43,6.318C32.828,11.306,26.384,30.5,24.514,32.16L13.706,6.456C12.32,3.269,11.627,1.052,8.232.221A6.577,6.577,0,0,0,.4,4.1c-1.316,3.326.831,6.166,2.009,8.868,2.356,5.4,4.988,11.085,7.552,16.351,4.365,9.007,6.928,20.715,16.074,19.815,7.413-.762,10.947-13.025,14.619-21.062,2.217-4.85,4.988-11.778,7.76-16,2.494-.208,2.91.139,2.979,2.563V30.844c0,6.928-1.386,15.311,4.088,17.736a6.719,6.719,0,0,0,7.967-1.732c3.949-4.5.277-23.279,2.148-30.207,1.593-5.75,10.254-6.79,13.094-1.247,2.494,4.85-1.039,25.565,2.009,30.692A6.708,6.708,0,0,0,87.976,49h0Z" transform="translate(0.01 0.002)" fill="#716f75" fill-rule="evenodd"/>
      <path id="路径_4367" data-name="路径 4367" d="M52.007,12.117C53.185,13.78,61.845,39.83,63.37,44.194c1.593,4.434,4.78,4.573,6.79,3.048,1.8-1.386,7.967-20.23,9.007-23,1.94-5.4,3.88-10.6,5.82-15.935.9-2.563,2.494-5.82,0-7.413a3.914,3.914,0,0,0-4.226.208C79.374,2.279,69.051,32.763,68.012,36.5L57.688,7.267C56.58,4.011,56.095-.146,52.146.131,48.474.408,48.058,4.912,46.88,8.1c-1.178,3.326-2.217,6.3-3.326,9.561l-6.79,19.052c-4.018-10.6-7.344-21.685-11.154-32.285-.9-2.494-2.979-5.82-6.3-3.326-2.563,1.94-.831,4.919.139,7.621,1.871,5.4,3.741,10.392,5.612,15.727,1.871,5.4,3.811,10.6,5.681,16,.831,2.356,1.8,6.374,3.533,7.136a5.288,5.288,0,0,0,4.711-.346c1.593-1.109,6.513-16.9,7.413-19.468,1.039-3.048,4.434-13.926,5.681-15.727h0Z" transform="translate(106.577 0.716)" fill="#716f75" fill-rule="evenodd"/>
      <path id="路径_4368" data-name="路径 4368" d="M45.8,21.625c1.94-20.092,26.951-21.685,29.237,0Zm31.8,5.2c4.573-.069,4.85-1.593,4.434-6.028C78.984-8.79,38.523-5.672,38.731,24.466,38.869,44.211,57.714,53.01,72.61,45.943c1.8-.831,6.72-4.365,7.205-5.127.485-3.533-.208-2.494-1.455-4.226-3.326-.277-3.187.693-5.2,2.217a17.915,17.915,0,0,1-4.226,2.356,19.025,19.025,0,0,1-11.293.693c-7.067-1.94-12.194-9.353-11.639-15.034H77.6Z" transform="translate(229.667 0.976)" fill="#716f75" fill-rule="evenodd"/>
      <path id="路径_4369" data-name="路径 4369" d="M62.4,26.112c0,8.868-1.663,12.194-8.245,15.1-6.235,2.771-13.926,1.663-17.321-2.563C33.366,34.287,34.683,26.8,42.3,24.588c3.6-1.039,18.013-1.109,20.092,1.524h0Zm-.277,14.411c0,3.118-.485,6.374,2.494,7.136,3.533.9,4.434-2.009,4.434-5.058V23.826c0-6.166,0-11.709-2.979-16.281-2.217-3.464-6.1-5.958-11.778-7-6.582-1.178-24.8.416-20.715,6.72,1.593,2.425,4.088.9,6.3.139,4.711-1.663,11.847-1.732,16.281.416,3.88,1.871,6.513,6.512,5.82,12.471-4.018-.624-6.79-1.593-11.57-1.732-11.362-.416-24.872,3.6-22.309,17.667,2.078,11.57,19.33,15.935,30.623,7.344,2.563-1.94,2.286-2.494,3.326-3.118h0Z" transform="translate(164.779 1.131)" fill="#716f75" fill-rule="evenodd"/>
      <path id="路径_4370" data-name="路径 4370" d="M42.39,10.961c-.069-2.771.485-7.967-.97-9.63-2.009-2.356-5.612-.97-6.235,2.217-.485,2.633-.277,41.431.069,42.539a3.561,3.561,0,0,0,6.443.346c1.732-3.88-1.732-19.676,2.771-28.891A17.172,17.172,0,0,1,56.385,8.121c3.256-.693,6.235-1.039,5.265-5.2C60.4-2.271,50.634,1.816,47.239,5.211,43.29,9.16,45.3,7.359,43.082,10.338a3.12,3.12,0,0,1-.624.693h0Z" transform="translate(206.955 0.901)" fill="#716f75" fill-rule="evenodd"/>
      <path id="路径_4371" data-name="路径 4371" d="M49.018,1.842c6.1-2.633,8.868,6.443,3.464,8.383-5.889,2.078-8.73-6.1-3.464-8.383ZM49.434.387c-7.69,2.148-4.5,13.51,3.256,11.154C59.9,9.325,56.57-1.553,49.434.387Z" transform="translate(266.976 0.945)" fill="#716f75" fill-rule="evenodd"/>
      <path id="路径_4372" data-name="路径 4372" d="M46.835,2l2.009.208C48.637,3.6,48.567,3.6,46.766,3.6L46.835,2Zm-.9,3.88c2.286.277.554-.277,1.871-1.663,1.593.693.97,1.871,2.148,1.455.416-.346,1.178.485-.485-1.593C51.893,1.243,49.676.55,46.7.55c-1.663,0-1.039.485-.97,2.148a16.791,16.791,0,0,0,.208,3.256h0Z" transform="translate(270.129 3.276)" fill="#716f75" fill-rule="evenodd"/>
    </g>
  </g>
</svg>
