<svg id="partners2" xmlns="http://www.w3.org/2000/svg" width="204.689" height="57.391" viewBox="0 0 204.689 57.391">
  <path id="路径_7697" data-name="路径 7697" d="M-2398.329,3773.875a3.113,3.113,0,0,0,.281-.3q11.793-16.393,23.582-32.789,2.1-2.917,4.2-5.832c.112-.156.218-.316.392-.571h-16.373c-1.147,0-1.279.118-1.474,1.226q-.675,3.845-1.359,7.688c-.019.11-.059.216-.093.338H-2398v-18.3h44.227c.009.168.025.331.025.495,0,2.2-.008,4.4.01,6.593a1.6,1.6,0,0,1-.338,1.009q-14.161,19.638-28.311,39.284c-.089.123-.173.25-.31.449.226.014.373.03.519.03q8.528,0,17.057,0c.926,0,1.115-.162,1.273-1.053.481-2.716.966-5.431,1.453-8.175h8.43v17.653h-44.364Z" transform="translate(2398.329 -3725.332)"/>
  <path id="路径_7698" data-name="路径 7698" d="M-1683.865,3821.977c-.543-.061-1.085-.129-1.628-.179a22.833,22.833,0,0,1-7.69-1.972,17.024,17.024,0,0,1-8.872-9.676,26.733,26.733,0,0,1-1.638-7.392,34.177,34.177,0,0,1,.62-10.686,19.837,19.837,0,0,1,5.123-9.764,18.628,18.628,0,0,1,7.962-4.713,31.126,31.126,0,0,1,11.052-1.143,24.738,24.738,0,0,1,7.94,1.665,17,17,0,0,1,10.254,11.651,29.5,29.5,0,0,1,1.109,7.838,33.764,33.764,0,0,1-1.019,9.386,19.883,19.883,0,0,1-4.978,9.053,18.666,18.666,0,0,1-9.6,5.128c-1.667.357-3.385.482-5.079.715-.135.019-.268.058-.4.087Zm10.532-28.818-.138-.01-12.24,19.065c.2.1.346.185.5.253a8.378,8.378,0,0,0,3.47.682,7.386,7.386,0,0,0,7.245-4.585,17.968,17.968,0,0,0,1.444-5.863,38.114,38.114,0,0,0,0-7.632C-1673.117,3794.429-1673.238,3793.795-1673.333,3793.159Zm-16.869,11.448.134.009,12.035-18.652c-.219-.07-.363-.121-.509-.163a10.4,10.4,0,0,0-3.991-.354,7.6,7.6,0,0,0-6.4,4.284,16.644,16.644,0,0,0-1.654,7.179c-.059,1.737.016,3.48.086,5.219C-1690.469,3802.958-1690.306,3803.781-1690.2,3804.607Z" transform="translate(1864.317 -3764.586)"/>
  <path id="路径_7699" data-name="路径 7699" d="M-1827.734,3782.766c-.558-.062-1.116-.126-1.675-.184a15.5,15.5,0,0,1-5.07-1.307,9.56,9.56,0,0,1-5.235-6.687,23.288,23.288,0,0,1-.669-5.849q-.024-11.229-.006-22.46c0-.929-.1-1.031-1.057-1.031h-5.469v-8.48c.711-.116,1.436-.213,2.152-.355a10.665,10.665,0,0,0,5.848-2.884,10.679,10.679,0,0,0,2.59-4.994c.256-1.029.443-2.074.669-3.147h8.155c.009.177.024.355.024.533q0,4.934,0,9.869c0,.923.108,1.033,1.016,1.033h11.688v8.4c-.157.009-.334.026-.511.026h-11.571c-.552,0-.552,0-.552.562,0,6.9-.013,13.811.014,20.716a15.891,15.891,0,0,0,.316,3.076c.5,2.461,2.011,3.339,4.238,3.569a17.781,17.781,0,0,0,6.905-.868c.133-.039.267-.072.432-.115l3.109,7.207c-1.031.423-2.012.854-3.014,1.229a34.45,34.45,0,0,1-8.652,2.024c-.318.032-.635.079-.952.119Z" transform="translate(1974.325 -3725.375)"/>
  <path id="路径_7700" data-name="路径 7700" d="M-2153.339,3801.863h-25.835c.079.656.129,1.268.229,1.872a10.507,10.507,0,0,0,2,4.944,8.2,8.2,0,0,0,5.76,2.992,24.578,24.578,0,0,0,10.082-1.239c1.447-.438,2.876-.936,4.357-1.422.052.122.117.258.169.4.926,2.478,1.842,4.959,2.784,7.431.138.362.063.5-.274.662a42.038,42.038,0,0,1-10.9,3.556,34.881,34.881,0,0,1-8.257.378,25.331,25.331,0,0,1-7.332-1.5,17.086,17.086,0,0,1-10.437-10.971,28.765,28.765,0,0,1-1.463-7.6,37.817,37.817,0,0,1,.1-6.79,21.4,21.4,0,0,1,5.281-12.493,18.355,18.355,0,0,1,9.551-5.463,24.848,24.848,0,0,1,12.275.13,14.747,14.747,0,0,1,10.713,10.4,24.881,24.881,0,0,1,1.187,7.093C-2153.295,3796.756-2153.339,3799.276-2153.339,3801.863Zm-25.759-7.886h12.838c.085,0,.188.029.251-.009.1-.059.238-.171.231-.248a31.722,31.722,0,0,0-.411-3.66c-.61-2.822-2.1-4.746-5.173-5a6.076,6.076,0,0,0-6.342,3.237A14.528,14.528,0,0,0-2179.1,3793.978Z" transform="translate(2240.106 -3764.223)"/>
  <path id="路径_7701" data-name="路径 7701" d="M-1976.136,3782.251c-.855.038-1.659.066-2.462.109a25.054,25.054,0,0,0-9.525,2.23,12.072,12.072,0,0,0-3.434,2.322,1.049,1.049,0,0,0-.353.81q.015,10.953.008,21.906c0,.17.008.34.018.51.035.615.211.879.83,1,.775.156,1.565.24,2.349.349.63.088,1.261.168,1.918.254v6.8h-23.154v-6.874c1.127-.147,2.247-.289,3.366-.439.35-.047.7-.1,1.044-.178a.928.928,0,0,0,.753-.91c.018-.212.025-.425.025-.637q0-12.377,0-24.755c0-1.3-.242-1.639-1.485-2.081l-4.224-1.5c.118-.923.232-1.832.352-2.739.16-1.22.33-2.44.483-3.662.041-.325.092-.529.519-.527,4.721.017,9.443.01,14.164.011.125,0,.251.014.416.023.145.962.291,1.909.43,2.857.177,1.2.343,2.41.529,3.612.017.111.133.286.211.291a.58.58,0,0,0,.435-.148c.319-.4.589-.833.894-1.24a16.347,16.347,0,0,1,5.352-4.831,10.636,10.636,0,0,1,5.2-1.359c1.667.027,3.333.172,5,.264.2.011.344.059.343.319C-1976.138,3776.764-1976.136,3779.485-1976.136,3782.251Z" transform="translate(2100.081 -3762.338)"/>
</svg>
