<?xml version="1.0" encoding="UTF-8"?>
<svg width="38px" height="45px" viewBox="0 0 38 45" version="1.1" xmlns="http://www.w3.org/2000/svg" xmlns:xlink="http://www.w3.org/1999/xlink">
    <title>手势说明</title>
    <g id="页面-1" stroke="none" stroke-width="1" fill="none" fill-rule="evenodd">
        <g id="1-Download" transform="translate(-1268.000000, -911.000000)" fill="#000000" fill-rule="nonzero">
            <g id="手势说明" transform="translate(1268.000000, 911.184669)">
                <path d="M33.4200412,17.0940199 L33.2880411,17.0940199 C32.5180402,17.0940199 31.7480393,17.3140201 31.0880385,17.7320206 C30.4720378,16.1920188 28.9980361,15.1140176 27.238034,15.1140176 L27.1060339,15.1140176 C26.380033,15.1140176 25.6760322,15.3120178 25.0380315,15.6640182 C24.5540309,13.9260162 22.948029,12.6500147 21.0560268,12.6500147 L20.9240267,12.6500147 C20.2640259,12.6500147 19.6040251,12.8040149 19.0100244,13.1120153 L19.0100244,9.37201091 C19.0100244,7.08400824 17.1620223,5.23600609 14.8740196,5.23600609 L14.7420195,5.23600609 C12.4540168,5.23600609 10.6060147,7.08400824 10.6060147,9.37201091 L10.6060147,23.5180274 C10.6060147,23.6720275 10.5400146,23.8260277 10.4300145,23.9360279 C10.1880142,24.1780281 9.81401375,24.1780281 9.55001344,23.9580279 L7.94401157,22.4180261 L7.83401144,22.308026 C6.20600955,20.8560243 3.69800663,21.0100244 2.24600494,22.6380263 L1.85000448,23.0780269 C0.574002995,24.5080285 0.486002893,26.642031 1.6080042,28.1820328 L9.96801393,39.6880462 C11.9480162,42.3940493 15.0940199,44.0000512 18.4380238,44.0000512 L26.9960337,44.0000512 C32.7820405,44.0000512 37.4680459,39.2920457 37.4680459,33.506039 L37.4680459,21.2300247 C37.556046,18.942022 35.7080439,17.0940199 33.4200412,17.0940199 Z M34.938043,33.506039 C34.938043,37.8620441 31.4180389,41.3820482 27.0620338,41.3820482 L18.5260239,41.3820482 C16.018021,41.3820482 13.6420182,40.1720467 12.1680165,38.1480444 L3.80800676,26.642031 C3.4120063,26.0920304 3.43400632,25.3220295 3.89600686,24.8160289 L4.29200732,24.3760284 L4.33600737,24.3320283 C4.60000768,24.068028 4.93000806,23.9140278 5.3040085,23.9140278 C5.65600891,23.9140278 5.98600929,24.046028 6.2500096,24.2880283 L7.85601147,25.8280301 C8.45001216,26.4000307 9.26401311,26.7300311 10.1000141,26.7300311 C10.9800151,26.7300311 11.8160161,26.3780307 12.4320168,25.74003 C13.0040175,25.1460293 13.3340178,24.3320283 13.3340178,23.4960273 L13.3340178,9.37201091 C13.3340178,8.53600993 14.0160186,7.85400914 14.8520196,7.85400914 L14.9400197,7.85400914 C15.7760207,7.85400914 16.4580215,8.53600993 16.4580215,9.37201091 L16.4580215,22.6380263 C16.4580215,23.4960273 17.0960222,24.1340281 17.9540232,24.1340281 C18.8120242,24.1340281 19.450025,23.4960273 19.450025,22.6380263 L19.450025,16.7860195 C19.450025,15.9500186 20.1320258,15.2680178 20.9680267,15.2680178 L21.1000269,15.2680178 C21.9360279,15.2680178 22.6180286,15.9500186 22.6180286,16.7860195 L22.6180286,24.1340281 C22.6180286,24.9920291 23.2560294,25.6300298 24.1140304,25.6300298 C24.9720314,25.6300298 25.6100321,24.9920291 25.6100321,24.1340281 L25.6100321,19.2500224 C25.6100321,18.4140214 26.2920329,17.7320206 27.1280339,17.7320206 L27.260034,17.7320206 C28.096035,17.7320206 28.7780358,18.4140214 28.7780358,19.2500224 L28.7780358,25.6080298 C28.7780358,26.4660308 29.4160366,27.1040315 30.2740376,27.1040315 C31.1320386,27.1040315 31.7700393,26.4660308 31.7700393,25.6080298 L31.7700393,21.2300247 C31.7700393,20.3940237 32.4520401,19.7120229 33.2880411,19.7120229 L33.4200412,19.7120229 C34.2560422,19.7120229 34.938043,20.3940237 34.938043,21.2300247 L34.938043,33.506039 L34.938043,33.506039 Z" id="形状"></path>
                <path d="M23.4100296,8.44800983 C23.4100296,8.99801047 22.7500288,9.43801098 22.2000282,9.43801098 C21.6500275,9.43801098 20.9900268,8.99801047 20.9900268,8.44800983 C20.9900268,5.72000666 17.8660231,2.574003 14.7420195,2.64000307 C11.5960158,2.68400312 8.73601249,5.23600609 8.49401221,8.44800983 C8.49401221,8.99801047 7.83401144,9.43801098 7.2840108,9.43801098 C6.73401016,9.43801098 6.0740094,8.99801047 6.0740094,8.44800983 C6.0740094,3.7840044 10.056014,0 14.7420195,0 C19.4280249,0 23.4100296,3.7840044 23.4100296,8.44800983 L23.4100296,8.44800983 Z" id="路径"></path>
            </g>
        </g>
    </g>
</svg>