<?xml version="1.0" encoding="UTF-8"?>
<svg width="86px" height="98px" viewBox="0 0 86 98" version="1.1" xmlns="http://www.w3.org/2000/svg" xmlns:xlink="http://www.w3.org/1999/xlink">
    <!-- Generator: Sketch 63.1 (92452) - https://sketch.com -->
    <title>组 1472</title>
    <desc>Created with Sketch.</desc>
    <defs>
        <linearGradient x1="115%" y1="28%" x2="11.1%" y2="71%" id="linearGradient-1">
            <stop stop-color="#40B992" offset="0%"></stop>
            <stop stop-color="#40B992" stop-opacity="0.769" offset="16.3%"></stop>
            <stop stop-color="#40B992" stop-opacity="0.443" offset="42%"></stop>
            <stop stop-color="#40B992" stop-opacity="0.204" offset="63.8%"></stop>
            <stop stop-color="#40B992" stop-opacity="0.055" offset="80.6%"></stop>
            <stop stop-color="#40B992" stop-opacity="0" offset="90.5%"></stop>
        </linearGradient>
        <linearGradient x1="35.9%" y1="69.8%" x2="57.4%" y2="39.7%" id="linearGradient-2">
            <stop stop-color="#40B992" offset="0%"></stop>
            <stop stop-color="#40B992" stop-opacity="0.753" offset="11.5%"></stop>
            <stop stop-color="#40B992" stop-opacity="0.525" offset="24.2%"></stop>
            <stop stop-color="#40B992" stop-opacity="0.337" offset="37.1%"></stop>
            <stop stop-color="#40B992" stop-opacity="0.188" offset="50.2%"></stop>
            <stop stop-color="#40B992" stop-opacity="0.082" offset="63.3%"></stop>
            <stop stop-color="#40B992" stop-opacity="0.02" offset="76.6%"></stop>
            <stop stop-color="#40B992" stop-opacity="0" offset="90.5%"></stop>
        </linearGradient>
        <linearGradient x1="136.3%" y1="20%" x2="49.9%" y2="54.9%" id="linearGradient-3">
            <stop stop-color="#40B992" offset="0%"></stop>
            <stop stop-color="#40B992" stop-opacity="0.769" offset="16.3%"></stop>
            <stop stop-color="#40B992" stop-opacity="0.443" offset="42%"></stop>
            <stop stop-color="#40B992" stop-opacity="0.204" offset="63.8%"></stop>
            <stop stop-color="#40B992" stop-opacity="0.055" offset="80.6%"></stop>
            <stop stop-color="#40B992" stop-opacity="0" offset="90.5%"></stop>
        </linearGradient>
    </defs>
    <g id="组-1472" stroke="none" stroke-width="1" fill="none" fill-rule="evenodd">
        <g transform="translate(4.000000, 0.000000)" fill-rule="nonzero">
            <g id="组_791" transform="translate(27.624000, 1.068600)">
                <path d="M15.2034,32.538 L18.222,47.3178 C18.2501454,47.4550446 18.1860303,47.5946892 18.0636,47.6628 L10.2366,52.038 C9.80547569,52.2791731 9.53708777,52.7333015 9.53370487,53.2272868 C9.53038545,53.721272 9.79258742,54.1789999 10.2204,54.426 L16.3272,57.9192 C17.1197384,58.3769146 18.0947277,58.3835255 18.8934,57.9366 L27.555,53.0964 C27.763471,52.9804694 27.8725532,52.7426265 27.8244,52.509 L24.8394,37.8906 L15.2034,32.538 Z" id="路径_6976" fill="#EDEEEE"></path>
                <g id="组_788" transform="translate(9.358200, 37.890600)" fill="#22877A">
                    <path d="M19.3578,14.958 L16.4334,0.5454 L15.4806,-3.41060513e-14 L18.4656,14.6184 C18.5139548,14.8520494 18.4048199,15.0900072 18.1962,15.2058 L9.5346,20.046 C8.73592773,20.4929255 7.7609384,20.4863146 6.9684,20.0286 L0.8616,16.5354 C0.324640769,16.2279546 0.0608971097,15.598365 0.2184,15 L0.0876,15.4962 C0.055571165,15.5824991 0.0320592525,15.6717238 0.0174,15.7626 L0.0144,15.774 L0.0144,15.774 C-0.0743956283,16.3336771 0.192157144,16.8899507 0.684,17.1714 L6.9666,20.7882 C7.7593011,21.2453153 8.73397317,21.251924 9.5328,20.8056 L19.0866,15.5454 C19.2954674,15.4297331 19.4052288,15.1919977 19.3578,14.958 L19.3578,14.958 Z" id="路径_6977"></path>
                </g>
                <path d="M27.8238,52.509 L24.8388,37.8906 L15.2028,32.538 L18.222,47.3178 C18.2499452,47.4550216 18.1858824,47.5945524 18.0636,47.6628 L27.5544,53.0964 C27.7630199,52.9806072 27.8721548,52.7426494 27.8238,52.509 Z" id="路径_6978" fill="#E4E7E9"></path>
                <path d="M41.2302,24.0486 L1.4622,0.921 C1.1613793,0.746175606 0.7901113,0.745245772 0.488418692,0.918561181 C0.186726084,1.09187659 0.000509496631,1.4130684 0,1.761 L0,30.3648 L42.0762,54.8748 L42.0762,25.5198 C42.0762,24.9137653 41.753989,24.3534331 41.2302,24.0486 L41.2302,24.0486 Z" id="路径_6979" fill="#E4E7E9"></path>
                <path d="M1.5912,28.6092 L40.1082,51.0456 C40.2912624,51.1520071 40.5172079,51.1525788 40.7008065,51.0470994 C40.884405,50.94162 40.998,50.746141 40.998,50.5344 L40.998,26.3664 C40.998,26.0753946 40.843076,25.8063808 40.5918,25.6596 L2.0718,3.2196 C1.9095246,3.1250496 1.70907523,3.1245008 1.54628453,3.2181612 C1.38349382,3.31182161 1.28339226,3.48538879 1.28339226,3.6732 L1.28339226,28.0716 C1.28229427,28.292998 1.39970857,28.4980725 1.5912,28.6092 L1.5912,28.6092 Z" id="路径_6980" fill="#FFFFFF"></path>
                <path d="M-1.36424184e-13,33.1422 C-0.000132711354,34.426174 0.682474973,35.6133675 1.7922,36.2592 L39.996,58.4772 C40.4242037,58.725999 40.9527028,58.7270759 41.3819169,58.4800239 C41.811131,58.232972 42.0756,57.7754367 42.0756,57.2802 L42.0756,54.8754 L-0.0006,30.3654 L-1.36424184e-13,33.1422 Z" id="路径_6981" fill="#A7A9AC"></path>
                <g id="组_789" transform="translate(0.292800, 0.000000)" fill="#22877A">
                    <path d="M42.2202,23.2566 L2.4522,0.129 C2.09296694,-0.067766861 1.65036156,-0.0274437555 1.3326,0.231 L1.3326,0.231 L0.342,0.8532 C0.613998799,0.749578419 0.918321737,0.774957055 1.1694,0.9222 L40.9374,24.0498 C41.461189,24.3546331 41.7834028,24.9149653 41.7834,25.521 L41.7834,57.282 C41.7861396,57.7738946 41.5248043,58.2294565 41.0988,58.4754 L41.0988,58.4754 L42.375,57.6864 L42.375,57.6864 C42.8051467,57.4405202 43.0693393,56.9818525 43.0662277,56.4864 L43.0662277,24.7266 C43.0662277,24.1208953 42.743889,23.5609484 42.2202,23.2566 L42.2202,23.2566 Z" id="路径_6982"></path>
                </g>
                <g id="组_790" transform="translate(17.611200, 41.733000)" fill="#22877A">
                    <path d="M0,1.4448 C-0.0397842827,2.17327208 0.326076202,2.86413671 0.951,3.2406 C1.23786935,3.4073174 1.59234873,3.40637968 1.87833203,3.2381469 C2.16431532,3.06991412 2.33735093,2.7605354 2.331,2.4288 C2.29533032,1.71260707 1.88774651,1.06720915 1.2564,0.7272 C1.00136755,0.558156473 0.672846277,0.547245168 0.40715923,0.698993835 C0.141472182,0.850742502 -0.0160337604,1.13925101 0,1.4448 Z" id="路径_6984"></path>
                </g>
            </g>
            <path d="M68.2128,26.7276 L29.6928,4.2876 C29.5498326,4.20416056 29.3754634,4.19456021 29.2242,4.2618 L29.172,4.2018 L8.7186,13.3218 L8.559,61.0488 L69.1296,97.8348 C69.1296,97.8348 68.619,51.8886 68.619,51.6048 L68.619,27.4368 C68.6194097,27.1449705 68.464726,26.8749023 68.2128,26.7276 L68.2128,26.7276 Z" id="路径_6985" fill="url(#linearGradient-1)" opacity="0.8"></path>
            <g id="组_797" transform="translate(10.437600, 32.975400)">
                <polygon id="路径_6986" stroke="#FFFFFF" stroke-width="0.5" fill="#A0A3A8" opacity="0.5" points="52.0668 48.9534 10.9926 25.4586 0.2304 31.6692 41.2494 55.3596"></polygon>
                <polygon id="路径_6987" fill="#CDD0D3" opacity="0.5" points="10.986 25.4586 10.9368 0.1386 0.1194 6.5448 0.2304 31.6698"></polygon>
                <polygon id="路径_6988" stroke="#FFFFFF" stroke-width="0.5" fill="#AAADAF" opacity="0.5" points="10.9368 0.138 10.986 25.458 52.0668 48.9528 51.9372 23.7408"></polygon>
                <g id="组_792" transform="translate(0.119400, 0.243600)" fill="#FFFFFF" opacity="0.7" stroke="#FFFFFF" stroke-width="0.5">
                    <polygon id="路径_6989" points="0.0978 31.536 41.13 55.221 41.0622 30.111 0.0006 6.4056"></polygon>
                    <polygon id="路径_6990" points="51.879 23.7048 10.8174 -0.0006 0 6.4056 41.0616 30.111 41.1294 55.221 51.9468 48.8148"></polygon>
                </g>
                <g id="组_796" fill="#FFFFFF">
                    <g id="组_793">
                        <path d="M41.25,55.497 L41.19,55.4622 L0.1128,31.7376 L0.0006,6.4776 L10.9374,0.0012 L10.9974,0.036 L52.1184,23.775 L52.1862,49.0218 L41.25,55.497 Z M0.3486,31.6026 L41.2476,55.2234 L51.9474,48.888 L51.8796,23.9142 L10.9374,0.2778 L0.237,6.6108 L0.3486,31.6026 Z" id="路径_6991"></path>
                    </g>
                    <g id="组_794" transform="translate(0.060000, 6.441000)">
                        <polygon id="路径_6992" points="41.2422 48.918 41.0022 48.918 41.0022 23.982 0 0.2058 0.12 0 41.241 23.8452"></polygon>
                    </g>
                    <g id="组_795" transform="translate(41.119200, 23.741400)">
                        <rect id="矩形_158" transform="translate(5.470400, 3.356978) rotate(-31.041000) translate(-5.470400, -3.356978) " x="-0.842800158" y="3.23817776" width="12.6264" height="1"></rect>
                    </g>
                </g>
                <path d="M52.017,30.9642 L52.017,30.5976 L47.2644,33.3768 L47.2644,26.9058 L44.8044,25.4922 L49.6542,22.5948 L49.3392,22.4148 L44.4888,25.3122 L37.9488,21.5526 L42.813,18.6456 L42.4992,18.4656 L37.6434,21.3672 L37.6536,21.3846 L30.4578,17.2494 L35.3382,14.3322 L35.0244,14.1522 L30.1434,17.0694 L23.7234,13.3788 L28.6194,10.4532 L28.3044,10.2732 L23.4078,13.1982 L16.9878,9.5082 L21.8988,6.5736 L21.5838,6.3936 L16.6884,9.3192 L16.7046,9.3468 L9.2538,5.064 L14.1816,2.1204 L13.8678,1.9404 L8.9394,4.8852 L5.982,3.1866 L5.6682,3.372 L12.762,7.4484 L7.2636,10.6338 L7.2636,17.0934 L0.1476,12.9846 L0.1476,13.3518 L10.1532,19.1286 L10.11,19.1286 L10.11,25.5042 L0.1734,19.7658 L0.1734,20.1324 L4.9344,22.8828 L4.929,22.8828 L4.929,29.2704 L0.198,26.5386 L0.198,26.9058 L9.156,32.0784 L9.156,36.9384 L9.474,37.1214 L9.474,32.2614 L17.6664,36.9924 L17.6664,41.8524 L17.9832,42.0354 L17.9832,37.1754 L25.224,41.3568 L25.224,46.2132 L25.5408,46.3962 L25.5408,41.5398 L29.1876,43.6458 L29.1876,43.725 L29.3256,43.725 L34.176,46.5258 L34.1298,46.5258 L34.1298,51.3534 L34.4466,51.5364 L34.4466,46.6818 L38.3844,48.9558 L38.3844,48.9558 L38.3844,48.9558 L41.3244,50.6526 L41.4048,50.6988 L44.5686,48.8478 L44.5686,53.4966 L44.8854,53.3082 L44.8854,48.6624 L50.316,45.4872 L50.316,50.0928 L50.6328,49.9044 L50.6328,45.3018 L52.0536,44.4702 L52.0536,44.1036 L47.7402,46.6236 L47.7402,40.2642 L47.685,40.2642 L52.0374,37.7196 L52.0374,37.3524 L50.5302,38.2344 L50.5302,31.836 L52.017,30.9642 Z M46.9452,27.0894 L46.9452,33.5628 L41.4024,36.8028 L36.4344,33.9342 L36.4344,27.618 L42.0564,24.3606 L41.9874,24.2406 L46.9452,27.0894 Z M36.2802,34.2126 L41.3202,37.1244 L41.4006,37.1706 L44.3004,35.475 L44.3004,41.8728 L41.4,43.5684 L33.0954,38.7732 L33.0954,32.3748 L36.1152,34.1178 L36.1152,34.2126 L36.2802,34.2126 Z M41.8086,24.1368 L36.1176,27.4368 L36.1176,33.7536 L29.2176,29.7708 L29.2176,23.4156 L34.8408,20.1582 L34.8192,20.121 L41.8086,24.1368 Z M29.004,30.0102 L32.7804,32.1918 L32.7804,38.5884 L25.5396,34.407 L25.5396,28.0098 L28.8996,29.9514 L28.8996,30.0114 L29.004,30.0102 Z M29.8632,17.2716 L30.0084,17.5116 L30.1434,17.4306 L34.5462,19.9608 L28.9026,23.2296 L28.9026,29.5884 L22.0056,25.6056 L22.0056,19.2138 L27.6012,15.9738 L29.8632,17.2716 Z M21.7272,25.809 L25.2222,27.8268 L25.2222,34.2258 L17.9814,30.0444 L17.9814,23.6454 L21.6876,25.7856 L21.6876,25.809 L21.7272,25.809 Z M27.2832,15.789 L21.6876,19.029 L21.6876,25.4166 L14.7876,21.4338 L14.7876,15.012 L20.3358,11.7978 L27.2832,15.789 Z M17.6646,23.4618 L17.6646,29.8608 L10.4226,25.68 L10.4226,19.2804 L17.6646,23.4618 Z M7.5756,17.2698 L7.5756,10.8084 L13.0752,7.623 L20.0196,11.6142 L14.4726,14.8278 L14.4726,21.2514 L7.5756,17.2698 Z M13.806,28.0284 L13.806,34.3986 L5.2428,29.4534 L5.2428,23.0544 L10.1028,25.8624 L10.1028,25.881 L10.134,25.881 L13.854,28.0284 L13.806,28.0284 Z M22.1034,39.1884 L17.9814,36.8076 L17.9814,36.7476 L17.8764,36.7476 L14.1228,34.5804 L14.1228,28.1832 L22.1028,32.7918 L22.1034,39.1884 Z M29.1834,37.011 L29.1834,43.2786 L25.5366,41.1726 L25.5366,41.1084 L25.4244,41.1084 L22.419,39.3726 L22.419,32.9748 L29.412,37.0134 L29.1834,37.011 Z M38.3802,42.243 L38.3802,48.5886 L29.5002,43.4616 L29.5002,37.065 L38.4714,42.246 L38.3802,42.243 Z M47.4186,46.8114 L41.3994,50.3316 L38.6994,48.7716 L38.6994,42.3756 L41.322,43.89 L41.4024,43.9362 L47.421,40.4172 L47.4186,46.8114 Z M50.2062,38.4162 L44.6166,41.6844 L44.6166,35.2962 L44.6064,35.2962 L47.0472,33.8688 L47.2602,33.8688 L47.2602,33.7446 L50.2062,32.0208 L50.2062,38.4162 Z" id="路径_6993" fill="#221F1F" opacity="0.3"></path>
            </g>
            <polygon id="路径_6994" fill="url(#linearGradient-2)" opacity="0.6" points="68.34 37.1034 0 0 22.8642 28.1784 63.8634 51.6438 68.5512 52.0638"></polygon>
            <path d="M68.2572,26.7438 L29.7372,4.3038 C29.594193,4.22095175 29.4201046,4.21180096 29.2692,4.2792 L29.2164,4.2192 L6.471,14.3592 L7.7592,41.0556 L21.6324,32.9286 L62.9376,56.8188 L63.1494,99.7368 L67.8528,102.696 L68.6616323,27.456 C68.6641993,27.1632758 68.509911,26.8915544 68.2572,26.7438 Z" id="路径_6995" fill="url(#linearGradient-3)"></path>
        </g>
    </g>
</svg>