<?xml version="1.0" encoding="UTF-8"?>
<svg width="86px" height="98px" viewBox="0 0 86 98" version="1.1" xmlns="http://www.w3.org/2000/svg" xmlns:xlink="http://www.w3.org/1999/xlink">
    <!-- Generator: Sketch 63.1 (92452) - https://sketch.com -->
    <title>组 1968</title>
    <desc>Created with Sketch.</desc>
    <defs>
        <linearGradient x1="3.16413562e-13%" y1="45%" x2="93.7%" y2="54.1%" id="linearGradient-1">
            <stop stop-color="#514C9D" offset="0%"></stop>
            <stop stop-color="#645AA5" offset="100%"></stop>
        </linearGradient>
        <linearGradient x1="-2.33146835e-13%" y1="45%" x2="93.7%" y2="54.1%" id="linearGradient-2">
            <stop stop-color="#514C9D" offset="0%"></stop>
            <stop stop-color="#645AA5" offset="100%"></stop>
        </linearGradient>
    </defs>
    <g id="组-1968" stroke="none" stroke-width="1" fill="none" fill-rule="evenodd">
        <g transform="translate(1.000000, 12.000000)">
            <path d="M48.0418976,52.4321732 L36.0379518,45.5018313 C35.5970527,45.2472154 35.6545045,44.8054458 36.161125,44.5107877 L48.8823479,37.1452048 C49.4108405,36.8505103 50.0478043,36.824024 50.5989383,37.0738253 L62.602884,44.0041672 C63.0437831,44.2587831 62.9863313,44.7005527 62.4797108,44.9952108 L49.7558765,52.3581822 C49.2273839,52.6528767 48.5904201,52.6793631 48.0392861,52.4295617 L48.0418976,52.4321732 Z" id="路径_12227" fill="#22877A" fill-rule="nonzero"></path>
            <path d="M48.2199111,49.321506 C48.6609333,49.5053035 49.1615331,49.4790488 49.5809096,49.2501265 L62.3021325,41.8845437 C62.4801461,41.7805211 62.5458675,41.6764985 62.5458675,41.6325392 C62.5458675,41.605119 62.5101777,41.5585482 62.4253057,41.509366 L50.4213599,34.5790241 C49.9805614,34.3939387 49.4793809,34.4202238 49.0603614,34.6504036 L36.3391386,42.013375 C36.161125,42.1173976 36.0954036,42.2214202 36.0954036,42.2653795 C36.0954036,42.2927997 36.1310934,42.3393705 36.2159654,42.3885527 L48.2199111,49.3188946 L48.2199111,49.321506 Z M48.7896416,50.1536867 C48.467685,50.1612867 48.1491395,50.08637 47.8643193,49.9360663 L35.8603735,43.0057244 C35.5796229,42.8636584 35.3982454,42.5802561 35.3868313,42.2658148 C35.4146673,41.8900811 35.6426832,41.5584519 35.9835467,41.3979443 L48.7047696,34.0349729 C49.3437335,33.6784333 50.1154082,33.6518573 50.777387,33.9635934 L62.7813328,40.8939352 C63.0620835,41.0360012 63.2434609,41.3194035 63.254875,41.6338449 C63.227039,42.0095785 62.9990231,42.3412078 62.6581596,42.5017154 L49.9365015,49.8690392 C49.5852353,50.0624471 49.1901866,50.1624082 48.7892063,50.1594132 L48.7896416,50.1536867 Z" id="路径_12228" fill="#F5F5F5" fill-rule="nonzero"></path>
            <path d="M48.8823479,46.8654413 C49.0747613,46.6960075 49.1736213,46.4441578 49.1478449,46.1890768 L49.1478449,16.8834322 C49.1405881,16.5590011 49.0591485,16.2405381 48.9097681,15.9524518 L51.1730211,14.6467289 L51.4028283,14.5161566 L57.4265633,11.0385813 L57.6563705,10.908009 L62.879262,7.89353012 C63.0312211,8.18280534 63.113773,8.5034762 63.1203855,8.83016867 L63.1203855,38.1362485 C63.1489617,38.39889 63.0416522,38.6579752 62.835738,38.823494 L62.835738,38.823494 L62.8109292,38.8369864 L62.8052711,38.8395979 L61.0116431,39.8746009 L60.2995889,40.2854684 L59.4095211,40.7973117 L59.1797139,40.927884 L58.2269714,41.4780286 L48.8845241,46.866747 L48.8823479,46.8654413 Z" id="路径_12229" fill="#37BF95"></path>
            <path d="M48.9071566,15.9520166 C48.7704594,15.6591468 48.5541882,15.4106009 48.2830211,15.2347395 L36.0366461,8.16512048 C35.9339021,8.10061991 35.8158051,8.06470998 35.6945467,8.06109789 C35.6284691,8.0603838 35.5630581,8.07435797 35.5030407,8.10201054 L49.4490316,0.0548403614 L49.4490316,0.0548403614 C49.5156993,0.0182786916 49.5906194,-0.000601150034 49.6666521,-1.39194607e-05 C49.7875514,0.0041366526 49.9052341,0.040011855 50.007881,0.10402259 L62.2555617,7.17364157 C62.5251157,7.34835333 62.7404065,7.595003 62.8770858,7.88569578 L57.6541943,10.9001747 L57.424387,11.030747 L51.4006521,14.5083223 L51.4006521,14.5083223 L51.1708449,14.6388946 L48.9075919,15.9446175 L48.9071566,15.9520166 Z" id="路径_12230" fill="#5DC4A2"></path>
            <path d="M48.284762,46.8410678 L36.0370813,39.7714488 C35.5043879,39.3898478 35.1845537,38.7779629 35.1753042,38.122756 L35.1753042,8.81711145 C35.1753042,8.18165964 35.561363,7.89178916 36.0379518,8.16425 L48.284762,15.2351747 C48.8176625,15.6164986 49.1378205,16.2282232 49.14741,16.8834322 L49.14741,46.189512 C49.1478449,46.8245286 48.7635271,47.1174458 48.284762,46.8410678 Z" id="路径_12231" fill="#5DC4A2" fill-rule="nonzero"></path>
            <path d="M48.5454714,15.0867575 L36.2977907,8.01713855 C36.0920888,7.85782271 35.7994094,7.87902321 35.6188148,8.06632078 C35.7646943,8.05031676 35.911634,8.08505357 36.0349051,8.16468524 L48.2843268,15.2347395 C48.8172273,15.6160633 49.1373852,16.227788 49.1469744,16.882997 L49.1469744,46.1890768 C49.161004,46.4054493 49.0958791,46.6195415 48.963738,46.7914503 C49.2292349,46.7505377 49.4098599,46.4767711 49.4098599,46.0410949 L49.4098599,16.7354503 C49.3995775,16.0804174 49.079573,15.468986 48.5472123,15.0871928 L48.5454714,15.0867575 Z" id="路径_12232" fill="#F5F5F5" fill-rule="nonzero"></path>
            <path d="M47.5135151,45.0774714 L36.8065873,38.8970497 C36.3413889,38.563567 36.0619907,38.0291574 36.0536205,37.4568373 L36.0536205,10.2425256 C36.0536205,9.68672289 36.390497,9.43210693 36.8065873,9.67279518 L47.5135151,15.8532169 C47.9787135,16.1866996 48.2581117,16.7211092 48.2664819,17.2934292 L48.2664819,44.5103524 C48.2664819,45.0661551 47.9296054,45.3207711 47.5135151,45.0800828 L47.5135151,45.0774714 Z" id="路径_12233" fill="url(#linearGradient-1)"></path>
            <path d="M47.5135151,45.0774714 L36.8065873,38.8970497 C36.3413889,38.563567 36.0619907,38.0291574 36.0536205,37.4568373 L36.0536205,10.2425256 C36.0536205,9.68672289 36.390497,9.43210693 36.8065873,9.67279518 L47.5135151,15.8532169 C47.9787135,16.1866996 48.2581117,16.7211092 48.2664819,17.2934292 L48.2664819,44.5103524 C48.2664819,45.0661551 47.9296054,45.3207711 47.5135151,45.0800828 L47.5135151,45.0774714 Z" id="路径_12234" fill="url(#linearGradient-1)"></path>
            <path d="M47.5135151,45.0774714 L36.8065873,38.8970497 C36.3413889,38.563567 36.0619907,38.0291574 36.0536205,37.4568373 L36.0536205,10.2425256 C36.0536205,9.68672289 36.390497,9.43210693 36.8065873,9.67279518 L47.5135151,15.8532169 C47.9787135,16.1866996 48.2581117,16.7211092 48.2664819,17.2934292 L48.2664819,44.5103524 C48.2664819,45.0661551 47.9296054,45.3207711 47.5135151,45.0800828 L47.5135151,45.0774714 Z" id="路径_12235" fill="#F5F5F5" fill-rule="nonzero"></path>
            <path d="M47.863884,44.8720377 L37.1569563,38.691616 C36.6917579,38.3581333 36.4123597,37.8237236 36.4039895,37.2514036 L36.4039895,10.0349157 C36.3984379,9.87628476 36.4363657,9.71915527 36.5136702,9.58050375 C36.2451265,9.57791265 36.0562319,9.82687048 36.0562319,10.2403494 L36.0562319,37.4572726 C36.0646022,38.0295926 36.3440004,38.5640022 36.8091988,38.8974849 L47.5161265,45.0779066 C47.6141246,45.156896 47.7415196,45.1895928 47.8654452,45.1675616 C47.9893709,45.1455303 48.0976906,45.0709287 48.1624593,44.963003 C48.0577459,44.9590832 47.9558731,44.9278762 47.8669307,44.8724729 L47.863884,44.8720377 Z" id="路径_12236" fill="#22877A" fill-rule="nonzero"></path>
            <path d="M47.5130798,32.5808328 L43.5345422,30.283631 L37.1874232,33.9470542 L48.2656114,40.3450964 L48.2656114,34.0210452 C48.2572412,33.4487252 47.977843,32.9143155 47.5126446,32.5808328 L47.5130798,32.5808328 Z" id="路径_12237" fill="#21887A" fill-rule="nonzero"></path>
            <path d="M47.5130798,27.0040904 L43.5345422,24.7068886 L37.1878584,28.3694413 L48.2660467,34.7674834 L48.2660467,28.4434322 C48.2576764,27.8711122 47.9782782,27.3367026 47.5130798,27.0032199 L47.5130798,27.0040904 Z" id="路径_12238" fill="#21887A" fill-rule="nonzero"></path>
            <path d="M47.5130798,21.4256069 L43.5345422,19.1284051 L37.1878584,22.7918283 L48.2660467,29.1898705 L48.2660467,22.8658193 C48.2576764,22.2934993 47.9782782,21.7590896 47.5130798,21.4256069 L47.5130798,21.4256069 Z" id="路径_12239" fill="#21887A" fill-rule="nonzero"></path>
            <path d="M47.5130798,15.8510407 L43.5345422,13.5538389 L37.1878584,17.217262 L48.2660467,23.6153042 L48.2660467,17.291253 C48.2576764,16.718933 47.9782782,16.1845234 47.5130798,15.8510407 L47.5130798,15.8510407 Z" id="路径_12240" fill="#21887A" fill-rule="nonzero"></path>
            <path d="M47.5130798,15.8506054 L38.7046732,10.7661205 L37.1878584,11.6422605 L48.2660467,18.0403027 L48.2660467,17.2938645 C48.2575392,16.7216986 47.978156,16.1874794 47.5130798,15.8540873 L47.5130798,15.8506054 Z" id="路径_12241" fill="#21887A" fill-rule="nonzero"></path>
            <polygon id="路径_12242" fill="#5DC4A2" fill-rule="nonzero" points="48.2660467 18.0376913 37.1878584 11.6396491 37.1878584 15.1651009 48.2660467 21.5631431"></polygon>
            <polygon id="路径_12243" fill="#5DC4A2" fill-rule="nonzero" points="48.2660467 23.6135633 37.1878584 17.217262 37.1878584 20.7427139 48.2660467 27.140756"></polygon>
            <polygon id="路径_12244" fill="#5DC4A2" fill-rule="nonzero" points="48.2660467 29.190741 37.1878584 22.7918283 37.1878584 26.3172801 48.2660467 32.7153223"></polygon>
            <polygon id="路径_12245" fill="#5DC4A2" fill-rule="nonzero" points="48.2660467 34.7674834 37.1878584 28.3694413 37.1878584 31.8948931 48.2660467 38.2929352"></polygon>
            <polygon id="路径_12246" fill="#5DC4A2" fill-rule="nonzero" points="48.2660467 40.3433554 37.1878584 33.9453133 37.1878584 37.4707651 48.2660467 43.8688072"></polygon>
            <path d="M47.2915422,20.3057319 L38.9457967,15.486744 C38.6822809,15.2976729 38.5238989,14.9949552 38.5188253,14.6706672 L38.5188253,13.7261943 C38.5188253,13.4115151 38.7103313,13.268756 38.9457967,13.4032455 L47.2915422,18.2222334 C47.555058,18.4113045 47.7134399,18.7140222 47.7185143,19.0383102 L47.7185143,19.9827831 C47.7189488,20.2974623 47.5270075,20.4402214 47.2915422,20.3057319 Z" id="路径_12247" fill="#F5F5F5" fill-rule="nonzero"></path>
            <path d="M47.338113,20.327494 C47.3215213,20.3214078 47.3058496,20.3130594 47.2915422,20.3026852 L38.9457967,15.4841325 C38.6822809,15.2950615 38.5238989,14.9923437 38.5188253,14.6680557 L38.5188253,14.6680557 C38.5238989,14.9923437 38.6822809,15.2950615 38.9457967,15.4841325 L47.2915422,20.3031205 C47.3080813,20.3113901 47.3246205,20.3196596 47.338113,20.327494 Z M38.5188253,13.7261943 C38.5188253,13.4933404 38.6228479,13.353628 38.7734413,13.3510166 C38.6228479,13.3510166 38.5188253,13.4907289 38.5188253,13.7261943 Z" id="路径_12248" fill="#4C6EA6" fill-rule="nonzero"></path>
            <path d="M47.4586747,20.3553494 C47.4169622,20.3551673 47.3758011,20.3458058 47.338113,20.3279292 C47.3215213,20.321843 47.3058496,20.3134946 47.2915422,20.3031205 L38.9457967,15.4841325 C38.6822809,15.2950615 38.5238989,14.9923437 38.5188253,14.6680557 L38.5188253,13.7227123 C38.5188253,13.4898584 38.6228479,13.3501461 38.7734413,13.3475346 L38.7760527,13.3475346 C38.8362907,13.3494267 38.8949146,13.3674648 38.9457967,13.3997636 L38.9566777,13.4054217 C38.9466384,13.4494309 38.9410969,13.4943463 38.9401386,13.5394759 L38.9401386,14.4839488 C38.9452122,14.8082368 39.1035941,15.1109545 39.3671099,15.3000256 L47.7019744,20.110744 C47.6693313,20.2613373 47.5788012,20.3488208 47.4582395,20.3488208 L47.4586747,20.3553494 Z" id="路径_12249" fill="#21887A" fill-rule="nonzero"></path>
            <path d="M44.6713916,17.7182244 L39.6495813,14.8186491 C39.5563571,14.7522708 39.5004091,14.6453874 39.498988,14.5309548 C39.498988,14.4212741 39.5673208,14.3694804 39.6495813,14.4186627 L44.6713916,17.318238 C44.7646158,17.3846162 44.8205638,17.4914997 44.8219849,17.6059322 C44.8219849,17.715613 44.7536521,17.7674066 44.6713916,17.7182244 L44.6713916,17.7182244 Z" id="路径_12250" fill="#21887A" fill-rule="nonzero"></path>
            <path d="M47.2915422,25.8476551 L38.9457967,21.0291024 C38.6822809,20.8400313 38.5238989,20.5373136 38.5188253,20.2130256 L38.5188253,19.2685527 C38.5188253,18.9538735 38.7103313,18.8111145 38.9457967,18.9456039 L47.2915422,23.7645919 C47.555058,23.9536629 47.7134399,24.2563807 47.7185143,24.5806687 L47.7185143,25.5251416 C47.7189488,25.8393855 47.5270075,25.9821446 47.2915422,25.8476551 Z" id="路径_12251" fill="#F5F5F5" fill-rule="nonzero"></path>
            <path d="M47.3246205,25.8659352 L47.2919774,25.8493961 L38.9457967,21.0312786 C38.6822809,20.8422075 38.5238989,20.5394898 38.5188253,20.2152018 L38.5188253,20.2152018 C38.5238989,20.5394898 38.6822809,20.8422075 38.9457967,21.0312786 L47.2915422,25.8502666 L47.3246205,25.8659352 Z M38.5188253,19.2598479 C38.5123299,19.1491846 38.5507793,19.0405846 38.6254593,18.9586611 C38.5518717,19.0412349 38.5135881,19.1493665 38.5188253,19.2598479 Z" id="路径_12252" fill="#4C6EA6" fill-rule="nonzero"></path>
            <path d="M47.4586747,25.8968373 C47.4132848,25.8956535 47.3687095,25.8845096 47.3281024,25.8641943 L47.325491,25.8641943 L47.2928479,25.8476551 L38.9457967,21.0282319 C38.6822809,20.8391609 38.5238989,20.5364431 38.5188253,20.2121551 L38.5188253,19.254625 C38.5123299,19.1439617 38.5507793,19.0353617 38.6254593,18.9534383 L38.6254593,18.9534383 C38.666047,18.9147676 38.7199924,18.8932518 38.7760527,18.8933745 C38.8362942,18.8952458 38.8949236,18.9132856 38.9457967,18.9456039 L38.9566777,18.951262 C38.946459,18.996271 38.9409166,19.0422151 38.9401386,19.088363 L38.9401386,20.0328358 C38.9452122,20.3571239 39.1035941,20.6598416 39.3671099,20.8489127 L47.7019744,25.659631 C47.6693313,25.8102244 47.5788012,25.8977078 47.4582395,25.8977078 L47.4586747,25.8968373 Z" id="路径_12253" fill="#21887A" fill-rule="nonzero"></path>
            <path d="M44.6713916,23.2601476 L39.6495813,20.3605723 C39.5563571,20.294194 39.5004091,20.1873106 39.498988,20.072878 C39.498988,19.9631973 39.5673208,19.9114036 39.6495813,19.9605858 L44.6713916,22.8601611 C44.7646158,22.9265394 44.8205638,23.0334229 44.8219849,23.1478554 C44.8219849,23.2575361 44.7532169,23.3097651 44.6713916,23.2601476 Z" id="路径_12254" fill="#21887A" fill-rule="nonzero"></path>
            <path d="M47.2915422,31.4409367 L38.9457967,26.622384 C38.6822809,26.433313 38.5238989,26.1305952 38.5188253,25.8063072 L38.5188253,24.8618343 C38.5188253,24.5471551 38.7103313,24.4043961 38.9457967,24.5388855 L47.2915422,29.3578735 C47.555058,29.5469446 47.7134399,29.8496623 47.7185143,30.1739503 L47.7185143,31.1184232 C47.7189488,31.4331024 47.5270075,31.5758614 47.2915422,31.4409367 Z" id="路径_12255" fill="#F5F5F5" fill-rule="nonzero"></path>
            <path d="M38.5188253,24.866622 C38.5188253,24.6337681 38.6254593,24.4940557 38.7760527,24.4940557 C38.6254593,24.4923148 38.5188253,24.6320271 38.5188253,24.866622 Z" id="路径_12256" fill="#4C6EA6" fill-rule="nonzero"></path>
            <path d="M47.4586747,31.4936009 C47.3991906,31.4920739 47.3413114,31.4739866 47.2915422,31.441372 L47.2915422,31.441372 L38.9457967,26.6228193 C38.6822809,26.4337482 38.5238989,26.1310305 38.5188253,25.8067425 L38.5188253,24.8622696 C38.5188253,24.6294157 38.6254593,24.4897033 38.7760527,24.4897033 L38.7760527,24.4897033 C38.8328199,24.4921357 38.8881832,24.508103 38.9375271,24.5362741 C38.9401386,24.5388855 38.9431852,24.5388855 38.9457967,24.5419322 L38.9457967,24.5419322 L38.9566777,24.5475904 C38.9466413,24.5916001 38.9410999,24.6365152 38.9401386,24.6816446 L38.9401386,25.6261175 C38.9452122,25.9504055 39.1035941,26.2531232 39.3671099,26.4421943 L47.7019744,31.2529127 C47.6693313,31.403506 47.5788012,31.4909895 47.4582395,31.4909895 L47.4586747,31.4936009 Z" id="路径_12257" fill="#21887A" fill-rule="nonzero"></path>
            <path d="M44.6713916,28.8538645 L39.6495813,25.9542892 C39.5563571,25.8879109 39.5004091,25.7810274 39.498988,25.6665949 C39.498988,25.5569142 39.5673208,25.5051205 39.6495813,25.5543027 L44.6713916,28.453878 C44.7646158,28.5202563 44.8205638,28.6271397 44.8219849,28.7415723 C44.8219849,28.851253 44.7532169,28.9034819 44.6713916,28.8538645 Z" id="路径_12258" fill="#21887A" fill-rule="nonzero"></path>
            <path d="M47.2915422,37.0873178 L38.9457967,32.2683298 C38.6822809,32.0792588 38.5238989,31.776541 38.5188253,31.452253 L38.5188253,30.5060392 C38.5188253,30.1913599 38.7103313,30.0486009 38.9457967,30.1830904 L47.2915422,35.0020783 C47.555058,35.1911494 47.7134399,35.4938671 47.7185136,35.8181551 L47.7185136,36.762628 C47.7185136,37.0773072 47.5270075,37.2200663 47.2915422,37.0855768 L47.2915422,37.0873178 Z" id="路径_12259" fill="#F5F5F5" fill-rule="nonzero"></path>
            <path d="M47.3272319,37.1069036 C47.3147869,37.1015996 47.3028425,37.0951904 47.2915422,37.087753 L38.9457967,32.2687651 C38.6822809,32.079694 38.5238989,31.7769763 38.5188253,31.4526883 L38.5188253,31.4526883 C38.5238989,31.7769763 38.6822809,32.079694 38.9457967,32.2687651 L47.2915422,37.087753 C47.3028437,37.0951884 47.3147879,37.1015974 47.3272319,37.1069036 L47.3272319,37.1069036 Z M38.5188253,30.5108268 C38.5188253,30.2779729 38.6228479,30.1382605 38.7734413,30.1382605 C38.6228479,30.1382605 38.5188253,30.2779729 38.5188253,30.5108268 Z" id="路径_12260" fill="#4C6EA6" fill-rule="nonzero"></path>
            <path d="M47.4586747,37.1395467 C47.4135392,37.1386973 47.3690736,37.1284702 47.3281024,37.1095151 L47.3281024,37.1095151 C47.3156594,37.1042068 47.3037154,37.0977978 47.2924127,37.0903645 L38.9466672,32.2713765 C38.6832052,32.0822587 38.5248385,31.7795702 38.5196958,31.4552997 L38.5196958,30.5108268 C38.5196958,30.2779729 38.6237184,30.1382605 38.7743117,30.1382605 L38.7769232,30.1382605 C38.8371612,30.1401526 38.8957851,30.1581907 38.9466672,30.1904895 L38.9575482,30.1961476 C38.9475029,30.2401558 38.9419613,30.2850718 38.941009,30.3302018 L38.941009,31.2746747 C38.9460827,31.5989627 39.1044646,31.9016804 39.3679804,32.0907515 L47.7050211,36.9019051 C47.6719428,37.0524985 47.5818479,37.1399819 47.4612861,37.1399819 L47.4586747,37.1395467 Z" id="路径_12261" fill="#21887A" fill-rule="nonzero"></path>
            <path d="M44.6713916,34.5019864 L39.6495813,31.6024111 C39.5563571,31.5360329 39.5004091,31.4291494 39.498988,31.3147169 C39.498988,31.2050361 39.5673208,31.1532425 39.6495813,31.2024247 L44.6713916,34.102 C44.7646158,34.1683783 44.8205638,34.2752617 44.8219849,34.3896943 C44.8219849,34.4971988 44.7532169,34.5494277 44.6713916,34.5019864 Z" id="路径_12262" fill="#21887A" fill-rule="nonzero"></path>
            <path d="M47.2915422,42.6214066 L38.9457967,37.8024187 C38.6823347,37.6133009 38.523968,37.3106123 38.5188253,36.9863419 L38.5188253,36.041869 C38.5188253,35.7271898 38.7103313,35.5844307 38.9457967,35.7189202 L47.2915422,40.5379081 C47.555058,40.7269792 47.7134399,41.0296969 47.7185143,41.3539849 L47.7185143,42.2984578 C47.7189488,42.613137 47.5270075,42.7585075 47.2915422,42.6214066 Z" id="路径_12263" fill="#F5F5F5" fill-rule="nonzero"></path>
            <path d="M38.5188253,36.0444804 C38.5188253,35.8116265 38.6228479,35.6719142 38.7734413,35.6719142 C38.6228479,35.6719142 38.5188253,35.8116265 38.5188253,36.0444804 Z" id="路径_12264" fill="#4C6EA6" fill-rule="nonzero"></path>
            <path d="M47.4586747,42.6732003 C47.3991906,42.6716733 47.3413114,42.653586 47.2915422,42.6209714 L47.2915422,42.6209714 L38.9457967,37.8019834 C38.6822809,37.6129124 38.5238989,37.3101946 38.5188253,36.9859066 L38.5188253,36.0414337 C38.5188253,35.8085798 38.6228479,35.6688675 38.7734413,35.6688675 L38.7760527,35.6688675 C38.8317719,35.6701497 38.8863236,35.6850954 38.9349157,35.7123916 C38.9375271,35.715003 38.9431852,35.715003 38.9457967,35.7180497 L38.9457967,35.7180497 L38.9566777,35.7237078 C38.9466413,35.7677176 38.9410999,35.8126327 38.9401386,35.857762 L38.9401386,36.8022349 C38.9452122,37.126523 39.1035941,37.4292407 39.3671099,37.6183117 L47.7019744,42.4290301 C47.6693313,42.5796235 47.5788012,42.6671069 47.4582395,42.6671069 L47.4586747,42.6732003 Z" id="路径_12265" fill="#21887A" fill-rule="nonzero"></path>
            <path d="M44.6713916,40.0338991 L39.6495813,37.1343238 C39.5563571,37.0679455 39.5004091,36.9610621 39.498988,36.8466295 C39.498988,36.7369488 39.5673208,36.6851551 39.6495813,36.7343373 L44.6713916,39.6339127 C44.7646158,39.7002909 44.8205638,39.8071744 44.8219849,39.9216069 C44.8219849,40.0317229 44.7532169,40.0835166 44.6713916,40.0338991 Z" id="路径_12266" fill="#21887A" fill-rule="nonzero"></path>
            <path d="M38.061387,15.667369 L37.1878584,15.1651009 L38.061387,15.6691099 L38.061387,15.667369 Z M38.061387,12.1419172 L37.1878584,11.6396491 L38.061387,12.1436581 L38.061387,12.1419172 Z" id="路径_12267" fill="#35497D" fill-rule="nonzero"></path>
            <path d="M38.061387,12.1436581 L37.1878584,11.6396491 L38.061387,12.1436581 Z" id="路径_12268" fill="#35497D" fill-rule="nonzero"></path>
            <polygon id="路径_12269" fill="#21887A" fill-rule="nonzero" points="38.061387 15.667369 37.1878584 15.1651009 37.1878584 11.6396491 38.061387 12.1436581"></polygon>
            <path d="M38.061387,21.2458524 L37.1878584,20.7409729 L38.061387,21.2458524 Z" id="路径_12270" fill="#35497D" fill-rule="nonzero"></path>
            <polygon id="路径_12271" fill="#21887A" fill-rule="nonzero" points="38.061387 21.2449819 37.1878584 20.7409729 37.1878584 17.2155211 38.061387 17.7195301"></polygon>
            <polygon id="路径_12272" fill="#21887A" fill-rule="nonzero" points="38.061387 26.8221596 37.1878584 26.3181506 37.1878584 22.7926988 38.061387 23.2967078"></polygon>
            <path d="M38.061387,28.8734503 L37.1878584,28.3694413 L38.061387,28.8734503 Z" id="路径_12273" fill="#35497D" fill-rule="nonzero"></path>
            <polygon id="路径_12274" fill="#21887A" fill-rule="nonzero" points="38.061387 32.3997726 37.1878584 31.8948931 37.1878584 28.3694413 38.061387 28.8734503"></polygon>
            <path d="M38.061387,37.9778208 L37.1878584,37.4738117 L38.061387,37.9778208 Z" id="路径_12275" fill="#35497D" fill-rule="nonzero"></path>
            <path d="M38.061387,34.4510633 L37.1878584,33.9470542 L38.061387,34.4510633 Z" id="路径_12276" fill="#35497D" fill-rule="nonzero"></path>
            <polygon id="路径_12277" fill="#21887A" fill-rule="nonzero" points="38.061387 37.9773855 37.1878584 37.4733765 37.1878584 33.9479247 38.061387 34.4519337"></polygon>
            <path d="M45.6615648,18.0659819 C45.6615648,18.1782741 45.5823509,18.2248449 45.4874684,18.1673931 C45.3827933,18.1001764 45.3166172,17.9869164 45.3094548,17.8627244 C45.3094548,17.7504322 45.3886687,17.7038614 45.4874684,17.7613133 C45.5902864,17.8297441 45.6548088,17.9426585 45.6615648,18.0659819 L45.6615648,18.0659819 Z" id="路径_12278" fill="#3FD5AE" fill-rule="nonzero"></path>
            <path d="M46.4101792,18.4981762 C46.4101792,18.6104684 46.3309654,18.6570392 46.2321657,18.5995873 C46.1286124,18.5318461 46.0638578,18.4185255 46.0580693,18.2949187 C46.0580693,18.1826265 46.1372831,18.1360557 46.2321657,18.1935075 C46.3364751,18.2610741 46.4025326,18.374131 46.4101792,18.4981762 L46.4101792,18.4981762 Z" id="路径_12279" fill="#373435" fill-rule="nonzero"></path>
            <path d="M47.1605346,18.931241 C47.1605346,19.0435331 47.0813208,19.0901039 46.9825211,19.0326521 C46.8789678,18.9649109 46.8142132,18.8515903 46.8084247,18.7279834 C46.8084247,18.6156913 46.8876386,18.5691205 46.9825211,18.6265723 C47.0868305,18.6941389 47.152888,18.8071957 47.1605346,18.931241 L47.1605346,18.931241 Z" id="路径_12280" fill="#3FD5AE" fill-rule="nonzero"></path>
            <path d="M45.6615648,23.6405482 C45.6615648,23.7528404 45.5823509,23.7994111 45.4874684,23.7419593 C45.383159,23.6743928 45.3171015,23.5613359 45.3094548,23.4372907 C45.3094548,23.3249985 45.3886687,23.2784277 45.4874684,23.3358795 C45.5909683,23.403671 45.6557059,23.5169618 45.6615648,23.6405482 L45.6615648,23.6405482 Z" id="路径_12281" fill="#373435" fill-rule="nonzero"></path>
            <path d="M46.4101792,24.0705663 C46.4101792,24.1828584 46.3309654,24.2294292 46.2321657,24.1719774 C46.1293477,24.1035466 46.0648252,23.9906322 46.0580693,23.8673087 C46.0580693,23.7550166 46.1372831,23.7084458 46.2321657,23.7658976 C46.3368407,23.8331143 46.4030169,23.9463743 46.4101792,24.0705663 Z" id="路径_12282" fill="#3FD5AE" fill-rule="nonzero"></path>
            <path d="M47.1605346,24.5031958 C47.1605346,24.615488 47.0813208,24.6620587 46.9825211,24.6046069 C46.8797031,24.5361761 46.8151806,24.4232617 46.8084247,24.2999383 C46.8084247,24.1876461 46.8876386,24.1410753 46.9825211,24.1985271 C47.0868305,24.2660937 47.152888,24.3791505 47.1605346,24.5031958 L47.1605346,24.5031958 Z" id="路径_12283" fill="#3FD5AE" fill-rule="nonzero"></path>
            <path d="M45.6615648,29.2564623 C45.6615648,29.3687545 45.5823509,29.4153253 45.4874684,29.3578735 C45.383159,29.2903069 45.3171015,29.1772501 45.3094548,29.0532048 C45.3094548,28.9409127 45.3886687,28.8943419 45.4874684,28.9517937 C45.5902864,29.0202245 45.6548088,29.1331389 45.6615648,29.2564623 L45.6615648,29.2564623 Z" id="路径_12284" fill="#3FD5AE" fill-rule="nonzero"></path>
            <path d="M46.4101792,29.6890919 C46.4101792,29.801384 46.3309654,29.8479548 46.2321657,29.790503 C46.1293477,29.7220722 46.0648252,29.6091578 46.0580693,29.4858343 C46.0580693,29.3735422 46.1372831,29.3269714 46.2321657,29.3844232 C46.3364751,29.4519898 46.4025326,29.5650466 46.4101792,29.6890919 L46.4101792,29.6890919 Z" id="路径_12285" fill="#373435" fill-rule="nonzero"></path>
            <path d="M47.1605346,30.1217214 C47.1605346,30.2340136 47.0813208,30.2805843 46.9825211,30.2231325 C46.8797031,30.1547017 46.8151806,30.0417873 46.8084247,29.9184639 C46.8084247,29.8061717 46.8876386,29.7596009 46.9825211,29.8170527 C47.0871961,29.8842694 47.1533723,29.9975294 47.1605346,30.1217214 L47.1605346,30.1217214 Z" id="路径_12286" fill="#3FD5AE" fill-rule="nonzero"></path>
            <path d="M45.6615648,34.790116 C45.6615648,34.9024081 45.5823509,34.9489789 45.4874684,34.8915271 C45.383159,34.8239605 45.3171015,34.7109037 45.3094548,34.5868584 C45.3094548,34.4745663 45.3886687,34.4279955 45.4874684,34.4854473 C45.5902864,34.5538781 45.6548088,34.6667925 45.6615648,34.790116 L45.6615648,34.790116 Z" id="路径_12287" fill="#3FD5AE" fill-rule="nonzero"></path>
            <path d="M46.4101792,35.2227455 C46.4101792,35.3350377 46.3309654,35.3816084 46.2321657,35.3241566 C46.1293477,35.2557258 46.0648252,35.1428114 46.0580693,35.019488 C46.0580693,34.9071958 46.1372831,34.860625 46.2321657,34.9180768 C46.3368407,34.9852935 46.4030169,35.0985535 46.4101792,35.2227455 Z" id="路径_12288" fill="#3FD5AE" fill-rule="nonzero"></path>
            <path d="M47.1605346,35.655375 C47.1605346,35.7676672 47.0813208,35.814238 46.9825211,35.7567861 C46.8797031,35.6883553 46.8151806,35.5754409 46.8084247,35.4521175 C46.8084247,35.3398253 46.8876386,35.2932545 46.9825211,35.3507063 C47.0871961,35.417923 47.1533723,35.531183 47.1605346,35.655375 L47.1605346,35.655375 Z" id="路径_12289" fill="#3FD5AE" fill-rule="nonzero"></path>
            <path d="M45.6615648,40.4008072 C45.6615648,40.5130994 45.5823509,40.5596702 45.4874684,40.5022184 C45.383159,40.4346518 45.3171015,40.3215949 45.3094548,40.1975497 C45.3094548,40.0852575 45.3886687,40.0386867 45.4874684,40.0961386 C45.5902864,40.1645694 45.6548088,40.2774838 45.6615648,40.4008072 L45.6615648,40.4008072 Z" id="路径_12290" fill="#3FD5AE" fill-rule="nonzero"></path>
            <path d="M46.4101792,40.8334367 C46.4101792,40.9457289 46.3309654,40.9922997 46.2321657,40.9348479 C46.1293477,40.866417 46.0648252,40.7535027 46.0580693,40.6301792 C46.0580693,40.517887 46.1372831,40.4713163 46.2321657,40.5287681 C46.3364751,40.5963346 46.4025326,40.7093915 46.4101792,40.8334367 L46.4101792,40.8334367 Z" id="路径_12291" fill="#373435" fill-rule="nonzero"></path>
            <path d="M47.1605346,41.2660663 C47.1605346,41.3783584 47.0813208,41.4249292 46.9825211,41.3674774 C46.8797031,41.2990466 46.8151806,41.1861322 46.8084247,41.0628087 C46.8084247,40.9505166 46.8876386,40.9039458 46.9825211,40.9613976 C47.0868305,41.0289642 47.152888,41.142021 47.1605346,41.2660663 L47.1605346,41.2660663 Z" id="路径_12292" fill="#3FD5AE" fill-rule="nonzero"></path>
            <path d="M51.1987003,18.0442199 L51.1987003,42.5199955 L61.2666943,36.7069172 L61.2666943,12.2311416 L51.1987003,18.0442199 Z M50.9932666,42.878634 L50.9932666,17.9236581 L51.0454955,17.8936265 L61.4747395,11.872503 L61.4747395,36.8274789 L61.4225105,36.8575105 L50.9932666,42.878634 Z" id="路径_12293" fill="#F5F5F5" fill-rule="nonzero"></path>
            <path d="M58.7614473,23.1012846 L54.0847831,25.7997786 C53.7701039,25.9804036 53.5150527,25.7888976 53.5150527,25.3697605 L53.5150527,22.7783358 C53.5210618,22.3456563 53.732597,21.9416547 54.0847831,21.6902334 L58.7614473,18.9917395 C59.0761265,18.8111145 59.3311777,19.0026205 59.3311777,19.4217575 L59.3311777,22.0131822 C59.3251686,22.4458618 59.1136334,22.8498634 58.7614473,23.1012846 Z" id="路径_12294" fill="#F5F5F5" fill-rule="nonzero"></path>
            <path d="M58.8763509,18.942122 C58.9055528,19.0260088 58.9194114,19.1144683 58.9172636,19.2032666 L58.9172636,21.7951265 C58.9112545,22.2278061 58.6997193,22.6318076 58.3475331,22.8832289 L53.670869,25.5817229 C53.635344,25.6021633 53.5976892,25.6186555 53.5585768,25.6309051 C53.5888325,25.7376931 53.6704372,25.8223063 53.7760605,25.8564066 C53.8816837,25.8905068 53.99736,25.8695853 54.0843479,25.8006491 L58.761012,23.1021551 C59.1131982,22.8507338 59.3247334,22.4467323 59.3307425,22.0140527 L59.3307425,19.4213223 C59.3307425,19.0531084 59.136625,18.8598614 58.8763509,18.942122 Z" id="路径_12295" fill="#22877A" fill-rule="nonzero"></path>
            <path d="M57.9075045,21.5409458 C57.9945527,21.4917636 58.063756,21.5326762 58.063756,21.6314759 L58.063756,22.2234036 C58.0571079,22.3333001 57.9992527,22.4337007 57.9075045,22.4945587 C57.8204563,22.543741 57.751253,22.5028283 57.751253,22.4040286 L57.751253,21.8121009 C57.7579011,21.7022044 57.8157563,21.6018039 57.9075045,21.5409458 L57.9075045,21.5409458 Z" id="路径_12296" fill="#FEFEFE" fill-rule="nonzero"></path>
            <path d="M57.236363,22.0005602 C57.3234111,21.951378 57.3926145,21.9896792 57.3926145,22.0910904 L57.3926145,22.6085919 C57.3859664,22.7184884 57.3281111,22.8188889 57.236363,22.879747 C57.1493148,22.9289292 57.0801114,22.890628 57.0801114,22.7892169 L57.0801114,22.2717154 C57.0867595,22.1618189 57.1446148,22.0614183 57.236363,22.0005602 L57.236363,22.0005602 Z" id="路径_12297" fill="#3FD5AE" fill-rule="nonzero"></path>
            <path d="M56.5656566,21.8116657 C56.6527048,21.7624834 56.7219081,21.8033961 56.7219081,21.9021958 L56.7219081,22.9946506 C56.71526,23.1045471 56.6574048,23.2049477 56.5656566,23.2658057 C56.4786084,23.314988 56.4094051,23.2766867 56.4094051,23.1752756 L56.4094051,22.0828208 C56.4160532,21.9729243 56.4739084,21.8725237 56.5656566,21.8116657 Z" id="路径_12298" fill="#373435" fill-rule="nonzero"></path>
            <path d="M55.8949503,21.5709774 C55.9819985,21.5217952 56.0512018,21.5627078 56.0512018,21.6615075 L56.0512018,23.383756 C56.0445537,23.4936525 55.9866985,23.5940531 55.8949503,23.6549111 C55.8079021,23.7040934 55.7386988,23.6631807 55.7386988,23.564381 L55.7386988,21.8421325 C55.7449412,21.7321147 55.8028937,21.6315453 55.8949503,21.5709774 L55.8949503,21.5709774 Z" id="路径_12299" fill="#5DC4A2" fill-rule="nonzero"></path>
            <path d="M55.224244,22.1376611 C55.3112922,22.0884789 55.3804955,22.1293916 55.3804955,22.2281913 L55.3804955,23.7698148 C55.3757352,23.8802689 55.3174213,23.9814655 55.224244,24.0409699 C55.1371958,24.0901521 55.0679925,24.0518509 55.0679925,23.9504398 L55.0679925,22.4088163 C55.0746406,22.2989198 55.1324958,22.1985192 55.224244,22.1376611 Z" id="路径_12300" fill="#5DC4A2" fill-rule="nonzero"></path>
            <path d="M54.5531024,23.2296807 C54.6401506,23.1804985 54.7093539,23.2187997 54.7093539,23.3202108 L54.7093539,24.1580497 C54.7031115,24.2680675 54.645159,24.3686369 54.5531024,24.4292048 C54.4660542,24.478387 54.3968509,24.4400858 54.3968509,24.3386747 L54.3968509,23.5012711 C54.4033655,23.391218 54.4612363,23.2906293 54.5531024,23.2296807 Z" id="路径_12301" fill="#5DC4A2" fill-rule="nonzero"></path>
            <path d="M57.7538645,21.2423705 C57.7538645,21.3407349 57.8221973,21.3794714 57.9070693,21.3329006 C57.9971473,21.2735125 58.0539302,21.1751103 58.0602741,21.0674036 C58.0602741,20.9690392 57.9919413,20.9303027 57.9070693,20.9803554 C57.8164695,21.0392503 57.7595203,21.1379407 57.7538645,21.2458524 L57.7538645,21.2423705 Z" id="路径_12302" fill="#373435" fill-rule="nonzero"></path>
            <path d="M57.7538645,20.6861325 C57.7538645,20.784497 57.8221973,20.8232334 57.9070693,20.7731807 C57.9971473,20.7137927 58.0539302,20.6153905 58.0602741,20.5076837 C58.0602741,20.4093193 57.9919413,20.3705828 57.9070693,20.4206355 C57.8169913,20.4800236 57.7602084,20.5784258 57.7538645,20.6861325 L57.7538645,20.6861325 Z" id="路径_12303" fill="#FEFEFE" fill-rule="nonzero"></path>
            <path d="M69.5497651,64.9727711 L57.5458193,58.0424292 C57.1049202,57.7878133 57.162372,57.3460437 57.6689925,57.0513855 L70.3902154,49.6858027 C70.918708,49.3911082 71.5556718,49.3646219 72.1068057,49.6144232 L84.1107515,56.5447651 C84.5516506,56.799381 84.4941988,57.2411506 83.9875783,57.5358087 L71.2654849,64.8987801 C70.736877,65.1936201 70.099715,65.2201079 69.5484593,64.9701596 L69.5497651,64.9727711 Z" id="路径_12304" fill="#22877A" fill-rule="nonzero"></path>
            <path d="M69.7277786,61.8621039 C70.1688119,62.0458374 70.6693829,62.0195842 71.0887771,61.7907244 L83.81,54.4251416 C83.9880136,54.321119 84.0537349,54.2170964 84.0537349,54.173137 C84.0537349,54.1457169 84.0180452,54.0991461 83.9331732,54.0499639 L71.9292274,47.119622 C71.4884288,46.9345366 70.9872483,46.9608217 70.5682289,47.1910015 L57.847006,54.5539729 C57.6689925,54.6579955 57.6032711,54.7620181 57.6032711,54.8059774 C57.6032711,54.8333976 57.6389608,54.8799684 57.7238328,54.9291506 L69.7277786,61.8594925 L69.7277786,61.8621039 Z M70.297509,62.6942846 C69.9755504,62.7019039 69.6570002,62.6269862 69.3721867,62.4766642 L57.368241,55.5463223 C57.0874903,55.4042563 56.9061129,55.120854 56.8946988,54.8064127 C56.9225348,54.430679 57.1505507,54.0990498 57.4914142,53.9385422 L70.212637,46.577747 C70.8516009,46.2212074 71.6232757,46.1946314 72.2852545,46.5063675 L84.2892003,53.4367093 C84.5699509,53.5787753 84.7513284,53.8621776 84.7627425,54.176619 C84.7349065,54.5523526 84.5068906,54.8839819 84.1660271,55.0444895 L71.444369,62.409637 C71.0930955,62.6030267 70.6980517,62.7029866 70.2970738,62.7000103 L70.297509,62.6942846 Z" id="路径_12305" fill="#F5F5F5" fill-rule="nonzero"></path>
            <path d="M70.3902154,59.4060392 C70.5826288,59.2366054 70.6814887,58.9847557 70.6557123,58.7296747 L70.6557123,29.4240301 C70.6484709,29.0995969 70.5670305,28.7811304 70.4176355,28.4930497 L72.6808886,27.1873268 L72.9106958,27.0567545 L78.9344307,23.5791792 L79.164238,23.4486069 L84.3871295,20.434128 C84.5390736,20.723409 84.6216245,21.0440763 84.628253,21.3707666 L84.628253,50.6768464 C84.6568292,50.9394879 84.5495197,51.198573 84.3436054,51.3640919 L84.3436054,51.3640919 L84.3187967,51.3775843 L84.3131386,51.3801958 L82.5195105,52.4151988 L81.8074563,52.8260663 L80.9173886,53.3379096 L80.6875813,53.4684819 L79.7348389,54.0186265 L70.3945678,59.4090858 L70.3902154,59.4060392 Z" id="路径_12306" fill="#37BF95"></path>
            <path d="M70.4176355,28.4926145 C70.2809383,28.1997447 70.0646671,27.9511988 69.7935,27.7753373 L57.5458193,20.7057184 C57.4430753,20.6412178 57.3249783,20.6053079 57.2037199,20.6016958 C57.1376423,20.6009817 57.0722313,20.6149559 57.0122139,20.6426084 L70.9599458,12.5954383 L70.9599458,12.5954383 C71.0266135,12.5588766 71.1015335,12.5399967 71.1775663,12.540584 C71.2987632,12.5445827 71.4167652,12.5804637 71.5196657,12.6446205 L83.7660407,19.7142395 C84.03561,19.8889335 84.250905,20.1355881 84.3875648,20.4262937 L79.1646732,23.4407726 L78.934866,23.5713449 L72.911131,27.0489202 L72.911131,27.0489202 L72.6813238,27.1794925 L70.4180708,28.4852154 L70.4176355,28.4926145 Z" id="路径_12307" fill="#3DC9A1"></path>
            <path d="M69.7930648,59.3812304 L57.545384,52.3116114 C57.0124836,51.9302876 56.6923256,51.3185629 56.6827364,50.6633539 L56.6827364,21.3572741 C56.6827364,20.7218223 57.0687952,20.4319518 57.545384,20.7044127 L69.7930648,27.7740316 C70.3259652,28.1553555 70.6461232,28.7670802 70.6557123,29.4222892 L70.6557123,58.728369 C70.6557123,59.3646913 70.2696536,59.6576084 69.7930648,59.3812304 Z" id="路径_12308" fill="#5DC4A2" fill-rule="nonzero"></path>
            <path d="M70.0533389,27.6299669 L57.8056581,20.5603479 C57.5999562,20.4010321 57.3072769,20.4222325 57.1266822,20.6095301 C57.272564,20.5934901 57.4195157,20.6282297 57.5427726,20.7078946 L69.7904533,27.7775136 C70.3233538,28.1588374 70.6435118,28.7705621 70.6531009,29.4257711 L70.6531009,58.7318509 C70.6670068,58.9482782 70.6017255,59.1623761 70.4694292,59.3342244 C70.7349262,59.2933117 70.9155512,59.0195452 70.9155512,58.583869 L70.9155512,29.2786596 C70.905507,28.6235505 70.5856568,28.0119439 70.0533389,27.6299669 L70.0533389,27.6299669 Z" id="路径_12309" fill="#F5F5F5" fill-rule="nonzero"></path>
            <path d="M69.0213825,57.6180693 L58.3144548,51.4376476 C57.8492564,51.1041649 57.5698582,50.5697553 57.561488,49.9974352 L57.561488,22.7831235 C57.561488,22.2273208 57.8983645,21.9727048 58.3144548,22.2133931 L69.0213825,28.3938148 C69.4865809,28.7272975 69.7659791,29.2617071 69.7743511,29.8340271 L69.7743511,57.0509503 C69.7752199,57.6024006 69.4374729,57.8591928 69.0213825,57.6180693 Z" id="路径_12310" fill="url(#linearGradient-2)"></path>
            <path d="M69.0213825,57.6180693 L58.3144548,51.4376476 C57.8492564,51.1041649 57.5698582,50.5697553 57.561488,49.9974352 L57.561488,22.7831235 C57.561488,22.2273208 57.8983645,21.9727048 58.3144548,22.2133931 L69.0213825,28.3938148 C69.4865809,28.7272975 69.7659791,29.2617071 69.7743511,29.8340271 L69.7743511,57.0509503 C69.7752199,57.6024006 69.4374729,57.8591928 69.0213825,57.6180693 Z" id="路径_12311" fill="url(#linearGradient-2)"></path>
            <path d="M69.0213825,57.6180693 L58.3144548,51.4376476 C57.8492564,51.1041649 57.5698582,50.5697553 57.561488,49.9974352 L57.561488,22.7831235 C57.561488,22.2273208 57.8983645,21.9727048 58.3144548,22.2133931 L69.0213825,28.3938148 C69.4865809,28.7272975 69.7659791,29.2617071 69.7743511,29.8340271 L69.7743511,57.0509503 C69.7752199,57.6024006 69.4374729,57.8591928 69.0213825,57.6180693 Z" id="路径_12312" fill="#F5F5F5" fill-rule="nonzero"></path>
            <path d="M69.3717515,57.4126355 L58.6648238,51.2322139 C58.1996254,50.8987312 57.9202272,50.3643215 57.9118569,49.7920015 L57.9118569,22.5755136 C57.9063054,22.4168827 57.9442332,22.2597532 58.0215377,22.1211016 C57.752994,22.1185105 57.5640994,22.3674684 57.5640994,22.7809473 L57.5640994,49.9978705 C57.5724697,50.5701905 57.8518679,51.1046001 58.3170663,51.4380828 L69.023994,57.6185045 C69.121992,57.6974939 69.249387,57.7301907 69.3733127,57.7081594 C69.4972384,57.6861282 69.6055581,57.6115266 69.6703268,57.5036009 C69.5656134,57.4996811 69.4637405,57.4684741 69.3747982,57.4130708 L69.3717515,57.4126355 Z" id="路径_12313" fill="#22877A" fill-rule="nonzero"></path>
            <path d="M69.0196416,45.1209955 L65.0411039,42.8237937 L58.6939849,46.4872169 L69.7721732,52.885259 L69.7721732,46.5612078 C69.7639041,45.9889659 69.4846753,45.4545713 69.0196416,45.1209955 L69.0196416,45.1209955 Z" id="路径_12314" fill="#21887A" fill-rule="nonzero"></path>
            <path d="M69.0196416,39.5464292 L65.0411039,37.2492274 L58.6939849,40.9126506 L69.7721732,47.3106928 L69.7721732,40.9866416 C69.7638029,40.4143215 69.4844047,39.8799119 69.0192063,39.5464292 L69.0196416,39.5464292 Z" id="路径_12315" fill="#21887A" fill-rule="nonzero"></path>
            <path d="M69.0196416,33.9688163 L65.0411039,31.6716145 L58.6939849,35.3350377 L69.7721732,41.7330798 L69.7721732,35.4090286 C69.7639041,34.8367867 69.4846753,34.3023921 69.0196416,33.9688163 Z" id="路径_12316" fill="#21887A" fill-rule="nonzero"></path>
            <path d="M69.0196416,28.3912033 L65.0411039,26.0940015 L58.6939849,29.7574247 L69.7721732,36.1554669 L69.7721732,29.8314157 C69.7639041,29.2591737 69.4846753,28.7247792 69.0196416,28.3912033 L69.0196416,28.3912033 Z" id="路径_12317" fill="#21887A" fill-rule="nonzero"></path>
            <path d="M69.0196416,28.3912033 L60.2125407,23.3067184 L58.6957259,24.1828584 L69.7739142,30.5809006 L69.7739142,29.8362033 C69.7656527,29.2631864 69.4857008,28.7281601 69.0196416,28.3946852 L69.0196416,28.3912033 Z" id="路径_12318" fill="#21887A" fill-rule="nonzero"></path>
            <polygon id="路径_12319" fill="#5DC4A2" fill-rule="nonzero" points="69.7769608 30.5782892 58.6957259 24.180247 58.6957259 27.7056988 69.7769608 34.103741"></polygon>
            <polygon id="路径_12320" fill="#5DC4A2" fill-rule="nonzero" points="69.7769608 36.1541611 58.6957259 29.756119 58.6957259 33.2815708 69.7769608 39.679613"></polygon>
            <polygon id="路径_12321" fill="#5DC4A2" fill-rule="nonzero" points="69.7769608 41.7317741 58.6957259 35.3337319 58.6957259 38.8591837 69.7769608 45.2572259"></polygon>
            <polygon id="路径_12322" fill="#5DC4A2" fill-rule="nonzero" points="69.7769608 47.3089518 58.6957259 40.9109096 58.6957259 44.4363614 69.7769608 50.8344036"></polygon>
            <polygon id="路径_12323" fill="#5DC4A2" fill-rule="nonzero" points="69.7769608 52.8865648 58.6957259 46.4885226 58.6957259 50.0139744 69.7769608 56.4120166"></polygon>
            <path d="M68.8011506,32.8463298 L60.4536642,28.0273419 C60.1902022,27.8382241 60.0318355,27.5355355 60.0266928,27.2112651 L60.0266928,26.2667922 C60.0266928,25.952113 60.2181988,25.8093539 60.4536642,25.9438434 L68.8011506,30.7628313 C69.0646664,30.9519024 69.2230483,31.2546201 69.228122,31.5789081 L69.228122,32.523381 C69.2268163,32.8380602 69.034875,32.9808193 68.8011506,32.8463298 Z" id="路径_12324" fill="#F5F5F5" fill-rule="nonzero"></path>
            <path d="M68.8442395,32.8680919 C68.8276478,32.8620057 68.8119761,32.8536572 68.7976687,32.8432831 L60.4532289,28.0247304 C60.1897131,27.8356594 60.0313312,27.5329416 60.0262575,27.2086536 L60.0262575,27.2086536 C60.0313312,27.5329416 60.1897131,27.8356594 60.4532289,28.0247304 L68.8007154,32.8437184 C68.8155136,32.851988 68.8320527,32.8602575 68.8442395,32.8680919 Z M60.0262575,26.2667922 C60.0262575,26.0339383 60.1302801,25.8942259 60.2808735,25.8916145 C60.1302801,25.8916145 60.0262575,26.0313268 60.0262575,26.2667922 Z" id="路径_12325" fill="#4C6EA6" fill-rule="nonzero"></path>
            <path d="M68.9665422,32.8959473 C68.9248297,32.8957652 68.8836686,32.8864036 68.8459804,32.8685271 C68.8293819,32.8624563 68.8137082,32.8541068 68.7994096,32.8437184 L60.4536642,28.0247304 C60.1902022,27.8356126 60.0318355,27.5329241 60.0266928,27.2086536 L60.0266928,26.2633102 C60.0266928,26.0304563 60.1307154,25.890744 60.2813087,25.8881325 L60.2839202,25.8881325 C60.3441617,25.8900033 60.4027911,25.9080431 60.4536642,25.9403614 L60.4645452,25.9460196 C60.4545147,25.9900303 60.4489733,26.0349449 60.448006,26.0800738 L60.448006,27.0245467 C60.4530797,27.3488347 60.6114616,27.6515524 60.8749774,27.8406235 L69.2098419,32.6513419 C69.1771988,32.8019352 69.0866687,32.8894187 68.9661069,32.8894187 L68.9665422,32.8959473 Z" id="路径_12326" fill="#21887A" fill-rule="nonzero"></path>
            <path d="M66.1775181,30.2588223 L61.1557078,27.359247 C61.0624836,27.2928687 61.0065356,27.1859853 61.0051145,27.0715527 C61.0051145,26.961872 61.0734473,26.9100783 61.1557078,26.9592605 L66.1775181,29.8588358 C66.2707423,29.9252141 66.3266903,30.0320976 66.3281438,30.1465301 C66.3298524,30.2566461 66.2610843,30.3084398 66.1775181,30.2588223 Z" id="路径_12327" fill="#21887A" fill-rule="nonzero"></path>
            <path d="M68.8011506,38.388253 L60.4536642,33.5697003 C60.1902022,33.3805825 60.0318355,33.0778939 60.0266928,32.7536235 L60.0266928,31.8091506 C60.0266928,31.4944714 60.2181988,31.3517123 60.4536642,31.4862018 L68.8011506,36.3047545 C69.0646664,36.4938256 69.2230483,36.7965433 69.228122,37.1208313 L69.228122,38.0653042 C69.2268163,38.3799834 69.034875,38.5227425 68.8011506,38.388253 Z" id="路径_12328" fill="#F5F5F5" fill-rule="nonzero"></path>
            <path d="M68.832488,38.4065331 L68.7994096,38.389994 L60.4536642,33.571006 C60.1902022,33.3818882 60.0318355,33.0791997 60.0266928,32.7549292 L60.0266928,32.7549292 C60.0318355,33.0791997 60.1902022,33.3818882 60.4536642,33.571006 L68.8011506,38.3908645 L68.832488,38.4065331 Z M60.0266928,31.7995753 C60.0201973,31.688912 60.0586468,31.580312 60.1333268,31.4983886 C60.0595642,31.5812052 60.0212714,31.6896752 60.0266928,31.8004458 L60.0266928,31.7995753 Z" id="路径_12329" fill="#4C6EA6" fill-rule="nonzero"></path>
            <path d="M68.9665422,38.4417877 C68.9211522,38.4406038 68.876577,38.4294599 68.8359699,38.4091446 L68.8333584,38.4091446 L68.8007154,38.3926054 L60.4549699,33.5736175 C60.1914541,33.3845464 60.0330721,33.0818287 60.0279985,32.7575407 L60.0279985,31.8000105 C60.0214531,31.6893401 60.0599092,31.5807213 60.1346325,31.4988238 L60.1346325,31.4988238 C60.1752202,31.4601531 60.2291656,31.4386373 60.2852259,31.43876 C60.3454639,31.4406526 60.4040878,31.4586907 60.4549699,31.4909895 L60.4658509,31.4966476 C60.455623,31.541655 60.4500804,31.5876 60.4493117,31.6337485 L60.4493117,32.5782214 C60.4543854,32.9025094 60.6127673,33.2052271 60.8762831,33.3942982 L69.2111476,38.2050166 C69.1785045,38.3556099 69.0879744,38.4430934 68.9674127,38.4430934 L68.9665422,38.4417877 Z" id="路径_12330" fill="#21887A" fill-rule="nonzero"></path>
            <path d="M66.1775181,35.8007455 L61.1557078,32.9011702 C61.0624836,32.8347919 61.0065356,32.7279084 61.0051145,32.6134759 C61.0051145,32.5037952 61.0734473,32.4520015 61.1557078,32.5011837 L66.1775181,35.400759 C66.2707423,35.4671373 66.3266903,35.5740208 66.3281438,35.6884533 C66.3298524,35.798134 66.2610843,35.850363 66.1775181,35.8007455 Z" id="路径_12331" fill="#21887A" fill-rule="nonzero"></path>
            <path d="M68.8011506,43.9815346 L60.4554051,39.1625467 C60.1919431,38.9734289 60.0335765,38.6707403 60.0284337,38.3464699 L60.0284337,37.401997 C60.0284337,37.0873178 60.2199398,36.9445587 60.4554051,37.0790482 L68.8011506,41.8984714 C69.0646664,42.0875425 69.2230483,42.3902602 69.228122,42.7145482 L69.228122,43.6590211 C69.2268163,43.9737003 69.034875,44.1164593 68.8011506,43.9815346 Z" id="路径_12332" fill="#F5F5F5" fill-rule="nonzero"></path>
            <path d="M60.0266928,37.4072199 C60.0266928,37.174366 60.1333268,37.0346536 60.2839202,37.0346536 C60.1333268,37.0329127 60.0266928,37.172625 60.0266928,37.4072199 Z" id="路径_12333" fill="#4C6EA6" fill-rule="nonzero"></path>
            <path d="M68.9665422,44.0341988 C68.9070581,44.0326718 68.8491788,44.0145845 68.7994096,43.9819699 L68.7994096,43.9819699 L60.4536642,39.1629819 C60.1902022,38.9738641 60.0318355,38.6711756 60.0266928,38.3469051 L60.0266928,37.4024322 C60.0266928,37.1695783 60.1333268,37.029866 60.2839202,37.029866 L60.2839202,37.029866 C60.3406874,37.0322984 60.3960507,37.0482657 60.4453946,37.0764367 C60.448006,37.0790482 60.4510527,37.0790482 60.4536642,37.0820949 L60.4536642,37.0820949 L60.4645452,37.087753 C60.4545118,37.1317633 60.4489703,37.1766781 60.448006,37.2218072 L60.448006,38.1662801 C60.4530797,38.4905681 60.6114616,38.7932859 60.8749774,38.9823569 L69.2098419,43.7930753 C69.1771988,43.9436687 69.0866687,44.0311521 68.9661069,44.0311521 L68.9665422,44.0341988 Z" id="路径_12334" fill="#21887A" fill-rule="nonzero"></path>
            <path d="M66.1775181,41.3944623 L61.1557078,38.494887 C61.0624836,38.4285088 61.0065356,38.3216253 61.0051145,38.2071928 C61.0051145,38.097512 61.0734473,38.0457184 61.1557078,38.0949006 L66.1775181,40.9944759 C66.2707423,41.0608542 66.3266903,41.1677376 66.3281438,41.2821702 C66.3298524,41.3918509 66.2610843,41.4440798 66.1775181,41.3944623 Z" id="路径_12335" fill="#21887A" fill-rule="nonzero"></path>
            <path d="M68.8011506,49.6279157 L60.4554051,44.8089277 C60.1919431,44.6198099 60.0335765,44.3171214 60.0284337,43.9928509 L60.0284337,43.046637 C60.0284337,42.7319578 60.2199398,42.5891988 60.4554051,42.7236883 L68.8011506,47.5444172 C69.0646664,47.7334882 69.2230483,48.036206 69.228122,48.360494 L69.228122,49.3049669 C69.2268163,49.6187756 69.034875,49.7624051 68.8011506,49.6279157 Z" id="路径_12336" fill="#F5F5F5" fill-rule="nonzero"></path>
            <path d="M68.8350994,49.650113 C68.8226513,49.6448153 68.8107064,49.6384058 68.7994096,49.6309623 L60.4536642,44.8119744 C60.1902022,44.6228566 60.0318355,44.320168 60.0266928,43.9958976 L60.0266928,43.9958976 C60.0318355,44.320168 60.1902022,44.6228566 60.4536642,44.8119744 L68.8011506,49.6309623 C68.8118916,49.6383158 68.8232505,49.6447234 68.8350994,49.650113 Z M60.0266928,43.0540361 C60.0266928,42.8211822 60.1307154,42.6814699 60.2813087,42.6814699 C60.1307154,42.6814699 60.0266928,42.8211822 60.0266928,43.0540361 Z" id="路径_12337" fill="#4C6EA6" fill-rule="nonzero"></path>
            <path d="M68.9665422,49.6801446 C68.9214067,49.6792951 68.8769411,49.6690681 68.8359699,49.650113 L68.8359699,49.650113 C68.8235166,49.644826 68.8115707,49.638416 68.8002801,49.6309623 L60.4545346,44.8119744 C60.1910188,44.6229033 60.0326369,44.3201856 60.0275633,43.9958976 L60.0275633,43.0514247 C60.0275633,42.8185708 60.1315858,42.6788584 60.2821792,42.6788584 L60.2847907,42.6788584 C60.3450322,42.6807292 60.4036616,42.698769 60.4545346,42.7310873 L60.4654157,42.7367455 C60.4553763,42.7807547 60.4498348,42.8256701 60.4488765,42.8707997 L60.4488765,43.8152726 C60.4540192,44.139543 60.6123859,44.4422316 60.8758479,44.6313494 L69.2128886,49.442503 C69.1802455,49.5930964 69.0897154,49.6805798 68.9691536,49.6805798 L68.9665422,49.6801446 Z" id="路径_12338" fill="#21887A" fill-rule="nonzero"></path>
            <path d="M66.1775181,47.0425843 L61.1557078,44.143009 C61.0624836,44.0766308 61.0065356,43.9697473 61.0051145,43.8553148 C61.0051145,43.745634 61.0734473,43.6938404 61.1557078,43.7430226 L66.1775181,46.6425979 C66.2707423,46.7089762 66.3266903,46.8158596 66.3281438,46.9302922 C66.3298524,47.0377967 66.2610843,47.0900256 66.1775181,47.0425843 Z" id="路径_12339" fill="#21887A" fill-rule="nonzero"></path>
            <path d="M68.8011506,55.1615693 L60.4554051,50.3425813 C60.1919431,50.1534635 60.0335765,49.850775 60.0284337,49.5265045 L60.0284337,48.5820316 C60.0284337,48.2673524 60.2199398,48.1245934 60.4554051,48.2590828 L68.8011506,53.0780708 C69.0646664,53.2671418 69.2230483,53.5698596 69.228122,53.8941476 L69.228122,54.8386205 C69.2268163,55.1532997 69.034875,55.2986702 68.8011506,55.1615693 Z" id="路径_12340" fill="#F5F5F5" fill-rule="nonzero"></path>
            <path d="M60.0266928,48.5850783 C60.0266928,48.3522244 60.1307154,48.212512 60.2813087,48.212512 C60.1307154,48.212512 60.0266928,48.3522244 60.0266928,48.5850783 Z" id="路径_12341" fill="#4C6EA6" fill-rule="nonzero"></path>
            <path d="M68.9665422,55.2137982 C68.9070581,55.2122712 68.8491788,55.1941839 68.7994096,55.1615693 L68.7994096,55.1615693 L60.4536642,50.3425813 C60.1902022,50.1534635 60.0318355,49.850775 60.0266928,49.5265045 L60.0266928,48.5820316 C60.0266928,48.3491777 60.1307154,48.2094654 60.2813087,48.2094654 L60.2839202,48.2094654 C60.3396393,48.2107476 60.3941911,48.2256933 60.4427831,48.2529895 C60.4453946,48.2556009 60.4510527,48.2556009 60.4536642,48.2586476 L60.4536642,48.2586476 L60.4645452,48.2643057 C60.4545147,48.3083165 60.4489733,48.353231 60.448006,48.3983599 L60.448006,49.3428328 C60.4530797,49.6671208 60.6114616,49.9698386 60.8749774,50.1589096 L69.2098419,54.969628 C69.1771988,55.1202214 69.0866687,55.2077048 68.9661069,55.2077048 L68.9665422,55.2137982 Z" id="路径_12342" fill="#21887A" fill-rule="nonzero"></path>
            <path d="M66.1775181,52.5740617 L61.1557078,49.6744864 C61.0624836,49.6081082 61.0065356,49.5012247 61.0051145,49.3867922 C61.0051145,49.2771114 61.0734473,49.2253178 61.1557078,49.2745 L66.1775181,52.1740753 C66.2707423,52.2404536 66.3266903,52.347337 66.3281438,52.4617696 C66.3298524,52.5718855 66.2610843,52.6236792 66.1775181,52.5740617 Z" id="路径_12343" fill="#21887A" fill-rule="nonzero"></path>
            <path d="M59.5692545,28.2079669 L58.6957259,27.7056988 L59.5692545,28.2097078 L59.5692545,28.2079669 Z M59.5692545,24.6825151 L58.6957259,24.180247 L59.5692545,24.684256 L59.5692545,24.6825151 Z" id="路径_12344" fill="#35497D" fill-rule="nonzero"></path>
            <path d="M59.5692545,24.684256 L58.6957259,24.180247 L59.5692545,24.684256 Z" id="路径_12345" fill="#35497D" fill-rule="nonzero"></path>
            <polygon id="路径_12346" fill="#21887A" fill-rule="nonzero" points="59.5692545 28.2079669 58.6957259 27.7056988 58.6957259 24.180247 59.5692545 24.684256"></polygon>
            <path d="M59.5692545,33.7864503 L58.6957259,33.2824413 L59.5692545,33.7864503 Z" id="路径_12347" fill="#35497D" fill-rule="nonzero"></path>
            <polygon id="路径_12348" fill="#21887A" fill-rule="nonzero" points="59.5692545 33.7855798 58.6957259 33.2815708 58.6957259 29.756119 59.5692545 30.260128"></polygon>
            <polygon id="路径_12349" fill="#21887A" fill-rule="nonzero" points="59.5692545 39.3631928 58.6957259 38.8591837 58.6957259 35.3337319 59.5692545 35.837741"></polygon>
            <path d="M59.5692545,41.4166596 L58.6957259,40.9126506 L59.5692545,41.4166596 Z" id="路径_12350" fill="#35497D" fill-rule="nonzero"></path>
            <polygon id="路径_12351" fill="#21887A" fill-rule="nonzero" points="59.5692545 44.9403705 58.6957259 44.4363614 58.6957259 40.9109096 59.5692545 41.4149187"></polygon>
            <path d="M59.5692545,50.5184187 L58.6957259,50.0144096 L59.5692545,50.5184187 Z" id="路径_12352" fill="#35497D" fill-rule="nonzero"></path>
            <path d="M59.5692545,46.9916611 L58.6957259,46.4876521 L59.5692545,46.9916611 Z" id="路径_12353" fill="#35497D" fill-rule="nonzero"></path>
            <polygon id="路径_12354" fill="#21887A" fill-rule="nonzero" points="59.5692545 50.5179834 58.6957259 50.0139744 58.6957259 46.4885226 59.5692545 46.9925316"></polygon>
            <path d="M67.1703027,30.6065798 C67.1703027,30.718872 67.0910889,30.7654428 66.9962063,30.707991 C66.8915313,30.6407743 66.8253551,30.5275143 66.8181928,30.4033223 C66.8181928,30.2910301 66.8974066,30.2444593 66.9962063,30.3019111 C67.0990243,30.370342 67.1635468,30.4832564 67.1703027,30.6065798 L67.1703027,30.6065798 Z" id="路径_12355" fill="#3FD5AE" fill-rule="nonzero"></path>
            <path d="M67.9180467,31.0387741 C67.9180467,31.1510663 67.8388328,31.197637 67.7400331,31.1401852 C67.6365332,31.0723938 67.5717956,30.9591029 67.5659367,30.8355166 C67.5659367,30.7232244 67.6451506,30.6766536 67.7400331,30.7341054 C67.8443425,30.801672 67.9104,30.9147289 67.9180467,31.0387741 L67.9180467,31.0387741 Z" id="路径_12356" fill="#373435" fill-rule="nonzero"></path>
            <path d="M68.6679669,31.4718389 C68.6679669,31.584131 68.588753,31.6307018 68.4899533,31.57325 C68.3864,31.5055088 68.3216454,31.3921882 68.3158569,31.2685813 C68.3158569,31.1562892 68.3950708,31.1097184 68.4899533,31.1671702 C68.5942627,31.2347367 68.6603202,31.3477936 68.6679669,31.4718389 L68.6679669,31.4718389 Z" id="路径_12357" fill="#3FD5AE" fill-rule="nonzero"></path>
            <path d="M67.1703027,36.1811461 C67.1703027,36.2934383 67.0910889,36.340009 66.9962063,36.2825572 C66.8918969,36.2149907 66.8258394,36.1019338 66.8181928,35.9778886 C66.8181928,35.8655964 66.8974066,35.8190256 66.9962063,35.8764774 C67.0997062,35.9442689 67.1644439,36.0575597 67.1703027,36.1811461 L67.1703027,36.1811461 Z" id="路径_12358" fill="#373435" fill-rule="nonzero"></path>
            <path d="M67.9180467,36.6137756 C67.9180467,36.7260678 67.8388328,36.7726386 67.7400331,36.7151867 C67.6372152,36.6467559 67.5726927,36.5338415 67.5659367,36.4105181 C67.5659367,36.2982259 67.6451506,36.2516551 67.7400331,36.3091069 C67.8447082,36.3763236 67.9108844,36.4895836 67.9180467,36.6137756 L67.9180467,36.6137756 Z" id="路径_12359" fill="#3FD5AE" fill-rule="nonzero"></path>
            <path d="M68.6679669,37.0464051 C68.6679669,37.1586973 68.588753,37.2052681 68.4899533,37.1478163 C68.3871353,37.0793854 68.3226128,36.966471 68.3158569,36.8431476 C68.3158569,36.7308554 68.3950708,36.6842846 68.4899533,36.7417364 C68.5942627,36.809303 68.6603202,36.9223599 68.6679669,37.0464051 L68.6679669,37.0464051 Z" id="路径_12360" fill="#3FD5AE" fill-rule="nonzero"></path>
            <path d="M67.1703027,41.7970602 C67.1703027,41.9093524 67.0910889,41.9559232 66.9962063,41.8984714 C66.8918969,41.8309048 66.8258394,41.717848 66.8181928,41.5938027 C66.8181928,41.4815105 66.8974066,41.4349398 66.9962063,41.4923916 C67.0990243,41.5608224 67.1635468,41.6737368 67.1703027,41.7970602 L67.1703027,41.7970602 Z" id="路径_12361" fill="#3FD5AE" fill-rule="nonzero"></path>
            <path d="M67.9180467,42.2296898 C67.9180467,42.3419819 67.8388328,42.3885527 67.7400331,42.3311009 C67.6372152,42.2626701 67.5726927,42.1497557 67.5659367,42.0264322 C67.5659367,41.9141401 67.6451506,41.8675693 67.7400331,41.9250211 C67.8443425,41.9925877 67.9104,42.1056445 67.9180467,42.2296898 L67.9180467,42.2296898 Z" id="路径_12362" fill="#373435" fill-rule="nonzero"></path>
            <path d="M68.6679669,42.6623193 C68.6679669,42.7746114 68.588753,42.8211822 68.4899533,42.7637304 C68.3871353,42.6952996 68.3226128,42.5823852 68.3158569,42.4590617 C68.3158569,42.3467696 68.3950708,42.3001988 68.4899533,42.3576506 C68.5946283,42.4248673 68.6608045,42.5381273 68.6679669,42.6623193 L68.6679669,42.6623193 Z" id="路径_12363" fill="#3FD5AE" fill-rule="nonzero"></path>
            <path d="M67.1703027,47.3302786 C67.1703027,47.4425708 67.0910889,47.4891416 66.9962063,47.4316898 C66.8918969,47.3641232 66.8258394,47.2510663 66.8181928,47.1270211 C66.8181928,47.0147289 66.8974066,46.9681581 66.9962063,47.0256099 C67.0990243,47.0940408 67.1635468,47.2069552 67.1703027,47.3302786 L67.1703027,47.3302786 Z" id="路径_12364" fill="#3FD5AE" fill-rule="nonzero"></path>
            <path d="M67.9180467,47.7633434 C67.9180467,47.8756355 67.8388328,47.9222063 67.7400331,47.8647545 C67.6372152,47.7963237 67.5726927,47.6834093 67.5659367,47.5600858 C67.5659367,47.4477937 67.6451506,47.4012229 67.7400331,47.4586747 C67.8447082,47.5258914 67.9108844,47.6391514 67.9180467,47.7633434 L67.9180467,47.7633434 Z" id="路径_12365" fill="#3FD5AE" fill-rule="nonzero"></path>
            <path d="M68.6679669,48.1959729 C68.6679669,48.3082651 68.588753,48.3548358 68.4899533,48.297384 C68.3871353,48.2289532 68.3226128,48.1160388 68.3158569,47.9927154 C68.3158569,47.8804232 68.3950708,47.8338524 68.4899533,47.8913042 C68.5946283,47.9585209 68.6608045,48.0717809 68.6679669,48.1959729 L68.6679669,48.1959729 Z" id="路径_12366" fill="#3FD5AE" fill-rule="nonzero"></path>
            <path d="M67.1703027,52.9414051 C67.1703027,53.0536973 67.0910889,53.1002681 66.9962063,53.0428163 C66.8918969,52.9752497 66.8258394,52.8621928 66.8181928,52.7381476 C66.8181928,52.6258554 66.8974066,52.5792846 66.9962063,52.6367364 C67.0990243,52.7051673 67.1635468,52.8180817 67.1703027,52.9414051 L67.1703027,52.9414051 Z" id="路径_12367" fill="#3FD5AE" fill-rule="nonzero"></path>
            <path d="M67.9180467,53.3740346 C67.9180467,53.4863268 67.8388328,53.5328976 67.7400331,53.4754458 C67.6372152,53.4070149 67.5726927,53.2941006 67.5659367,53.1707771 C67.5659367,53.0584849 67.6451506,53.0119142 67.7400331,53.069366 C67.8443425,53.1369325 67.9104,53.2499894 67.9180467,53.3740346 L67.9180467,53.3740346 Z" id="路径_12368" fill="#373435" fill-rule="nonzero"></path>
            <path d="M68.6679669,53.8066642 C68.6679669,53.9189563 68.588753,53.9655271 68.4899533,53.9080753 C68.3871353,53.8396445 68.3226128,53.7267301 68.3158569,53.6034066 C68.3158569,53.4911145 68.3950708,53.4445437 68.4899533,53.5019955 C68.5942627,53.569562 68.6603202,53.6826189 68.6679669,53.8066642 L68.6679669,53.8066642 Z" id="路径_12369" fill="#3FD5AE" fill-rule="nonzero"></path>
            <path d="M72.7065678,30.5848178 L72.7065678,55.0605934 L82.7728208,49.2475151 L82.7728208,24.7717395 L72.7065678,30.5848178 Z M72.501134,55.4192319 L72.501134,30.464256 L72.553363,30.4342244 L82.9826069,24.4131009 L82.9826069,49.3680768 L82.930378,49.3981084 L72.501134,55.4192319 Z" id="路径_12370" fill="#F5F5F5" fill-rule="nonzero"></path>
            <path d="M80.2693148,35.6449292 L75.5926506,38.3434232 C75.2779714,38.5240482 75.0233554,38.3325422 75.0233554,37.9134051 L75.0233554,35.3202395 C75.0292635,34.8876382 75.2406292,34.4836518 75.5926506,34.232137 L80.2693148,31.5336431 C80.5844292,31.3530181 80.8386099,31.5445241 80.8386099,31.9636611 L80.8386099,34.5568268 C80.8327018,34.9894281 80.6213362,35.3934144 80.2693148,35.6449292 Z" id="路径_12371" fill="#F5F5F5" fill-rule="nonzero"></path>
            <path d="M80.3842184,31.4827199 C80.4134202,31.5666067 80.4272789,31.6550662 80.425131,31.7438645 L80.425131,34.3357244 C80.4191219,34.768404 80.2075867,35.1724055 79.8554006,35.4238268 L75.1787364,38.1223208 C75.143213,38.1427643 75.1055579,38.1592567 75.0664443,38.171503 C75.0967,38.278291 75.1783047,38.3629042 75.2839279,38.3970044 C75.3895511,38.4311047 75.5052275,38.4101832 75.5922154,38.341247 L80.2688795,35.642753 C80.6210656,35.3913317 80.8326009,34.9873302 80.8386099,34.5546506 L80.8386099,31.9614849 C80.8386099,31.5945768 80.6440572,31.4000241 80.3842184,31.4827199 L80.3842184,31.4827199 Z" id="路径_12372" fill="#22877A" fill-rule="nonzero"></path>
            <path d="M79.4179834,34.0811084 C79.5050316,34.0319262 79.5742349,34.0728389 79.5742349,34.1716386 L79.5742349,34.7635663 C79.5675868,34.8734628 79.5097316,34.9738633 79.4179834,35.0347214 C79.3309352,35.0839036 79.2617319,35.042991 79.2617319,34.9441913 L79.2617319,34.3526988 C79.2682465,34.2426458 79.3261173,34.142057 79.4179834,34.0811084 Z" id="路径_12373" fill="#5DC4A2" fill-rule="nonzero"></path>
            <path d="M78.7477123,34.5437696 C78.8347605,34.4945873 78.9039639,34.5328886 78.9039639,34.6342997 L78.9039639,35.1518012 C78.8973158,35.2616977 78.8394605,35.3620983 78.7477123,35.4229563 C78.6606642,35.4721386 78.5914608,35.4338373 78.5914608,35.3324262 L78.5914608,34.8149247 C78.5981089,34.7050282 78.6559642,34.6046277 78.7477123,34.5437696 L78.7477123,34.5437696 Z" id="路径_12374" fill="#3FD5AE" fill-rule="nonzero"></path>
            <path d="M78.0735241,34.3553102 C78.1605723,34.306128 78.2297756,34.3470407 78.2297756,34.4458404 L78.2297756,35.5382952 C78.2231275,35.6481917 78.1652723,35.7485922 78.0735241,35.8094503 C77.9864759,35.8586325 77.9172726,35.8203313 77.9172726,35.7189202 L77.9172726,34.6264654 C77.9239207,34.5165689 77.9817759,34.4161683 78.0735241,34.3553102 L78.0735241,34.3553102 Z" id="路径_12375" fill="#373435" fill-rule="nonzero"></path>
            <path d="M77.4058645,34.1115753 C77.4929127,34.0623931 77.562116,34.1033057 77.562116,34.2021054 L77.562116,35.9243539 C77.5554679,36.0342504 77.4976126,36.134651 77.4058645,36.195509 C77.3188163,36.2446913 77.249613,36.2037786 77.249613,36.1049789 L77.249613,34.3827304 C77.2558554,34.2727126 77.3138078,34.1721432 77.4058645,34.1115753 L77.4058645,34.1115753 Z" id="路径_12376" fill="#3FD5AE" fill-rule="nonzero"></path>
            <path d="M76.7347229,34.678259 C76.8217711,34.6290768 76.8909744,34.6699895 76.8909744,34.7687892 L76.8909744,36.3104127 C76.8862141,36.4208668 76.8279002,36.5220633 76.7347229,36.5815678 C76.6476747,36.63075 76.5784714,36.5924488 76.5784714,36.4910377 L76.5784714,34.9494142 C76.5851195,34.8395177 76.6429747,34.7391171 76.7347229,34.678259 L76.7347229,34.678259 Z" id="路径_12377" fill="#3FD5AE" fill-rule="nonzero"></path>
            <path d="M76.0640166,35.7702786 C76.1510648,35.7210964 76.2202681,35.7593976 76.2202681,35.8608087 L76.2202681,36.6986476 C76.2140257,36.8086654 76.1560732,36.9092348 76.0640166,36.9698027 C75.9769684,37.0189849 75.9077651,36.9806837 75.9077651,36.8792726 L75.9077651,36.0414337 C75.9144132,35.9315372 75.9722684,35.8311367 76.0640166,35.7702786 L76.0640166,35.7702786 Z" id="路径_12378" fill="#5DC4A2" fill-rule="nonzero"></path>
            <path d="M79.2617319,33.7829684 C79.2617319,33.8813328 79.3300648,33.9200693 79.4149367,33.8734985 C79.5050147,33.8141104 79.5617976,33.7157082 79.5681416,33.6080015 C79.5681416,33.509637 79.4998087,33.4709006 79.4149367,33.5209533 C79.324337,33.5798482 79.2673878,33.6785386 79.2617319,33.7864503 L79.2617319,33.7829684 Z" id="路径_12379" fill="#373435" fill-rule="nonzero"></path>
            <path d="M79.2617319,33.2293419 C79.2617319,33.3281416 79.3300648,33.3664428 79.4149367,33.3163901 C79.5050147,33.257002 79.5617976,33.1585998 79.5681416,33.0508931 C79.5681416,32.9525286 79.4998087,32.9137922 79.4149367,32.9638449 C79.3248588,33.0232329 79.2680759,33.1216351 79.2617319,33.2293419 L79.2617319,33.2293419 Z" id="路径_12380" fill="#5DC4A2" fill-rule="nonzero"></path>
            <path d="M39.7836355,47.7224307 L39.6578509,48.4314383 C39.6521928,48.4588584 38.7760527,53.3496611 37.7166762,58.4585196 C37.0812244,61.4786566 36.5284684,63.9020783 36.0627605,65.6595813 C35.4098991,68.1596054 35.0029488,69.1589187 34.6965392,69.6298494 C33.6750286,70.1255889 32.5203343,70.6309036 31.3617229,71.0839895 C29.9930858,71.6384025 28.5832671,72.0851555 27.1451084,72.4201792 C25.4145904,72.7896988 24.3438976,72.7348584 23.4294563,72.2064759 C22.5150151,71.6780934 21.4360527,70.4898855 19.7085813,68.1213042 C18.5395241,66.527887 17.085384,64.3865015 15.4971898,61.9247786 C12.6576777,57.5288449 9.78813404,52.7577334 8.9685753,51.0546355 C8.63431024,50.3617319 8.20733886,49.1395753 7.37211145,45.0047861 C6.90379217,42.6501325 6.3506009,39.5916943 5.72907681,35.9143434 C5.30210542,33.3760181 4.89950753,30.8842636 4.57612349,28.8199157 L0.177143072,24.3317108 L0.642415663,24.0705663 C0.680716867,24.0814473 0.719018072,24.095375 0.757319277,24.1088675 L1.54336446,24.4431325 C6.86954631,26.6585614 12.5707474,27.8334027 18.338878,27.9041687 C18.7166672,27.9041687 18.9247123,27.8932877 18.9386401,27.8932877 L19.3495075,27.874137 C19.7534035,27.9163198 20.1229317,28.120479 20.3736295,28.4399503 L20.7897199,28.9326431 C21.6958916,30.0142169 29.7787515,39.4689563 38.2476702,45.6324036 L39.0280572,46.2047455 C39.5241359,46.54615 39.8080567,47.1200851 39.7784127,47.7215602 L39.7836355,47.7224307 Z" id="路径_12383" fill="#3DC9A1" fill-rule="nonzero"></path>
            <g id="组_1967" transform="translate(0.000000, 20.444139)">
                <path d="M46.6808991,23.4146581 L46.5551145,24.1236657 C46.5468449,24.1728479 45.6572123,29.1071747 44.6108931,34.139866 C43.989369,37.1025512 43.4387892,39.5229262 42.965247,41.3300467 C42.1330663,44.5073057 41.7082711,45.2372048 41.3687831,45.5383916 C40.555753,46.2970166 37.6888208,47.7616024 34.8466973,48.8732078 C33.4789653,49.4269723 32.0699969,49.8728594 30.6326943,50.2067861 C28.9021762,50.5793524 27.828872,50.5214654 26.9144307,49.9961295 C25.9999895,49.4707937 24.9210271,48.2821506 23.1935557,45.9109578 C22.0271099,44.314494 20.5703584,42.1735437 18.9821642,39.7118208 C16.1400407,35.315887 13.2731084,30.5447756 12.4535497,28.8416777 C12.1166732,28.1487741 11.6923133,26.9305346 10.8601325,22.7918283 C10.3892018,20.4371747 9.83601054,17.3787364 9.21448645,13.7013855 C8.16947289,7.46177108 7.27766416,1.49896988 7.27157078,1.44108283 C7.27157078,1.44108283 7.21411898,1.05763554 7.14578614,0.584093373 C7.07745331,0.110551205 7.37037048,-0.122302711 7.803,0.0618042169 L8.58904518,0.395634036 C14.130766,2.71590609 20.0831783,3.8958195 26.0909548,3.86493976 L26.5044337,3.84578916 C26.8323941,3.89020384 27.1295745,4.06225561 27.3313916,4.32455422 L27.7448705,4.82290512 C27.8319187,4.92431627 36.3152003,15.0606431 45.2493916,21.5609669 L46.0328253,22.1306973 C46.4528945,22.4189313 46.6985818,22.9001508 46.6856867,23.4094352 L46.6808991,23.4146581 Z" id="路径_12381" fill="#22877A"></path>
                <path d="M43.2011476,25.1778193 L43.0705753,25.8868268 C43.0649172,25.936009 42.1752846,30.8672892 41.1294006,35.9030271 C40.5078765,38.8626657 39.9572967,41.2860873 39.486366,43.0932078 C38.6541852,46.2665497 38.2267786,47.000366 37.8872907,47.2989413 C36.9013308,48.0487317 35.8306995,48.680096 34.6974096,49.1800527 C33.6758991,49.6757922 32.5212048,50.1811069 31.3625934,50.6341928 C29.9939581,51.1886108 28.584139,51.6353639 27.1459789,51.9703825 C25.4154608,52.3399021 24.3447681,52.2850617 23.4303268,51.7566792 C22.5158855,51.2282967 21.4369232,50.0400889 19.7094518,47.6715075 C18.5403946,46.0780904 17.0862545,43.9367048 15.4980602,41.4749819 C12.6585482,37.0790482 9.78900452,32.3079367 8.96944578,30.6048389 C8.63518072,29.9119352 8.20820934,28.6897786 7.37298193,24.5549895 C6.90466265,22.2003358 6.35147139,19.1418976 5.72994729,15.4645467 C5.3029759,12.9262214 4.90037801,10.4344669 4.57699398,8.37011898 L0.177143072,3.88365512 L0.642415663,3.62251054 L3.79704217,1.84106928 C3.95349344,1.73638378 4.15563354,1.72897198 4.31933133,1.82191867 L5.10537651,2.16140663 C10.6476247,4.47694733 16.598214,5.65667541 22.6046747,5.63071235 L23.0207651,5.61156175 C23.3482134,5.65382574 23.6450971,5.82546655 23.8451114,6.0881506 L24.2612018,6.58650151 C24.34825,6.68791265 32.8289202,16.8268509 41.7657229,23.3245633 C41.7657229,23.3245633 42.1139157,23.5817907 42.5461099,23.8969051 C42.9679596,24.1843065 43.2161498,24.6652977 43.2062387,25.1756431 L43.2011476,25.1778193 Z" id="路径_12382" fill="#37BF95"></path>
                <path d="M39.5451235,27.2330271 L39.4193389,27.9420346 C39.4110693,27.9912169 38.5214367,32.9255437 37.4751175,37.9582349 C36.8535934,40.9209202 36.3030136,43.3412952 35.8294714,45.1484157 C34.9972907,48.3256747 34.5724955,49.0555738 34.2330075,49.3567605 C33.4199774,50.1153855 30.5530452,51.5799714 27.7109217,52.6915768 C26.3432242,53.2457772 24.9342557,53.6921009 23.4969187,54.0264608 C21.7664006,54.3990271 20.6930964,54.3411401 19.7786551,53.8158042 C18.8642139,53.2904684 17.7852515,52.1018253 16.0577801,49.7306325 C14.8913343,48.1341687 13.4345828,45.9932184 11.8463886,43.5314955 C9.00426506,39.1355617 6.13733283,34.3644503 5.3177741,32.6613524 C4.98089759,31.9684488 4.55653765,30.7502093 3.72435693,26.611503 C3.2534262,24.2568494 2.70023494,21.1984111 2.07871084,17.5210602 C1.03369729,11.2792696 0.144064759,5.31864458 0.135795181,5.26075753 C0.135795181,5.26075753 0.0783433735,4.87731024 0.0100105422,4.40376807 C-0.0583222892,3.9302259 0.23459488,3.69737199 0.667224398,3.88147892 L1.45326958,4.21530873 C6.99499042,6.53558079 12.9474027,7.7154942 18.9551792,7.68461446 L19.3686581,7.66546386 C19.6966185,7.70987853 19.9937989,7.88193031 20.195616,8.14422892 L20.6090949,8.64257982 C20.6961431,8.74399096 29.1794247,18.8803178 38.113616,25.3806416 L38.8970497,25.950372 C39.3171189,26.238606 39.5628062,26.7198255 39.5499111,27.2291099 L39.5451235,27.2330271 Z" id="路径_12384" fill="#3DC9A1"></path>
                <path d="M36.1254352,27.9489985 C35.8642907,29.3852937 35.1396145,33.285488 34.304387,37.2997154 C33.682863,40.2593539 33.1405527,42.6279352 32.6970422,44.3284217 C32.4700676,45.2722631 32.1856151,46.2013488 31.8452756,47.1104819 C30.152601,48.1220532 28.3731105,48.9807007 26.5279367,49.6762274 C25.5163492,50.0777847 24.4834082,50.4233092 23.4338087,50.7112304 C23.2201054,50.7660708 23.0146717,50.8126416 22.8205542,50.8561657 C22.4219185,50.9522027 22.0146887,51.0081914 21.6049262,51.0232982 C21.5342943,51.0264739 21.4635404,51.0209189 21.3942696,51.006759 C21.1862244,50.8861973 20.5098599,50.3386642 18.6696611,47.8194895 C17.5197545,46.2452229 16.0986928,44.1560663 14.5653389,41.7735572 C11.5012425,37.0368298 8.89197289,32.6256627 8.23214759,31.2537831 C7.91442169,30.6009217 7.47918072,28.8769322 6.89856928,25.972134 C6.43590813,23.6610045 5.888375,20.6356446 5.2720738,16.9800557 C4.74978464,13.8750467 4.27101958,10.8492515 3.91673343,8.59339759 C4.25622139,8.70278815 4.59295281,8.80681074 4.92692771,8.90546536 C9.26921531,10.1937487 13.7681488,10.8782767 18.2970949,10.9397816 C19.7481883,12.6402681 27.7161446,21.8129714 36.1219533,27.9489985 L36.1254352,27.9489985 Z" id="路径_12385" fill="#5DC4A2" fill-rule="nonzero"></path>
                <path d="M36.1254352,27.9489985 C35.8642907,29.3852937 35.1396145,33.285488 34.304387,37.2997154 C33.682863,40.2593539 33.1405527,42.6279352 32.6970422,44.3284217 C32.470209,45.2722532 32.1859019,46.2013387 31.8457108,47.1104819 C30.1530374,48.1220552 28.3735467,48.9807028 26.528372,49.6762274 C25.5167808,50.0777747 24.4838403,50.4232991 23.434244,50.7112304 C23.1374418,50.7711289 22.8359863,50.8050609 22.5332952,50.8126416 C22.4626632,50.8158217 22.3919088,50.8102666 22.3226386,50.7961024 C22.1145934,50.6785873 21.4382289,50.1280075 19.5980301,47.6088328 C18.4481235,46.0345663 17.0301084,43.9454096 15.4937078,41.5629006 C12.4296114,36.8261732 9.82034187,32.415006 9.16051657,31.0431265 C8.84583735,30.3902651 8.4075497,28.6662756 7.82693825,25.7614774 C7.36427711,23.4547003 6.81369729,20.4275994 6.19783133,16.7724458 C5.71601958,13.897244 5.26946235,11.0964684 4.92736295,8.90328916 C9.26964934,10.1915779 13.7685836,10.876106 18.2975301,10.9376054 C19.7486235,12.6380919 27.7165798,21.8107952 36.1223886,27.9468223 L36.1254352,27.9489985 Z" id="路径_12386" fill="#F5F5F5"></path>
            </g>
        </g>
    </g>
</svg>