<svg xmlns="http://www.w3.org/2000/svg" xmlns:xlink="http://www.w3.org/1999/xlink" width="139.024" height="162.247" viewBox="0 0 139.024 162.247">
  <defs>
    <clipPath id="clip-path">
      <path id="路径_4395" data-name="路径 4395" d="M244.9,994.939V876.75H135.623v125.777a1.787,1.787,0,0,0,0,3.094l46.6,26.94a4.955,4.955,0,0,0,4.955.006l57.589-33.129A2.643,2.643,0,0,0,244.9,994.939Z" transform="translate(-134.732 -876.75)" fill="none"/>
    </clipPath>
    <clipPath id="clip-path-2">
      <path id="路径_4401" data-name="路径 4401" d="M148.865,930.855V916.533l-20.989,12.1,63.709,38.275L266.9,921.719l-23.706-12.594v5.926l.741,9.384-54.079,30.126Z" transform="translate(-127.875 -909.125)" fill="none"/>
    </clipPath>
  </defs>
  <g id="组_265" data-name="组 265" transform="translate(-127.875 -876.75)">
    <path id="路径_4382" data-name="路径 4382" d="M244.269,927.073l-43.915-25.345a7.7,7.7,0,0,0-7.687-.008l-57.538,33.038a1.789,1.789,0,0,0-.006,3.1l36.1,20.871,21.444-12.313a7.7,7.7,0,0,1,7.687.008l9.121,5.265,34.79-20.014A2.655,2.655,0,0,0,244.269,927.073Z" transform="translate(6.201 23.359)" fill="#c6ced3"/>
    <g id="组_210" data-name="组 210" transform="translate(141.42 876.75)">
      <g id="组_209" data-name="组 209" clip-path="url(#clip-path)">
        <g id="组_206" data-name="组 206" transform="translate(40.532 26.492)">
          <path id="路径_4383" data-name="路径 4383" d="M155.769,959.157l49.547,28.956a1.043,1.043,0,0,0,1.567-.9V922.86a1.045,1.045,0,0,0-.52-.9L156.816,893a1.043,1.043,0,0,0-1.567.9v64.351A1.046,1.046,0,0,0,155.769,959.157Z" transform="translate(-155.249 -887.529)" fill="#505453"/>
          <path id="路径_4384" data-name="路径 4384" d="M216.507,920.159a1.043,1.043,0,0,0-.52-.9L166.441,890.3a1.027,1.027,0,0,0-1.067.02l0,0-9.838,5.3a1.026,1.026,0,0,1,1,.012l49.547,28.957a1.045,1.045,0,0,1,.52.9v64.351a1.008,1.008,0,0,1-.454.836l.022.03,9.8-5.292.02-.01.184-.109-.03-.041a1,1,0,0,0,.36-.747Z" transform="translate(-154.971 -890.16)" fill="#707070"/>
          <path id="路径_4385" data-name="路径 4385" d="M191.513,905.537a1.052,1.052,0,0,0-.1-.387l-9.8,5.719V975.22a1.009,1.009,0,0,1-.454.836l.022.029,9.8-5.292.02-.01.184-.109-.03-.042a1,1,0,0,0,.36-.747Z" transform="translate(-129.977 -875.538)" fill="#5a605e"/>
          <path id="路径_4386" data-name="路径 4386" d="M156.252,958.529l46.856,27.384a.987.987,0,0,0,1.482-.853V924.205a.989.989,0,0,0-.492-.855l-46.856-27.382a.987.987,0,0,0-1.482.853v60.855A.986.986,0,0,0,156.252,958.529Z" transform="translate(-154.751 -884.627)" fill="#231f20" opacity="0.3"/>
        </g>
        <g id="组_207" data-name="组 207" transform="translate(22.506 20.071)">
          <path id="路径_4387" data-name="路径 4387" d="M146.644,955.907l49.547,28.957a1.044,1.044,0,0,0,1.567-.9V919.61a1.045,1.045,0,0,0-.52-.9L147.691,889.75a1.044,1.044,0,0,0-1.567.9V955A1.045,1.045,0,0,0,146.644,955.907Z" transform="translate(-146.124 -884.279)" fill="#f1f2f2"/>
          <path id="路径_4388" data-name="路径 4388" d="M207.382,916.91a1.043,1.043,0,0,0-.52-.9L157.316,887.05a1.027,1.027,0,0,0-1.067.02l0,0-9.838,5.3a1.026,1.026,0,0,1,1,.012l49.547,28.957a1.045,1.045,0,0,1,.52.9v64.351a1.009,1.009,0,0,1-.454.836l.022.029,9.8-5.292.02-.01.184-.109-.03-.042a1,1,0,0,0,.36-.746Z" transform="translate(-145.846 -886.91)" fill="#fff"/>
          <path id="路径_4389" data-name="路径 4389" d="M182.388,902.287a1.052,1.052,0,0,0-.1-.387l-9.8,5.719V971.97a1.009,1.009,0,0,1-.454.836l.022.03,9.8-5.292.02-.01.184-.109-.03-.042a1,1,0,0,0,.36-.747Z" transform="translate(-120.852 -872.288)" fill="#e6e7e8"/>
          <path id="路径_4390" data-name="路径 4390" d="M146.124,910.287v24.545a1.045,1.045,0,0,0,.52.9l49.547,28.956a1.043,1.043,0,0,0,1.567-.9V940.856Z" transform="translate(-146.124 -864.107)" fill="#3fd5ae" opacity="0.8"/>
          <path id="路径_4391" data-name="路径 4391" d="M189.784,955.924l.123-18.644L148.3,914.563l-1.111,17.9Z" transform="translate(-145.087 -859.936)" fill="#3fd5ae" opacity="0.17"/>
        </g>
        <g id="组_208" data-name="组 208" transform="translate(7.443 50.938)">
          <path id="路径_4392" data-name="路径 4392" d="M139.019,971.532l49.547,28.957a1.044,1.044,0,0,0,1.567-.9V935.235a1.045,1.045,0,0,0-.52-.9l-49.547-28.957a1.044,1.044,0,0,0-1.567.9v64.351A1.045,1.045,0,0,0,139.019,971.532Z" transform="translate(-138.499 -899.904)" fill="#3dc9a1"/>
          <path id="路径_4393" data-name="路径 4393" d="M199.757,932.535a1.043,1.043,0,0,0-.52-.9l-49.547-28.956a1.027,1.027,0,0,0-1.067.02l0,0-9.838,5.3a1.026,1.026,0,0,1,1,.012l49.547,28.957a1.045,1.045,0,0,1,.52.9v64.351a1.009,1.009,0,0,1-.454.836l.022.029,9.8-5.292.02-.01.184-.109-.03-.042a1,1,0,0,0,.36-.747Z" transform="translate(-138.221 -902.535)" fill="#3fd5ae"/>
          <path id="路径_4394" data-name="路径 4394" d="M174.763,917.912a1.053,1.053,0,0,0-.1-.387l-9.8,5.719V987.6a1.009,1.009,0,0,1-.454.836l.022.03,9.8-5.292.02-.01.184-.109-.03-.041a1,1,0,0,0,.36-.747Z" transform="translate(-113.227 -887.913)" fill="#37bf95"/>
        </g>
      </g>
    </g>
    <g id="组_214" data-name="组 214" transform="translate(131.54 960.094)">
      <g id="组_211" data-name="组 211" opacity="0.7">
        <path id="路径_4396" data-name="路径 4396" d="M187.327,997.577V952.388a5.355,5.355,0,0,1-2.307-.672l-54.64-31.59a1.26,1.26,0,0,1-.626-1.187l-.024,0v45.32l.022,0a1.261,1.261,0,0,0,.628,1.057l54.64,31.59a5.324,5.324,0,0,0,3.032.674A5.876,5.876,0,0,1,187.327,997.577Z" transform="translate(-129.73 -918.939)" fill="#c6ced3" stroke="#fff" stroke-miterlimit="10" stroke-width="0.5"/>
      </g>
      <g id="组_213" data-name="组 213" transform="translate(15.103 26.438)">
        <g id="组_212" data-name="组 212">
          <path id="路径_4397" data-name="路径 4397" d="M137.9,949.1l16.377,9.235a1.043,1.043,0,0,0,1.567-.9V943.719a1.04,1.04,0,0,0-.52-.9l-16.379-9.237a1.044,1.044,0,0,0-1.567.9V948.2A1.047,1.047,0,0,0,137.9,949.1Z" transform="translate(-137.375 -931.235)" fill="#c6ced3"/>
          <path id="路径_4398" data-name="路径 4398" d="M159.373,942.6a1.04,1.04,0,0,0-.52-.9l-16.377-9.237a1.027,1.027,0,0,0-1.067.02l0,0-3.748,2.177a1.021,1.021,0,0,1,1,.012l16.379,9.237a1.04,1.04,0,0,1,.52.9v13.712a1.017,1.017,0,0,1-.454.838l.02.03,3.714-2.165.018-.01.186-.109-.032-.042a.992.992,0,0,0,.36-.747Z" transform="translate(-137.097 -932.322)" fill="#b6bdc1"/>
        </g>
      </g>
    </g>
    <path id="路径_4399" data-name="路径 4399" d="M230.017,960.162l.047,0V914.908l-.055,0a2.535,2.535,0,0,1-1.276,2.317l-66.795,38.425a5.333,5.333,0,0,1-3.052.666v45.189a5.334,5.334,0,0,0,3.052-.666l66.795-38.425A2.539,2.539,0,0,0,230.017,960.162Z" transform="translate(30.251 37.222)" fill="#c6ced3" stroke="#fff" stroke-miterlimit="10" stroke-width="0.5" opacity="0.7"/>
    <g id="组_216" data-name="组 216" transform="translate(127.875 940.706)">
      <g id="组_215" data-name="组 215" clip-path="url(#clip-path-2)">
        <path id="路径_4400" data-name="路径 4400" d="M257.176,929.165,204.736,898.9a5.9,5.9,0,0,0-5.887-.006l-68.468,39.314a1.292,1.292,0,0,0,0,2.238l54.64,31.59a5.365,5.365,0,0,0,5.36.006l66.795-38.425A2.568,2.568,0,0,0,257.176,929.165Zm-8.522,5.032-57.589,33.129a4.964,4.964,0,0,1-4.955-.006l-46.6-26.939a1.789,1.789,0,0,1,.006-3.1l57.538-33.038a7.7,7.7,0,0,1,7.687.008L248.657,929.6A2.655,2.655,0,0,1,248.653,934.2Z" transform="translate(-126.063 -919.871)" fill="#c6ced3" stroke="#fff" stroke-miterlimit="10" stroke-width="0.5" opacity="0.7"/>
      </g>
    </g>
    <g id="组_220" data-name="组 220" transform="translate(150.37 993.453)">
      <g id="组_217" data-name="组 217">
        <path id="路径_4402" data-name="路径 4402" d="M139.262,940.573a1.5,1.5,0,0,0,.723,1.363.7.7,0,0,0,1.045-.616,1.557,1.557,0,0,0-.814-1.292A.617.617,0,0,0,139.262,940.573Z" transform="translate(-139.262 -931.82)" fill="#21887a"/>
        <path id="路径_4403" data-name="路径 4403" d="M139.262,936.467a1.5,1.5,0,0,0,.723,1.361.7.7,0,0,0,1.045-.616,1.554,1.554,0,0,0-.814-1.29A.616.616,0,0,0,139.262,936.467Z" transform="translate(-139.262 -935.826)" fill="#21887a"/>
        <path id="路径_4404" data-name="路径 4404" d="M139.264,944.309l1.766.653,0-8.192-1.758-.563Z" transform="translate(-139.26 -935.454)" fill="#21887a"/>
      </g>
      <g id="组_218" data-name="组 218" transform="translate(4.63 2.653)">
        <path id="路径_4405" data-name="路径 4405" d="M141.606,941.916a1.5,1.5,0,0,0,.723,1.363.7.7,0,0,0,1.045-.616,1.553,1.553,0,0,0-.816-1.292A.616.616,0,0,0,141.606,941.916Z" transform="translate(-141.606 -933.162)" fill="#21887a"/>
        <path id="路径_4406" data-name="路径 4406" d="M141.606,937.809a1.5,1.5,0,0,0,.723,1.363.7.7,0,0,0,1.045-.616,1.556,1.556,0,0,0-.816-1.292A.616.616,0,0,0,141.606,937.809Z" transform="translate(-141.606 -937.169)" fill="#21887a"/>
        <path id="路径_4407" data-name="路径 4407" d="M141.608,945.653l1.766.653,0-8.192-1.758-.563Z" transform="translate(-141.604 -936.796)" fill="#21887a"/>
      </g>
      <g id="组_219" data-name="组 219" transform="translate(9.261 5.308)">
        <path id="路径_4408" data-name="路径 4408" d="M143.95,943.26a1.492,1.492,0,0,0,.721,1.361.7.7,0,0,0,1.045-.616,1.554,1.554,0,0,0-.814-1.29A.615.615,0,0,0,143.95,943.26Z" transform="translate(-143.95 -934.507)" fill="#21887a"/>
        <path id="路径_4409" data-name="路径 4409" d="M143.95,939.153a1.5,1.5,0,0,0,.721,1.363.7.7,0,0,0,1.045-.616,1.557,1.557,0,0,0-.814-1.292A.616.616,0,0,0,143.95,939.153Z" transform="translate(-143.95 -938.513)" fill="#21887a"/>
        <path id="路径_4410" data-name="路径 4410" d="M143.952,947l1.766.653,0-8.192-1.758-.563Z" transform="translate(-143.948 -938.14)" fill="#21887a"/>
      </g>
    </g>
  </g>
</svg>
