  <svg xmlns="http://www.w3.org/2000/svg" width="150.58" height="129.431" viewBox="0 0 150.58 129.431">
  <g id="组_267" data-name="组 267" transform="translate(188.641 -476.139)">
    <g id="组_233" data-name="组 233" transform="translate(-188.313 496.201)">
      <path id="路径_4421" data-name="路径 4421" d="M-75.64,565.416l-.325.432c-.205-.38-.41-.771-.621-1.126l-63.331-35.68c-5.938-3.346-20.52-26.765-14.332-39.032a21.016,21.016,0,0,1,1.2-2.073,9.923,9.923,0,0,0-7.161.512,15.66,15.66,0,0,0-9.145,12.936s-11.266-4.461-17.454,7.806,8.394,35.687,14.332,39.032l79.18,44.608s10.438,6.163,16.823,2.741l.244.325,28.888-18.2c-4.777-.45-12.085-3.062-12.085-3.062Z" transform="translate(188.313 -487.501)" fill="#c6ced3" stroke="#fff" stroke-miterlimit="10" stroke-width="0.5"/>
      <path id="路径_4422" data-name="路径 4422" d="M-109.31,540.179a6.985,6.985,0,0,0,3.23-.236,9.166,9.166,0,0,0,4.461-4.611Z" transform="translate(250.277 -449.985)" fill="#c6ced3" stroke="#fff" stroke-miterlimit="10" stroke-width="0.5"/>
      <path id="路径_4423" data-name="路径 4423" d="M-74.269,574.418a56.208,56.208,0,0,0,17.79-10.1c-3.818-.924-7.455-2.221-7.455-2.221l-16.209-9.218-.325.432c-.205-.38-.41-.771-.621-1.126l-63.331-35.68c-2.561-1.444-6.727-6.622-10.144-13.026l-22.661,4.761S-182,516.6-182.557,522.89c-.243,2.75,2.9,8.138,6.524,13.334l71.418,40.235h0S-86.983,578.968-74.269,574.418Z" transform="translate(192.816 -474.967)" fill="#231f20" opacity="0.08" style="mix-blend-mode: multiply;isolation: isolate"/>
      <path id="路径_4424" data-name="路径 4424" d="M-140.32,526.38l-25.548,2.26,25.3,14.064Z" transform="translate(205.917 -457.007)" fill="#231f20" opacity="0.19" style="mix-blend-mode: multiply;isolation: isolate"/>
    </g>
    <path id="路径_4425" data-name="路径 4425" d="M-64.7,546.121s-.571-37.025-22.652-56.876-36.8-4.461-36.8-4.461-8.476-11.152-17.4-6.914a15.659,15.659,0,0,0-9.145,12.936s-11.266-4.461-17.454,7.806,8.394,35.687,14.332,39.032l79.18,44.608s20.743,12.267,21.635-7.36S-64.7,546.121-64.7,546.121Z" transform="translate(14.641 0.392)" fill="#bbc1c4" stroke="#fff" stroke-miterlimit="10" stroke-width="0.5" opacity="0.7"/>
    <g id="组_240" data-name="组 240" transform="translate(-177.275 485.288)">
      <g id="组_235" data-name="组 235" transform="translate(26.221 29.419)">
        <ellipse id="椭圆_33" data-name="椭圆 33" cx="24.537" cy="39.579" rx="24.537" ry="39.579" transform="translate(23.515 62.511) rotate(-89.346)" fill="#5a605e"/>
        <path id="路径_4426" data-name="路径 4426" d="M-74.945,537.585V520.079c-.173,13.54-18.008,24.312-39.853,24.064s-39.452-11.437-39.3-24.988V536.7h.041c-.005.146-.039.287-.041.432-.153,13.55,17.44,24.738,39.3,24.988s39.7-10.533,39.855-24.083c0-.153-.029-.3-.03-.453Z" transform="translate(177.89 -481.18)" fill="#707070"/>
        <g id="组_234" data-name="组 234" transform="translate(27.553 54.002)">
          <path id="路径_4427" data-name="路径 4427" d="M-147.91,531.843v5.8a39.658,39.658,0,0,0,4.559,2.575v-5.8A39.415,39.415,0,0,1-147.91,531.843Z" transform="translate(155.19 -525.23)" fill="#fff"/>
          <path id="路径_4428" data-name="路径 4428" d="M-150.1,535.973a31.789,31.789,0,0,0,3.308,2.593v-5.8a31.788,31.788,0,0,1-3.308-2.593Z" transform="translate(153.469 -526.543)" fill="#fff"/>
          <path id="路径_4429" data-name="路径 4429" d="M-149.231,531.2a25,25,0,0,1-2.759-3.06v5.8a24.992,24.992,0,0,0,2.759,3.06Z" transform="translate(151.99 -528.137)" fill="#64b1bc"/>
        </g>
        <ellipse id="椭圆_34" data-name="椭圆 34" cx="24.537" cy="39.579" rx="24.537" ry="39.579" transform="translate(9.007 52.697) rotate(-89.346)" fill="#3fd5ae" opacity="0.4"/>
        <ellipse id="椭圆_35" data-name="椭圆 35" cx="24.537" cy="39.579" rx="24.537" ry="39.579" transform="translate(0 49.071) rotate(-89.346)" fill="#231f20" opacity="0.05" style="mix-blend-mode: multiply;isolation: isolate"/>
      </g>
      <g id="组_237" data-name="组 237" transform="translate(0 13.844)">
        <ellipse id="椭圆_36" data-name="椭圆 36" cx="24.537" cy="39.579" rx="24.537" ry="39.579" transform="translate(0 49.071) rotate(-89.346)" fill="#e6e7e8"/>
        <path id="路径_4430" data-name="路径 4430" d="M-102.818,521.325V503.818c-.173,13.54-18.009,24.312-39.855,24.062s-39.45-11.436-39.3-24.986v17.547h.041c-.007.145-.039.285-.041.432-.153,13.55,17.44,24.738,39.3,24.988s39.7-10.535,39.857-24.085c0-.152-.029-.3-.032-.451Z" transform="translate(182.249 -478.359)" fill="#b6bdc1"/>
        <g id="组_236" data-name="组 236" transform="translate(4.039 40.562)">
          <path id="路径_4431" data-name="路径 4431" d="M-175.783,515.582v5.8a39.921,39.921,0,0,0,4.557,2.573v-5.8A39.922,39.922,0,0,1-175.783,515.582Z" transform="translate(183.063 -508.969)" fill="#fff"/>
          <path id="路径_4432" data-name="路径 4432" d="M-177.977,519.712a31.867,31.867,0,0,0,3.308,2.593v-5.8a31.859,31.859,0,0,1-3.308-2.593Z" transform="translate(181.342 -510.281)" fill="#fff"/>
          <path id="路径_4433" data-name="路径 4433" d="M-177.1,514.936a25.129,25.129,0,0,1-2.759-3.06v5.8a24.994,24.994,0,0,0,2.759,3.06Z" transform="translate(179.863 -511.876)" fill="#64b1bc"/>
        </g>
        <ellipse id="椭圆_37" data-name="椭圆 37" cx="24.537" cy="39.579" rx="24.537" ry="39.579" transform="translate(20.222 54.572) rotate(-89.346)" fill="#3fd5ae" opacity="0.7"/>
      </g>
      <g id="组_239" data-name="组 239" transform="translate(24.188 0)">
        <ellipse id="椭圆_38" data-name="椭圆 38" cx="24.537" cy="39.579" rx="24.537" ry="39.579" transform="translate(0 49.071) rotate(-89.346)" fill="#3fd5ae"/>
        <path id="路径_4434" data-name="路径 4434" d="M-89.262,513.567V496.059c-.173,13.541-18.009,24.313-39.855,24.064s-39.452-11.438-39.3-24.988v17.547l.039,0c-.005.145-.037.286-.039.432-.155,13.55,17.438,24.736,39.3,24.986s39.7-10.533,39.857-24.083c0-.153-.03-.3-.032-.451Z" transform="translate(168.694 -470.6)" fill="#3dc9a1"/>
        <g id="组_238" data-name="组 238" transform="translate(4.04 40.563)">
          <path id="路径_4435" data-name="路径 4435" d="M-162.228,507.823v5.8a40.1,40.1,0,0,0,4.559,2.573v-5.8A39.832,39.832,0,0,1-162.228,507.823Z" transform="translate(169.506 -501.212)" fill="#fff"/>
          <path id="路径_4436" data-name="路径 4436" d="M-164.422,511.953a31.762,31.762,0,0,0,3.308,2.593v-5.8a31.986,31.986,0,0,1-3.308-2.593Z" transform="translate(167.785 -502.524)" fill="#fff"/>
          <path id="路径_4437" data-name="路径 4437" d="M-163.55,507.176a24.948,24.948,0,0,1-2.757-3.058v5.8a24.957,24.957,0,0,0,2.757,3.06Z" transform="translate(166.307 -504.118)" fill="#64b1bc"/>
        </g>
      </g>
    </g>
    <g id="组_241" data-name="组 241" transform="translate(-178.557 476.409)" opacity="0.7">
      <path id="路径_4438" data-name="路径 4438" d="M-182.845,498.381a14.408,14.408,0,0,1,9.2.059,15.4,15.4,0,0,1,2.47-7.184Z" transform="translate(182.845 -464.765)" fill="#c6ced3" stroke="#fff" stroke-miterlimit="10" stroke-width="0.5"/>
      <path id="路径_4439" data-name="路径 4439" d="M-64.876,545.621s-.571-37.025-22.652-56.876-36.8-4.461-36.8-4.461-8.476-11.152-17.4-6.914a15.66,15.66,0,0,0-9.145,12.936s-6.829-2.669-12.774,1.927l-6.527,3.984c7.177.048,13.129,7.844,13.129,7.844s14.721-15.39,36.8,4.461S-97.588,565.4-97.588,565.4-85,574.544-85.893,594.171c-.218,4.793-1.624,7.674-3.619,9.307l.091.079,31.456-19.075c.187-.1.369-.214.548-.334l.58-.35-.036-.03c2.034-1.622,3.472-4.52,3.694-9.375C-52.287,554.766-64.876,545.621-64.876,545.621Z" transform="translate(192.784 -476.41)" fill="#c6ced3" stroke="#fff" stroke-miterlimit="10" stroke-width="0.5"/>
    </g>
    <path id="路径_4440" data-name="路径 4440" d="M-83.361,556.705s-.573-37.025-22.654-56.876-36.8-4.461-36.8-4.461-8.476-11.152-17.4-6.914a15.66,15.66,0,0,0-9.145,12.936s-11.266-4.461-17.454,7.807,8.394,35.687,14.332,39.032l79.18,44.608s20.743,12.267,21.635-7.36S-83.361,556.705-83.361,556.705Zm5.078,24.119c-.8,17.626-19.428,6.611-19.428,6.611l-4.036-2.275c-5.9-.949-10.9-4.115-14.56-5.91-2.944-1.444-5.612-4.67-6.661-6.045l-31.146-17.547c-1.9-.671-3.9-1.572-5.539-2.057-2.751-.819-6.691-3.867-6.691-3.867a22.314,22.314,0,0,1-8.952-9.623c-5.223-7.93-10.2-20.218-6.388-27.786,5.556-11.015,15.674-7.009,15.674-7.009A14.063,14.063,0,0,1-157.8,493.7c8.012-3.8,15.624,6.209,15.624,6.209s13.218-13.82,33.048,4.006,20.341,51.073,20.341,51.073S-77.481,563.2-78.282,580.824Z" transform="translate(0 8.694)" fill="#fff" opacity="0.7"/>
  </g>
</svg>
