<svg xmlns="http://www.w3.org/2000/svg" width="140.398" height="154.926" viewBox="0 0 140.398 154.926">
  <g id="组_268" data-name="组 268" transform="translate(273.078 -338.089)">
    <g id="组_251" data-name="组 251" transform="translate(-216.849 339.692)">
      <path id="路径_4441" data-name="路径 4441" d="M-159.607,404.221s-20.426,63.927-58.671,48.765c-27.955-31.086-14.734-98.652-14.734-98.652h0a51.053,51.053,0,0,0,29.54-11.09l3.128-2.5,25.922,22.566.287,7.645A49.058,49.058,0,0,0-162.2,401.221Z" transform="translate(236.136 -338.922)" fill="#606060"/>
      <path id="路径_4442" data-name="路径 4442" d="M-211.493,353.656l14.32,12.164.244,5.528a35.318,35.318,0,0,0,8.969,21.92l1.938,2.178a88.747,88.747,0,0,1-9.372,21.768l-24.318-21.554Z" transform="translate(248.126 -329.497)" fill="#231f20" opacity="0.3"/>
      <path id="路径_4443" data-name="路径 4443" d="M-209.861,386.214l-7.033,35.945c-.858-.33-19.41-25.206-15.863-55.562Z" transform="translate(238.274 -320.049)" fill="#231f20" opacity="0.3"/>
      <path id="路径_4444" data-name="路径 4444" d="M-223.778,413.88l7.033-35.945,24.448,21.35C-198.89,409.97-208.7,414.383-223.778,413.88Z" transform="translate(245.158 -311.771)" fill="#707070"/>
      <path id="路径_4445" data-name="路径 4445" d="M-231.012,360.9a38.079,38.079,0,0,0,21.87-7.9l2.313-1.792,5,4.246-8.22,42.005L-232.946,377.8A139.272,139.272,0,0,1-231.012,360.9Z" transform="translate(238.465 -331.288)" fill="#707070"/>
      <g id="组_250" data-name="组 250" transform="translate(3.124)">
        <path id="路径_4446" data-name="路径 4446" d="M-234.33,349.939l10.275-2.633a50.1,50.1,0,0,0,5.277-.54A51.041,51.041,0,0,1-234.33,349.939Z" transform="translate(234.33 -334.527)" fill="#21887a"/>
        <path id="路径_4447" data-name="路径 4447" d="M-174.711,404.991l-2.6-3a49.05,49.05,0,0,1-11.933-30.263l-.287-7.645-25.922-22.566,7.64-1.825,25.922,22.564.287,7.647a49.048,49.048,0,0,0,11.931,30.263l2.6,3s-11.633,43.791-38.635,49.624v.029l-9.111,2.356-.01-.033C-188.576,448.311-174.711,404.991-174.711,404.991Z" transform="translate(248.116 -339.692)" fill="#231f20" opacity="0.3"/>
      </g>
    </g>
    <g id="组_253" data-name="组 253" transform="translate(-243.065 352.699)">
      <path id="路径_4448" data-name="路径 4448" d="M-174.76,411.739s-20.426,63.927-58.671,48.765c-27.955-31.086-14.734-98.652-14.734-98.652h0a51.053,51.053,0,0,0,29.54-11.09l3.128-2.5,25.922,22.566.287,7.645a49.054,49.054,0,0,0,11.931,30.263Z" transform="translate(251.289 -346.44)" fill="#e6e7e8"/>
      <path id="路径_4449" data-name="路径 4449" d="M-226.646,361.174l14.32,12.164.244,5.528a35.326,35.326,0,0,0,8.967,21.92l1.939,2.178a88.747,88.747,0,0,1-9.372,21.768l-24.318-21.554Z" transform="translate(263.279 -337.015)" fill="#c6ced3"/>
      <path id="路径_4450" data-name="路径 4450" d="M-225.014,393.732l-7.033,35.945c-.858-.33-19.41-25.206-15.863-55.562Z" transform="translate(253.427 -327.567)" fill="#c6ced3"/>
      <path id="路径_4451" data-name="路径 4451" d="M-238.931,421.4l7.033-35.945L-207.45,406.8C-214.043,417.488-223.853,421.9-238.931,421.4Z" transform="translate(260.311 -319.289)" fill="#707070"/>
      <path id="路径_4452" data-name="路径 4452" d="M-246.165,368.414a38.079,38.079,0,0,0,21.87-7.9l2.313-1.792,5,4.246-8.22,42.005L-248.1,385.315A139.276,139.276,0,0,1-246.165,368.414Z" transform="translate(253.618 -338.806)" fill="#707070"/>
      <g id="组_252" data-name="组 252" transform="translate(3.124)">
        <path id="路径_4453" data-name="路径 4453" d="M-249.483,357.457l10.275-2.633a50.117,50.117,0,0,0,5.277-.54A51.041,51.041,0,0,1-249.483,357.457Z" transform="translate(249.483 -342.045)" fill="#21887a"/>
        <path id="路径_4454" data-name="路径 4454" d="M-189.864,412.509l-2.6-3a49.046,49.046,0,0,1-11.933-30.263l-.287-7.645L-230.6,349.035l7.64-1.825,25.922,22.564.287,7.647a49.048,49.048,0,0,0,11.931,30.263l2.6,3s-11.633,43.791-38.635,49.625v.029l-9.111,2.356-.01-.033C-203.729,455.829-189.864,412.509-189.864,412.509Z" transform="translate(263.269 -347.21)" fill="#c6ced3"/>
      </g>
    </g>
    <path id="路径_4455" data-name="路径 4455" d="M-185.918,412.332s-21.05,55.412-54.062,40.223c-23.178-28.744-8.311-87.708-8.311-87.708h0a45.085,45.085,0,0,0,26.58-8.379l2.879-2.054,21.791,21.133-.109,6.756a43.325,43.325,0,0,0,9.085,27.258Z" transform="translate(6.984 10.749)" fill="#3dc9a1" opacity="0.6"/>
    <g id="组_255" data-name="组 255" transform="translate(-262.552 366.126)">
      <path id="路径_4456" data-name="路径 4456" d="M-196.675,410.519s-17.581,55.029-50.505,41.978c-24.064-26.76-12.683-84.92-12.683-84.92h0a43.939,43.939,0,0,0,25.429-9.548l2.694-2.149,22.313,19.426.247,6.581a42.219,42.219,0,0,0,10.27,26.05Z" transform="translate(262.552 -354.308)" fill="#3dc9a1"/>
      <path id="路径_4457" data-name="路径 4457" d="M-241.339,366.991l12.327,10.472.209,4.76a30.407,30.407,0,0,0,7.72,18.868l1.668,1.875a76.332,76.332,0,0,1-8.066,18.737l-20.934-18.554Z" transform="translate(272.874 -346.195)" fill="#32c69b"/>
      <path id="路径_4458" data-name="路径 4458" d="M-239.934,395.018l-6.054,30.941c-.739-.284-16.708-21.7-13.656-47.829Z" transform="translate(264.393 -338.063)" fill="#32c69b"/>
      <path id="路径_4459" data-name="路径 4459" d="M-251.914,418.832l6.054-30.941,21.045,18.379C-230.49,415.467-238.935,419.266-251.914,418.832Z" transform="translate(270.319 -330.936)" fill="#3fd5ae"/>
      <path id="路径_4460" data-name="路径 4460" d="M-258.142,373.225a32.788,32.788,0,0,0,18.827-6.8l1.99-1.543,4.3,3.654-7.076,36.159-19.708-16.919A119.861,119.861,0,0,1-258.142,373.225Z" transform="translate(264.557 -347.737)" fill="#3fd5ae"/>
      <g id="组_254" data-name="组 254" transform="translate(2.689)">
        <path id="路径_4461" data-name="路径 4461" d="M-261,363.793l8.846-2.268a43.609,43.609,0,0,0,4.542-.464A43.964,43.964,0,0,1-261,363.793Z" transform="translate(260.998 -350.525)" fill="#21887a"/>
        <path id="路径_4462" data-name="路径 4462" d="M-209.677,411.182l-2.235-2.583a42.219,42.219,0,0,1-10.27-26.05l-.247-6.581-22.313-19.426,6.574-1.571,22.315,19.424.247,6.581a42.219,42.219,0,0,0,10.27,26.052l2.235,2.581s-10.014,37.7-33.256,42.718v.026l-7.843,2.028-.01-.028C-221.612,448.473-209.677,411.182-209.677,411.182Z" transform="translate(272.866 -354.971)" fill="#21887a"/>
      </g>
    </g>
  </g>
</svg>
