<?xml version="1.0" encoding="UTF-8"?>
<svg width="86px" height="98px" viewBox="0 0 86 98" version="1.1" xmlns="http://www.w3.org/2000/svg" xmlns:xlink="http://www.w3.org/1999/xlink">
    <!-- Generator: Sketch 63.1 (92452) - https://sketch.com -->
    <title>组 5879</title>
    <desc>Created with Sketch.</desc>
    <defs>
        <linearGradient x1="28.4%" y1="10.1%" x2="62.9%" y2="73.3%" id="linearGradient-1">
            <stop stop-color="#FFFFFF" stop-opacity="0" offset="0%"></stop>
            <stop stop-color="#000000" offset="100%"></stop>
        </linearGradient>
        <linearGradient x1="30.8%" y1="14.4%" x2="65.2%" y2="77.5%" id="linearGradient-2">
            <stop stop-color="#FFFFFF" stop-opacity="0" offset="0%"></stop>
            <stop stop-color="#000000" offset="100%"></stop>
        </linearGradient>
        <linearGradient x1="28.4%" y1="10.1%" x2="62.9%" y2="73.3%" id="linearGradient-3">
            <stop stop-color="#FFFFFF" stop-opacity="0" offset="0%"></stop>
            <stop stop-color="#000000" offset="100%"></stop>
        </linearGradient>
        <path d="M0,0 L0,40.7635281 L3.2230618,38.8424831 L5.11407303,39.1556124 L5.11407303,16.2626966 L31.8251629,32.0059213 L31.8251629,62.0657697 L33.7717921,64.1386517 L31.8251629,65.2560169 L29.854618,66.3861742 L28.9352528,66.9373483 C28.7191477,67.0668517 28.4498108,67.0689809 28.2316854,66.9429101 L1.24751124,51.3042472 L0.285876404,50.7330506 L0.358179775,54.4405449 L37.2823989,76.1354494 L37.2823989,20.6287079 L0,0 Z" id="path-4"></path>
        <linearGradient x1="55.7%" y1="171.2%" x2="49.6%" y2="22.9%" id="linearGradient-6">
            <stop stop-color="#40BA93" offset="0%"></stop>
            <stop stop-color="#40BA93" stop-opacity="0" offset="100%"></stop>
        </linearGradient>
        <linearGradient x1="51%" y1="161.2%" x2="49.7%" y2="14.2%" id="linearGradient-7">
            <stop stop-color="#40BA93" offset="0%"></stop>
            <stop stop-color="#40BA93" stop-opacity="0.235" offset="76.7%"></stop>
            <stop stop-color="#40BA93" stop-opacity="0" offset="100%"></stop>
        </linearGradient>
        <linearGradient x1="54.2%" y1="153%" x2="51%" y2="39.8%" id="linearGradient-8">
            <stop stop-color="#40BA93" offset="0%"></stop>
            <stop stop-color="#40BA93" stop-opacity="0" offset="100%"></stop>
        </linearGradient>
        <polygon id="path-9" points="8.32545506 16.4017416 8.32545506 0.00278089888 23.0847978 19.3022191 23.0847978 32.533736 8.32545506 39.5143483 0 27.187736 0 24.2399831 8.32545506 24.4680169"></polygon>
        <polygon id="path-11" points="10.753736 16.929 10.753736 0 0 4.99616292 0 32.509264 35.7106348 53.6440955 52.6057079 43.1656685 41.8658764 35.8580225"></polygon>
    </defs>
    <g id="组-5879" stroke="none" stroke-width="1" fill="none" fill-rule="evenodd">
        <g transform="translate(-1.000000, 1.000000)" id="组_1783">
            <g transform="translate(0.170191, 0.036708)">
                <g id="组_565" transform="translate(10.475090, 10.955073)">
                    <g id="组_546">
                        <polygon id="路径_4991" fill="#BBBDBF" fill-rule="nonzero" points="62.5924719 71.214927 36.1611404 86.2262191 0.834825843 65.7955112 27.2661573 50.7842191"></polygon>
                        <polygon id="路径_4992" fill="#E4E7E9" fill-rule="nonzero" points="27.2661573 50.7831067 62.5924719 71.2844494 62.5924719 20.4813202 27.2661573 0"></polygon>
                        <polygon id="路径_4993" fill="#D0D2D3" fill-rule="nonzero" points="27.2689382 50.7831067 0.837606742 65.7943989 0.837606742 14.9912697 27.2689382 0"></polygon>
                        <polygon id="路径_4994" fill="#E4E7E9" fill-rule="nonzero" points="2.55953933 43.6617809 9.15861236 39.8157978 9.15861236 34.7957191 2.55953933 38.6689551"></polygon>
                        <polygon id="路径_4995" fill="#E4E7E9" fill-rule="nonzero" points="11.8655393 36.6750506 14.7893764 34.9709157 14.7893764 32.7461966 11.8655393 34.4625674"></polygon>
                        <g id="组_535" transform="translate(18.477404, 27.184399)" fill-rule="nonzero">
                            <polygon id="路径_4996" fill="#E4E7E9" points="0.364853933 6.27092697 5.86157865 3.07289326 5.86157865 0.214129213 0.364853933 3.42773596"></polygon>
                            <polygon id="路径_4997" fill="#C0C3E2" points="5.86157865 0.214685393 5.49672472 -3.16151599e-14 -1.580758e-14 3.21360674 -1.580758e-14 6.05679775 0.364853933 6.27148315 0.364853933 3.42717978"></polygon>
                        </g>
                        <g id="组_537" transform="translate(0.000000, 37.938135)" fill-rule="nonzero">
                            <path d="M0.751955056,25.5820449 L28.2711742,41.4971292 C28.5070371,41.6337025 28.7978604,41.6340022 29.0340043,41.4979154 C29.2701482,41.3618286 29.4157925,41.1100501 29.4157925,40.8375 L29.4157925,32.4035899 C29.4161649,31.8638282 29.1287154,31.3648192 28.6616124,31.0943427 L0.957741573,15.0724719 C0.760379686,14.9585244 0.51724675,14.9584078 0.319775611,15.0721658 C0.122304472,15.1859239 0.000435927166,15.3963085 -2.94848641e-07,15.6242022 L-2.94848641e-07,24.2783596 C-0.000335892928,24.8160746 0.286337379,25.3130881 0.751955056,25.5820449 L0.751955056,25.5820449 Z" id="路径_4998" fill="#5A615F"></path>
                            <g id="组_536" transform="translate(0.288101, 0.157955)" fill="#515453">
                                <path d="M53.1329663,16.6620337 L25.4290955,0.640162921 C25.2554084,0.539560132 25.0440014,0.5283899 24.8606798,0.610129213 L24.8606798,0.610129213 C24.8149417,0.630265044 24.7714963,0.655250773 24.7310899,0.684657303 L0.0672977528,14.9000562 C0.257642263,14.8023884 0.48459709,14.8082561 0.669640449,14.9156292 L28.3735112,30.9375 C28.8406142,31.2079765 29.1280638,31.7069856 29.127691,32.2467472 L29.127691,40.6789888 C29.1267695,40.8396805 29.0738963,40.9957638 28.9769663,41.1239326 L28.9769663,41.1239326 L53.4210674,27.0948539 C53.4744883,27.0714978 53.5252131,27.0424057 53.5723483,27.0080899 L53.5723483,27.0080899 C53.7687396,26.8676334 53.885478,26.641078 53.885478,26.3996292 L53.885478,17.9707247 C53.885478,17.4315356 53.5991714,16.9329172 53.1329663,16.6620337 L53.1329663,16.6620337 Z" id="路径_5000"></path>
                            </g>
                            <path d="M29.4163483,32.4035899 L29.4163483,40.8375 C29.4154269,40.9981917 29.3625536,41.154275 29.2656236,41.2824438 L29.2656236,41.2824438 L53.7097247,27.2533652 C53.7631397,27.2299973 53.8138632,27.2009059 53.8610056,27.1666011 L53.8610056,27.1666011 C54.0573969,27.0261447 54.1741348,26.7995892 54.1741348,26.5581404 L54.1741348,18.1286798 C54.1698242,18.0760667 54.1627696,18.0237145 54.153,17.9718371 L29.1382584,31.547073 C29.3165885,31.7973094 29.4136709,32.0963234 29.4163483,32.4035899 L29.4163483,32.4035899 Z" id="路径_5001" fill="url(#linearGradient-1)" style="mix-blend-mode: multiply;"></path>
                            <path d="M2.71638202,13.9523258 L30.7044607,30.1799831 C30.8021775,30.2361356 30.9224084,30.2359777 31.0199774,30.1795689 C31.1175464,30.12316 31.1776748,30.0190443 31.1777697,29.9063427 L54.4233046,17.5736124 C54.4233046,17.4612332 54.3637845,17.3572736 54.2664607,17.3010843 L25.4947247,0.599005618 C25.3971112,0.54238296 25.2767068,0.542128886 25.1788552,0.598339078 C25.0810036,0.65454927 25.0205662,0.758686661 25.0203034,0.871533708 L2.5600955,13.6786854 C2.5600955,13.7911355 2.61951441,13.8952146 2.71638202,13.9523258 Z" id="路径_5002" fill="#221F1F" opacity="0.3"></path>
                        </g>
                        <g id="组_539" transform="translate(3.675236, 24.944107)" fill-rule="nonzero">
                            <path d="M0.751955056,25.4246461 L28.2711742,41.3375056 C28.5070371,41.4740789 28.7978604,41.4743786 29.0340043,41.3382918 C29.2701482,41.202205 29.4157925,40.9504265 29.4157925,40.6778764 L29.4157925,32.246191 C29.4161649,31.7064294 29.1287154,31.2074203 28.6616124,30.9369438 L0.957185393,14.915073 C0.75990399,14.80104 0.516778318,14.8008929 0.319359067,14.9146871 C0.121939817,15.0284814 -1.27823063e-07,15.2389362 -1.27823063e-07,15.4668034 L-1.27823063e-07,24.1209607 C-1.27823063e-07,24.6586451 0.286421429,25.1556052 0.751955056,25.4246461 Z" id="路径_5003" fill="#F1F1F1"></path>
                            <g id="组_538" transform="translate(0.288101, 0.000000)" fill="#E5E6E6">
                                <path d="M53.1329663,16.6620337 L25.4290955,0.640162921 C25.2554084,0.539560132 25.0440014,0.5283899 24.8606798,0.610129213 L24.8606798,0.610129213 C24.8147742,0.629704858 24.7712883,0.654527281 24.7310899,0.684101124 L0.0672977528,14.8983876 C0.257273922,14.8008139 0.483857975,14.8066828 0.66852809,14.9139607 L28.3729551,30.9358315 C28.8400581,31.206308 29.1275076,31.705317 29.1271348,32.2450787 L29.1271348,40.6789888 C29.1262533,40.8396872 29.0733759,40.9957827 28.9764101,41.1239326 L28.9764101,41.1239326 L53.4205112,27.0942978 C53.4738756,27.071176 53.5244412,27.0420681 53.571236,27.0075337 L53.571236,27.0075337 C53.767699,26.8671393 53.8843652,26.6405442 53.8843652,26.399073 L53.8843652,17.9685 C53.8843652,17.4303339 53.5980565,16.9327992 53.1329663,16.6620337 L53.1329663,16.6620337 Z" id="路径_5005"></path>
                            </g>
                            <path d="M29.4157921,32.2962472 L29.4157921,40.7301573 C29.4149106,40.8908557 29.3620332,41.0469512 29.2650674,41.1751011 L29.2650674,41.1751011 L53.7091685,27.1460225 C53.7625974,27.1226821 53.8133238,27.093589 53.8604494,27.0592584 L53.8604494,27.0592584 C54.0569125,26.9188641 54.1735787,26.6922689 54.1735787,26.4507978 L54.1735787,18.0213371 C54.1692852,17.9687221 54.1622305,17.9163691 54.1524438,17.8644944 L29.1332528,31.4397303 C29.3131652,31.689442 29.4118154,31.9884996 29.4157921,32.2962472 Z" id="路径_5006" fill="url(#linearGradient-2)" opacity="0.28" style="mix-blend-mode: multiply;"></path>
                            <path d="M1.49167416,14.6931573 L29.4791966,30.9230393 C29.5766955,30.9794629 29.6968876,30.9795944 29.7945097,30.9233843 C29.8921317,30.8671742 29.9523572,30.7631595 29.9525056,30.6505112 L53.2008202,18.3172247 C53.2008202,18.2047391 53.1402815,18.1009391 53.0428652,18.0446966 L24.2700169,1.34039326 C24.1721852,1.28404209 24.0517422,1.28407765 23.9539438,1.34048657 C23.8561454,1.39689549 23.7958051,1.50113354 23.7955955,1.61403371 L1.3337191,14.420073 C1.3337191,14.5327575 1.39408635,14.6368151 1.49167416,14.6931573 Z" id="路径_5007" fill="#4FBD9B" opacity="0.54"></path>
                        </g>
                        <g id="组_541" transform="translate(3.297034, 13.675348)" fill-rule="nonzero">
                            <path d="M1.30813483,24.8679101 L28.8273539,40.7829944 C29.0633368,40.919903 29.3544841,40.9203033 29.5908425,40.7840442 C29.827201,40.6477851 29.9725283,40.3956309 29.9725283,40.122809 L29.9725283,31.6888989 C29.9725283,31.1492132 29.6846749,30.6505075 29.217236,30.380764 L1.51225281,14.3588933 C1.31501799,14.2444887 1.07169378,14.2441575 0.8741482,14.3580246 C0.676602616,14.4718916 0.555067299,14.6826106 0.555067299,14.9106236 L0.555067299,23.5647809 C0.555067299,24.1025268 0.842261153,24.5993353 1.30813483,24.8679101 L1.30813483,24.8679101 Z" id="路径_5008" fill="#4FBD9B"></path>
                            <g id="组_540" transform="translate(0.288101, 0.000000)" fill="#40BA93">
                                <path d="M53.6897022,16.1058539 L25.9863876,0.0839831461 C25.8127005,-0.0166196431 25.6012935,-0.0277898751 25.4179719,0.0539494382 L25.4179719,0.0539494382 C25.3719852,0.0735903702 25.3284858,0.0986072107 25.288382,0.128477528 L0.624589888,14.342764 C0.814470282,14.2447714 1.04126744,14.2506459 1.22582022,14.3583371 L28.929691,30.3802079 C29.3971299,30.6499513 29.6850731,31.148657 29.6849831,31.6883427 L29.6849831,40.1222528 C29.6842617,40.2839207 29.631185,40.4410042 29.5337022,40.5699775 L29.5375955,40.5699775 L53.9816966,26.5408989 C54.0350653,26.5177857 54.0856319,26.4886773 54.1324213,26.4541348 L54.1324213,26.4541348 C54.3297726,26.3129944 54.4464833,26.0849629 54.4455561,25.8423371 L54.4455561,17.4139888 C54.4455561,16.8742499 54.1571873,16.375624 53.6897022,16.1058539 L53.6897022,16.1058539 Z" id="路径_5010"></path>
                            </g>
                            <path d="M29.7939944,31.7478539 L29.7939944,40.181764 C29.7935133,40.3433817 29.7406255,40.5004836 29.6432697,40.6294888 L29.6432697,40.6322697 L54.0873708,26.603191 C54.1407799,26.5798114 54.1915021,26.5507207 54.2386517,26.516427 L54.2386517,26.516427 C54.4357135,26.3750372 54.5523422,26.147166 54.5517829,25.9046292 L54.5517829,17.4729438 C54.5474161,17.4207051 54.5403618,17.368726 54.5306461,17.3172135 L29.5114551,30.8924494 C29.6912157,31.1418182 29.7898619,31.4404753 29.7939944,31.7478539 L29.7939944,31.7478539 Z" id="路径_5011" fill="url(#linearGradient-3)" opacity="0.18" style="mix-blend-mode: multiply;"></path>
                            <path d="M3.02617416,13.3961461 L31.0125843,29.6276966 C31.110301,29.6838491 31.230532,29.6836912 31.328101,29.6272824 C31.42567,29.5708735 31.4857984,29.4667578 31.4858933,29.3540562 L54.7342079,17.0213258 C54.7342079,16.9090079 54.6745206,16.8051552 54.5773652,16.7487978 L25.8045169,0.0450505618 C25.7069033,-0.0115720958 25.586499,-0.0118261701 25.4886473,0.0443840217 C25.3907957,0.100594214 25.3303583,0.204731604 25.3300955,0.317578652 L2.86988764,13.1247303 C2.86988764,13.2364762 2.92974142,13.3396833 3.02617416,13.3961461 Z" id="路径_5012" fill="#221F1F" opacity="0.2"></path>
                        </g>
                        <g id="组_545">
                            <g id="组_542" transform="translate(0.834826, 0.000000)" fill="#FFFFFF" fill-rule="nonzero" opacity="0.7" stroke="#FFFFFF" stroke-width="0.55">
                                <polygon id="路径_5013" points="61.7576461 71.214927 35.3279831 86.2262191 35.3279831 35.4230899 61.7593146 20.4318202"></polygon>
                                <polygon id="路径_5014" points="0 14.9912697 35.3263146 35.4236461 61.7576461 20.4323764 26.4341124 0"></polygon>
                            </g>
                            <g id="组_544" transform="translate(0.000000, 12.501253)">
                                <g id="组_543-Clipped">
                                    <mask id="mask-5" fill="white">
                                        <use xlink:href="#path-4"></use>
                                    </mask>
                                    <g id="路径_5016"></g>
                                    <g id="组_543" mask="url(#mask-5)" fill="#FFFFFF" fill-rule="nonzero" opacity="0.7" stroke="#FFFFFF" stroke-width="0.55">
                                        <g transform="translate(0.556180, 2.224719)" id="路径_5015">
                                            <path d="M0.278646067,0.264741573 L0.278646067,51.068427 L35.6049607,71.499691 L35.6049607,20.697118 L0.278646067,0.264741573 Z M33.2167247,66.3978539 L2.66688202,48.7285787 L2.66688202,10.4027865 L33.2167247,28.0731742 L33.2167247,66.3978539 Z"></path>
                                        </g>
                                    </g>
                                </g>
                            </g>
                        </g>
                    </g>
                    <g id="组_552" transform="translate(2.889354, 60.052955)" fill-rule="nonzero">
                        <g id="组_548" fill="#4FBD9B">
                            <g id="组_547">
                                <path d="M16.6881742,10.3777584 C16.6080757,10.3779997 16.5293613,10.3568812 16.4601404,10.3165787 L0.228033708,0.851511236 C0.0207000156,0.720466614 -0.0460701597,0.449034065 0.076809856,0.236759586 C0.199689872,0.0244851061 0.468319564,-0.0527934341 0.685213483,0.0617359551 L16.9173202,9.52791573 C17.0965209,9.63094885 17.1838779,9.84173155 17.1300969,10.0413219 C17.0763158,10.2409122 16.8948812,10.3792671 16.6881742,10.3783195 L16.6881742,10.3777584 Z" id="路径_5017"></path>
                            </g>
                        </g>
                        <g id="组_549" transform="translate(18.297202, 8.570174)" fill="#4FBD9B">
                            <path d="M0.454955056,4.14242731 C0.333953197,4.1425748 0.217864751,4.09457245 0.132303453,4.00901115 C0.0467421538,3.92344986 -0.00126019339,3.80736141 -0.00111270001,3.68635955 L-0.00111270001,0.456067416 C-0.00111270001,0.20418838 0.20307602,1.08734905e-07 0.454955056,1.08734905e-07 C0.706834092,1.08734905e-07 0.911022472,0.20418838 0.911022472,0.456067416 L0.911022472,3.68635955 C0.911022472,3.93823863 0.706834135,4.14242731 0.454955056,4.14242731 L0.454955056,4.14242731 Z" id="路径_5018"></path>
                        </g>
                        <g id="组_550" transform="translate(20.002449, 9.395545)" fill="#F1F1F1">
                            <path d="M0.456067416,4.14242731 C0.335065557,4.1425748 0.218977111,4.09457245 0.133415812,4.00901115 C0.0478545133,3.92344986 -0.000147833836,3.80736141 -3.404552e-07,3.68635955 L-3.404552e-07,0.456067416 C-3.404552e-07,0.204188337 0.204188337,-3.16151599e-14 0.456067416,-3.16151599e-14 C0.707946494,-3.16151599e-14 0.912134831,0.204188337 0.912134831,0.456067416 L0.912134831,3.68802809 C0.911521209,3.93938274 0.707422625,4.14273462 0.456067416,4.14242731 L0.456067416,4.14242731 Z" id="路径_5019"></path>
                        </g>
                        <g id="组_551" transform="translate(21.708253, 10.373865)" fill="#4FBD9B">
                            <path d="M0.456067416,4.14353967 C0.335065557,4.14368716 0.218977111,4.09568481 0.133415812,4.01012351 C0.0478545133,3.92456221 -0.000147833836,3.80847377 -3.40455169e-07,3.68747191 L-3.40455169e-07,0.456067416 C-3.40455169e-07,0.204188337 0.204188337,3.16151599e-14 0.456067416,3.16151599e-14 C0.707946494,3.16151599e-14 0.912134831,0.204188337 0.912134831,0.456067416 L0.912134831,3.68747191 C0.912134831,3.93935099 0.707946494,4.14353967 0.456067416,4.14353967 L0.456067416,4.14353967 Z" id="路径_5020"></path>
                        </g>
                    </g>
                    <g id="组_558" transform="translate(5.789275, 46.071152)" fill-rule="nonzero">
                        <g id="组_554" fill="#5A615F">
                            <g id="组_553">
                                <path d="M16.6881742,10.3772022 C16.6080352,10.3772022 16.5293379,10.3558886 16.4601404,10.3154663 L0.228033708,0.850955056 C0.0133040049,0.723249093 -0.0587087291,0.446549606 0.0665218442,0.230366901 C0.191752418,0.0141841963 0.467606311,-0.0610026984 0.685213483,0.0617359551 L16.9173202,9.52624719 C17.0952669,9.63014175 17.181584,9.84034217 17.1280056,10.0393106 C17.0744271,10.2382791 16.8942296,10.3767122 16.6881742,10.3772022 Z" id="路径_5021"></path>
                            </g>
                        </g>
                        <g id="组_555" transform="translate(18.297202, 8.569618)" fill="#5A615F">
                            <path d="M0.456067416,4.14353967 C0.335065557,4.14368716 0.218977111,4.09568481 0.133415812,4.01012351 C0.0478545133,3.92456221 -0.000147833836,3.80847377 -3.40455169e-07,3.68747191 L-3.40455169e-07,0.456067416 C-3.40455169e-07,0.204188337 0.204188337,0 0.456067416,0 C0.707946494,0 0.912134831,0.204188337 0.912134831,0.456067416 L0.912134831,3.68747191 C0.912134831,3.93935099 0.707946494,4.14353967 0.456067416,4.14353967 L0.456067416,4.14353967 Z" id="路径_5022"></path>
                        </g>
                        <g id="组_556" transform="translate(20.002449, 9.394989)" fill="#4FBD9B">
                            <path d="M0.456067416,4.14353933 C0.204188337,4.14353933 -1.580758e-14,3.93935099 -1.580758e-14,3.68747191 L-1.580758e-14,0.456067416 C-1.580758e-14,0.204188337 0.204188337,-3.16151599e-14 0.456067416,-3.16151599e-14 C0.707946494,-3.16151599e-14 0.912134831,0.204188337 0.912134831,0.456067416 L0.912134831,3.68747191 C0.912134831,3.80842851 0.86408501,3.92443104 0.778555778,4.00996027 C0.693026547,4.0954895 0.577024015,4.14353933 0.456067416,4.14353933 L0.456067416,4.14353933 Z" id="路径_5023"></path>
                        </g>
                        <g id="组_557" transform="translate(21.708253, 10.373865)" fill="#5A615F">
                            <path d="M0.456067416,4.14242731 C0.335065557,4.1425748 0.218977111,4.09457245 0.133415812,4.00901115 C0.0478545133,3.92344986 -0.000147833836,3.80736141 -3.40455153e-07,3.68635955 L-3.40455153e-07,0.456067416 C-3.40455153e-07,0.293130196 0.086925911,0.142569979 0.228033676,0.0611013573 C0.369141442,-0.0203672641 0.54299339,-0.0203672641 0.684101155,0.0611013573 C0.82520892,0.142569979 0.912134831,0.293130196 0.912134831,0.456067416 L0.912134831,3.68635955 C0.912134831,3.93823863 0.707946494,4.14242731 0.456067416,4.14242731 L0.456067416,4.14242731 Z" id="路径_5024"></path>
                        </g>
                    </g>
                    <g id="组_564" transform="translate(5.233096, 33.817955)" fill-rule="nonzero">
                        <g id="组_560" fill="#F1F1F1">
                            <g id="组_559">
                                <path d="M17.2443539,10.3777584 C17.1643143,10.3775531 17.0857137,10.3564651 17.0163202,10.3165787 L0.784213483,0.850955056 C0.641207201,0.770294119 0.552594606,0.618991146 0.552202105,0.454805792 C0.551812205,0.290620439 0.639702787,0.138896916 0.782323069,0.0575554237 C0.924943352,-0.023786069 1.10027798,-0.0221893809 1.24139326,0.0617359551 L17.4735,9.52624719 C17.6514467,9.63014175 17.7377638,9.84034217 17.6841853,10.0393106 C17.6306069,10.2382791 17.4504094,10.3767122 17.2443539,10.3772022 L17.2443539,10.3777584 Z" id="路径_5025"></path>
                            </g>
                        </g>
                        <g id="组_561" transform="translate(18.853382, 8.569618)" fill="#5A615F">
                            <path d="M0.456067416,4.14353967 C0.335065557,4.14368716 0.218977111,4.09568481 0.133415812,4.01012351 C0.0478545133,3.92456221 -0.000147833836,3.80847377 -3.40455169e-07,3.68747191 L-3.40455169e-07,0.456067416 C-3.40455169e-07,0.204188337 0.204188337,0 0.456067416,0 C0.707946494,0 0.912134831,0.204188337 0.912134831,0.456067416 L0.912134831,3.68747191 C0.912134831,3.93935099 0.707946494,4.14353967 0.456067416,4.14353967 L0.456067416,4.14353967 Z" id="路径_5026"></path>
                        </g>
                        <g id="组_562" transform="translate(20.558629, 9.394989)" fill="#F1F1F1">
                            <path d="M0.456067416,4.14353933 C0.204188337,4.14353933 -1.580758e-14,3.93935099 -1.580758e-14,3.68747191 L-1.580758e-14,0.456067416 C-1.580758e-14,0.204188337 0.204188337,-3.16151599e-14 0.456067416,-3.16151599e-14 C0.707946494,-3.16151599e-14 0.912134831,0.204188337 0.912134831,0.456067416 L0.912134831,3.68747191 C0.912134831,3.93935099 0.707946494,4.14353933 0.456067416,4.14353933 L0.456067416,4.14353933 Z" id="路径_5027"></path>
                        </g>
                        <g id="组_563" transform="translate(22.264433, 10.373865)" fill="#5A615F">
                            <path d="M0.456067416,4.14242833 C0.335020218,4.14272329 0.218845438,4.09476863 0.133251888,4.00917508 C0.0476583372,3.92358153 -0.000296322501,3.80740675 -1.36515562e-06,3.68635955 L-1.36515562e-06,0.454955056 C-1.36515562e-06,0.203075978 0.204188337,-0.00111235955 0.456067416,-0.00111235955 C0.707946494,-0.00111235955 0.912137893,0.203075978 0.912137893,0.454955056 L0.912137893,3.68524719 C0.912578861,3.80644156 0.864707309,3.92281634 0.779113818,4.0086186 C0.693520326,4.09442085 0.577262509,4.14257576 0.456067416,4.14242833 L0.456067416,4.14242833 Z" id="路径_5028"></path>
                        </g>
                    </g>
                </g>
                <ellipse id="椭圆_40" stroke="#FFFFFF" stroke-width="0.55" fill="#FFFFFF" fill-rule="nonzero" opacity="0.7" cx="43.3442022" cy="25.7550169" rx="14.7037247" ry="9.81824157"></ellipse>
                <path d="M43.3436461,35.5738146 C35.4981742,35.5738146 29.0898708,31.4714326 28.6638371,26.3034101 C28.6493764,26.4847247 28.6399213,26.6671517 28.6399213,26.8518034 C28.6399213,32.274 35.2228652,36.6706011 43.3430899,36.6706011 C51.4633146,36.6706011 58.0462584,32.2767809 58.0462584,26.8518034 C58.0462584,26.6677079 58.0373596,26.4852809 58.0223427,26.3034101 C57.5974213,31.4714326 51.189118,35.5738146 43.3436461,35.5738146 Z" id="路径_5029" stroke="#FFFFFF" stroke-width="0.55" fill="#C5CDD1" fill-rule="nonzero" opacity="0.7"></path>
                <path d="M66.2665955,10.961191 C64.5719157,6.06680899 57.4934157,0 41.4837809,0 C25.4741461,0 20.3216966,4.60850562 18.2015393,9.41501124 C16.081382,14.2215169 28.0008708,28.842927 28.0008708,28.842927 C28.8217921,32.7089326 35.0443315,35.7156404 42.6055955,35.7156404 C53.4594438,35.9080787 55.721427,31.1549663 55.721427,31.1488483 C55.721427,31.1427303 67.9623876,15.8583539 66.2665955,10.961191 Z" id="路径_5030" fill="url(#linearGradient-6)" fill-rule="nonzero"></path>
                <path d="M28.6571629,16.1915056 L28.3540449,29.7567303 C28.3540449,29.7567303 32.4325112,35.8012921 42.4253933,35.8012921 C52.4182753,35.8012921 56.4566966,30.7217022 56.4566966,30.7217022 L56.4566966,17.7070955 L42.4048146,11.9300562 L28.6571629,16.1915056 Z" id="路径_5031" fill="url(#linearGradient-7)" fill-rule="nonzero"></path>
                <g id="组_567" transform="translate(25.124309, 11.445067)" fill="#A7A9AC" fill-rule="nonzero">
                    <polygon id="路径_5032" points="20.8133596 9.71256742 24.9847079 14.7682416 34.1305281 11.4144775"></polygon>
                    <polygon id="路径_5033" points="12.6402978 8.97618539 7.0785 4.61239888 -0.0022247191 7.78762921"></polygon>
                    <g id="组_566" transform="translate(3.223062, 3.764225)">
                        <polygon id="路径_5034" opacity="0.7" points="9.02401685 0.590106742 9.04237079 0.582876404 9.00566292 0.556179775"></polygon>
                        <path d="M18.2343539,10.7843258 C16.7005001,11.4305051 15.0510526,11.7573289 13.386691,11.7448483 C8.45782584,11.7448483 4.46223034,9.07518539 4.46223034,5.7859382 C4.46914601,5.0145701 4.6852017,4.2595285 5.0873764,3.60126404 L5.0873764,3.60126404 L0.889331461,2.58623596 C0.316636062,3.55527377 0.0107524992,4.65868059 0.00278089888,5.78426966 C0.00278089888,10.7214775 5.99617416,14.7232478 13.3900281,14.7232478 C15.3100541,14.727882 17.2197298,14.4419182 19.0541629,13.8750169 L18.2343539,10.7843258 Z" id="路径_5035"></path>
                    </g>
                    <path d="M25.5331011,9.55016292 C25.5240999,10.3142822 25.3088808,11.0617845 24.9101798,11.7137022 L26.6732697,13.2259551 L28.8034382,13.2259551 C29.5648966,12.1499307 29.9809864,10.8677146 29.9964438,9.54960674 C29.9964438,4.61239888 24.0030506,0.60949797 16.6091966,0.60949797 C14.6683193,0.60411837 12.7380561,0.895974306 10.8855506,1.47498876 L14.194264,3.81483708 C14.9906815,3.66469293 15.7993064,3.58872724 16.6097528,3.58791573 C21.5369494,3.58847191 25.5331011,6.25813483 25.5331011,9.55016292 Z" id="路径_5036"></path>
                    <path d="M34.127191,11.4150337 L34.127191,9.93615169 C34.127191,9.93615169 27.4296742,9.36495506 27.4708315,9.54015169 C27.7455843,10.7242584 26.890736,4.61239888 26.890736,4.61239888 L10.8855506,-0.000556179775 L10.8855506,1.47721348 L14.487927,2.84096629 L22.2744438,2.51170787 L25.0414382,5.84878652 L25.9430056,10.1747528 L20.8144719,8.23535393 L20.8144719,9.7131236 L26.674382,13.2270674 L34.127191,11.4150337 Z" id="路径_5037"></path>
                    <polygon id="路径_5038" points="0 7.78818539 0 6.31041573 12.6408539 7.49841573 12.6408539 8.97618539 7.33823596 7.49841573 6.0306573 10.7626348 8.85660674 14.0212921 22.2733315 16.1625843 22.2733315 17.6403539 9.99510674 16.4440112 6.03010112 13.0841292 3.54064045 9.47730337 4.11016854 7.49785955"></polygon>
                </g>
                <g id="组_569" transform="translate(25.124309, 10.577427)" fill="#E6E7E8" fill-rule="nonzero">
                    <polygon id="路径_5039" points="20.8133596 9.10076966 24.9847079 14.1564438 34.1305281 10.8026798"></polygon>
                    <polygon id="路径_5040" points="12.6402978 8.36605618 7.0785 4.00226966 -0.0022247191 7.1775"></polygon>
                    <g id="组_568" transform="translate(3.223062, 3.152983)">
                        <polygon id="路径_5041" opacity="0.7" points="9.02401685 0.590662921 9.04237079 0.583432584 9.00566292 0.556179775"></polygon>
                        <path d="M18.2343539,10.784882 C16.7005139,11.4311062 15.051057,11.7579318 13.386691,11.7454045 C8.45782584,11.7454045 4.46223034,9.07574157 4.46223034,5.7859382 C4.46918015,5.01492442 4.68524081,4.26024989 5.0873764,3.6023764 L5.0873764,3.6023764 L0.889331461,2.58790449 C0.316681505,3.55675861 0.010797663,4.65997454 0.00278089888,5.78538202 C0.00278089888,10.7225899 5.99617416,14.7254725 13.3900281,14.7254725 C15.3100541,14.7301067 17.2197298,14.4441429 19.0541629,13.8772416 L18.2343539,10.784882 Z" id="路径_5042"></path>
                    </g>
                    <path d="M25.5331011,8.94058989 C25.5242448,9.70507975 25.3090223,10.4529779 24.9101798,11.1052416 L26.6732697,12.6169382 L28.8034382,12.6169382 C29.5650239,11.5409777 29.9811269,10.2587208 29.9964438,8.94058989 C29.9964438,4.00338202 24.0030506,0.00161168116 16.6091966,0.00161168116 C14.6680212,-0.00307915612 12.7375703,0.289527095 10.8849944,0.869308989 L14.1937079,3.2091573 C14.990123,3.05899731 15.7987495,2.98303148 16.6091966,2.98223596 C21.5369494,2.98001124 25.5331011,5.6485618 25.5331011,8.94058989 Z" id="路径_5043"></path>
                </g>
                <path d="M19.4073371,10.8755393 C19.4073371,10.8755393 20.6203652,23.2510955 41.5499663,25.5981742 C64.3505562,26.745573 67.4701685,12.3288371 67.4701685,12.3288371 L57.6752865,30.0809831 C57.6752865,30.0809831 56.5467978,34.8975 45.0216404,35.5871629 C33.4964831,36.2768258 29.9541742,30.8379438 28.8223483,29.7472753 C27.6905225,28.6566067 17.7154382,15.5040674 19.4073371,10.8755393 Z" id="路径_5045" fill="url(#linearGradient-8)" fill-rule="nonzero"></path>
                <g id="组_573" transform="translate(64.741551, 39.012118)">
                    <g id="组_572-Clipped">
                        <mask id="mask-10" fill="white">
                            <use xlink:href="#path-9"></use>
                        </mask>
                        <g id="路径_5049"></g>
                        <g id="组_572" mask="url(#mask-10)">
                            <g transform="translate(-21.691011, -7.230337)" id="组_571">
                                <g transform="translate(0.293107, 0.320916)">
                                    <path d="M36.6233258,34.346882 C37.3418623,32.378289 37.7116969,30.2994987 37.7162191,28.2038764 C37.7162191,14.0668989 20.9685337,2.54730337 0,1.99501685 L0,6.51230899 C17.232118,7.06070225 30.9508483,16.5613652 30.9508483,28.2033202 C30.9443529,30.138364 30.5639986,32.0539219 29.8307022,33.8446517 L22.7627697,32.4013652 L22.7627697,34.396382 L22.7627697,34.396382 L29.1655112,41.6662079 L42.5177191,36.271264 L42.5177191,36.271264 L42.5177191,34.2762472 L36.6233258,34.346882 Z" id="路径_5046" fill="#21887A" fill-rule="nonzero"></path>
                                    <polygon id="路径_5047" fill="#4FBD9B" fill-rule="nonzero" points="22.7627697 32.4013652 29.1660674 39.6706348 42.5182753 34.275691"></polygon>
                                    <g id="组_570" fill="#4FBD9B" fill-rule="nonzero">
                                        <path d="M0,0 L0,4.51729213 C17.232118,5.06457303 30.9508483,14.5663483 30.9508483,26.2083034 C30.9367412,28.7087461 30.312027,31.1678902 29.1310281,33.3718989 L35.7601348,34.3835899 C37.0329593,31.8452669 37.7023812,29.0472849 37.7162191,26.2077472 C37.7156629,12.071882 20.9685337,0.551730337 0,0 Z" id="路径_5048"></path>
                                    </g>
                                </g>
                            </g>
                        </g>
                    </g>
                </g>
                <g id="组_576" transform="translate(0.556180, 41.382000)">
                    <g id="组_575-Clipped">
                        <mask id="mask-12" fill="white">
                            <use xlink:href="#path-11"></use>
                        </mask>
                        <g id="路径_5053"></g>
                        <g id="组_575" mask="url(#mask-12)">
                            <g transform="translate(0.000000, 2.224719)" id="组_574">
                                <g transform="translate(0.481096, 0.015017)">
                                    <path d="M46.5244382,42.0711067 L46.5444607,40.6389438 L46.4721573,40.6261517 L46.3809438,38.0627191 C44.5067052,38.286169 42.6210032,38.3998237 40.7334944,38.4031011 C35.2535203,38.4342101 29.8131602,37.4732155 24.6754719,35.5665843 C22.005809,33.9436517 17.2082022,31.0320506 13.8822472,28.9363652 C11.9969423,27.1434165 10.4879209,24.9926686 9.4433764,22.6098202 C9.07407303,20.2738652 8.6708427,17.287736 8.34770225,14.7754719 C8.72502369,12.1146122 9.7511027,9.58742468 11.3355,7.4166573 L17.6492528,8.43001685 L17.6492528,6.43388764 L14.9378764,5.99895506 L10.472309,1.99446067 L4.29871348,4.28981461 L0.551174157,3.68858427 L0.551174157,5.68360112 L4.11072472,6.25535393 L2.57344382,8.40832584 C2.57344382,8.40832584 2.64352247,9.01233708 2.75475843,9.96006742 C1.89183805,12.0968865 1.44446023,14.3787021 1.43661236,16.6831685 C1.43661236,31.1733202 19.0274663,42.9192809 40.7257079,42.9192809 C42.7005169,42.9192809 44.6375056,42.8241742 46.5366742,42.6339607 L46.5166517,42.0699944 L46.5244382,42.0711067 Z" id="路径_5050" fill="#21887A" fill-rule="nonzero"></path>
                                    <polygon id="路径_5051" fill="#4FBD9B" fill-rule="nonzero" points="17.6514775 6.43388764 10.4767584 0 0.558404494 3.68914045"></polygon>
                                    <path d="M46.3815,36.0665899 C44.5072601,36.2900259 42.6215589,36.4036805 40.7340506,36.4069719 C22.7694438,36.4069719 8.21088202,26.6832809 8.21088202,14.689264 C8.21088202,10.7181404 9.81379213,7.00007865 12.600809,3.79703933 L6.02175843,2.39935955 C3.10459551,6.06569663 1.44495506,10.2470562 1.44495506,14.6909326 C1.44495506,29.1799719 19.035809,40.9259326 40.7340506,40.9259326 C42.7088596,40.9259326 44.6458483,40.8308258 46.5450169,40.6406124 L46.3815,36.0665899 Z" id="路径_5052" fill="#4FBD9B" fill-rule="nonzero"></path>
                                </g>
                            </g>
                        </g>
                    </g>
                </g>
            </g>
        </g>
    </g>
</svg>