<?xml version="1.0" encoding="UTF-8"?>
<svg width="85px" height="98px" viewBox="0 0 85 98" version="1.1" xmlns="http://www.w3.org/2000/svg" xmlns:xlink="http://www.w3.org/1999/xlink">
    <!-- Generator: Sketch 63.1 (92452) - https://sketch.com -->
    <title>组 876</title>
    <desc>Created with Sketch.</desc>
    <defs>
        <linearGradient x1="28.4%" y1="10.1%" x2="62.9%" y2="73.3%" id="linearGradient-1">
            <stop stop-color="#FFFFFF" stop-opacity="0" offset="0%"></stop>
            <stop stop-color="#000000" offset="100%"></stop>
        </linearGradient>
        <linearGradient x1="30.8%" y1="14.4%" x2="65.2%" y2="77.5%" id="linearGradient-2">
            <stop stop-color="#FFFFFF" stop-opacity="0" offset="0%"></stop>
            <stop stop-color="#000000" offset="100%"></stop>
        </linearGradient>
        <linearGradient x1="28.4%" y1="10.1%" x2="62.9%" y2="73.3%" id="linearGradient-3">
            <stop stop-color="#FFFFFF" stop-opacity="0" offset="0%"></stop>
            <stop stop-color="#000000" offset="100%"></stop>
        </linearGradient>
        <path d="M0,0 L0,43.888 L3.4696,41.82 L5.5072,42.1576 L5.5072,17.5072 L34.264,34.4576 L34.264,66.82 L36.3592,69.0512 L34.264,70.2512 L32.1424,71.4688 L31.1528,72.0616 C30.9199071,72.20077 30.6298376,72.2026079 30.3952,72.0664 L1.3392,55.2312 L0.2992,54.6152 L0.3792,58.6064 L40.1312,81.9664 L40.1312,22.208 L0,0 Z" id="path-4"></path>
    </defs>
    <g id="组-876" stroke="none" stroke-width="1" fill="none" fill-rule="evenodd">
        <g transform="translate(8.000000, 3.000000)">
            <g id="组_483" transform="translate(0.204000, 0.237600)">
                <polygon id="路径_4896" fill="#BBBDBF" fill-rule="nonzero" points="67.3864 76.6696 38.9304 92.8296 0.8984 70.8296 29.3544 54.6696"></polygon>
                <polygon id="路径_4897" fill="#E4E7E9" fill-rule="nonzero" points="29.3544 54.672 67.3864 76.744 67.3864 22.0512 29.3544 0.0008"></polygon>
                <polygon id="路径_4898" fill="#D0D2D3" fill-rule="nonzero" points="29.3544 54.672 0.8984 70.832 0.8984 16.1392 29.3544 0"></polygon>
                <polygon id="路径_4899" fill="#E4E7E9" fill-rule="nonzero" points="2.756 47.0064 9.86 42.8664 9.86 37.4616 2.756 41.6312"></polygon>
                <polygon id="路径_4900" fill="#E4E7E9" fill-rule="nonzero" points="12.7744 39.4832 15.9224 37.6488 15.9224 35.2536 12.7744 37.1016"></polygon>
                <g id="组_472" transform="translate(19.892000, 29.266400)" fill-rule="nonzero">
                    <polygon id="路径_4901" fill="#E4E7E9" points="0.3928 6.752 6.3128 3.312 6.3128 0.2312 0.3928 3.6912"></polygon>
                    <polygon id="路径_4902" fill="#C0C3E2" points="6.3104 0.2312 5.9176 0 -0.0024 3.46 -0.0024 6.5208 0.3904 6.752 0.3904 3.6912"></polygon>
                </g>
                <g id="组_474" transform="translate(0.000000, 41.442400)" fill-rule="nonzero">
                    <path d="M0.8096,26.9432 L30.4368,44.0768 C30.6909781,44.2237404 31.0042482,44.2238816 31.2585586,44.0771704 C31.5128691,43.9304592 31.6696,43.6591949 31.6696,43.3656 L31.6696,34.2864 C31.6691733,33.705694 31.359459,33.169181 30.8568,32.8784 L1.0304,15.6296 C0.817984149,15.50658 0.556043147,15.5063558 0.34341702,15.629012 C0.130790893,15.7516682 -1.30825356e-07,15.9785323 -1.30825356e-07,16.224 L-1.30825356e-07,25.5416 C0.000403444018,26.1198014 0.308945108,26.6539566 0.8096,26.9432 L0.8096,26.9432 Z" id="路径_4903" fill="#5A615F"></path>
                    <g id="组_473" transform="translate(0.309600, 0.170400)" fill="#515453">
                        <path d="M57.2008,17.3392 L27.3776,0.0904 C27.1906746,-0.018079354 26.9630492,-0.0302788821 26.7656,0.0576 L26.7656,0.0576 C26.716197,0.0786627611 26.6694698,0.105517442 26.6264,0.1376 L0.0728,15.4416 C0.277189693,15.3360606 0.521361053,15.3423988 0.72,15.4584 L30.5456,32.7072 C31.048259,32.997981 31.3579733,33.534494 31.3584,34.1152 L31.3584,43.1944 C31.3580561,43.3674402 31.301949,43.5357615 31.1984,43.6744 L31.1984,43.6744 L57.5184,28.5696 C57.5751931,28.5453871 57.6289039,28.5145034 57.6784,28.4776 L57.6784,28.4776 C57.8899263,28.3260762 58.0152001,28.0817977 58.0152001,27.8216 L58.0152001,18.748 C58.0152001,18.1666341 57.7044427,17.6295971 57.2008,17.3392 L57.2008,17.3392 Z" id="路径_4905"></path>
                    </g>
                    <path d="M31.6696,34.2864 L31.6696,43.3656 C31.6692561,43.5386402 31.613149,43.7069615 31.5096,43.8456 L31.5096,43.8456 L57.8296,28.7408 C57.8863897,28.7165803 57.9400997,28.685697 57.9896,28.6488 L57.9896,28.6488 C58.2011263,28.4972762 58.3264001,28.2529977 58.3264001,27.9928 L58.3264001,18.9184 C58.3221713,18.8620579 58.3149612,18.8059793 58.3048,18.7504 L31.3688,33.3656 C31.5608189,33.634577 31.6657985,33.9559376 31.6696,34.2864 L31.6696,34.2864 Z" id="路径_4906" fill="url(#linearGradient-1)" style="mix-blend-mode: multiply;"></path>
                    <path d="M2.9248,14.4224 L33.056,31.8936 C33.1610898,31.9544644 33.290664,31.9546555 33.3959328,31.8941012 C33.5012016,31.8335469 33.5661796,31.7214425 33.5664,31.6 L58.5912,18.324 C58.5912,18.2026295 58.5266274,18.090428 58.4216,18.0296 L27.4464,0.0464 C27.341236,-0.0141262873 27.2117864,-0.014021057 27.1067209,0.0466761272 C27.0016554,0.107373311 26.9368996,0.219462047 26.9368,0.3408 L2.75599986,14.1288 C2.75599986,14.2497641 2.8202072,14.3616327 2.9248,14.4224 Z" id="路径_4907" fill="#221F1F" opacity="0.3"></path>
                </g>
                <g id="组_476" transform="translate(3.956800, 27.454400)" fill-rule="nonzero">
                    <path d="M0.8096,26.7728 L30.4368,43.9064 C30.6909781,44.0533404 31.0042482,44.0534816 31.2585586,43.9067704 C31.5128691,43.7600592 31.6696,43.4887949 31.6696,43.1952 L31.6696,34.1152 C31.6688882,33.5347799 31.359212,32.9986377 30.8568,32.708 L1.0304,15.4592 C0.817984149,15.33618 0.556043147,15.3359558 0.34341702,15.458612 C0.130790893,15.5812682 -1.30825356e-07,15.8081323 -1.30825356e-07,16.0536 L-1.30825356e-07,25.3712 C0.000403444018,25.9494014 0.308945108,26.4835566 0.8096,26.7728 L0.8096,26.7728 Z" id="路径_4908" fill="#F1F1F1"></path>
                    <g id="组_475" transform="translate(0.309600, 0.000000)" fill="#E5E6E6">
                        <path d="M57.2032,17.3392 L27.3776,0.088 C27.190544,-0.0202206165 26.9629223,-0.0321224037 26.7656,0.056 L26.7656,0.056 C26.7161902,0.0770491947 26.6694615,0.103904772 26.6264,0.136 L0.0728,15.4416 C0.277224342,15.3362119 0.521318602,15.3425481 0.72,15.4584 L30.5456,32.7072 C31.048259,32.997981 31.3579733,33.534494 31.3584,34.1152 L31.3584,43.1944 C31.3579992,43.3674309 31.3018979,43.5357348 31.1984,43.6744 L31.1984,43.6744 L57.5184,28.5696 C57.5751965,28.5453939 57.6289081,28.5145097 57.6784,28.4776 L57.6784,28.4776 C57.8899263,28.3260762 58.0152001,28.0817977 58.0152001,27.8216 L58.0152001,18.7472 C58.0152001,18.1666147 57.7056716,17.6300635 57.2032,17.3392 Z" id="路径_4910"></path>
                    </g>
                    <path d="M31.6696,34.1696 L31.6696,43.2496 C31.6692561,43.4226402 31.613149,43.5909615 31.5096,43.7296 L31.5096,43.7296 L57.8296,28.6248 C57.8863999,28.6006007 57.9401123,28.5697161 57.9896,28.5328 L57.9896,28.5328 C58.2012298,28.3813655 58.3266754,28.1370297 58.3264005,27.8768 L58.3264005,18.7968 C58.3221713,18.7404579 58.3149612,18.6843793 58.3048,18.6288 L31.3688,33.2488 C31.5608189,33.517777 31.6657985,33.8391376 31.6696,34.1696 L31.6696,34.1696 Z" id="路径_4911" fill="url(#linearGradient-2)" opacity="0.28" style="mix-blend-mode: multiply;"></path>
                    <path d="M1.6032,15.22 L31.7344,32.6928 C31.8396793,32.7532045 31.9691401,32.7530562 32.0742808,32.6924108 C32.1794215,32.6317653 32.2443724,32.5197765 32.2448,32.3984 L57.2712,19.1184 C57.2712,18.9974797 57.2068725,18.8856869 57.1024,18.8248 L26.1272,0.844 C26.0221102,0.783135557 25.892536,0.782944518 25.7872672,0.843498815 C25.6819984,0.904053112 25.6170204,1.01615746 25.6168,1.1376 L1.43599933,14.9256 C1.43599933,15.0463929 1.49933529,15.1583307 1.6032,15.22 Z" id="路径_4912" fill="#4FBD9B" opacity="0.54"></path>
                </g>
                <g id="组_478" transform="translate(4.148800, 14.722400)" fill-rule="nonzero">
                    <path d="M0.8096,26.7728 L30.4368,43.9072 C30.6909781,44.0541404 31.0042482,44.0542816 31.2585586,43.9075704 C31.5128691,43.7608592 31.6696,43.4895949 31.6696,43.196 L31.6696,34.116 C31.6696,33.5352057 31.3597001,32.99854 30.8568,32.708 L1.0304,15.4584 C0.817793891,15.3358422 0.555967861,15.3359586 0.343470795,15.4587054 C0.130973728,15.5814521 0,15.8081988 0,16.0536 L0,25.3696 C0,25.9482848 0.308691704,26.4830294 0.8096,26.7728 L0.8096,26.7728 Z" id="路径_4913" fill="#4FBD9B"></path>
                    <g id="组_477" transform="translate(0.309600, 0.000800)" fill="#40BA93">
                        <path d="M57.2032,17.3384 L27.3768,0.0896 C27.189785,-0.0179632879 26.962596,-0.029560632 26.7656,0.0584 L26.7656,0.0584 C26.7162037,0.0794762619 26.6694781,0.106330053 26.6264,0.1384 L0.072,15.4408 C0.276910543,15.336316 0.520778785,15.3426385 0.72,15.4576 L30.5456,32.7072 C31.0485001,32.99774 31.3583026,33.5344057 31.3584,34.1152 L31.3584,43.1952 C31.3584,43.3682962 31.3022577,43.5367231 31.1984,43.6752 L31.1984,43.6752 L57.5184,28.5704 C57.5751475,28.5454413 57.628834,28.5140347 57.6784,28.4768 L57.6784,28.4768 C57.8905292,28.3261604 58.0161542,28.0817733 58.0152054,27.8216 L58.0152054,18.7416 C58.0130679,18.1628183 57.703952,17.6286417 57.2032,17.3384 Z" id="路径_4915"></path>
                    </g>
                    <path d="M31.4776,34.18 L31.4776,43.26 C31.4776,43.4330962 31.4214577,43.6015231 31.3176,43.74 L31.3176,43.74 L57.6376,28.6352 C57.6944608,28.610464 57.7481726,28.5790426 57.7976,28.5416 L57.7976,28.5416 C58.0097292,28.3909604 58.1353542,28.1465733 58.1344054,27.8864 L58.1344054,18.812 C58.1302353,18.7556514 58.1230247,18.6995694 58.1128,18.644 L31.1768,33.2592 C31.3688189,33.528177 31.4737985,33.8495376 31.4776,34.18 Z" id="路径_4916" fill="url(#linearGradient-3)" opacity="0.18" style="mix-blend-mode: multiply;"></path>
                    <path d="M2.6576,14.4224 L32.7888,31.8952 C32.8938898,31.9560644 33.023464,31.9562555 33.1287328,31.8957012 C33.2340016,31.8351469 33.2989796,31.7230425 33.2992,31.6016 L58.3256,18.3216 C58.3256,18.200481 58.2612796,18.0884686 58.1568,18.0272 L27.18,0.0464 C27.0747207,-0.0140044606 26.9452599,-0.0138562036 26.8401192,0.0467892277 C26.7349785,0.107434659 26.6700276,0.219423492 26.6696,0.3408 L2.48879986,14.1288 C2.48879986,14.2497641 2.5530072,14.3616327 2.6576,14.4224 Z" id="路径_4917" fill="#221F1F" opacity="0.2"></path>
                </g>
                <g id="组_482">
                    <g id="组_479" transform="translate(0.898400, 0.000000)" fill="#FFFFFF" fill-rule="nonzero" opacity="0.7" stroke="#FFFFFF" stroke-width="0.5">
                        <polygon id="路径_4918" points="66.488 76.6696 38.032 92.8296 38.032 38.136 66.488 21.9968"></polygon>
                        <polygon id="路径_4919" points="0 16.1392 38.032 38.1392 66.488 22 28.456 4.54747351e-14"></polygon>
                    </g>
                    <g id="组_481" transform="translate(0.000000, 13.459200)">
                        <g id="组_480-Clipped">
                            <mask id="mask-5" fill="white">
                                <use xlink:href="#path-4"></use>
                            </mask>
                            <g id="路径_4921"></g>
                            <g id="组_480" mask="url(#mask-5)" fill="#FFFFFF" fill-rule="nonzero" opacity="0.7" stroke="#FFFFFF" stroke-width="0.5">
                                <g transform="translate(0.800000, 2.400000)" id="路径_4920">
                                    <path d="M0.0984,0.28 L0.0984,54.9736 L38.1304,76.9736 L38.1304,22.2776 L0.0984,0.28 Z M35.5592,71.48 L2.6696,52.4544 L2.6696,11.192 L35.5592,30.2144 L35.5592,71.48 Z"></path>
                                </g>
                            </g>
                        </g>
                    </g>
                </g>
                <polygon id="路径_4922" stroke="#FFFFFF" stroke-width="0.5" fill="#FFFFFF" fill-rule="nonzero" opacity="0.7" points="56.9272 17.3744 31.4872 2.4224 11.3584 13.9168 36.7984 29.0368"></polygon>
                <polygon id="路径_4923" stroke="#FFFFFF" stroke-width="0.5" fill="#D0D2D3" fill-rule="nonzero" points="36.7968 29.032 56.9272 17.372 56.9272 20.9816 36.7968 32.6416 11.3568 17.5216 11.3568 17.5216 11.3568 13.9136"></polygon>
                <polygon id="路径_4924" fill="#4FBD9B" fill-rule="nonzero" points="56.7264 30.7224 56.7264 34.016 62.024 31.212 62.024 39.2584 64.9656 37.6224 64.9656 25.9696"></polygon>
                <polygon id="路径_4925" fill="#4FBD9B" fill-rule="nonzero" points="43.1 84.8008 43.1 77.1008 40.528 78.5592 40.528 89.228 48.1816 84.6472 48.1816 81.6776"></polygon>
                <polygon id="路径_4926" fill="#4FBD9B" fill-rule="nonzero" points="40.528 87.5808 40.528 89.2312 43.808 87.3248 51.5544 70.036 48.9408 68.2432"></polygon>
                <polygon id="路径_4927" fill="#4FBD9B" fill-rule="nonzero" points="54.7328 43.2504 57.1416 45.576 64.6552 29.2256 62.2552 27.5792"></polygon>
            </g>
            <g id="组_489" transform="translate(2.514400, 64.090400)" fill-rule="nonzero">
                <g id="组_485" fill="#4FBD9B">
                    <g id="组_484">
                        <path d="M18.7664,11.9728 C18.6802002,11.9728 18.5955065,11.950204 18.5208,11.9072 L1.0456,1.716 C0.88701297,1.63156146 0.787179287,1.46727679 0.785252181,1.28762127 C0.783380236,1.10796576 0.879717974,0.941606934 1.03648419,0.85383412 C1.1932504,0.766061306 1.38542999,0.770880363 1.5376,0.8664 L19.0136,11.056 C19.2056415,11.1674916 19.298999,11.3939585 19.2413166,11.608395 C19.1836341,11.8228316 18.9892592,11.9718997 18.7672,11.972 L18.7664,11.9728 Z" id="路径_4928"></path>
                    </g>
                </g>
                <g id="组_486" transform="translate(20.497600, 10.025600)" fill="#4FBD9B">
                    <path d="M0.4912,4.46080065 C0.219917731,4.46080065 0,4.24088227 0,3.9696 L0,0.4912 C0,0.315711128 0.0936221656,0.153552715 0.245599983,0.0658082729 C0.397577801,-0.021936169 0.584822199,-0.021936169 0.736800017,0.0658082729 C0.888777834,0.153552715 0.982400655,0.315711128 0.982400655,0.4912 L0.982400655,3.9696 C0.9826128,4.09993946 0.930929858,4.22500178 0.838765819,4.31716582 C0.74660178,4.40932986 0.62153946,4.4610128 0.4912,4.46080065 L0.4912,4.46080065 Z" id="路径_4929"></path>
                </g>
                <g id="组_487" transform="translate(22.334400, 10.914400)" fill="#F1F1F1">
                    <path d="M0.4912,4.46080065 C0.36086054,4.4610128 0.23579822,4.40932986 0.143634181,4.31716582 C0.0514701423,4.22500178 -0.000212799544,4.09993946 -6.54540054e-07,3.9696 L-6.54540054e-07,0.4912 C-6.54540054e-07,0.219917731 0.219917731,0 0.4912,0 C0.762482269,0 0.9824,0.219917731 0.9824,0.4912 L0.9824,3.9696 C0.9824,4.24088227 0.762482269,4.46080065 0.4912,4.46080065 Z" id="路径_4930"></path>
                </g>
                <g id="组_488" transform="translate(24.169600, 11.968800)" fill="#4FBD9B">
                    <path d="M0.4912,4.46000262 C0.36086054,4.4602128 0.23579822,4.40852986 0.143634181,4.31636582 C0.0514701423,4.22420178 -0.000212799543,4.09913946 -6.54540042e-07,3.9688 L-6.54540042e-07,0.4912 C-6.54540042e-07,0.219917763 0.219917763,8.28101292e-08 0.4912,8.28101292e-08 C0.762482237,8.28101292e-08 0.982400659,0.219917763 0.982400659,0.4912 L0.982400659,3.9696 C0.98261355,4.09986626 0.930905195,4.22484695 0.838717872,4.31688413 C0.746530549,4.40892131 0.621465742,4.46042588 0.4912,4.46000262 L0.4912,4.46000262 Z" id="路径_4931"></path>
                </g>
            </g>
            <g id="组_495" transform="translate(6.436800, 49.836800)" fill-rule="nonzero">
                <g id="组_491" fill="#5A615F">
                    <g id="组_490">
                        <path d="M17.9632,11.1688117 C17.8769255,11.1694031 17.7920833,11.1467417 17.7176,11.1032 L0.2456,0.916 C0.0216038534,0.775393906 -0.0508568084,0.4826801 0.0816777064,0.253815621 C0.214212221,0.0249511417 0.504157917,-0.0578945752 0.7376,0.0664 L18.2136,10.256 C18.4042541,10.3684496 18.4959482,10.594676 18.4373918,10.8081357 C18.3788354,11.0215954 18.1845449,11.1693703 17.9632,11.1688117 Z" id="路径_4932"></path>
                    </g>
                </g>
                <g id="组_492" transform="translate(19.697600, 9.226400)" fill="#5A615F">
                    <path d="M0.4912,4.46000263 C0.36086054,4.4602128 0.23579822,4.40852986 0.143634181,4.31636582 C0.0514701423,4.22420178 -0.000212799544,4.09913946 -6.54540054e-07,3.9688 L-6.54540054e-07,0.4912 C-6.54540054e-07,0.315711123 0.093622155,0.1535527 0.245599976,0.0658082527 C0.397577797,-0.0219361946 0.584822203,-0.0219361946 0.736800024,0.0658082527 C0.888777845,0.1535527 0.982402627,0.315711123 0.982402627,0.4912 L0.982402627,3.9688 C0.98282686,4.09920473 0.931212666,4.22439154 0.839002103,4.3166021 C0.74679154,4.40881267 0.621604731,4.46042686 0.4912,4.46000263 L0.4912,4.46000263 Z" id="路径_4933"></path>
                </g>
                <g id="组_493" transform="translate(21.534400, 10.115200)" fill="#4FBD9B">
                    <path d="M0.4912,4.46000263 C0.360795269,4.46042686 0.23560846,4.40881267 0.143397897,4.3166021 C0.0511873337,4.22439154 -0.000426860162,4.09920473 -2.62673987e-06,3.9688 L-2.62673987e-06,0.4912 C-2.62673987e-06,0.219917731 0.219917731,0 0.4912,0 C0.762482269,0 0.9824,0.219917731 0.9824,0.4912 L0.9824,3.9696 C0.9824,4.09980089 0.930623376,4.22465744 0.838482438,4.31664831 C0.7463415,4.40863919 0.621400721,4.4602124 0.4912,4.46000263 Z" id="路径_4934"></path>
                </g>
                <g id="组_494" transform="translate(23.369600, 11.168000)" fill="#5A615F">
                    <path d="M0.4912,4.46080065 C0.219917731,4.46080065 0,4.24088227 0,3.9696 L0,0.4912 C0,0.219917731 0.219917731,0 0.4912,0 C0.762482269,0 0.982400655,0.219917731 0.982400655,0.4912 L0.982400655,3.9696 C0.9826128,4.09993946 0.930929858,4.22500178 0.838765819,4.31716582 C0.74660178,4.40932986 0.62153946,4.4610128 0.4912,4.46080065 L0.4912,4.46080065 Z" id="路径_4935"></path>
                </g>
            </g>
            <g id="组_501" transform="translate(5.636800, 35.845600)" fill-rule="nonzero">
                <g id="组_497" fill="#F1F1F1">
                    <g id="组_496">
                        <path d="M18.7632,11.9720117 C18.6769255,11.9726031 18.5920833,11.9499417 18.5176,11.9064 L1.0456,1.716 C0.88701297,1.63156146 0.787179287,1.46727679 0.785252181,1.28762127 C0.783380236,1.10796576 0.879717974,0.941606934 1.03648419,0.85383412 C1.1932504,0.766061306 1.38542999,0.770880363 1.5376,0.8664 L19.0136,11.056 C19.206123,11.1670453 19.2998963,11.3936825 19.2421166,11.6082929 C19.1843369,11.8229034 18.9894516,11.9718248 18.7672,11.9712 L18.7632,11.9720117 Z" id="路径_4936"></path>
                    </g>
                </g>
                <g id="组_498" transform="translate(20.497600, 10.026400)" fill="#5A615F">
                    <path d="M0.4912,4.46000065 C0.36086054,4.4602128 0.23579822,4.40852986 0.143634181,4.31636582 C0.0514701423,4.22420178 -0.000212799544,4.09913946 -6.54540054e-07,3.9688 L-6.54540054e-07,0.4912 C-6.54540054e-07,0.315711123 0.093622155,0.1535527 0.245599976,0.0658082527 C0.397577797,-0.0219361946 0.584822203,-0.0219361946 0.736800024,0.0658082527 C0.888777845,0.1535527 0.982400655,0.315711123 0.982400655,0.4912 L0.982400655,3.9688 C0.9826128,4.09913946 0.930929858,4.22420178 0.838765819,4.31636582 C0.74660178,4.40852986 0.62153946,4.4602128 0.4912,4.46000065 Z" id="路径_4937"></path>
                </g>
                <g id="组_499" transform="translate(22.334400, 10.915200)" fill="#F1F1F1">
                    <path d="M0.4912,4.46080065 C0.36086054,4.4610128 0.23579822,4.40932986 0.143634181,4.31716582 C0.0514701423,4.22500178 -0.000212799544,4.09993946 -6.54540054e-07,3.9696 L-6.54540054e-07,0.4912 C-6.54540054e-07,0.219917731 0.219917731,0 0.4912,0 C0.762482269,0 0.9824,0.219917731 0.9824,0.4912 L0.9824,3.9696 C0.9824,4.24088227 0.762482269,4.46080065 0.4912,4.46080065 Z" id="路径_4938"></path>
                </g>
                <g id="组_500" transform="translate(24.169600, 11.968000)" fill="#5A615F">
                    <path d="M0.4912,4.46080065 C0.219917731,4.46080065 0,4.24088227 0,3.9696 L0,0.4912 C0,0.219917731 0.219917731,9.09494702e-14 0.4912,9.09494702e-14 C0.762482269,9.09494702e-14 0.982400655,0.219917731 0.982400655,0.4912 L0.982400655,3.9696 C0.9826128,4.09993946 0.930929858,4.22500178 0.838765819,4.31716582 C0.74660178,4.40932986 0.62153946,4.4610128 0.4912,4.46080065 L0.4912,4.46080065 Z" id="路径_4939"></path>
                </g>
            </g>
        </g>
    </g>
</svg>