<?xml version="1.0" encoding="UTF-8"?>
<svg width="86px" height="98px" viewBox="0 0 86 98" version="1.1" xmlns="http://www.w3.org/2000/svg" xmlns:xlink="http://www.w3.org/1999/xlink">
    <!-- Generator: Sketch 63.1 (92452) - https://sketch.com -->
    <title>组 878</title>
    <desc>Created with Sketch.</desc>
    <defs>
        <linearGradient x1="28.4%" y1="9.96885794%" x2="62.9%" y2="73.3765817%" id="linearGradient-1">
            <stop stop-color="#FFFFFF" stop-opacity="0" offset="0%"></stop>
            <stop stop-color="#000000" offset="100%"></stop>
        </linearGradient>
        <linearGradient x1="30.8%" y1="14.282991%" x2="65.2%" y2="77.5903861%" id="linearGradient-2">
            <stop stop-color="#FFFFFF" stop-opacity="0" offset="0%"></stop>
            <stop stop-color="#000000" offset="100%"></stop>
        </linearGradient>
        <linearGradient x1="28.4%" y1="9.96885794%" x2="62.9%" y2="73.3765817%" id="linearGradient-3">
            <stop stop-color="#FFFFFF" stop-opacity="0" offset="0%"></stop>
            <stop stop-color="#000000" offset="100%"></stop>
        </linearGradient>
        <path d="M0,0 L0,38.8160566 L3.06377056,36.9869462 L4.86303816,37.28484 L4.86303816,15.4855241 L30.2562354,30.4771531 L30.2562354,59.1011379 L32.1063657,61.0745959 L30.2562354,62.1359752 L28.382793,63.2122138 L27.5089438,63.7365352 C27.3034204,63.859848 27.047279,63.8617445 26.8399582,63.7414883 L1.18255751,48.8503366 L0.268441967,48.3069103 L0.33908459,51.8370579 L35.4421104,72.4985752 L35.4421104,19.6404703 L0,0 Z" id="path-4"></path>
        <linearGradient x1="55.7%" y1="170.493733%" x2="49.6%" y2="23.0579195%" id="linearGradient-6">
            <stop stop-color="#40BA93" offset="0%"></stop>
            <stop stop-color="#40BA93" stop-opacity="0" offset="100%"></stop>
        </linearGradient>
        <linearGradient x1="51%" y1="163.237677%" x2="49.7%" y2="13.5439854%" id="linearGradient-7">
            <stop stop-color="#40BA93" offset="0%"></stop>
            <stop stop-color="#40BA93" stop-opacity="0.235" offset="76.7%"></stop>
            <stop stop-color="#40BA93" stop-opacity="0" offset="100%"></stop>
        </linearGradient>
        <linearGradient x1="54.2%" y1="156.00969%" x2="51%" y2="39.501953%" id="linearGradient-8">
            <stop stop-color="#40BA93" offset="0%"></stop>
            <stop stop-color="#40BA93" stop-opacity="0" offset="100%"></stop>
        </linearGradient>
        <polygon id="path-9" points="7.99673322 15.4850585 7.99673322 0.00350769231 22.1730198 18.2231631 22.1730198 30.7147569 7.99673322 37.3050092 0.00285495652 25.6671877 0.00285495652 22.8841846 7.99673322 23.0995569"></polygon>
        <polygon id="path-11" points="10.2863273 16.1822298 10.2863273 0 -0.000710823529 4.77539862 -0.000710823529 31.0752512 34.1593355 51.276402 50.3206193 41.2610635 40.0470868 34.2758977"></polygon>
    </defs>
    <g id="组-878" stroke="none" stroke-width="1" fill="none" fill-rule="evenodd">
        <g transform="translate(2.000000, 3.000000)">
            <g id="组_565" transform="translate(9.500000, 10.450000)">
                <g id="组_546">
                    <polygon id="路径_4991" fill="#BBBDBF" fill-rule="nonzero" points="59.5044006 67.810109 34.3768196 82.1033503 0.793316656 62.6447297 25.9208976 48.3514883"></polygon>
                    <polygon id="路径_4992" fill="#E4E7E9" fill-rule="nonzero" points="25.9208976 48.3564414 59.5044006 67.8787448 59.5044006 19.5017834 25.9208976 -0.00141517241"></polygon>
                    <polygon id="路径_4993" fill="#D0D2D3" fill-rule="nonzero" points="25.9208976 48.3564414 0.793316656 62.6496828 0.793316656 14.2748441 25.9208976 1.60886477e-13"></polygon>
                    <polygon id="路径_4994" fill="#E4E7E9" fill-rule="nonzero" points="2.43363836 41.5763503 8.70670328 37.9145917 8.70670328 33.1341393 2.43363836 36.8220786"></polygon>
                    <polygon id="路径_4995" fill="#E4E7E9" fill-rule="nonzero" points="11.280214 34.9215021 14.0600012 33.2990069 14.0600012 31.1812014 11.280214 32.8157255"></polygon>
                    <g id="组_535" transform="translate(17.565995, 25.885626)" fill-rule="nonzero">
                        <polygon id="路径_4996" fill="#E4E7E9" points="0.346855279 5.97132 5.57440938 2.92869931 5.57440938 0.206615172 0.346855279 3.26692552"></polygon>
                        <polygon id="路径_4997" fill="#C0C3E2" points="5.5722901 0.204492414 5.22543482 0 -0.00211927869 3.06031034 -0.00211927869 5.76753517 0.344736 5.97202759 0.344736 3.26480276"></polygon>
                    </g>
                    <g id="组_537" transform="translate(0.000000, 36.655796)" fill-rule="nonzero">
                        <path d="M0.714903344,23.8300883 L26.874573,38.9844621 C27.0988521,39.1148379 27.3755819,39.1152646 27.6002606,38.985581 C27.8249394,38.8558975 27.9631763,38.6158644 27.9631763,38.3561255 L27.9631763,30.3257297 C27.9635947,29.8117065 27.6902892,29.3364797 27.2461532,29.0789628 L0.909170557,13.8226966 C0.721498062,13.7139972 0.490186969,13.7138381 0.302365578,13.8222791 C0.114544186,13.9307201 -0.00141285246,14.1312874 -0.00141285246,14.3484331 L-0.00141285246,22.5896897 C-0.00101734738,23.1016436 0.272046444,23.5744906 0.714903344,23.8300883 Z" id="路径_4998" fill="#5A615F"></path>
                        <g id="组_536" transform="translate(0.274093, 0.150008)" fill="#515453">
                            <path d="M50.5123011,15.3362234 L24.1753184,0.0799572414 C24.0101418,-0.0157620281 23.8091444,-0.0262889536 23.6349024,0.0516537931 L23.6349024,0.0516537931 C23.591531,0.070788544 23.5503245,0.0945093329 23.5119842,0.122412414 L0.0642847869,13.657829 C0.245138081,13.5650202 0.460680889,13.5706175 0.636490033,13.6726883 L26.9734727,28.9289545 C27.4176086,29.1864714 27.6909142,29.6616982 27.6904953,30.1757214 L27.6904953,38.2061172 C27.6904953,38.3592178 27.6409199,38.5081885 27.5492101,38.630669 L27.5492101,38.630669 L50.790633,25.2714414 C50.8405458,25.2489809 50.8879115,25.2212265 50.9319183,25.1886538 L50.9319183,25.1886538 C51.1185915,25.0548578 51.2293237,24.8390598 51.2293237,24.6091407 L51.2293237,16.5780372 C51.2278359,16.0658228 50.9548044,15.5929588 50.5123011,15.3362234 Z" id="路径_5000"></path>
                        </g>
                        <path d="M27.9652951,30.3257297 L27.9652951,38.3575407 C27.9652951,38.5106413 27.9157197,38.659612 27.8240099,38.7820924 L27.8240099,38.7820924 L51.0654329,25.4228648 C51.1153506,25.400414 51.1627172,25.3726591 51.2067181,25.3400772 L51.2067181,25.3400772 C51.3933913,25.2062812 51.5041235,24.9904832 51.5041235,24.7605641 L51.5041235,16.7329986 C51.5001311,16.6829206 51.4935288,16.6330857 51.4843436,16.5836979 L27.7017982,29.5127131 C27.8705342,29.7503692 27.9624962,30.0341169 27.9652951,30.3257297 Z" id="路径_5001" fill="url(#linearGradient-1)" style="mix-blend-mode: multiply;"></path>
                        <path d="M2.5826943,12.7563641 L29.1902382,28.2107545 C29.2831015,28.2642889 29.3974097,28.2641959 29.490186,28.2105103 C29.5829623,28.1568246 29.6401438,28.0576841 29.6402317,27.9503628 L51.7393655,16.2044317 C51.7393655,16.0973633 51.6828805,15.9982814 51.5903075,15.9447476 L24.2367775,0.0389172414 C24.1439798,-0.0149163087 24.0295615,-0.0150852802 23.9366057,0.0384739515 C23.8436499,0.0920331832 23.7862722,0.191187549 23.7860776,0.298601379 L2.43363836,12.4980952 C2.4344705,12.6044642 2.49108406,12.7025585 2.5826943,12.7563641 L2.5826943,12.7563641 Z" id="路径_5002" fill="#221F1F" opacity="0.3"></path>
                    </g>
                    <g id="组_539" transform="translate(3.493984, 24.282236)" fill-rule="nonzero">
                        <path d="M0.716316197,23.6822028 L26.8781052,38.8365766 C27.1023843,38.9669524 27.379114,38.967379 27.6037928,38.8376955 C27.8284715,38.7080119 27.9667085,38.4679788 27.9667085,38.20824 L27.9667085,30.1771366 C27.9671269,29.6631134 27.6938213,29.1878866 27.2496854,28.9303697 L0.911996262,13.6741034 C0.724426101,13.5652944 0.493123608,13.5650961 0.305367767,13.6735834 C0.117611925,13.7820707 0.00211904079,13.982728 0.00211904079,14.19984 L0.00211904079,22.4410966 C0.00182527451,22.9528655 0.274056466,23.4259392 0.716316197,23.6822028 L0.716316197,23.6822028 Z" id="路径_5003" fill="#F1F1F1"></path>
                        <g id="组_538" transform="translate(0.274093, 0.000000)" fill="#E5E6E6">
                            <path d="M50.5123011,15.3362234 L24.1753184,0.0799572414 C24.0102571,-0.0159908769 23.8092565,-0.0267811492 23.6349024,0.0509462069 L23.6349024,0.0509462069 C23.5913474,0.0697154405 23.5501016,0.0934588542 23.5119842,0.121704828 L0.0642847869,13.6613669 C0.244858974,13.5684193 0.460266911,13.57402 0.635783607,13.6762262 L26.9734727,28.9324924 C27.4176086,29.1900094 27.6909142,29.6652361 27.6904953,30.1792593 L27.6904953,38.2103628 C27.6904953,38.3634633 27.6409199,38.512434 27.5492101,38.6349145 L27.5492101,38.6349145 L50.790633,25.2756869 C50.8406706,25.2534697 50.888062,25.2257002 50.9319183,25.1928993 L50.9319183,25.1928993 C51.1185915,25.0591033 51.2293237,24.8433053 51.2293237,24.6133862 L51.2293237,16.5822828 C51.2293237,16.0685512 50.9561119,15.5937203 50.5123011,15.3362234 L50.5123011,15.3362234 Z" id="路径_5005"></path>
                        </g>
                        <path d="M27.9638823,30.2231297 L27.9638823,38.2542331 C27.9638823,38.4073337 27.9143068,38.5563044 27.822597,38.6787848 L27.822597,38.6787848 L51.06402,25.3195572 C51.1139403,25.2971113 51.1613074,25.269356 51.2053052,25.2367697 L51.2053052,25.2367697 C51.3919784,25.1029737 51.5027107,24.8871756 51.5027107,24.6572566 L51.5027107,16.6303986 C51.4987402,16.5803183 51.4921377,16.5304823 51.4829308,16.4810979 L27.698266,29.4072828 C27.8683055,29.6454788 27.9610415,29.9303196 27.9638823,30.2231297 Z" id="路径_5006" fill="url(#linearGradient-2)" opacity="0.28" style="mix-blend-mode: multiply;"></path>
                        <path d="M1.41779744,13.4618276 L28.024635,28.9162179 C28.1173301,28.9701614 28.2317399,28.9703697 28.3246302,28.9167641 C28.4175206,28.8631586 28.4747257,28.7639141 28.4746285,28.6565338 L50.5744666,16.9106028 C50.5744666,16.8035055 50.5172287,16.7045932 50.4247043,16.6509186 L23.0711742,0.745088276 C22.9782091,0.691661572 22.863891,0.691792703 22.7710483,0.745432541 C22.6782056,0.799072379 22.6208519,0.898124572 22.6204743,1.00548 L1.26803382,13.2007283 C1.26803382,13.308331 1.32483595,13.4078999 1.41779744,13.4618276 L1.41779744,13.4618276 Z" id="路径_5007" fill="#4FBD9B" opacity="0.54"></path>
                    </g>
                    <g id="组_541" transform="translate(3.663526, 13.021709)" fill-rule="nonzero">
                        <path d="M0.714903344,23.68008 L26.8766923,38.8344538 C27.1010806,38.9648935 27.3779612,38.965253 27.6026865,38.8353966 C27.8274117,38.7055401 27.9657039,38.4652749 27.9652961,38.2054097 L27.9652961,30.1743062 C27.9652961,29.6604186 27.6913155,29.1856454 27.2468597,28.9289545 L0.909876984,13.6726883 C0.722306822,13.5638792 0.49100433,13.5636809 0.303248488,13.6721682 C0.115492647,13.7806555 -1.15523239e-07,13.9813129 -1.15523239e-07,14.1984248 L-1.15523239e-07,22.4396814 C-1.15523239e-07,22.9513434 0.272590271,23.4241227 0.714903344,23.68008 Z" id="路径_5008" fill="#4FBD9B"></path>
                        <g id="组_540" transform="translate(0.274093, 0.000000)" fill="#40BA93">
                            <path d="M50.5123011,15.3333931 L24.1739056,0.0799572414 C24.0088443,-0.0159908769 23.8078436,-0.0267811492 23.6334895,0.0509462069 L23.6334895,0.0509462069 C23.5898709,0.0695877972 23.5486107,0.093339512 23.5105713,0.121704828 L0.0628719344,13.6571214 C0.243354734,13.5637736 0.458966051,13.5693796 0.634370754,13.6719807 L26.9713534,28.9282469 C27.4155374,29.1851177 27.6891422,29.659857 27.6890825,30.1735986 L27.6890825,38.2047021 C27.6887788,38.3577531 27.6392344,38.5066304 27.5477972,38.6292538 L27.5477972,38.6292538 L50.7892202,25.2700262 C50.8392605,25.2478143 50.8866525,25.2200445 50.9305054,25.1872386 L50.9305054,25.1872386 C51.1172901,25.0532184 51.2279168,24.8371583 51.2279168,24.6070179 L51.2279168,16.5822828 C51.2293793,16.0677933 50.9565499,15.5916486 50.5123011,15.3333931 L50.5123011,15.3333931 Z" id="路径_5010"></path>
                        </g>
                        <path d="M27.79434,30.2316207 L27.79434,38.2627241 C27.79434,38.4158247 27.7447645,38.5647954 27.6530548,38.6872759 L27.6530548,38.6872759 L50.8944777,25.3280483 C50.944398,25.3056023 50.9917651,25.2778471 51.035763,25.2452607 L51.035763,25.2452607 C51.2223654,25.1110832 51.3331684,24.8951237 51.3331684,24.66504 L51.3331684,16.6339366 C51.3291427,16.5840965 51.3225405,16.5344989 51.3133885,16.4853434 L27.5287237,29.4115283 C27.699634,29.650886 27.7924158,29.9373509 27.79434,30.2316207 Z" id="路径_5011" fill="url(#linearGradient-3)" opacity="0.18" style="mix-blend-mode: multiply;"></path>
                        <path d="M2.34745436,12.7563641 L28.9542919,28.2114621 C29.0471552,28.2649965 29.1614634,28.2649035 29.2542396,28.2112178 C29.3470159,28.1575322 29.4041974,28.0583917 29.4042854,27.9510703 L51.5034172,16.2051393 C51.5034172,16.0981487 51.4467201,15.9992028 51.3543612,15.9454552 L24.0008311,0.0396248276 C23.9080334,-0.0142087225 23.7936151,-0.014377694 23.7006593,0.0391815377 C23.6077035,0.0927407694 23.5503258,0.191895135 23.5501312,0.299308966 L2.19769196,12.4959724 C2.19769196,12.6033225 2.25471174,12.7025628 2.34745436,12.7563641 L2.34745436,12.7563641 Z" id="路径_5012" fill="#221F1F" opacity="0.2"></path>
                    </g>
                    <g id="组_545">
                        <g id="组_542" transform="translate(0.793317, 0.000000)" fill="#FFFFFF" fill-rule="nonzero" opacity="0.7" stroke="#FFFFFF" stroke-width="0.5">
                            <polygon id="路径_5013" points="58.7110839 67.8129393 33.583503 82.1061807 33.583503 33.7313421 58.7110839 19.4564979"></polygon>
                            <polygon id="路径_5014" points="0 14.2748441 33.583503 33.7334648 58.7110839 19.4586207 25.127581 4.02216191e-14"></polygon>
                        </g>
                        <g id="组_544" transform="translate(0.000000, 11.904430)">
                            <g id="组_543-Clipped">
                                <mask id="mask-5" fill="white">
                                    <use xlink:href="#path-4"></use>
                                </mask>
                                <g id="路径_5016"></g>
                                <g id="组_543" mask="url(#mask-5)" fill="#FFFFFF" fill-rule="nonzero" opacity="0.7" stroke="#FFFFFF" stroke-width="0.5">
                                    <g transform="translate(0.706426, 2.122759)" id="路径_5015">
                                        <path d="M0.0868904262,0.247655172 L0.0868904262,48.623909 L33.6703934,68.0825297 L33.6703934,19.7041531 L0.0868904262,0.247655172 Z M31.3999395,63.2228276 L2.35734433,46.3978428 L2.35734433,9.89913103 L31.4013523,26.725531 L31.3999395,63.2228276 Z"></path>
                                    </g>
                                </g>
                            </g>
                        </g>
                    </g>
                </g>
                <g id="组_552" transform="translate(2.746585, 57.184287)" fill-rule="nonzero">
                    <g id="组_548" fill="#4FBD9B">
                        <g id="组_547">
                            <path d="M15.8649203,9.88215288 C15.7887637,9.88247492 15.7138989,9.86244563 15.6480474,9.8241269 L0.216872852,0.811601379 C0.00950900342,0.69143372 -0.0613371914,0.425640955 0.0586334381,0.217936587 C0.178604068,0.0102322196 0.443961096,-0.0607303505 0.651324984,0.0594372414 L16.0824995,9.07196276 C16.2525036,9.17018038 16.3353086,9.37063708 16.2842872,9.56045633 C16.2332658,9.75027559 16.0611757,9.88199401 15.8649203,9.88144138 L15.8649203,9.88215288 Z" id="路径_5017"></path>
                        </g>
                    </g>
                    <g id="组_549" transform="translate(17.395039, 8.160592)" fill="#4FBD9B">
                        <path d="M0.43657141,3.94479368 C0.321477394,3.94498132 0.211043264,3.89926865 0.129659396,3.81775115 C0.0482755281,3.73623364 0.00263779594,3.62561818 0.00282512694,3.51033517 L0.00282512694,0.434457931 C0.00282512694,0.194513441 0.197020272,0 0.43657141,0 C0.676122548,0 0.870317115,0.194513441 0.870317115,0.434457931 L0.870317115,3.51033517 C0.870317115,3.75027966 0.676122548,3.94479368 0.43657141,3.94479368 L0.43657141,3.94479368 Z" id="路径_5018"></path>
                    </g>
                    <g id="组_550" transform="translate(19.015581, 8.946720)" fill="#F1F1F1">
                        <path d="M0.433745705,3.94479368 C0.318651689,3.94498132 0.208217559,3.89926865 0.126833691,3.81775115 C0.0454498232,3.73623364 -0.000187908974,3.62561818 -5.77980308e-07,3.51033517 L-5.77980308e-07,0.434457931 C-5.77980308e-07,0.194513441 0.194194567,8.04432383e-14 0.433745705,8.04432383e-14 C0.673296843,8.04432383e-14 0.867491988,0.194513441 0.867491988,0.434457931 L0.867491988,3.51033517 C0.867679319,3.62561818 0.822041587,3.73623364 0.740657719,3.81775115 C0.659273851,3.89926865 0.548839721,3.94498132 0.433745705,3.94479368 L0.433745705,3.94479368 Z" id="路径_5019"></path>
                    </g>
                    <g id="组_551" transform="translate(20.637536, 9.877903)" fill="#4FBD9B">
                        <path d="M0.433745705,3.94550127 C0.318651689,3.94568891 0.208217559,3.89997624 0.126833691,3.81845873 C0.0454498232,3.73694123 -0.000187908974,3.62632576 -5.77980308e-07,3.51104276 L-5.77980308e-07,0.434457931 C-5.77980308e-07,0.194513441 0.194194567,4.02216191e-14 0.433745705,4.02216191e-14 C0.673296843,4.02216191e-14 0.867496595,0.194513441 0.867496595,0.434457931 L0.867496595,3.50892 C0.868055276,3.62451276 0.822606245,3.73556496 0.741201951,3.81750132 C0.659797656,3.89943768 0.54915035,3.94550127 0.433745705,3.94550127 L0.433745705,3.94550127 Z" id="路径_5020"></path>
                    </g>
                </g>
                <g id="组_558" transform="translate(5.503767, 43.869637)" fill-rule="nonzero">
                    <g id="组_554" fill="#5A615F">
                        <g id="组_553">
                            <path d="M15.8649203,9.88214903 C15.7887076,9.88214903 15.713856,9.86192193 15.6480474,9.82341931 L0.216872852,0.810186207 C0.0190769109,0.685822541 -0.0449082293,0.426922227 0.0721240927,0.224495541 C0.189156415,0.0220688546 0.445187971,-0.0512067536 0.651324984,0.0587296552 L16.083206,9.07125517 C16.2527849,9.16986755 16.3352227,9.37017363 16.2842872,9.55983904 C16.2333516,9.74950446 16.0617122,9.88135266 15.8656267,9.88144138 L15.8649203,9.88214903 Z" id="路径_5021"></path>
                        </g>
                    </g>
                    <g id="组_555" transform="translate(17.395039, 8.159884)" fill="#5A615F">
                        <path d="M0.433745705,3.94550127 C0.318651689,3.94568891 0.208217559,3.89997624 0.126833691,3.81845873 C0.0454498232,3.73694123 -0.000187908974,3.62632576 -5.77980328e-07,3.51104276 L-5.77980328e-07,0.434457931 C-5.77980328e-07,0.194513441 0.194194567,-4.02216191e-14 0.433745705,-4.02216191e-14 C0.673296843,-4.02216191e-14 0.86749141,0.194513441 0.86749141,0.434457931 L0.86749141,3.51245793 C0.866712907,3.75184958 0.672746173,3.94550127 0.433745705,3.94550127 L0.433745705,3.94550127 Z" id="路径_5022"></path>
                    </g>
                    <g id="组_556" transform="translate(19.015581, 8.946012)" fill="#4FBD9B">
                        <path d="M0.433745705,3.94550069 C0.194194567,3.94550069 0,3.75098725 0,3.51104276 L0,0.434457931 C0,0.194513441 0.194194567,8.04432383e-14 0.433745705,8.04432383e-14 C0.673296843,8.04432383e-14 0.867496595,0.194513441 0.867496595,0.434457931 L0.867496595,3.50892 C0.868055276,3.62451276 0.822606245,3.73556496 0.741201951,3.81750132 C0.659797656,3.89943768 0.54915035,3.94550069 0.433745705,3.94550069 L0.433745705,3.94550069 Z" id="路径_5023"></path>
                    </g>
                    <g id="组_557" transform="translate(20.637536, 9.878611)" fill="#5A615F">
                        <path d="M0.433745705,3.94479368 C0.318651689,3.94498132 0.208217559,3.89926865 0.126833691,3.81775115 C0.0454498232,3.73623364 -0.000187908974,3.62561818 -5.77980328e-07,3.51033517 L-5.77980328e-07,0.434457931 C-5.77980328e-07,0.194513441 0.194194567,8.04432383e-14 0.433745705,8.04432383e-14 C0.673296843,8.04432383e-14 0.86749141,0.194513441 0.86749141,0.434457931 L0.86749141,3.51033517 C0.86749141,3.62556058 0.821793333,3.73606665 0.740450234,3.81754332 C0.659107136,3.89901999 0.548782218,3.94479368 0.433745705,3.94479368 L0.433745705,3.94479368 Z" id="路径_5024"></path>
                    </g>
                </g>
                <g id="组_564" transform="translate(4.797341, 31.494662)" fill-rule="nonzero">
                    <g id="组_560" fill="#F1F1F1">
                        <g id="组_559">
                            <path d="M16.5713465,10.5897352 C16.4952466,10.5896263 16.4204925,10.5696266 16.3544736,10.5317131 L0.923299082,1.51777241 C0.783261535,1.44308799 0.69510512,1.29778102 0.693403421,1.13887882 C0.691750433,0.979976611 0.776819814,0.832835098 0.915249521,0.755201558 C1.05367923,0.677568017 1.22338011,0.68183039 1.35775121,0.766315862 L16.7896322,9.77884138 C16.9592111,9.87745376 17.0416489,10.0777598 16.9907134,10.2674253 C16.9397779,10.4570907 16.7681385,10.5889389 16.5720529,10.5890276 L16.5713465,10.5897352 Z" id="路径_5025"></path>
                        </g>
                    </g>
                    <g id="组_561" transform="translate(18.101466, 8.867470)" fill="#5A615F">
                        <path d="M0.433745705,3.94550127 C0.318651689,3.94568891 0.208217559,3.89997624 0.126833691,3.81845873 C0.0454498232,3.73694123 -0.000187908974,3.62632576 -5.77980328e-07,3.51104276 L-5.77980328e-07,0.434457931 C-5.77980328e-07,0.194513441 0.194194567,0 0.433745705,0 C0.673296843,0 0.86749141,0.194513441 0.86749141,0.434457931 L0.86749141,3.51104276 C0.86749141,3.75098725 0.673296843,3.94550127 0.433745705,3.94550127 L0.433745705,3.94550127 Z" id="路径_5026"></path>
                    </g>
                    <g id="组_562" transform="translate(19.722007, 9.653599)" fill="#F1F1F1">
                        <path d="M0.433745705,3.94550069 C0.194194567,3.94550069 0,3.75098725 0,3.51104276 L0,0.434457931 C0,0.194513441 0.194194567,4.02216191e-14 0.433745705,4.02216191e-14 C0.673296843,4.02216191e-14 0.86749141,0.194513441 0.86749141,0.434457931 L0.86749141,3.51104276 C0.86749141,3.75098725 0.673296843,3.94550069 0.433745705,3.94550069 L0.433745705,3.94550069 Z" id="路径_5027"></path>
                    </g>
                    <g id="组_563" transform="translate(21.343962, 10.586197)" fill="#5A615F">
                        <path d="M0.433745705,3.94479543 C0.318594052,3.94517065 0.208049995,3.89951879 0.126625045,3.81796014 C0.0452000939,3.73640148 -0.000376931519,3.62567591 -2.31949748e-06,3.51033517 L-2.31949748e-06,0.437288276 C-2.31949748e-06,0.197343786 0.194194567,0.00283034483 0.433745705,0.00283034483 C0.673296843,0.00283034483 0.86749141,0.197343786 0.86749141,0.437288276 L0.86749141,3.51316552 C0.866323975,3.75216614 0.672357053,3.94518586 0.433745705,3.94479543 L0.433745705,3.94479543 Z" id="路径_5028"></path>
                    </g>
                </g>
            </g>
            <ellipse id="椭圆_40" stroke="#FFFFFF" stroke-width="0.5" fill="#FFFFFF" fill-rule="nonzero" opacity="0.7" cx="40.375" cy="24.7" rx="13.775" ry="9.5"></ellipse>
            <path d="M40.375,33.1949108 C33.0248989,33.1949108 27.0211793,29.4353595 26.6222773,24.7 C26.608354,24.866153 26.6,25.0336678 26.6,25.2025446 C26.6,30.1735144 32.7673182,34.2 40.375,34.2 C47.9826818,34.2 54.15,30.1714716 54.15,25.2025446 C54.15,25.0336678 54.141646,24.8668339 54.1277227,24.7 C53.7288207,29.4360404 47.7251011,33.1949108 40.375,33.1949108 Z" id="路径_5029" stroke="#FFFFFF" stroke-width="0.5" fill="#C5CDD1" fill-rule="nonzero" opacity="0.7"></path>
            <path d="M62.5452038,10.4944215 C60.9176648,5.8067567 54.1213873,0 38.7485999,0 C23.3758126,0 18.4282653,4.41091541 16.3925929,9.01391907 C14.3569205,13.6169227 25.8017805,27.6144648 25.8017805,27.6144648 C26.5866524,31.3139422 32.5652361,34.1945545 39.8253016,34.1945545 C50.2469739,34.378817 52.4196422,29.825614 52.4196422,29.8220568 C52.4196422,29.8184996 64.1734563,15.1827977 62.5452038,10.4944215 Z" id="路径_5030" fill="url(#linearGradient-6)" fill-rule="nonzero"></path>
            <path d="M26.8869517,15.4709977 L26.6,28.4270755 C26.6,28.4270755 30.4604849,34.2 39.9200444,34.2 C49.3796039,34.2 53.2,29.3483019 53.2,29.3483019 L53.2,16.9181323 L39.9003517,11.4 L26.8869517,15.4709977 Z" id="路径_5031" fill="url(#linearGradient-7)" fill-rule="nonzero"></path>
            <g id="组_567" transform="translate(22.800000, 10.450000)" fill="#A7A9AC" fill-rule="nonzero">
                <polygon id="路径_5032" points="19.7223353 9.41112 23.6724353 14.30712 32.3387153 11.05776"></polygon>
                <polygon id="路径_5033" points="11.9777453 8.6976 6.70953706 4.46976 0 7.54632"></polygon>
                <g id="组_566" transform="translate(3.053758, 3.466080)">
                    <polygon id="路径_5034" opacity="0.7" points="8.55080471 0.7524 8.56840765 0.7452 8.53390588 0.71928"></polygon>
                    <path d="M17.2783429,10.63008 C15.8248791,11.2563115 14.2618522,11.5730773 12.6846794,11.56104 C8.01426706,11.56104 4.22822647,8.97552 4.22822647,5.78736 C4.23472677,5.0399773 4.43938228,4.30839692 4.82038941,3.67056 L4.82038941,3.67056 L0.842124706,2.68704 C0.299915955,3.62518938 0.0101051275,4.69333358 0.00211235294,5.78304 C0.00211235294,10.56672 5.68152529,14.4446907 12.6874959,14.4446907 C14.5067471,14.4490013 16.3161662,14.1717819 18.0542806,13.6224 L17.2783429,10.63008 Z" id="路径_5035"></path>
                </g>
                <path d="M24.1941865,9.25344 C24.1857519,9.99390474 23.9818896,10.7182933 23.6041359,11.35008 L25.2750071,12.81528 L27.2937124,12.81528 C28.0153219,11.7728146 28.4097196,10.5305388 28.4245253,9.25344 C28.4245253,4.46976 22.7451124,0.591066629 15.7391418,0.591066629 C13.9005597,0.586593993 12.0721387,0.869957301 10.3174359,1.43136 L13.4528718,3.69864 C14.2075966,3.55297867 14.9739085,3.47922268 15.7419582,3.47832 C20.40885,3.47904 24.1941865,6.06456 24.1941865,9.25344 Z" id="路径_5036"></path>
                <path d="M32.3380112,11.06136 L32.3380112,9.62856 C32.3380112,9.62856 25.9917988,9.0756 26.0305253,9.2448 C26.2910488,10.39248 25.4806094,4.46976 25.4806094,4.46976 L10.3146194,-4.09272616e-14 L10.3146194,1.43208 L13.7302941,2.75328 L21.1080388,2.43432 L23.7294688,5.6664 L24.5835635,9.85752 L19.7251518,7.97832 L19.7251518,9.4104 L25.2778235,12.81528 L32.3380112,11.06136 Z" id="路径_5037"></path>
                <polygon id="路径_5038" points="0 7.54704 0 6.11496 11.9777453 7.26696 11.9777453 8.69904 6.95316176 7.26696 5.71461882 10.42992 8.39026588 13.58712 21.1038141 15.66216 21.1038141 17.09424 9.46967824 15.93504 5.71250647 12.6792 3.35371235 9.18432 3.89306647 7.26624"></polygon>
            </g>
            <g id="组_569" transform="translate(22.800000, 9.500000)" fill="#E6E7E8" fill-rule="nonzero">
                <polygon id="路径_5039" points="19.7223353 8.841612 23.6724353 13.751212 32.3387153 10.492826"></polygon>
                <polygon id="路径_5040" points="11.9777453 8.128998 6.70953706 3.889414 0 6.97452"></polygon>
                <g id="组_568" transform="translate(3.053758, 2.882224)">
                    <polygon id="路径_5041" opacity="0.7" points="8.55080471 0.755934 8.56840765 0.748714 8.53390588 0.722"></polygon>
                    <path d="M17.2783429,10.66033 C15.8248907,11.2883399 14.2618559,11.6059872 12.6846794,11.593876 C8.01426706,11.593876 4.22822647,9.001174 4.22822647,5.803436 C4.23467799,5.05419677 4.43934191,4.32080362 4.82038941,3.681478 L4.82038941,3.681478 L0.842124706,2.695948 C0.299884886,3.6366898 0.0100716906,4.70780982 0.00211235294,5.800548 C0.00211235294,10.597516 5.68152529,14.4869811 12.6874959,14.4869811 C14.5067479,14.4913145 16.3161686,14.2133248 18.0542806,13.662406 L17.2783429,10.66033 Z" id="路径_5042"></path>
                </g>
                <path d="M24.1941865,8.68566 C24.1858436,9.42842212 23.9819792,10.1550798 23.6041359,10.788846 L25.2778235,12.25595 L27.2965288,12.25595 C28.0182591,11.2106509 28.4126694,9.96488477 28.4273418,8.684216 C28.4273418,3.887248 22.7479288,-0.00149698932 15.7419582,-0.00149698932 C13.9033778,-0.00595987413 12.0749601,0.278190033 10.3202524,0.84113 L13.4556882,3.114708 C14.2104114,2.96862971 14.9767244,2.89466874 15.7447747,2.893776 C20.40885,2.895942 24.1941865,5.488644 24.1941865,8.68566 Z" id="路径_5043"></path>
            </g>
            <path d="M18.2325025,10.45 C18.2325025,10.45 19.3791041,22.3131238 39.1564006,24.5633705 C60.7009942,25.6632061 63.65,11.8433151 63.65,11.8433151 L54.3929305,28.8622748 C54.3929305,28.8622748 53.3263734,33.47959 42.4361163,34.1420558 C31.5458593,34.8045216 28.1987378,29.5895625 27.1293721,28.5445761 C26.0600064,27.4995898 16.6316137,14.8870961 18.2325025,10.45 Z" id="路径_5045" fill="url(#linearGradient-8)" fill-rule="nonzero"></path>
            <g id="组_573" transform="translate(60.800000, 37.050000)">
                <g id="组_572-Clipped">
                    <mask id="mask-10" fill="white">
                        <use xlink:href="#path-9"></use>
                    </mask>
                    <g id="路径_5049"></g>
                    <g id="组_572" mask="url(#mask-10)">
                        <g transform="translate(-20.698435, -7.015385)" id="组_571">
                            <g transform="translate(0.145603, 0.491778)">
                                <path d="M35.1773468,32.4265108 C35.8675799,30.5679719 36.2228694,28.6053819 36.227257,26.6268923 C36.227257,13.2801231 20.1410045,2.40487385 0.00071373913,1.88363077 L0.00071373913,6.14828308 C16.5523242,6.66601846 29.729376,15.6358892 29.729376,26.6268923 C29.7230379,28.4538275 29.3575646,30.262344 28.6530574,31.9529723 L21.8639708,30.5905846 L21.8639708,32.4742154 L21.8639708,32.4742154 L28.0142609,39.3401723 L40.8394393,34.2456 L40.8394393,34.2456 L40.8394393,32.3619692 L35.1773468,32.4265108 Z" id="路径_5046" fill="#21887A" fill-rule="nonzero"></path>
                                <polygon id="路径_5047" fill="#4FBD9B" fill-rule="nonzero" points="21.8639708 30.5898831 28.0142609 37.4530338 40.8387256 32.3591631"></polygon>
                                <g id="组_570" fill="#4FBD9B" fill-rule="nonzero">
                                    <path d="M0,0 L0,4.26465231 C16.5516104,4.78168615 29.7286623,13.7522585 29.7286623,24.7432615 C29.7151577,27.1040536 29.1151159,29.4258639 27.9807151,31.5067938 L34.3479819,32.4622892 C35.5701627,30.0664053 36.213046,27.4255114 36.2265433,24.7453662 C36.2265433,11.3964923 20.1402908,0.521243077 0,0 Z" id="路径_5048"></path>
                                </g>
                            </g>
                        </g>
                    </g>
                </g>
            </g>
            <g id="组_576" transform="translate(0.000000, 38.950000)">
                <g id="组_575-Clipped">
                    <mask id="mask-12" fill="white">
                        <use xlink:href="#path-11"></use>
                    </mask>
                    <g id="路径_5053"></g>
                    <g id="组_575" mask="url(#mask-12)">
                        <g transform="translate(0.710824, 2.130923)" id="组_574">
                            <g transform="translate(0.281486, 0.009944)">
                                <path d="M43.9729652,40.2147803 L43.9921574,38.8460174 L43.9210751,38.8339422 L43.8336438,36.3833806 C42.040775,36.5969421 40.2369439,36.7055678 38.4313849,36.7087015 C33.1894089,36.7389535 27.9852322,35.8208819 23.0704885,33.9988777 C20.5157887,32.4475657 15.9274228,29.6660008 12.7457767,27.6615125 C10.9430692,25.9469808 9.5004269,23.8905944 8.50216024,21.6125322 C8.14674847,19.3771938 7.76290376,16.5253085 7.45440635,14.1237582 C7.81571649,11.5810094 8.7972821,9.16607592 10.3126278,7.091712 L16.3546278,8.06057169 L16.3546278,6.15268523 L13.7608327,5.73644492 L9.48949412,1.91001738 L3.58965882,4.10415785 L0.00497576471,3.52951892 L0.00497576471,5.43314354 L3.41266376,5.98008046 L1.94196988,8.03997277 C1.94196988,8.03997277 2.00949812,8.61745292 2.11541082,9.52309523 C1.2889623,11.5641379 0.859539357,13.7439269 0.850144941,15.9456974 C0.850144941,29.7966974 17.6767595,41.0245311 38.4335174,41.0245311 C40.3228864,41.0245311 42.1757664,40.9336117 43.9921574,40.7517729 L43.9729652,40.2126494 L43.9729652,40.2147803 Z" id="路径_5050" fill="#21887A" fill-rule="nonzero"></path>
                                <polygon id="路径_5051" fill="#4FBD9B" fill-rule="nonzero" points="16.3532061 6.149844 9.48807247 0 0 3.52667769"></polygon>
                                <path d="M43.8357762,34.4754942 C42.0429075,34.6890556 40.2390764,34.7976813 38.4335174,34.8008151 C21.2543344,34.8008151 7.32219318,25.5064389 7.32219318,14.0413625 C7.40008154,10.1743815 8.89394554,6.47010388 11.5210278,3.62967231 L5.22739624,2.29358354 C2.46410939,5.59255269 0.918569225,9.73983941 0.849434118,14.0413625 C0.849434118,27.8923625 17.6760487,39.1194858 38.4328066,39.1194858 C40.3221755,39.1194858 42.1750555,39.0285665 43.9914466,38.8467277 L43.8357762,34.4754942 Z" id="路径_5052" fill="#4FBD9B" fill-rule="nonzero"></path>
                            </g>
                        </g>
                    </g>
                </g>
            </g>
        </g>
    </g>
</svg>