<?xml version="1.0" encoding="UTF-8"?>
<svg width="86px" height="98px" viewBox="0 0 86 98" version="1.1" xmlns="http://www.w3.org/2000/svg" xmlns:xlink="http://www.w3.org/1999/xlink">
    <!-- Generator: Sketch 63.1 (92452) - https://sketch.com -->
    <title>组 879</title>
    <desc>Created with Sketch.</desc>
    <defs>
        <linearGradient x1="28.4%" y1="10.1%" x2="62.9%" y2="73.3%" id="linearGradient-1">
            <stop stop-color="#FFFFFF" stop-opacity="0" offset="0%"></stop>
            <stop stop-color="#000000" offset="100%"></stop>
        </linearGradient>
        <linearGradient x1="30.8%" y1="14.4%" x2="65.2%" y2="77.5%" id="linearGradient-2">
            <stop stop-color="#FFFFFF" stop-opacity="0" offset="0%"></stop>
            <stop stop-color="#000000" offset="100%"></stop>
        </linearGradient>
        <linearGradient x1="28.4%" y1="10.1%" x2="62.9%" y2="73.3%" id="linearGradient-3">
            <stop stop-color="#FFFFFF" stop-opacity="0" offset="0%"></stop>
            <stop stop-color="#000000" offset="100%"></stop>
        </linearGradient>
        <path d="M0,0 L0,40.3329292 L3.18878361,38.4352463 L5.06146792,38.744787 L5.06146792,16.0909683 L31.4915358,31.6709371 L31.4915358,61.4118402 L33.4171582,63.4624553 L31.4915358,64.5653318 L29.5416501,65.6843838 L28.6321447,66.2299401 C28.4182337,66.3583195 28.1513824,66.3600102 27.935862,66.2343516 L1.23154543,50.7617294 L0.275719127,50.1963214 L0.349244228,53.8644887 L36.8838667,75.3294065 L36.8838667,20.4061564 L0,0 Z" id="path-4"></path>
        <linearGradient x1="56.1%" y1="171.1%" x2="49.6%" y2="22.9%" id="linearGradient-6">
            <stop stop-color="#40BA93" offset="0%"></stop>
            <stop stop-color="#40BA93" stop-opacity="0" offset="100%"></stop>
        </linearGradient>
        <linearGradient x1="51%" y1="161.2%" x2="49.7%" y2="14.2%" id="linearGradient-7">
            <stop stop-color="#40BA93" offset="0%"></stop>
            <stop stop-color="#40BA93" stop-opacity="0.235" offset="76.7%"></stop>
            <stop stop-color="#40BA93" stop-opacity="0" offset="100%"></stop>
        </linearGradient>
        <linearGradient x1="54.3%" y1="154.3%" x2="51%" y2="41.1%" id="linearGradient-8">
            <stop stop-color="#40BA93" offset="0%"></stop>
            <stop stop-color="#40BA93" stop-opacity="0" offset="100%"></stop>
        </linearGradient>
    </defs>
    <g id="组-879" stroke="none" stroke-width="1" fill="none" fill-rule="evenodd">
        <g transform="translate(9.000000, -1.000000)">
            <g id="组_533" transform="translate(0.187489, 13.221284)">
                <g id="组_514">
                    <polygon id="路径_4940" fill="#BBBDBF" fill-rule="nonzero" points="61.9323979 70.4635154 35.7795197 85.3155857 0.825686879 65.096183 26.9785651 50.2441127"></polygon>
                    <polygon id="路径_4941" fill="#E4E7E9" fill-rule="nonzero" points="26.9793004 50.2470537 61.9331332 70.532629 61.9331332 20.2649882 26.9793004 -8.35883617e-14"></polygon>
                    <polygon id="路径_4942" fill="#D0D2D3" fill-rule="nonzero" points="26.9785651 50.2470537 0.825686879 65.099124 0.825686879 14.8329538 26.9785651 -8.35883617e-14"></polygon>
                    <polygon id="路径_4943" fill="#E4E7E9" fill-rule="nonzero" points="2.53293971 43.2048196 9.06490965 39.3962194 9.06490965 34.4288636 2.53588072 38.2609918"></polygon>
                    <polygon id="路径_4944" fill="#E4E7E9" fill-rule="nonzero" points="11.7404881 36.2846371 14.6337008 34.5987066 14.6337008 32.3981003 11.7404881 34.0965301"></polygon>
                    <g id="组_503" transform="translate(18.282016, 26.897688)" fill-rule="nonzero">
                        <polygon id="路径_4945" fill="#E4E7E9" points="0.361008244 6.20478323 5.80186568 3.04320391 5.80186568 0.214693294 0.361008244 3.39465389"></polygon>
                        <polygon id="路径_4946" fill="#C0C3E2" points="5.79965993 0.212487541 5.43865169 0 -0.00220575302 3.1799606 -0.00220575302 5.99303095 0.358802491 6.20551849 0.358802491 3.39244814"></polygon>
                    </g>
                    <g id="组_505" transform="translate(0.000000, 38.088943)" fill-rule="nonzero">
                        <path d="M0.744074018,24.7647244 L27.9733598,40.5115951 C28.2069039,40.6471347 28.4950823,40.6475083 28.7289771,40.5125748 C28.962872,40.3776413 29.106807,40.1279823 29.1063825,39.857957 L29.1063825,31.5106523 C29.1063825,30.9768247 28.8216748,30.4835244 28.3593665,30.2166106 L0.948473797,14.3638636 C0.753250087,14.2508004 0.512509605,14.2505944 0.317092638,14.3633232 C0.121675671,14.4760521 0.00146794815,14.6845547 0.00146794815,14.9101551 L0.00146794815,23.4736236 C0.000487056318,24.0057749 0.283596058,24.4979922 0.744074018,24.7647244 L0.744074018,24.7647244 Z" id="路径_4947" fill="#5A615F"></path>
                        <g id="组_504" transform="translate(0.285277, 0.156608)" fill="#515453">
                            <path d="M52.5733879,15.9358303 L25.1617599,0.0830833636 C24.9899635,-0.016616079 24.7807613,-0.0278282231 24.5992929,0.0529380724 L24.5992929,0.0529380724 C24.5538914,0.0723023043 24.5109469,0.0969830582 24.4713592,0.126463173 L0.0669078415,14.1918149 C0.254755,14.0948175 0.479164048,14.1006427 0.661725905,14.2072552 L28.0733539,30.0600021 C28.5356622,30.3269159 28.820431,30.8202163 28.8203689,31.3540439 L28.8203689,39.6991428 C28.8200528,39.8581778 28.7684868,40.0128758 28.6733187,40.1402934 L28.6733187,40.1402934 L52.8630768,26.2587544 C52.9151617,26.2356796 52.9644881,26.2068237 53.010127,26.17273 L53.010127,26.17273 C53.2047236,26.0336344 53.3196686,25.8090214 53.3196686,25.5698242 L53.3196686,17.2247253 C53.3177469,16.6929698 53.0336044,16.2022292 52.5733879,15.9358303 Z" id="路径_4949"></path>
                        </g>
                        <path d="M29.1063816,31.5106523 L29.1063816,39.8557513 C29.1060655,40.0147862 29.0544995,40.1694842 28.9593314,40.2969019 L28.9593314,40.2969019 L53.1490894,26.4153629 C53.2011857,26.3923103 53.2505145,26.363453 53.2961396,26.3293385 L53.2961396,26.3293385 C53.4906409,26.1901605 53.6059334,25.9656004 53.6056807,25.7264327 L53.6056807,17.3864805 C53.6017389,17.3347042 53.5951127,17.2831673 53.5858285,17.2320778 L28.8299272,30.6636432 C29.0064197,30.9111199 29.1028964,31.206708 29.1063816,31.5106523 L29.1063816,31.5106523 Z" id="路径_4950" fill="url(#linearGradient-1)" style="mix-blend-mode: multiply;"></path>
                        <path d="M2.68807768,13.2551051 L30.3805715,29.3137223 C30.47733,29.3692379 30.5963127,29.3691016 30.6929437,29.3133646 C30.7895747,29.2576276 30.8492687,29.1547027 30.8496617,29.04315 L53.8505189,16.8379833 C53.8505189,16.7264361 53.7911725,16.6233157 53.6946457,16.5674109 L25.2249915,0.0404388053 C25.128514,-0.0156136976 25.0094359,-0.0158301546 24.9127553,0.0398712308 C24.8160747,0.0955726162 24.7565354,0.19869737 24.7566366,0.310275924 L2.53292307,12.982327 C2.53178268,13.0945493 2.59103498,13.1987323 2.68807768,13.2551051 Z" id="路径_4951" fill="#221F1F" opacity="0.3"></path>
                    </g>
                    <g id="组_507" transform="translate(3.636551, 25.231609)" fill-rule="nonzero">
                        <path d="M0.744074018,24.6059101 L27.9733598,40.3557219 C28.2069039,40.4912615 28.4950823,40.4916351 28.7289771,40.3567016 C28.962872,40.2217681 29.106807,39.9721091 29.1063825,39.7020838 L29.1063825,31.3569849 C29.1063825,30.8230056 28.8212226,30.32967 28.3586313,30.0629431 L0.947003295,14.2101962 C0.751779585,14.0971329 0.511039103,14.0969269 0.315622136,14.2096558 C0.120205169,14.3223847 -1.2023701e-07,14.5308872 -1.2023701e-07,14.7564877 L-1.2023701e-07,23.3199561 C0.00115699476,23.8505718 0.284621224,24.3404719 0.744074018,24.6059101 Z" id="路径_4952" fill="#F1F1F1"></path>
                        <g id="组_506" transform="translate(0.285277, 0.000000)" fill="#E5E6E6">
                            <path d="M52.5733879,15.9358303 L25.1617599,0.0830833636 C24.9899635,-0.016616079 24.7807613,-0.0278282231 24.5992929,0.0529380724 L24.5992929,0.0529380724 C24.5538883,0.0722960927 24.5109431,0.0969772564 24.4713592,0.126463173 L0.0669078415,14.1910797 C0.254850116,14.0944981 0.479047485,14.1003178 0.661725905,14.2065199 L28.0733539,30.0592669 C28.5356622,30.3261807 28.820431,30.819481 28.8203689,31.3533086 L28.8203689,39.6984075 C28.8203689,39.857494 28.7687706,40.012289 28.6733187,40.1395581 L28.6733187,40.1395581 L52.8630768,26.2580192 C52.9151703,26.234961 52.9644984,26.206104 53.010127,26.1719948 L53.010127,26.1719948 C53.2047236,26.0328991 53.3196686,25.8082862 53.3196686,25.569089 L53.3196686,17.2298721 C53.3196686,16.6962771 53.0351914,16.2031524 52.5733879,15.9358303 Z" id="路径_4954"></path>
                        </g>
                        <path d="M29.1063816,31.4040409 L29.1063816,39.7484046 C29.1060655,39.9074396 29.0544995,40.0621376 28.9593314,40.1895552 L28.9593314,40.1895552 L53.1490894,26.3080162 C53.2011772,26.284947 53.2505042,26.2560907 53.2961396,26.2219919 L53.2961396,26.2219919 C53.4905458,26.0827318 53.6056804,25.8582243 53.6056804,25.619086 L53.6056804,17.2739871 C53.6017389,17.2222108 53.5951127,17.1706739 53.5858285,17.1195844 L28.8306624,30.5511498 C29.0080392,30.8003538 29.1043139,31.0981637 29.1063816,31.4040409 Z" id="路径_4955" fill="url(#linearGradient-2)" opacity="0.28" style="mix-blend-mode: multiply;"></path>
                        <path d="M1.47491352,13.9881504 L29.1674074,30.0467676 C29.2641052,30.1027715 29.3833487,30.102877 29.4801455,30.0470444 C29.5769423,29.9912117 29.6365576,29.88794 29.6364975,29.7761952 L52.6373549,17.5710285 C52.6373549,17.4598548 52.5783442,17.3570404 52.4822168,17.3011914 L24.0125626,0.773484058 C23.9158648,0.717480167 23.7966213,0.717374631 23.6998245,0.77320727 C23.6030277,0.829039909 23.5434124,0.932311624 23.5434724,1.04405643 L1.3190403,13.717578 C1.3190403,13.8290446 1.37860737,13.9320256 1.47491352,13.9881504 L1.47491352,13.9881504 Z" id="路径_4956" fill="#4FBD9B" opacity="0.54"></path>
                    </g>
                    <g id="组_509" transform="translate(3.813012, 13.530824)" fill-rule="nonzero">
                        <path d="M0.744074018,24.6059101 L27.9733598,40.3527809 C28.2069656,40.4878285 28.4948809,40.4879583 28.7286083,40.3531213 C28.9623358,40.2182844 29.1063816,39.9689752 29.1063816,39.6991428 L29.1063816,31.3584554 C29.1059894,30.8247495 28.8213422,30.3316599 28.3593665,30.0644136 L0.947738546,14.2116667 C0.752514836,14.0986034 0.511774354,14.0983974 0.316357387,14.2111263 C0.12094042,14.3238552 0.000735130768,14.5323577 0.000735130768,14.7579582 L0.000735130768,23.3214266 C0.00226342556,23.8513653 0.285357387,24.3405494 0.744074018,24.6059101 L0.744074018,24.6059101 Z" id="路径_4957" fill="#4FBD9B"></path>
                        <g id="组_508" transform="translate(0.284542, 0.000000)" fill="#40BA93">
                            <path d="M52.5733879,15.9358303 L25.1617599,0.0830833636 C24.9898435,-0.0163782828 24.7806447,-0.027316784 24.5992929,0.0536733234 L24.5992929,0.0536733234 C24.5538728,0.0730000587 24.5109239,0.0976832929 24.4713592,0.127198424 L0.0661725905,14.1918149 C0.254311049,14.0949641 0.478858716,14.1007857 0.661725905,14.2072552 L28.0733539,30.0629431 C28.5356125,30.3300028 28.8205602,30.8231276 28.8211042,31.3569849 L28.8211042,39.7013485 C28.8207881,39.8603835 28.7692221,40.0150815 28.674054,40.1424991 L28.674054,40.1424991 L52.863812,26.2602249 C52.9159267,26.2378078 52.9652717,26.2094344 53.0108622,26.175671 L53.0108622,26.175671 C53.2053635,26.0364931 53.3204033,25.8119329 53.3204033,25.5727652 L53.3204033,17.2306073 C53.3204033,16.6965982 53.0357016,16.2030974 52.5733879,15.9358303 L52.5733879,15.9358303 Z" id="路径_4959"></path>
                        </g>
                        <path d="M28.9299213,31.4135992 L28.9299213,39.7586981 C28.9296052,39.9177331 28.8780392,40.0724311 28.7828711,40.1998487 L28.7828711,40.1998487 L52.9726292,26.3175745 C53.0248288,26.2953275 53.0741932,26.266943 53.1196794,26.2330206 L53.1196794,26.2330206 C53.3140855,26.0937606 53.4292202,25.869253 53.4292202,25.6301148 L53.4292202,17.2857511 C53.4253336,17.2339692 53.4187071,17.1824294 53.4093683,17.1313484 L28.6542022,30.5629138 C28.8312773,30.8114378 28.9275442,31.1084532 28.9299213,31.4135992 L28.9299213,31.4135992 Z" id="路径_4960" fill="url(#linearGradient-3)" opacity="0.18" style="mix-blend-mode: multiply;"></path>
                        <path d="M2.44250384,13.2551051 L30.1349977,29.3137223 C30.2317561,29.3692379 30.3507388,29.3691016 30.4473699,29.3133646 C30.5440009,29.2576276 30.6036948,29.1547027 30.6040879,29.04315 L53.6042098,16.8379833 C53.6042098,16.7266672 53.5450952,16.6237207 53.4490718,16.5674109 L24.9801529,0.0426445583 C24.8835687,-0.0132937449 24.7644817,-0.0134693228 24.667733,0.0421839369 C24.5709843,0.0978371967 24.5112653,0.200868242 24.5110628,0.312481677 L2.28736588,12.9845328 C2.28736588,13.0958489 2.34648043,13.1987954 2.44250384,13.2551051 L2.44250384,13.2551051 Z" id="路径_4961" fill="#221F1F" opacity="0.2"></path>
                    </g>
                    <g id="组_513" transform="translate(-0.000000, -0.000000)">
                        <g id="组_510" transform="translate(0.825687, 0.000000)" fill="#FFFFFF" fill-rule="nonzero" opacity="0.7" stroke="#FFFFFF" stroke-width="0.53">
                            <polygon id="路径_4962" points="61.1067111 70.4642506 34.9538328 85.3163209 34.9538328 35.0501507 61.1067111 20.2171969"></polygon>
                            <polygon id="路径_4963" points="0 14.8329538 34.9538328 35.0523564 61.1067111 20.2194026 26.1528783 0"></polygon>
                        </g>
                        <g id="组_512" transform="translate(0.000000, 12.369863)">
                            <g id="组_511-Clipped">
                                <mask id="mask-5" fill="white">
                                    <use xlink:href="#path-4"></use>
                                </mask>
                                <g id="路径_4965"></g>
                                <g id="组_511" mask="url(#mask-5)" fill="#FFFFFF" fill-rule="nonzero" opacity="0.7" stroke="#FFFFFF" stroke-width="0.53">
                                    <g transform="translate(0.735251, 2.205753)" id="路径_4964">
                                        <path d="M0.0904358737,0.257337852 L0.0904358737,50.5242433 L35.0442687,70.743646 L35.0442687,20.4745347 L0.0904358737,0.257337852 Z M32.6811719,65.6946773 L2.45353261,48.2111437 L2.45353261,10.2861616 L32.6811719,27.76896 L32.6811719,65.6946773 Z"></path>
                                    </g>
                                </g>
                            </g>
                        </g>
                    </g>
                </g>
                <g id="组_520" transform="translate(2.858656, 59.420045)" fill-rule="nonzero">
                    <g id="组_516" fill="#4FBD9B">
                        <g id="组_515">
                            <path d="M16.5122671,10.2685155 C16.4329753,10.2690699 16.355,10.2482426 16.286545,10.208225 L0.225722059,0.844803405 C0.00989700557,0.7199375 -0.0638399733,0.443752922 0.061025897,0.227927848 C0.185891767,0.012102775 0.462076333,-0.0616342488 0.677901427,0.0632315865 L16.7394596,9.42885889 C16.9164005,9.53091658 17.0025842,9.73921061 16.949481,9.93645131 C16.8963777,10.133692 16.7172657,10.2705603 16.5130023,10.2699878 L16.5122671,10.2685155 Z" id="路径_4966"></path>
                        </g>
                    </g>
                    <g id="组_517" transform="translate(18.104821, 8.478915)" fill="#4FBD9B">
                        <path d="M0.451444117,4.09976021 C0.331653844,4.09995518 0.216713598,4.05245526 0.13200897,3.96775064 C0.0473043423,3.88304601 -0.000195576348,3.76810576 -6.01563999e-07,3.64831549 L-6.01563999e-07,0.451444117 C-6.01563999e-07,0.202118416 0.202118416,4.17941809e-14 0.451444117,4.17941809e-14 C0.700769819,4.17941809e-14 0.902888235,0.202118416 0.902888235,0.451444117 L0.902888235,3.64831549 C0.902888235,3.89764119 0.700769819,4.09976021 0.451444117,4.09976021 Z" id="路径_4967"></path>
                    </g>
                    <g id="组_518" transform="translate(19.791487, 9.296514)" fill="#F1F1F1">
                        <path d="M0.451444117,4.09902677 C0.331593856,4.09941667 0.216539197,4.05197993 0.13179181,3.96723255 C0.0470444232,3.88248516 -0.000392311704,3.7674305 -2.41414143e-06,3.64758024 L-2.41414143e-06,0.451444117 C-2.41414143e-06,0.202118416 0.202118416,0 0.451444117,0 C0.700769819,0 0.902888836,0.202118416 0.902888836,0.451444117 L0.902888836,3.64758024 C0.903083811,3.76737051 0.855583892,3.88231076 0.770879265,3.96701539 C0.686174637,4.05172001 0.571234391,4.09921993 0.451444117,4.09902677 Z" id="路径_4968"></path>
                    </g>
                    <g id="组_519" transform="translate(21.478152, 10.264104)" fill="#4FBD9B">
                        <path d="M0.451444117,4.10049727 C0.331653844,4.10069043 0.216713598,4.05319052 0.13200897,3.96848589 C0.0473043423,3.88378126 -0.000195576348,3.76884101 -6.01564041e-07,3.64905074 L-6.01564041e-07,0.452914619 C-6.01564041e-07,0.203588918 0.202118416,0.00147050201 0.451444117,0.00147050201 C0.700769819,0.00147050201 0.902890649,0.203588918 0.902890649,0.452914619 L0.902890649,3.64905074 C0.903280546,3.768901 0.855843811,3.88395566 0.771096425,3.96870305 C0.686349038,4.05345043 0.571294379,4.10088717 0.451444117,4.10049727 Z" id="路径_4969"></path>
                    </g>
                </g>
                <g id="组_526" transform="translate(4.993090, 44.850311)" fill-rule="nonzero">
                    <g id="组_522" fill="#5A615F">
                        <g id="组_521">
                            <path d="M17.2475181,11.0037704 C17.1681579,11.0040981 17.0901779,10.9830155 17.021796,10.9427407 L0.960973064,1.57784866 C0.815221472,1.50024426 0.723467953,1.34925617 0.721696819,1.1841413 C0.719976383,1.01902642 0.808516906,0.866132057 0.952595051,0.785463245 C1.0966732,0.704794433 1.27329849,0.709223454 1.41315243,0.79701209 L17.4739754,10.1619041 C17.6504737,10.264372 17.7362753,10.4725095 17.6832614,10.6695904 C17.6302475,10.8666712 17.4516046,11.0037704 17.2475181,11.0037704 L17.2475181,11.0037704 Z" id="路径_4970"></path>
                        </g>
                    </g>
                    <g id="组_523" transform="translate(18.838601, 9.214166)" fill="#5A615F">
                        <path d="M0.451444117,4.09902496 C0.331653844,4.09921993 0.216713598,4.05172001 0.13200897,3.96701539 C0.0473043423,3.88231076 -0.000195576348,3.76737051 -6.0156402e-07,3.64758024 L-6.0156402e-07,0.451444117 C-6.0156402e-07,0.202118416 0.202118416,4.17941809e-14 0.451444117,4.17941809e-14 C0.700769819,4.17941809e-14 0.902888836,0.202118416 0.902888836,0.451444117 L0.902888836,3.64758024 C0.903083811,3.76737051 0.855583892,3.88231076 0.770879265,3.96701539 C0.686174637,4.05172001 0.571234391,4.09921993 0.451444117,4.09902496 Z" id="路径_4971"></path>
                    </g>
                    <g id="组_524" transform="translate(20.526738, 10.031029)" fill="#4FBD9B">
                        <path d="M0.45364987,4.10049546 C0.333859597,4.10069043 0.218919351,4.05319052 0.134214723,3.96848589 C0.0495100953,3.88378126 0.00201017667,3.76884101 0.00220515145,3.64905074 L0.00220515145,0.452179368 C0.00220515145,0.202853667 0.204324169,0.000735251005 0.45364987,0.000735251005 C0.702975572,0.000735251005 0.905093988,0.202853667 0.905093988,0.452179368 L0.905093988,3.64905074 C0.905093988,3.76878116 0.857531262,3.88360774 0.772869067,3.96826994 C0.688206872,4.05293213 0.573380295,4.10049546 0.45364987,4.10049546 L0.45364987,4.10049546 Z" id="路径_4972"></path>
                    </g>
                    <g id="组_525" transform="translate(22.213403, 10.998620)" fill="#5A615F">
                        <path d="M0.451444117,4.09976021 C0.202118416,4.09976021 0,3.89764119 0,3.64831549 L0,0.451444117 C0,0.202118416 0.202118416,8.35883617e-14 0.451444117,8.35883617e-14 C0.700769819,8.35883617e-14 0.902888836,0.202118416 0.902888836,0.451444117 L0.902888836,3.64831549 C0.903083811,3.76810576 0.855583892,3.88304601 0.770879265,3.96775064 C0.686174637,4.05245526 0.571234391,4.09995518 0.451444117,4.09976021 L0.451444117,4.09976021 Z" id="路径_4973"></path>
                    </g>
                </g>
                <g id="组_532" transform="translate(5.728341, 33.461273)" fill-rule="nonzero">
                    <g id="组_528" fill="#F1F1F1">
                        <g id="组_527">
                            <path d="M16.5122671,10.2685194 C16.4329069,10.268847 16.3549269,10.2477645 16.286545,10.2074897 L0.225722059,0.842597652 C0.0198553187,0.713371687 -0.0467406494,0.444349037 0.0750670197,0.234007989 C0.196874689,0.023666941 0.463353269,-0.0524735548 0.677901427,0.0617610845 L16.7387244,9.42665314 C16.9152227,9.52912101 17.0010243,9.73725854 16.9480104,9.93433938 C16.8949965,10.1314202 16.7163536,10.2685194 16.5122671,10.2685194 L16.5122671,10.2685194 Z" id="路径_4974"></path>
                        </g>
                    </g>
                    <g id="组_529" transform="translate(18.103350, 8.478915)" fill="#5A615F">
                        <path d="M0.451444117,4.09902496 C0.331653844,4.09921993 0.216713598,4.05172001 0.13200897,3.96701539 C0.0473043423,3.88231076 -0.000195576348,3.76737051 -6.0156402e-07,3.64758024 L-6.0156402e-07,0.451444117 C-6.0156402e-07,0.202118416 0.202118416,0 0.451444117,0 C0.700769819,0 0.902888836,0.202118416 0.902888836,0.451444117 L0.902888836,3.64758024 C0.903083811,3.76737051 0.855583892,3.88231076 0.770879265,3.96701539 C0.686174637,4.05172001 0.571234391,4.09921993 0.451444117,4.09902496 Z" id="路径_4975"></path>
                    </g>
                    <g id="组_530" transform="translate(19.791487, 9.295778)" fill="#F1F1F1">
                        <path d="M0.45364987,4.09976021 C0.333859597,4.09995518 0.218919351,4.05245526 0.134214723,3.96775064 C0.0495100953,3.88304601 0.00201017667,3.76810576 0.00220515145,3.64831549 L0.00220515145,0.447767862 C0.00220515145,0.198442161 0.204324169,-0.00367625503 0.45364987,-0.00367625503 C0.702975572,-0.00367625503 0.905093988,0.198442161 0.905093988,0.447767862 L0.905093988,3.64463923 C0.9060742,3.76500535 0.858944552,3.88077862 0.774175882,3.96623759 C0.689407213,4.05169656 0.574019977,4.09976021 0.45364987,4.09976021 L0.45364987,4.09976021 Z" id="路径_4976"></path>
                    </g>
                    <g id="组_531" transform="translate(21.478152, 10.264839)" fill="#5A615F">
                        <path d="M0.451444117,4.09902496 C0.202118416,4.09902496 0,3.89690594 0,3.64758024 L0,0.451444117 C0,0.202118416 0.202118416,8.35883617e-14 0.451444117,8.35883617e-14 C0.700769819,8.35883617e-14 0.902888836,0.202118416 0.902888836,0.451444117 L0.902888836,3.64758024 C0.903083811,3.76737051 0.855583892,3.88231076 0.770879265,3.96701539 C0.686174637,4.05172001 0.571234391,4.09921993 0.451444117,4.09902496 L0.451444117,4.09902496 Z" id="路径_4977"></path>
                    </g>
                </g>
            </g>
            <ellipse id="椭圆_39" stroke="#FFFFFF" stroke-width="0.53" fill="#FFFFFF" fill-rule="nonzero" opacity="0.7" cx="32.7098467" cy="27.8660131" rx="14.5484116" ry="9.71487153"></ellipse>
            <path d="M32.7098467,37.5801494 C24.9470666,37.5801494 18.6062619,33.5208286 18.1849631,28.4078931 C18.1702581,28.5872943 18.1614351,28.7681661 18.1614351,28.9505083 C18.1614351,34.3178407 24.6750237,38.6653799 32.7098467,38.6653799 C40.7446697,38.6653799 47.2582584,34.3156349 47.2582584,28.9505083 C47.2582584,28.7681661 47.2494354,28.5880296 47.2347303,28.4078931 C46.8134315,33.5208286 40.4726268,37.5801494 32.7098467,37.5801494 Z" id="路径_4978" stroke="#FFFFFF" stroke-width="0.53" fill="#C5CDD1" fill-rule="nonzero" opacity="0.7"></path>
            <path d="M55.3908697,11.5779976 C53.7137622,6.40697726 46.7097611,0 30.8695135,0 C15.0292658,0 9.93324108,4.86809691 7.83262896,9.94574035 C5.73201684,15.0233838 17.528384,30.4592434 17.528384,30.4592434 C18.3371601,34.5420922 24.4963577,37.7169061 31.9790072,37.7169061 C42.7180834,37.9205706 44.9569227,32.8988062 44.9569227,32.8943947 C44.9569227,32.8899832 57.0679773,16.7490179 55.3908697,11.5779976 Z" id="路径_4979" fill="url(#linearGradient-6)" fill-rule="nonzero"></path>
            <path d="M18.1783459,18.4033327 L17.879834,31.8253398 C17.879834,31.8253398 21.9156267,37.8058714 31.8047527,37.8058714 C41.6938788,37.8058714 45.6877622,32.7804308 45.6877622,32.7804308 L45.6877622,19.9025095 L31.7841657,14.1859329 L18.1783459,18.4033327 Z" id="路径_4980" fill="url(#linearGradient-7)" fill-rule="nonzero"></path>
            <path d="M47.2464944,24.0390316 C47.2714929,23.8184563 47.2935504,23.6022925 47.2972557,23.380982 C47.2980556,23.0937071 47.2811125,22.8066561 47.2464944,22.5214735 L47.2464944,22.4428017 L47.2420829,22.4310377 C47.033202,20.8949896 46.3869655,19.4514219 45.3804273,18.272458 L44.8973674,17.1938448 L43.9525699,16.8181315 C41.1470182,14.5981749 37.7519011,13.2499445 34.1877013,12.9404177 L33.7980182,12.7852797 L32.9223343,12.8352768 C32.6208814,12.8191013 32.3223695,12.794838 32.0157698,12.788956 C30.562054,12.7642096 29.1093387,12.8796882 27.6777888,13.1337887 L21.231108,14.7704574 L17.1953153,18.4187729 L17.1953153,19.6591414 C19.7319312,17.6276429 23.586117,16.3644816 27.8851296,16.438742 C34.6494389,16.5563821 39.8219297,18.7863984 40.8204006,23.1192326 L47.0906211,24.9397141 C47.1593114,24.6538464 47.2108707,24.3641321 47.2450239,24.0721179 L47.2450239,24.0721179 L47.2464944,24.0390316 Z" id="路径_4981" fill="#A7A9AC" fill-rule="nonzero"></path>
            <path d="M44.5040081,25.5198271 L32.5194167,21.9523893 C32.0830905,21.7042259 31.6238924,21.4986332 31.1481736,21.3384547 L31.1481736,21.3384547 C30.1859709,21.0116378 29.1784109,20.8379633 28.1623193,20.823779 C26.2197238,20.734339 24.3060695,21.320178 22.7464604,22.48177 L21.2289023,23.3251029 L21.2289023,25.2816058 C21.1847872,27.810134 24.2184329,29.9136872 28.0042403,29.977654 C28.2498141,29.977654 28.492447,29.977654 28.7314035,29.962949 L28.7314035,29.962949 L28.8049286,29.9563317 C29.0144752,29.9438324 29.2210807,29.9261864 29.42401,29.9011879 L44.2907853,26.7896056 C44.5914536,26.7614238 44.8355503,26.5345059 44.88556,26.2366894 C44.9355697,25.9388729 44.7789801,25.6446712 44.5040081,25.5198271 Z" id="路径_4982" fill="#A7A9AC" fill-rule="nonzero"></path>
            <path d="M32.016505,11.550058 C25.1514664,11.4309474 19.2834281,14.3204838 17.19458,18.4202434 C19.731196,16.3887449 23.5853818,15.1255837 27.8843944,15.199844 C34.6487036,15.3174842 39.8211945,17.5467652 40.8196653,21.8803347 L47.0898859,23.7008162 C47.2168822,23.1898616 47.2861837,22.6662778 47.2964914,22.1398783 C47.3950151,16.438742 40.5542397,11.6971082 32.016505,11.550058 Z" id="路径_4983" fill="#E6E7E8" fill-rule="nonzero"></path>
            <path d="M44.5040081,25.3610129 L32.5194167,19.9936806 C32.0831008,19.7454969 31.6239007,19.5399033 31.1481736,19.379746 L31.1481736,19.379746 C30.1858719,19.0533184 29.1783738,18.8796546 28.1623193,18.8650703 C24.3765118,18.8003682 21.2722821,20.7958394 21.2296375,23.3243676 C21.186993,25.8528959 24.2191681,27.956449 28.0049755,28.0196806 C28.2505494,28.0240921 28.4931822,28.0196806 28.7321388,28.006446 L28.7321388,28.006446 L28.8056639,27.9998288 C29.0152104,27.9873295 29.221816,27.9696835 29.4247452,27.944685 L44.2915206,26.6315267 C44.5926565,26.6036388 44.837219,26.3763915 44.8871052,26.0781098 C44.9369914,25.7798281 44.7796818,25.4853696 44.5040081,25.3610129 Z" id="路径_4984" fill="#BCBEC0" fill-rule="nonzero"></path>
            <path d="M30.4871829,21.4685941 C30.2373,21.3265527 29.9743412,21.2088614 29.7019349,21.1171441 L29.7019349,21.1171441 C29.1509299,20.9305999 28.5741428,20.8313677 27.9924763,20.8230437 C25.8242211,20.7848107 24.0471194,21.9259202 24.0221208,23.3758352 C23.9971223,24.8257502 25.7337852,26.0264151 27.9005699,26.0646481 C28.0417381,26.0646481 28.1807005,26.0646481 28.3174572,26.0565604 L28.3174572,26.0565604 L28.357896,26.0565604 C28.4770067,26.0492079 28.5961174,26.0396496 28.712287,26.0256798 L39.9748619,25.4904171 C40.1315043,25.4821981 40.2606209,25.3646608 40.2834788,25.2094773 C40.3063366,25.0542939 40.2165939,24.9045195 40.068974,24.851484 L30.4871829,21.4685941 Z" id="路径_4985" fill="#E6E7E8" fill-rule="nonzero"></path>
            <path d="M9.02594134,13.143347 C9.02594134,13.143347 10.2266062,25.3882172 30.9364213,27.7108751 C53.4975984,28.8461027 56.5863879,14.5814979 56.5863879,14.5814979 L46.8943091,32.1466445 C46.8943091,32.1466445 45.7774628,36.9118062 34.3751903,37.5963249 C22.9729177,38.2808436 19.4665056,32.8966005 18.3467183,31.8187225 C17.2269311,30.7408445 7.35103955,17.7232255 9.02594134,13.143347 Z" id="路径_4987" fill="url(#linearGradient-8)" fill-rule="nonzero"></path>
            <path d="M20.6429072,16.4585938 L19.8583944,15.2461648 C18.7586485,16.1063727 17.851235,17.1873545 17.19458,18.4195082 C18.2409951,17.5993401 19.4030249,16.938544 20.6429072,16.4585938 L20.6429072,16.4585938 Z" id="路径_4988" fill="#939598" fill-rule="nonzero"></path>
            <path d="M20.6429072,16.4585938 C22.9314427,15.5750419 25.3707765,15.1479212 27.8233685,15.2013145 L28.14982,11.8110722 C25.1494787,12.2120637 22.3047714,13.3856195 19.8944217,15.2167548 L20.6429072,16.4585938 Z" id="路径_4989" fill="#BCBEC0" fill-rule="nonzero"></path>
            <path d="M28.0755596,11.8243067 L27.8226333,15.2013145 L27.8836591,15.2013145 C31.8650433,15.2696929 35.2861663,16.0769985 37.637499,17.6070558 L42.1225301,14.2793098 C39.0491575,12.5029804 35.5640676,11.5627565 32.0142993,11.5522638 C30.695991,11.5289349 29.3781424,11.6199567 28.0755596,11.8243067 Z" id="路径_4990" fill="#D1D3D4" fill-rule="nonzero"></path>
        </g>
    </g>
</svg>