<?xml version="1.0" encoding="UTF-8"?>
<svg width="86px" height="98px" viewBox="0 0 86 98" version="1.1" xmlns="http://www.w3.org/2000/svg" xmlns:xlink="http://www.w3.org/1999/xlink">
    <!-- Generator: Sketch 63.1 (92452) - https://sketch.com -->
    <title>组 880</title>
    <desc>Created with Sketch.</desc>
    <g id="组-880" stroke="none" stroke-width="1" fill="none" fill-rule="evenodd">
        <g transform="translate(3.000000, 5.000000)" fill-rule="nonzero">
            <g id="组_579" transform="translate(3.837051, 29.961585)">
                <ellipse id="椭圆_41" fill="#5A605E" transform="translate(29.739722, 18.644947) rotate(-89.346000) translate(-29.739722, -18.644947) " cx="29.7397224" cy="18.6449471" rx="18.3082598" ry="29.532672"></ellipse>
                <path d="M59.2690176,32.0598221 L59.2690176,18.9959578 C59.139625,29.0997658 45.8313523,37.1380838 29.5302758,36.9511834 C13.2291994,36.7642829 0.09265152,28.4184576 0.20846592,18.3058637 L0.20846592,31.3992806 L0.23881728,31.3992806 C0.23322624,31.5071078 0.20926464,31.6125389 0.20846592,31.7187686 C0.09265152,41.8297651 13.2220109,50.1763891 29.5302758,50.3624909 C45.8385408,50.5485926 59.1540019,42.5030861 59.2698163,32.3912909 C59.2698163,32.2770739 59.2482509,32.1676493 59.2458547,32.054231 L59.2690176,32.0598221 Z" id="路径_5054" fill="#707070"></path>
                <g id="组_578" transform="translate(3.014369, 30.266696)">
                    <path d="M5.43209472,4.93289472 L5.43209472,9.26435328 C6.52232794,9.97701533 7.65815187,10.6173671 8.83224576,11.1812813 L8.83224576,6.85142016 C7.65786627,6.28745458 6.52201128,5.64655168 5.43209472,4.93289472 L5.43209472,4.93289472 Z" id="路径_5055" fill="#FFFFFF"></path>
                    <path d="M2.51117568,7.03512576 C3.28998545,7.73438562 4.11478127,8.38066691 4.9800192,8.9696256 L4.9800192,4.63976448 C4.11477703,4.05081159 3.28998083,3.40453 2.51117568,2.70526464 L2.51117568,7.03512576 Z" id="路径_5056" fill="#FFFFFF"></path>
                    <path d="M2.05830144,2.28194304 C1.31054753,1.57925901 0.622106949,0.816016971 0,0 L0,4.32986112 C0.622430848,5.14610455 1.3108451,5.90985167 2.05830144,6.6134016 L2.05830144,2.28194304 Z" id="路径_5057" fill="#64B1BC"></path>
                </g>
            </g>
            <g id="组_581" transform="translate(0.000000, 13.402522)">
                <ellipse id="椭圆_42" fill="#E6E7E8" transform="translate(29.739722, 18.644947) rotate(-89.346000) translate(-29.739722, -18.644947) " cx="29.7397224" cy="18.6449471" rx="18.3082598" ry="29.532672"></ellipse>
                <path d="M59.2690176,32.0606208 L59.2690176,18.9967565 C59.139625,29.1005645 45.8313523,37.1372851 29.5302758,36.9519821 C13.2291994,36.766679 0.09265152,28.4176589 0.20846592,18.3066624 L0.20846592,31.4000794 L0.23881728,31.4000794 C0.23322624,31.509504 0.20926464,31.6141363 0.20846592,31.7195674 C0.09265152,41.8313626 13.2204134,50.1779866 29.5302758,50.364887 C45.8401382,50.5517875 59.1540019,42.5054822 59.2698163,32.393687 C59.2698163,32.2794701 59.2482509,32.168448 59.2458547,32.0558285 L59.2690176,32.0606208 Z" id="路径_5058" fill="#B6BDC1"></path>
                <g id="组_580" transform="translate(3.014369, 30.265897)">
                    <path d="M5.42810112,4.93449216 L5.42810112,9.26435328 C6.51795625,9.97882235 7.65381219,10.6205263 8.82825216,11.1852749 L8.82825216,6.85541376 C7.65382296,6.29064452 6.51796835,5.64894136 5.42810112,4.93449216 L5.42810112,4.93449216 Z" id="路径_5059" fill="#FFFFFF"></path>
                    <path d="M2.51117568,7.0367232 C3.2900252,7.73560094 4.11452921,8.38186265 4.97922048,8.97122304 L4.97922048,4.64136192 C4.11454594,4.05197865 3.29004342,3.4057181 2.51117568,2.70686208 L2.51117568,7.0367232 Z" id="路径_5060" fill="#FFFFFF"></path>
                    <path d="M2.056704,2.28354048 C1.30890609,1.5803249 0.620465509,0.81654856 -0.00159744,4.54019755e-14 L-0.00159744,4.33145856 C0.620863446,5.14718177 1.30927867,5.9103957 2.056704,6.6134016 L2.056704,2.28354048 Z" id="路径_5061" fill="#64B1BC"></path>
                </g>
            </g>
            <g id="组_583" transform="translate(3.837051, 0.000000)">
                <ellipse id="椭圆_43" fill="#3FD5AE" transform="translate(29.739722, 18.644947) rotate(-89.346000) translate(-29.739722, -18.644947) " cx="29.7397224" cy="18.6449471" rx="18.3082598" ry="29.532672"></ellipse>
                <path d="M59.2690176,32.0598221 L59.2690176,18.9967565 C59.139625,29.1005645 45.8313523,37.1372851 29.5302758,36.9519821 C13.2291994,36.766679 0.09265152,28.4176589 0.20846592,18.3066624 L0.20846592,31.4000794 L0.23801856,31.4000794 C0.23801856,31.5079066 0.21006336,31.6133376 0.20846592,31.7195674 C0.09265152,41.8305638 13.2204134,50.1771878 29.5302758,50.3632896 C45.8401382,50.5493914 59.1540019,42.5038848 59.2698163,32.3920896 C59.2698163,32.2778726 59.2482509,32.168448 59.2458547,32.054231 L59.2690176,32.0598221 Z" id="路径_5062" fill="#3DC9A1"></path>
                <g id="组_582" transform="translate(3.014369, 30.266696)">
                    <path d="M5.43049728,4.93289472 L5.43049728,9.26275584 C6.52104565,9.97699513 7.65741744,10.618689 8.83224576,11.1836774 L8.83224576,6.85381632 C7.65741744,6.28882787 6.52104565,5.64713401 5.43049728,4.93289472 L5.43049728,4.93289472 Z" id="路径_5063" fill="#FFFFFF"></path>
                    <path d="M2.50957824,7.03512576 C3.28889035,7.73378673 4.11364519,8.38003591 4.97842176,8.9696256 L4.97842176,4.63976448 C4.11394585,4.04976385 3.28921746,3.40353539 2.50957824,2.70526464 L2.50957824,7.03512576 Z" id="路径_5064" fill="#FFFFFF"></path>
                    <path d="M2.056704,2.28194304 C1.30941946,1.57927593 0.621508368,0.81602855 0,0 L0,4.32986112 C0.621166638,5.14617292 1.30910235,5.90944761 2.056704,6.61180416 L2.056704,2.28194304 Z" id="路径_5065" fill="#64B1BC"></path>
                </g>
            </g>
            <g id="组_586" transform="translate(43.478323, 32.474358)">
                <path d="M37.7443123,14.821847 C37.933609,26.1492941 29.4240461,39.502295 19.4719949,45.2291174 C11.5710566,49.7770291 3.22762752,44.2251264 3.22762752,31.3082266 C3.22762752,19.5822182 11.5686605,9.11099904 20.0430797,4.23161856 C28.5174989,-0.64776192 37.554217,3.4944 37.7443123,14.821847 Z" id="路径_5066" fill="#E6E7E8"></path>
                <path d="M34.8034253,15.0207283 C35.1404851,24.614953 27.7746893,37.4511821 19.4352538,42.4599552 C12.813865,46.4367821 6.29151744,41.4423859 6.09024,30.4999219 C6.1181952,21.8553754 13.0438963,11.58144 20.147712,7.3162752 C27.2515277,3.0511104 34.4655667,5.42810112 34.8034253,15.0207283 Z" id="路径_5067" fill="#D1D3D4"></path>
                <path d="M3.22762752,31.3082266 C3.22762752,19.5822182 11.5686605,9.11099904 20.0430797,4.23161856 C23.6373197,2.16133632 27.3298022,1.72044288 30.4080691,2.75638272 L28.1397043,1.49121024 C25.319424,0.3474432 20.2906829,0.5710848 16.8705638,2.51516928 C8.7539712,7.12697856 0.5271552,17.4081024 0.03115008,29.2858675 C-0.33067008,37.9599667 2.52635136,41.8345574 6.529536,43.875287 L10.7515699,46.191575 L10.7515699,46.1835878 C6.43608576,44.4903014 3.22762752,39.3153946 3.22762752,31.3082266 Z" id="路径_5068" fill="#A7A9AC"></path>
                <path d="M34.8034253,15.0207283 C34.6356941,10.2659482 32.7770726,7.28672256 30.0821914,6.00717312 C32.1524736,7.52474112 33.526272,10.2875136 33.6692429,14.3418163 C34.0071014,23.9344435 26.6405069,36.7706726 18.3018701,41.7794458 C15.6621005,43.364905 13.039104,43.5206554 10.8250522,42.4447795 C13.244375,44.2155418 16.3290317,44.3249664 19.4352538,42.4591565 C27.7762867,37.4511821 35.1404851,24.614953 34.8034253,15.0207283 Z" id="路径_5069" fill="#A7A9AC"></path>
                <path d="M0.1038336,28.1325158 C0.0718848,28.5159014 0.04632576,28.9008845 0.03035136,29.2866662 C-0.0119808,30.2922547 -0.00159744,31.2515174 0.04872192,32.1716429 L3.37219584,34.1580595 C3.27374486,33.2110587 3.22522202,32.2595311 3.2268288,31.3074278 C3.2268288,30.8665344 3.2428032,30.4288358 3.26516736,29.9935334 L0.1038336,28.1325158 Z" id="路径_5070" fill="#D1D3D4"></path>
                <path d="M1.91852544,20.2427597 C1.44876148,21.4836725 1.06055586,22.7539453 0.75638784,24.0454656 L3.81708288,25.8761318 C4.10225047,24.5672956 4.47965594,23.2802735 4.94647296,22.024704 L1.91852544,20.2427597 Z" id="路径_5071" fill="#D1D3D4"></path>
                <path d="M6.21244416,12.2915021 C5.5080601,13.2694998 4.85360447,14.2825065 4.25158656,15.3266381 L7.25956608,17.1253555 C7.86879839,16.0752552 8.53237058,15.0576357 9.24758016,14.0766413 L6.21244416,12.2915021 Z" id="路径_5072" fill="#D1D3D4"></path>
                <path d="M12.3154637,5.70845184 C11.2441096,6.61070903 10.2261518,7.5745286 9.26674944,8.59502592 L12.3018854,10.4081203 C13.2722801,9.3843826 14.3005899,8.41714196 15.3817498,7.51116288 L12.3154637,5.70845184 Z" id="路径_5073" fill="#D1D3D4"></path>
                <path d="M19.6525056,1.29951744 C18.6851176,1.60603346 17.7528797,2.01405489 16.8713626,2.51676672 C16.4320666,2.76596736 15.9927706,3.03593472 15.5534746,3.31548672 L18.5886106,5.12858112 C19.0734336,4.80909312 19.5606528,4.50957312 20.047872,4.23002112 C20.8658195,3.75777261 21.7237634,3.35846788 22.6117632,3.03673344 L19.6525056,1.29951744 Z" id="路径_5074" fill="#D1D3D4"></path>
                <path d="M4.28034048,38.5022976 L0.64376832,36.3649229 C0.927583351,37.4931002 1.36142841,38.5781158 1.93370112,39.590953 L5.84742912,41.9320013 L5.84742912,41.9280077 C5.18684045,40.8559526 4.6605313,39.7067638 4.28034048,38.5062912 L4.28034048,38.5022976 Z" id="路径_5075" fill="#D1D3D4"></path>
                <path d="M23.257129,0.818688 L25.7411482,2.30350848 C27.3112777,2.1142305 28.9037918,2.26903933 30.4080691,2.75718144 L28.1397043,1.49200896 C26.5757223,0.934507812 24.9136284,0.705300367 23.257129,0.818688 Z" id="路径_5076" fill="#D1D3D4"></path>
                <g id="组_584" transform="translate(12.007158, 15.100600)" fill="#21887A">
                    <path d="M8.4105216,15.4935706 C8.08544256,14.0303155 7.79390976,12.6365491 7.46164224,11.2515686 C7.21164288,10.2076416 6.99598848,9.11099904 5.70445824,8.9616384 C6.210048,8.17170432 6.77873664,7.4241024 7.20125952,6.60062208 C8.0107607,5.14891315 8.24320329,3.44537988 7.85221632,1.82986752 C7.78128345,1.28973528 7.46865033,0.811140138 7.00254526,0.529146571 C6.53644019,0.247153003 5.96741569,0.192345286 5.45605632,0.38019072 C4.26879171,0.701228977 3.14990665,1.23577131 2.15414784,1.95766272 C1.42331904,2.43050496 0.71645184,2.93769216 -0.00239616,3.4305024 L-0.00239616,20.1916416 L0.45686784,20.3889254 L0.44888064,19.9552205 C0.7148544,19.813847 0.9824256,19.6756685 1.25718528,19.5518669 C1.53398749,19.4460601 1.70005482,19.1620849 1.65654528,18.8689613 C1.64057088,16.705495 1.64057088,14.5414963 1.65654528,12.3769651 C1.65622647,12.1750149 1.74087134,11.9822449 1.88977152,11.8458163 C2.41858858,11.5048535 2.97020536,11.2006236 3.54072576,10.9352755 C4.63097856,10.437673 5.24120064,10.7132314 5.64135936,11.8394266 C5.72194076,12.0710699 5.78730865,12.3077283 5.83704576,12.5478912 C5.95924992,13.133353 6.0582912,13.7252045 6.19008,14.3050752 C6.349824,15.0055526 6.52394496,15.6988416 6.709248,16.4616192 L7.15493376,16.6573056 L7.21883136,16.1716838 L8.4105216,15.4935706 Z M3.71963904,9.11978496 C3.07666944,9.52553472 2.4001536,9.8801664 1.64296704,10.3098778 C1.64296704,8.23959552 1.64296704,6.27714048 1.65095424,4.31947776 C1.65509746,4.1713493 1.7229235,4.03220404 1.837056,3.9376896 C2.66558183,3.39373267 3.53292704,2.9113403 4.43209728,2.49440256 C5.41851648,2.09504256 6.09662976,2.58465792 6.28432896,3.64056576 C6.55760749,5.80807509 5.5595322,7.93943675 3.71963904,9.1173888 L3.71963904,9.11978496 Z" id="路径_5077"></path>
                    <path d="M17.8897306,1.82267904 C17.27232,0.0359424 15.8929306,-0.47683584 14.2507622,0.46086144 C12.8024449,1.32492739 11.6844024,2.64819267 11.0742528,4.22043648 C11.0207386,4.34583552 10.962432,4.46803968 10.9049242,4.59024384 L10.8186624,4.55430144 L10.768343,3.5503104 L11.1716966,2.8913664 L10.7260109,2.69568 C10.2467789,2.96484864 9.83543808,3.174912 9.45444864,3.42571008 C9.32454433,3.53556318 9.24685369,3.69500292 9.24039168,3.86500608 C9.24039168,4.63177728 9.28991232,5.39854848 9.29071104,6.16531968 C9.2997632,10.816 9.30428928,15.4661478 9.30428928,20.1157632 L9.30428928,20.7387648 L9.74997504,20.9344512 L9.88975104,20.407296 C10.1333606,20.2699162 10.368983,20.1397248 10.608599,20.0239104 C10.8656916,19.919972 11.020728,19.6561152 10.9863936,19.3809408 C10.9704192,17.4783898 10.9784064,15.5758387 10.9800038,13.6716902 C10.9800038,13.5263232 10.9935821,13.3801574 11.0039654,13.138944 C11.9424614,14.1589094 12.9208934,13.9152998 13.8929357,13.3905408 C14.2962027,13.1698665 14.6716084,12.9017195 15.0111437,12.5918208 C16.5387268,11.1476357 17.5727191,9.25906262 17.9664077,7.19407104 C18.1077811,6.56867328 18.2116147,5.9344896 18.3314227,5.30509824 L18.3314227,3.4624512 C18.1828608,2.91293184 18.0734362,2.35382784 17.8897306,1.82267904 Z M14.8697702,10.7499725 C14.4809108,11.2231896 14.0009758,11.6134933 13.458432,11.8977331 C13.0394543,12.1842385 12.5032009,12.2370116 12.0364111,12.0376754 C11.5696213,11.8383392 11.2369054,11.4144845 11.1541248,10.9137101 C11.020881,10.2244443 10.9381267,9.52637199 10.9065216,8.82505728 C10.8133451,7.07387897 11.2970617,5.3404677 12.2835149,3.89056512 C12.7382813,3.15228068 13.4267844,2.58719647 14.2395802,2.28513792 C14.8985759,2.01759614 15.6527241,2.2985805 15.9759974,2.93210112 C16.1327915,3.17779551 16.2480201,3.44765179 16.3170509,3.73082112 C16.9136186,6.16915134 16.3821952,8.74649601 14.8697702,10.7499725 Z" id="路径_5078"></path>
                </g>
                <g id="组_585" transform="translate(12.454441, 15.297085)" fill="#3FD5AE">
                    <path d="M0,3.42730752 C0.718848,2.93609472 1.42731264,2.42890752 2.156544,1.95446784 C3.1523165,1.23278194 4.27121271,0.69850494 5.45845248,0.37779456 C5.96967995,0.188991113 6.53906256,0.243265152 7.00541387,0.525252245 C7.47176518,0.807239338 7.78432562,1.28624686 7.85461248,1.82667264 C8.24559945,3.442185 8.01315686,5.14571827 7.20365568,6.5974272 C6.78193152,7.4201088 6.21484032,8.16850944 5.7068544,8.9576448 C6.99598848,9.10700544 7.2124416,10.2052454 7.4640384,11.2491725 C7.7955072,12.6325555 8.08704,14.0263219 8.41211904,15.489577 L6.71084544,16.4576256 C6.52713984,15.6972442 6.34742784,15.0039552 6.19167744,14.3010816 C6.06148608,13.7164186 5.9624448,13.1253658 5.8386432,12.5438976 C5.78957087,12.3030516 5.72419152,12.0658179 5.6429568,11.8338355 C5.2435968,10.7076403 4.63417344,10.4328806 3.5423232,10.9296845 C2.97258331,11.1955583 2.42153304,11.4997701 1.8929664,11.8402253 C1.74365454,11.9770288 1.65897156,12.1704656 1.65974016,12.3729715 C1.64376576,14.5364378 1.64376576,16.7004365 1.65974016,18.8649677 C1.70378909,19.1579984 1.53747315,19.442066 1.26038016,19.5470746 C0.83146752,19.7411635 0.42012672,19.9727923 0.00239616,20.1860506 L0,3.42730752 Z M1.64696064,10.3066829 C2.39935488,9.87697152 3.07587072,9.52233984 3.71884032,9.11659008 C5.56267826,7.93882543 6.56254186,5.80381342 6.28672512,3.63337728 C6.10062336,2.57746944 5.42171136,2.08785408 4.43449344,2.48721408 C3.53527806,2.90467172 2.66793199,3.38759847 1.83945216,3.93209856 C1.72514704,4.02604822 1.65748415,4.16516547 1.65414912,4.313088 C1.64296704,6.27554304 1.64696064,8.23799808 1.64696064,10.3066829 Z" id="路径_5079"></path>
                    <path d="M18.325033,5.30190336 C18.2036275,5.93129472 18.0997939,6.5654784 17.9592192,7.19087616 C17.5650661,9.25570095 16.5311475,11.1441393 15.0039552,12.5886259 C14.6648597,12.899068 14.2893856,13.1672639 13.8857472,13.3873459 C12.9153024,13.912105 11.9336755,14.157312 10.9951795,13.1373466 C10.9847962,13.3769626 10.9712179,13.5231283 10.9712179,13.6684954 C10.9712179,15.5726438 10.9616333,17.4751949 10.9792051,19.3777459 C11.0141175,19.6530393 10.8588884,19.9172241 10.6014106,20.0207155 C10.1804851,20.2267853 9.77872896,20.4695962 9.29949696,20.7395635 L9.29949696,20.1165619 C9.29523712,15.467479 9.29071104,10.8175974 9.28591872,6.16691712 C9.28591872,5.39854848 9.23559936,4.63177728 9.23638867,3.86500608 C9.24275668,3.69515281 9.32012942,3.53577074 9.44965632,3.42571008 C9.83064576,3.17171712 10.2427853,2.96484864 10.7212186,2.69568 L10.8146688,4.55430144 L10.902528,4.59184128 C10.9584384,4.46803968 11.016745,4.34583552 11.0702592,4.22043648 C11.681354,2.6482687 12.7998529,1.32512866 14.2483661,0.46086144 C15.8897357,-0.4752384 17.2691251,0.03753984 17.885737,1.82427648 C18.0694426,2.35702272 18.1788672,2.91452928 18.3226368,3.46165248 L18.325033,5.30190336 Z M10.9065216,8.82345984 C10.9374113,9.52483281 11.0201717,10.2229575 11.1541248,10.9121126 C11.2350972,11.413814 11.5671585,11.8391939 12.0342036,12.039518 C12.5012486,12.2398421 13.038321,12.1872495 13.4576333,11.9001293 C14.0009902,11.617125 14.481156,11.2266336 14.8689715,10.7523686 C16.3817427,8.74965157 16.9126858,6.17237723 16.3146547,3.73481472 C16.2456656,3.45163153 16.1304342,3.18176862 15.9736013,2.93609472 C15.6503978,2.3034107 14.897122,2.02283975 14.2387814,2.28993024 C13.4258402,2.59168333 12.7370685,3.15647618 12.2819174,3.89455872 C11.2983138,5.34355462 10.8158346,7.07458911 10.908119,8.82345984 L10.9065216,8.82345984 Z" id="路径_5080"></path>
                </g>
            </g>
        </g>
    </g>
</svg>