<?xml version="1.0" encoding="UTF-8"?>
<svg width="86px" height="98px" viewBox="0 0 86 98" version="1.1" xmlns="http://www.w3.org/2000/svg" xmlns:xlink="http://www.w3.org/1999/xlink">
    <!-- Generator: Sketch 63.1 (92452) - https://sketch.com -->
    <title>组 881</title>
    <desc>Created with Sketch.</desc>
    <defs>
        <radialGradient cx="47%" cy="35.1%" fx="47%" fy="35.1%" r="81.2%" id="radialGradient-1">
            <stop stop-color="#FFFFFF" offset="0%"></stop>
            <stop stop-color="#E6E7E8" offset="48.9%"></stop>
            <stop stop-color="#939598" offset="100%"></stop>
        </radialGradient>
        <radialGradient cx="53.8%" cy="31.1%" fx="53.8%" fy="31.1%" r="86.4%" id="radialGradient-2">
            <stop stop-color="#58595B" offset="0%"></stop>
            <stop stop-color="#6D6E71" offset="48.9%"></stop>
            <stop stop-color="#231F20" offset="100%"></stop>
        </radialGradient>
        <path d="M34.1660928,0 L0.532336,0.0065856 L6.23913365e-14,22.9793536 L14.5574688,31.3962992 C15.1577397,31.7427351 15.8972059,31.7427351 16.4974768,31.3962992 L34.1660928,21.2325232 L34.1660928,0 Z" id="path-3"></path>
        <radialGradient cx="48.9%" cy="32%" fx="48.9%" fy="32%" r="82.1%" id="radialGradient-5">
            <stop stop-color="#45EFBE" offset="0%"></stop>
            <stop stop-color="#3FD5AE" offset="48.9%"></stop>
            <stop stop-color="#38A588" offset="67%"></stop>
        </radialGradient>
        <radialGradient cx="48.7%" cy="34.9%" fx="48.7%" fy="34.9%" r="89.8%" id="radialGradient-6">
            <stop stop-color="#58595B" offset="0%"></stop>
            <stop stop-color="#6D6E71" offset="48.9%"></stop>
            <stop stop-color="#231F20" offset="100%"></stop>
        </radialGradient>
        <radialGradient cx="49%" cy="33.6%" fx="49%" fy="33.6%" r="74.3%" id="radialGradient-7">
            <stop stop-color="#FFFFFF" offset="0%"></stop>
            <stop stop-color="#E6E7E8" offset="48.9%"></stop>
            <stop stop-color="#939598" offset="100%"></stop>
        </radialGradient>
        <radialGradient cx="50%" cy="33.9%" fx="50%" fy="33.9%" r="71.9%" id="radialGradient-8">
            <stop stop-color="#FFFFFF" offset="0%"></stop>
            <stop stop-color="#E6E7E8" offset="48.9%"></stop>
            <stop stop-color="#939598" offset="100%"></stop>
        </radialGradient>
    </defs>
    <g id="组-881" stroke="none" stroke-width="1" fill="none" fill-rule="evenodd">
        <g transform="translate(0.000000, 12.000000)">
            <g id="组_588" transform="translate(14.081110, 4.530344)" fill="#B6BDC1" fill-rule="nonzero">
                <polygon id="路径_5081" points="0.1750672 16.3037504 -0.0005488 15.6858016 33.2918544 0.0005488 33.4674704 0.6184976"></polygon>
            </g>
            <circle id="椭圆_44" fill="url(#radialGradient-1)" fill-rule="nonzero" cx="14.1689184" cy="20.5240224" r="7.3890432"></circle>
            <circle id="椭圆_45" fill="url(#radialGradient-2)" fill-rule="nonzero" cx="47.4607728" cy="4.8393184" r="4.634616"></circle>
            <g id="组_589" transform="translate(44.652014, 6.080704)" fill="#B6BDC1" fill-rule="nonzero">
                <path d="M0.6349616,21.8334592 L0,21.7418096 L2.1463568,0.1190896 C2.403744,-0.0296352 2.6353376,-0.0746368 2.7813184,0.2107392 L0.6349616,21.8334592 Z" id="路径_5082"></path>
            </g>
            <g id="组_590" transform="translate(18.039056, 20.856595)" fill="#B6BDC1" fill-rule="nonzero">
                <path d="M26.8215024,10.1275552 L0,0.4549552 C0.05488,0.1607984 0.203056,0.0087808 0.4533088,0 L27.2737136,9.6726 L26.8215024,10.1275552 Z" id="路径_5083"></path>
            </g>
            <circle id="椭圆_46" fill="#FFFFFF" fill-rule="nonzero" opacity="0.47" cx="48.6395952" cy="3.572688" r="2.639728"></circle>
            <g id="组_599" transform="translate(18.436936, 22.780688)" fill-rule="nonzero">
                <path d="M46.571168,12.3298896 L29.37452,2.4048416 C28.4436253,1.86733485 27.2969694,1.8660803 26.3649008,2.4015488 L3.833368,15.3384112 C3.61619362,15.4633648 3.48232751,15.6948284 3.48232751,15.945384 C3.48232751,16.1959396 3.61619362,16.4274032 3.833368,16.5523568 L17.9693584,24.7245376 L26.3659984,19.9033296 C27.298067,19.3678611 28.4447229,19.3691156 29.3756176,19.9066224 L32.9466592,21.9701104 L46.5695216,14.1332464 C46.8930638,13.9484904 47.0932353,13.6046232 47.0932353,13.2320454 C47.0932353,12.8594675 46.8943724,12.5152361 46.571168,12.3298896 L46.571168,12.3298896 Z" id="路径_5084" stroke="#FFFFFF" stroke-width="0.5" fill="#FFFFFF" opacity="0.7"></path>
                <g id="组_594" transform="translate(0.000000, 16.113317)">
                    <g id="组_591" opacity="0.7" fill="#FFFFFF" stroke="#FFFFFF" stroke-width="0.5">
                        <path d="M22.5534848,30.7926192 L22.5534848,13.0976608 C22.2361283,13.0794597 21.9270563,12.9893841 21.6496112,12.8342368 L0.2540944,0.4648336 C0.089615912,0.370017612 -0.00596000693,0.18931939 0.008232,-3.11956683e-14 L-0.0005488,-3.11956683e-14 L-0.0005488,17.7465456 L0.008232,17.7465456 C0.0130750336,17.9175818 0.10609373,18.0739279 0.2540944,18.159792 L21.6496112,30.529744 C22.0104815,30.7337546 22.4238728,30.8258316 22.8372144,30.7942656 C22.7426857,30.7992085 22.6479498,30.7986588 22.5534848,30.7926192 L22.5534848,30.7926192 Z" id="路径_5085"></path>
                    </g>
                    <g id="组_593" transform="translate(5.913869, 10.352563)">
                        <g id="组_592">
                            <path d="M0.2041536,6.994456 L6.6168816,10.6121456 C6.74326419,10.6849825 6.8988795,10.6849694 7.02524986,10.6121113 C7.15162023,10.5392532 7.22960211,10.4045871 7.22989146,10.2587184 L7.22989146,4.8887104 C7.23005472,4.74312559 7.15268871,4.60846692 7.0268352,4.5352832 L0.6130096,0.9186912 C0.486803982,0.845170175 0.330913747,0.844767391 0.204329893,0.917635267 C0.0777460403,0.990503143 -0.00019527809,1.12551084 -3.6608516e-07,1.2715696 L-3.6608516e-07,6.6421264 C0.000228942423,6.78760576 0.0780515272,6.92191248 0.2041536,6.994456 L0.2041536,6.994456 Z" id="路径_5086" fill="#C6CED3"></path>
                            <path d="M8.7226272,4.0248992 C8.72259438,3.87922368 8.64474545,3.74466223 8.5184736,3.6720208 L2.1057456,0.0543312 C1.97583745,-0.0210425907 1.81473409,-0.0176553978 1.6881088,0.063112 L1.6881088,0.063112 L0.2206176,0.9148496 C0.343411097,0.847514543 0.492496213,0.849388517 0.6135584,0.9197888 L7.027384,4.5363808 C7.15323751,4.60956452 7.23060352,4.74422319 7.23044,4.889808 L7.23044,10.2592672 C7.22980371,10.3918151 7.16311268,10.515317 7.0526288,10.5885472 L7.0614096,10.5995232 L8.5140832,9.752176 L8.5217664,9.7477856 L8.594208,9.7060768 L8.5821344,9.689064 C8.66912941,9.61693372 8.7205797,9.51062982 8.723176,9.3976512 L8.7226272,4.0248992 Z" id="路径_5087" fill="#B6BDC1"></path>
                        </g>
                    </g>
                </g>
                <path d="M50.4089264,30.7157872 L50.4275856,30.7157872 L50.4275856,12.9944864 L50.4056336,12.9944864 C50.4221825,13.3666801 50.2291854,13.7168713 49.9056768,13.9016528 L23.7504176,28.9481024 C23.3869709,29.1524713 22.9706986,29.2434472 22.5551312,29.2093312 L22.5551312,46.9042896 C22.9707166,46.9386768 23.3870676,46.8476837 23.7504176,46.6430608 L49.9056768,31.5977088 C50.221835,31.4176368 50.4147375,31.0795841 50.4089264,30.7157872 L50.4089264,30.7157872 Z" id="路径_5088" stroke="#FFFFFF" stroke-width="0.5" fill="#FFFFFF" opacity="0.7"></path>
                <path d="M49.9062256,12.1608592 L29.371776,0.3067792 C28.6583169,-0.103833594 27.7802751,-0.103833594 27.066816,0.3067792 L0.2557408,15.7017168 C0.0980686524,15.7916558 0.000732267835,15.9592367 0.000732267835,16.1407568 C0.000732267835,16.3222769 0.0980686524,16.4898578 0.2557408,16.5797968 L21.6512576,28.9492 C22.30074,29.3241788 23.1009352,29.3241788 23.7504176,28.9492 L49.9062256,13.9027504 C50.2172404,13.7229938 50.4087974,13.3910298 50.4087974,13.0318048 C50.4087974,12.6725798 50.2172404,12.3406158 49.9062256,12.1608592 L49.9062256,12.1608592 Z M46.5695216,14.1305024 L24.0187808,27.1035856 C23.4185099,27.4500215 22.6790437,27.4500215 22.0787728,27.1035856 L3.8339168,16.5529056 C3.61674242,16.427952 3.48287631,16.1964884 3.48287631,15.9459328 C3.48287631,15.6953772 3.61674242,15.4639136 3.8339168,15.33896 L26.3654496,2.4020976 C27.2975182,1.8666291 28.4441741,1.86788365 29.3750688,2.4053904 L46.5717168,12.3304384 C46.8931938,12.5164178 47.0909354,12.8598664 47.0903704,13.2312631 C47.089803,13.6026598 46.8910154,13.945504 46.5689728,14.1305024 L46.5695216,14.1305024 Z" id="路径_5089" stroke="#FFFFFF" stroke-width="0.5" fill="#FFFFFF" opacity="0.7"></path>
                <g id="组_598" transform="translate(7.373677, 29.175306)" fill="#21887A">
                    <g id="组_595">
                        <path d="M3.25260652e-19,3.4278048 C-0.0116952563,3.64419524 0.097296922,3.84929487 0.2831808,3.9606896 C0.368501518,4.00865328 0.472910955,4.00753852 0.557188141,3.95776408 C0.641465327,3.90798963 0.692848887,3.81709242 0.6920368,3.7192176 C0.681187269,3.50679438 0.560325512,3.3154126 0.373184,3.2143216 C0.297337584,3.16433591 0.199824045,3.16125922 0.120977394,3.20636415 C0.0421307424,3.25146907 -0.00464413776,3.33708721 3.25260652e-19,3.4278048 Z" id="路径_5090"></path>
                        <path d="M-5.42101086e-19,0.2508016 C-0.0117387183,0.467494412 0.0972123548,0.672938974 0.2831808,0.784784 C0.368501518,0.832747681 0.472910955,0.831632921 0.557188141,0.781858475 C0.641465327,0.73208403 0.692848887,0.641186818 0.6920368,0.543312 C0.681562529,0.33049 0.560648709,0.138609549 0.373184,0.0373184 C0.297266953,-0.0122283781 0.199994741,-0.0150797724 0.12130576,0.0299349535 C0.0426167792,0.0749496793 -0.00422998135,0.160245603 -5.42101086e-19,0.2508016 L-5.42101086e-19,0.2508016 Z" id="路径_5091"></path>
                        <polygon id="路径_5092" points="0.0016464 3.465672 0.6931344 3.7214128 0.6931344 0.5136768 0.0049392 0.2941568"></polygon>
                    </g>
                    <g id="组_596" transform="translate(1.813235, 1.039427)">
                        <path d="M5.42101086e-19,3.4283536 C-0.0121688624,3.64457034 0.0964357932,3.84973594 0.2820832,3.9612384 C0.367475183,4.00976261 0.472290125,4.00894711 0.556916748,3.95910011 C0.641543372,3.9092531 0.693074928,3.81797695 0.6920368,3.7197664 C0.681557027,3.50679628 0.560388223,3.31484158 0.3726352,3.2137728 C0.296639299,3.16396344 0.199083855,3.16114786 0.120341717,3.20649127 C0.0415995781,3.25183468 -0.00493348875,3.33762317 6.23918235e-14,3.4283536 L5.42101086e-19,3.4283536 Z" id="路径_5093"></path>
                        <path d="M-5.42101086e-19,0.2508016 C-0.0123365102,0.467347983 0.0962588954,0.672918664 0.2820832,0.784784 C0.367475183,0.833308208 0.472290125,0.832492714 0.556916748,0.782645707 C0.641543372,0.7327987 0.693074928,0.641522548 0.6920368,0.543312 C0.681557027,0.330341884 0.560388223,0.13838718 0.3726352,0.0373184 C0.29687819,-0.0127920331 0.199344965,-0.0159207781 0.120532053,0.0292312434 C0.0417191415,0.074383265 -0.00491208866,0.160104017 -5.42101086e-19,0.2508016 L-5.42101086e-19,0.2508016 Z" id="路径_5094"></path>
                        <polygon id="路径_5095" points="0.0010976 3.4678672 0.6925856 3.723608 0.6925856 0.515872 0.0043904 0.296352"></polygon>
                    </g>
                    <g id="组_597" transform="translate(3.625922, 2.079403)">
                        <path d="M2.16840434e-19,3.427256 C-0.011491468,3.64389429 0.0973961912,3.84921928 0.2831808,3.9612384 C0.368501518,4.00920208 0.472910955,4.00808732 0.557188141,3.95831288 C0.641465327,3.90853843 0.692848887,3.81764122 0.6920368,3.7197664 C0.681562529,3.5069444 0.560648709,3.31506395 0.373184,3.2137728 C0.297337584,3.16378711 0.199824045,3.16071042 0.120977394,3.20581535 C0.0421307424,3.25092027 -0.00464413776,3.33653841 2.16840434e-19,3.427256 Z" id="路径_5096"></path>
                        <path d="M2.16840434e-19,0.2508016 C-0.0114472533,0.467137232 0.0974811257,0.672116798 0.2831808,0.7836864 C0.368501518,0.831650081 0.472910955,0.830535321 0.557188141,0.780760875 C0.641465327,0.73098643 0.692848887,0.640089218 0.6920368,0.5422144 C0.681187269,0.329791183 0.560325512,0.138409399 0.373184,0.0373184 C0.297337584,-0.012667295 0.199824045,-0.015743977 0.120977394,0.0293609457 C0.0421307424,0.0744658684 -0.00464413776,0.160084014 2.16840434e-19,0.2508016 Z" id="路径_5097"></path>
                        <polygon id="路径_5098" points="0.0016464 3.4678672 0.6931344 3.723608 0.6931344 0.515872 0.0049392 0.296352"></polygon>
                    </g>
                </g>
            </g>
            <g id="组_600" transform="translate(7.111899, 52.581077)" fill="#B6BDC1" fill-rule="nonzero">
                <path d="M48.6571568,14.191968 L0.0032928,0.5663616 C-0.0201591799,0.334138978 0.098520698,0.110639646 0.3040352,3.11956683e-14 L48.9562528,13.6250576 L48.6571568,14.191968 Z" id="路径_5099"></path>
            </g>
            <circle id="椭圆_47" fill="#FFFFFF" fill-rule="nonzero" opacity="0.47" cx="15.725864" cy="17.9276496" r="3.4343904"></circle>
            <g id="组_602" transform="translate(25.957691, 18.486328)">
                <g id="组_601-Clipped">
                    <mask id="mask-4" fill="white">
                        <use xlink:href="#path-3"></use>
                    </mask>
                    <g id="路径_5100"></g>
                    <g id="组_601" mask="url(#mask-4)" fill-rule="nonzero">
                        <g transform="translate(0.000000, 1.646400)">
                            <circle id="椭圆_48" fill="url(#radialGradient-5)" cx="17.3552512" cy="17.0040192" r="16.8102928"></circle>
                            <ellipse id="椭圆_49" fill="#FFFFFF" opacity="0.47" cx="22.7603824" cy="10.6368416" rx="6.3924224" ry="6.3929712"></ellipse>
                        </g>
                    </g>
                </g>
            </g>
            <g id="组_603" transform="translate(49.057232, 5.910576)" fill="#B6BDC1" fill-rule="nonzero">
                <path d="M32.2277312,34.6122672 L0,0.3901968 C0.1267728,0.120736 0.2831808,-0.0592704 0.5219088,0.0175616 L32.7501888,34.239632 L32.2277312,34.6122672 Z" id="路径_5101"></path>
            </g>
            <g id="组_604" transform="translate(58.670562, 34.040418)" fill="#B6BDC1" fill-rule="nonzero">
                <path d="M21.5464368,6.1926592 L0.101528,0.6223392 C0.01433341,0.526499377 -0.0186747524,0.393162826 0.0137385353,0.267713446 C0.0461518231,0.142264066 0.139618945,0.0416058728 0.2623264,0 L21.7072352,5.5714176 L21.5464368,6.1926592 Z" id="路径_5102"></path>
            </g>
            <g id="组_605" transform="translate(47.998048, 42.149486)" fill="#B6BDC1" fill-rule="nonzero">
                <path d="M8.0283952,24.3414752 L7.3862992,24.3414752 L6.23913365e-14,0.1887872 C0.2244592,-0.0460992 0.43904,-0.0729904 0.642096,0.1887872 L8.0283952,24.3414752 Z" id="路径_5103"></path>
            </g>
            <g id="组_606" transform="translate(15.003094, 22.728003)" fill="#B6BDC1" fill-rule="nonzero">
                <path d="M40.6243712,43.8952192 L-5.16706524e-05,0.3638544 C-0.0032928,0.0307328 0.1503712,-0.1086624 0.5822768,0.09604 L41.2071968,43.6274048 L40.6243712,43.8952192 Z" id="路径_5104"></path>
            </g>
            <g id="组_607" transform="translate(5.070363, 38.328741)" fill="#B6BDC1" fill-rule="nonzero">
                <path d="M0.3034864,13.6793888 L0,13.1141248 L27.456464,-0.0021952 C27.7615968,0.0115248 27.8730032,0.1915312 27.7599504,0.5630688 L0.3034864,13.6793888 Z" id="路径_5105"></path>
            </g>
            <circle id="椭圆_50" fill="url(#radialGradient-6)" fill-rule="nonzero" cx="5.2223808" cy="51.7249488" r="4.9046256"></circle>
            <circle id="椭圆_51" fill="url(#radialGradient-7)" fill-rule="nonzero" cx="80.2960256" cy="39.9219072" r="5.57032"></circle>
            <g id="组_608" transform="translate(55.638442, 40.399912)" fill="#B6BDC1" fill-rule="nonzero">
                <path d="M0.4538576,26.3160576 L0,25.8627488 L22.9744144,0.5630688 C23.2844864,0.4961152 23.455712,0.6179488 23.4277232,1.0169264 L0.4538576,26.3160576 Z" id="路径_5106"></path>
            </g>
            <circle id="椭圆_52" fill="url(#radialGradient-8)" fill-rule="nonzero" cx="55.9194272" cy="66.489864" r="8.4586544"></circle>
            <circle id="椭圆_53" fill="#FFFFFF" fill-rule="nonzero" opacity="0.47" cx="81.7580288" cy="39.1371232" r="2.5897872"></circle>
            <circle id="椭圆_54" fill="#FFFFFF" fill-rule="nonzero" opacity="0.47" cx="6.470352" cy="51.3720704" r="2.793392"></circle>
            <circle id="椭圆_55" fill="#FFFFFF" fill-rule="nonzero" opacity="0.47" cx="58.8006272" cy="64.6552256" r="3.5243936"></circle>
        </g>
    </g>
</svg>