<?xml version="1.0" encoding="UTF-8"?>
<svg width="86px" height="98px" viewBox="0 0 86 98" version="1.1" xmlns="http://www.w3.org/2000/svg" xmlns:xlink="http://www.w3.org/1999/xlink">
    <!-- Generator: Sketch 63.1 (92452) - https://sketch.com -->
    <title>组 883</title>
    <desc>Created with Sketch.</desc>
    <defs>
        <linearGradient x1="54.8%" y1="38.3%" x2="43.9%" y2="64.9%" id="linearGradient-1">
            <stop stop-color="#40B992" offset="0%"></stop>
            <stop stop-color="#40B992" stop-opacity="0.753" offset="12.7%"></stop>
            <stop stop-color="#40B992" stop-opacity="0.525" offset="26.8%"></stop>
            <stop stop-color="#40B992" stop-opacity="0.337" offset="41%"></stop>
            <stop stop-color="#40B992" stop-opacity="0.188" offset="55.4%"></stop>
            <stop stop-color="#40B992" stop-opacity="0.082" offset="70%"></stop>
            <stop stop-color="#40B992" stop-opacity="0.02" offset="84.7%"></stop>
            <stop stop-color="#40B992" stop-opacity="0" offset="100%"></stop>
        </linearGradient>
        <linearGradient x1="67.1%" y1="17.8%" x2="50.3%" y2="63%" id="linearGradient-2">
            <stop stop-color="#40B992" offset="0%"></stop>
            <stop stop-color="#40B992" stop-opacity="0.753" offset="12.7%"></stop>
            <stop stop-color="#40B992" stop-opacity="0.525" offset="26.8%"></stop>
            <stop stop-color="#40B992" stop-opacity="0.337" offset="41%"></stop>
            <stop stop-color="#40B992" stop-opacity="0.188" offset="55.4%"></stop>
            <stop stop-color="#40B992" stop-opacity="0.082" offset="70%"></stop>
            <stop stop-color="#40B992" stop-opacity="0.02" offset="84.7%"></stop>
            <stop stop-color="#40B992" stop-opacity="0" offset="100%"></stop>
        </linearGradient>
        <linearGradient x1="-24%" y1="50.2%" x2="152.6%" y2="48.8%" id="linearGradient-3">
            <stop stop-color="#FFFFFF" stop-opacity="0" offset="0%"></stop>
            <stop stop-color="#000000" offset="100%"></stop>
        </linearGradient>
        <linearGradient x1="142.3%" y1="18.8%" x2="1.7%" y2="69.5%" id="linearGradient-4">
            <stop stop-color="#40B992" offset="0%"></stop>
            <stop stop-color="#40B992" stop-opacity="0.753" offset="12.7%"></stop>
            <stop stop-color="#40B992" stop-opacity="0.525" offset="26.8%"></stop>
            <stop stop-color="#40B992" stop-opacity="0.337" offset="41%"></stop>
            <stop stop-color="#40B992" stop-opacity="0.188" offset="55.4%"></stop>
            <stop stop-color="#40B992" stop-opacity="0.082" offset="70%"></stop>
            <stop stop-color="#40B992" stop-opacity="0.02" offset="84.7%"></stop>
            <stop stop-color="#40B992" stop-opacity="0" offset="100%"></stop>
        </linearGradient>
    </defs>
    <g id="组-883" stroke="none" stroke-width="1" fill="none" fill-rule="evenodd">
        <g transform="translate(0.000000, 5.000000)" fill-rule="nonzero">
            <g id="组_777" transform="translate(0.000000, 0.171574)">
                <g id="组_773" transform="translate(13.151452, 40.895064)">
                    <polygon id="路径_6926" fill="url(#linearGradient-1)" points="1.4612724 2.4817212 60.3934758 36.3403152 60.6273822 46.0577124 1.5666588 13.14117"></polygon>
                    <g id="组_770">
                        <path d="M3.1320324,1.7684352 C3.18470941,2.74303801 2.69177867,3.66626189 1.8526158,4.1646906 C1.46818564,4.38621482 0.994500295,4.38463602 0.611555354,4.16055412 C0.228610412,3.93647222 -0.00480675238,3.52428691 -7.30551145e-14,3.0806244 C0.0499479545,2.12269083 0.598109329,1.26094604 1.4445648,0.809676 C1.78691309,0.58685957 2.22496805,0.573650727 2.5801195,0.775435174 C2.93527094,0.97721962 3.14817851,1.36028227 3.1320324,1.7684352 Z" id="路径_6927" fill="#525553"></path>
                        <path d="M33.9768324,19.371177 C34.0284502,20.3453659 33.5354334,21.2677924 32.6967732,21.7661472 C32.3124751,21.9874435 31.8390335,21.9857236 31.4563533,21.7616411 C31.073673,21.5375587 30.8405016,21.1255138 30.8454426,20.682081 C30.8953182,19.7248039 31.442963,18.8635923 32.2887222,18.4124178 C32.6310932,18.1892352 33.0694065,18.1758246 33.4247813,18.3776591 C33.780156,18.5794935 33.9931479,18.9628118 33.9768324,19.371177 Z" id="路径_6928" fill="#6A90CA"></path>
                        <polygon id="路径_6929" fill="#525553" points="31.352454 21.6896778 0.369495 4.0265316 2.747115 0.8919288 33.6420378 18.5049522"></polygon>
                    </g>
                    <g id="组_771" transform="translate(22.273801, 10.487875)">
                        <path d="M12.932325,4.0078962 L5.985819,0.0507654 C5.83536603,-0.0361230911 5.64538502,-0.0116518526 5.5218618,0.1105272 L7.30551619e-14,3.2592672 C0.110828411,3.21276598 0.237002562,3.22060731 0.3412206,3.280473 L7.2877266,7.2376038 C7.40650087,7.30617642 7.47990805,7.43268146 7.4805066,7.569828 L7.4805066,14.6435688 C7.48081254,14.7685388 7.41982266,14.8857162 7.3172862,14.9571576 L12.8352924,11.785284 C13.0050985,11.7417545 13.124168,11.5891554 13.125105,11.4138612 L13.125105,4.340763 C13.1247349,4.20338665 13.0512971,4.07658413 12.932325,4.0078962 L12.932325,4.0078962 Z" id="路径_6930" stroke="#FFFFFF" stroke-width="0.51" fill="#FFFFFF" opacity="0.7"></path>
                        <polygon id="路径_6931" fill="#597DB4" points="7.232463 15.0027822 7.232463 15.0027822 7.2555966 14.9899302"></polygon>
                    </g>
                    <path d="M29.6868348,18.0628434 L29.6868348,25.1372268 C29.6872281,25.2621975 29.6259079,25.379307 29.5229718,25.450173 L35.0422632,22.2795846 C35.2115594,22.2355633 35.3300064,22.083086 35.3307906,21.9081618 L35.3307906,14.8337784 C35.3265868,14.7924669 35.3157371,14.7521059 35.2986606,14.7142548 L29.492127,17.729334 C29.6120398,17.7976458 29.686297,17.9248388 29.6868348,18.0628434 Z" id="路径_6932" stroke="#FFFFFF" stroke-width="0.51" fill="#FFFFFF" opacity="0.7"></path>
                    <g id="组_772" transform="translate(31.105053, 17.600814)">
                        <path d="M3.132675,1.770363 C3.18414647,2.74451937 2.69116765,3.66687482 1.8526158,4.1653332 C1.46818564,4.38685742 0.994500295,4.38527862 0.611555354,4.16119672 C0.228610412,3.93711482 -0.00480675238,3.52492951 7.30551958e-14,3.081267 C0.050388346,2.12380098 0.598488063,1.26264075 1.4445648,0.8116038 C1.78693576,0.588421193 2.22524913,0.575010602 2.58062386,0.776845054 C2.9359986,0.978679506 3.14899051,1.36199778 3.132675,1.770363 Z" id="路径_6933" fill="#525553"></path>
                        <polygon id="路径_6934" fill="#525553" points="27.2288898 19.2863538 0.3682098 4.0271742 2.7458298 0.8925714 29.5184736 16.1016282"></polygon>
                        <path d="M29.8545534,16.9665678 C29.9064484,17.940655 29.4136585,18.8631201 28.5751368,19.361538 C28.1907066,19.5830622 27.7170213,19.5814834 27.3340764,19.3574015 C26.9511314,19.1333196 26.7177142,18.7211343 26.722521,18.2774718 C26.7719042,17.3196844 27.3202924,16.458071 28.1670858,16.0078086 C28.5094341,15.7849922 28.9474891,15.7717833 29.3026405,15.9735678 C29.6577919,16.1753522 29.8706995,16.5584149 29.8545534,16.9665678 L29.8545534,16.9665678 Z" id="路径_6935" fill="#5B615F"></path>
                    </g>
                </g>
                <polygon id="路径_6936" fill="url(#linearGradient-2)" points="26.4551994 33.1761528 0 68.1907842 53.2516194 98.7316344 82.9635156 81.6821712 73.5442848 59.083857"></polygon>
                <g id="组_774" transform="translate(17.870063, 0.000000)" opacity="0.7" stroke="#FFFFFF" stroke-width="0.51">
                    <path d="M5.1832116,12.6290178 C5.26484987,11.5828964 5.55893926,10.5644069 6.0475086,9.635787 C5.44855838,9.79230165 4.87433683,10.0315066 4.3414056,10.3465026 L4.3304814,10.3375062 L-7.30551619e-14,12.7562526 C1.65897189,12.1054141 3.49430417,12.0603613 5.1832116,12.6290178 L5.1832116,12.6290178 Z" id="路径_6937" fill="#E4EAE8"></path>
                    <path d="M61.3252458,35.869932 C61.3252458,35.869932 61.0264368,16.6812534 49.4917668,6.39387 C37.9570968,-3.8935134 30.2658174,4.08051 30.2658174,4.08051 C30.2658174,4.08051 25.8376608,-1.6990344 21.1781682,0.498015 C20.8568682,0.6470982 14.5092654,3.4141338 14.2316622,3.582495 L14.2316622,3.582495 L9.3639672,6.2441442 C9.5567472,6.1355448 9.7495272,6.0263028 9.9622278,5.9228442 C14.6230056,3.7264374 19.049877,9.5066244 19.049877,9.5066244 C19.049877,9.5066244 26.7398712,1.5306732 38.2758264,11.8199844 C49.8117816,22.1092956 50.1093054,41.2960464 50.1093054,41.2960464 C50.1093054,41.2960464 56.6856738,46.035864 56.2197888,56.2043664 C56.1060486,58.6828746 55.3747698,60.1756344 54.3363282,61.0238664 L54.3363282,61.0238664 L58.9913226,58.5530694 L58.9913226,58.5530694 C60.2925876,57.798657 67.3033536,53.641035 67.4350866,50.7776094 C67.9009716,40.6097496 61.3252458,35.869932 61.3252458,35.869932 Z" id="路径_6938" fill="#E2E8E6"></path>
                </g>
                <g id="组_775" opacity="0.7" transform="translate(13.151452, 12.246028)" fill="#BAC0C3" stroke="#FFFFFF" stroke-width="0.51">
                    <path d="M54.7353828,44.914527 L13.3718634,21.7963494 C10.2700332,20.0613294 2.6526528,7.9251858 5.8849308,1.5673014 C6.16745045,1.01578437 6.49999878,0.491364686 6.8783904,0.0006426 C4.9460922,0.134946 2.4952158,1.0628604 0.7833294,4.4294418 C-2.4489486,10.7873262 5.1684318,22.924755 8.270262,24.6584898 L49.6337814,47.7766674 C49.6337814,47.7766674 58.119957,52.7503914 60.3928332,46.8378288 C58.403332,46.5561742 56.4843259,45.9037906 54.7353828,44.914527 Z" id="路径_6939"></path>
                </g>
                <path d="M44.8264908,54.4050864 L44.8264908,54.4050864 L44.7969312,40.2087672 L40.1233014,37.7122662 L39.8983914,54.1499742 L39.8983914,54.1499742 C39.8755908,54.233864 39.8626514,54.3201267 39.8598354,54.4070142 C39.8598354,55.3156506 40.9715334,56.0527128 42.3428418,56.0527128 C43.677522,56.0527128 44.7590178,55.3516362 44.8142814,54.4770576 L44.8252056,54.4770576 L44.8264908,54.4050864 Z" id="路径_6940" fill="#5B615F"></path>
                <path d="M42.6827772,56.0270088 C43.8568074,55.9203372 44.7654438,55.273239 44.8162092,54.4738446 L44.8271334,54.4738446 L44.8271334,54.4018734 L44.7975738,40.4857278 L42.6834198,40.4857278 L42.6827772,56.0270088 Z" id="路径_6941" fill="url(#linearGradient-3)" style="mix-blend-mode: multiply;"></path>
                <path d="M21.4217136,36.9038754 L62.785233,60.022053 C62.785233,60.022053 73.6220394,66.3799374 74.0879244,56.208222 C74.5538094,46.0365066 67.977441,41.2960464 67.977441,41.2960464 C67.977441,41.2960464 67.678632,22.1080104 56.143962,11.8199844 C44.609292,1.5319584 36.9180126,9.5066244 36.9180126,9.5066244 C36.9180126,9.5066244 32.4911412,3.72708 27.8303634,5.9228442 C25.1376126,7.12330499 23.3084863,9.6905775 23.053275,12.6277326 C23.053275,12.6277326 17.1677016,10.3143726 13.934781,16.6761126 C10.7018604,23.0378526 18.3198834,35.1701406 21.4217136,36.9038754 Z" id="路径_6942" stroke="#FFFFFF" stroke-width="0.51" fill="#E4EAE8" opacity="0.7"></path>
                <g id="组_776" transform="translate(31.532382, 14.405807)">
                    <path d="M1.339821,23.1355278 L19.175184,33.087474 C19.7379083,33.4039186 20.4260024,33.3992665 20.9843965,33.0752421 C21.5427906,32.7512177 21.8882588,32.1561153 21.8927394,31.5105336 L21.8927394,13.7921238 C21.890936,12.6461792 21.2688165,11.5910351 20.2669614,11.0347272 L1.5917202,0.6123978 C1.26227019,0.427012615 0.859363652,0.429598216 0.532320049,0.619196364 C0.205276446,0.808794512 0.00282675985,1.15715422 0,1.5351714 L0,20.8613664 C0.00110065892,21.8063133 0.513814216,22.6765739 1.339821,23.1355278 Z" id="路径_6943" fill="#5AC0A5"></path>
                    <path d="M20.987316,10.557918 L2.3120748,0.1368738 C1.81768648,-0.139667971 1.19348232,0.0159609298 0.886788,0.4922316 C1.12921076,0.448439709 1.37931473,0.490957384 1.593648,0.6123978 L20.267604,11.0340846 C21.2694591,11.5903925 21.8915786,12.6455366 21.893382,13.7914812 L21.893382,31.509891 C21.8953986,31.9634028 21.723357,32.400407 21.4127172,32.730831 C22.1322035,32.4768629 22.6130941,31.7967187 22.6130941,31.0337244 L22.6130941,13.3159572 C22.6115235,12.1697824 21.9893719,11.1143379 20.987316,10.557918 Z" id="路径_6944" fill="#21877A"></path>
                    <path d="M3.0568482,22.0231872 L17.70363,30.1964166 C18.1659433,30.4562431 18.7311824,30.4522478 19.1897765,30.185912 C19.6483707,29.9195761 19.9319525,29.4306052 19.9353798,28.9002924 L19.9353798,14.3466876 C19.9338835,13.4055415 19.4229012,12.5389864 18.600057,12.0821652 L3.2637654,3.524661 C2.9930428,3.37243292 2.66200292,3.37471959 2.3934091,3.53067304 C2.12481528,3.68662648 1.95871951,3.97299132 1.956717,4.2835716 L1.956717,20.1557916 C1.95790124,20.9316331 2.37881074,21.6460975 3.0568482,22.0231872 L3.0568482,22.0231872 Z" id="路径_6945" fill="#FFFFFF"></path>
                    <path d="M18.542223,29.5975134 L3.8954412,21.4255692 C3.21831035,21.0494563 2.79748028,20.3366016 2.79531,19.5620292 L2.79531,3.6898092 C2.7953854,3.59625428 2.810798,3.50334454 2.8409346,3.41470793 C2.60793231,3.41186146 2.38341442,3.50211871 2.21726225,3.66549564 C2.05111009,3.82887257 1.9570842,4.05183847 1.9560744,4.2848568 L1.9560744,20.1570768 C1.95865344,20.9315369 2.37937058,21.6442003 3.0562056,22.0206168 L17.7029874,30.1938462 C18.3790041,30.5714591 19.2312755,30.3736898 19.6719138,29.7369576 C19.2918351,29.8431605 18.8850685,29.7929509 18.542223,29.5975134 Z" id="路径_6946" fill="#21877A"></path>
                </g>
                <path d="M49.0316652,34.1888904 C49.0008204,34.3701036 48.9828276,34.5551724 48.9378456,34.73253 C48.8423301,35.2381468 48.4845142,35.6544966 47.999007,35.82495 C47.7126316,35.9203532 47.4085759,35.950649 47.109006,35.9136288 C46.4450318,35.8370269 45.802988,35.6288378 45.2204046,35.301231 C44.4640644,34.8970356 43.7180058,34.472277 42.967449,34.0558722 C42.9366042,34.0391646 42.903189,34.0230996 42.8575644,33.9980382 L42.8575644,36.4232106 C42.8579752,36.4767459 42.8543233,36.5302353 42.8466402,36.583218 C42.8367056,36.7209923 42.7630385,36.8462358 42.6474505,36.9218659 C42.5318626,36.9974959 42.3875998,37.0148456 42.257376,36.968778 C42.0091158,36.9049121 41.7836489,36.772926 41.6064222,36.5877162 C41.3308019,36.337219 41.1416116,36.0058547 41.0659956,35.6411664 C41.0529694,35.564991 41.047374,35.4877304 41.049288,35.410473 C41.049288,32.6061666 41.049288,29.8018602 41.049288,26.9975538 C41.0482091,26.9172313 41.0561848,26.837043 41.0730642,26.7585066 C41.0932015,26.6488932 41.1567644,26.5520627 41.2493266,26.4899915 C41.3418889,26.4279203 41.4556004,26.4058728 41.5646532,26.4288528 C41.6919191,26.4484631 41.8150452,26.4890709 41.9290074,26.549019 C43.0567704,27.172341 44.188389,27.7866666 45.3026574,28.4324796 C46.5105554,29.1086385 47.5234209,30.0852037 48.243195,31.2676308 C48.6049046,31.8609466 48.8514738,32.5171563 48.9699756,33.2018568 C48.9956796,33.357366 49.011102,33.5135178 49.03038,33.6696696 L49.0316652,34.1888904 Z M42.867846,28.7010864 C42.8637653,28.7134428 42.8607554,28.7261274 42.8588496,28.7389998 C42.8588496,29.9346642 42.8588496,31.1305428 42.8588496,32.3266356 C42.8653414,32.3619527 42.8863125,32.3929433 42.9166836,32.4121014 C43.0946838,32.51556 43.2746118,32.615163 43.4564676,32.714766 C44.0765766,33.0540588 44.69283,33.3997776 45.3200076,33.730074 C45.6002128,33.8771726 45.9078293,33.9646879 46.2235032,33.987114 C46.6276274,34.0493231 47.0150656,33.8016709 47.128284,33.408774 C47.1637549,33.2921255 47.1840567,33.1713949 47.1886884,33.0495606 C47.2089496,32.577143 47.0993824,32.108204 46.8718866,31.6936746 C46.4931381,31.0051988 45.9319442,30.4344442 45.2499642,30.0441204 C44.7101802,29.7157518 44.1511182,29.418228 43.5997674,29.1084948 C43.3568646,28.9735488 43.1178174,28.839888 42.867846,28.7004438 L42.867846,28.7010864 Z" id="路径_6947" fill="#21877A"></path>
                <path d="M37.3916088,24.8082156 C37.405746,24.762591 37.4166702,24.7163238 37.4320926,24.6719844 C37.5139416,24.452683 37.752919,24.3355925 37.9763748,24.4053054 C38.2169603,24.461972 38.43729,24.5838092 38.6131914,24.7574502 C38.9050099,25.0131113 39.1055597,25.3569109 39.1844628,25.7367726 C39.1968166,25.8134545 39.2021936,25.8910984 39.2005278,25.9687512 C39.2005278,28.8000468 39.2005278,31.6315566 39.2005278,34.4632806 C39.2026937,34.5317795 39.1973062,34.6003085 39.1844628,34.6676274 C39.1667833,34.7869953 39.0996051,34.893381 38.9994279,34.960655 C38.8992507,35.0279291 38.775356,35.0498586 38.6581734,35.0210574 C38.3973068,34.9695988 38.1583389,34.8398029 37.9731618,34.648992 C37.6750872,34.3864117 37.474836,34.0305355 37.4051034,33.6394674 C37.4014746,33.6311442 37.3967176,33.6233599 37.3909662,33.6163338 L37.3916088,24.8082156 Z" id="路径_6948" fill="#21877A"></path>
                <path d="M35.381556,62.4035286 L42.328062,66.3606594 C42.4472935,66.4294979 42.5941841,66.4295356 42.7134509,66.3607583 C42.8327178,66.2919811 42.9062609,66.1648267 42.906402,66.02715 L42.906402,58.9534092 C42.9058035,58.8162627 42.8323963,58.6897576 42.713622,58.621185 L35.767116,54.6640542 C35.6478845,54.5952157 35.5009939,54.595178 35.3817271,54.6639553 C35.2624602,54.7327325 35.1889171,54.8598869 35.188776,54.9975636 L35.188776,62.0713044 C35.1893745,62.2084509 35.2627817,62.334956 35.381556,62.4035286 L35.381556,62.4035286 Z" id="路径_6949" stroke="#FFFFFF" stroke-width="0.51" fill="#FFFFFF" opacity="0.7"></path>
                <path d="M39.185748,25.7367726 C39.1065799,25.3570126 38.9060761,25.0132919 38.6144766,24.7574502 C38.561576,24.7110988 38.5057705,24.6681716 38.4474006,24.6289302 C38.4294078,24.6237894 38.4159132,24.6141504 38.3966352,24.6102948 C38.1734769,24.5398659 37.93431,24.6569051 37.8529956,24.8763312 C37.8369306,24.9213132 37.8260064,24.968223 37.8118692,25.0125624 L37.8118692,33.8206806 C37.8176842,33.8276613 37.822447,33.835455 37.8260064,33.8438142 C37.8959681,34.2351293 38.0964295,34.5912031 38.3947074,34.8539814 C38.4497147,34.8999446 38.5072071,34.9428493 38.5669242,34.9825014 C38.5996968,34.9914978 38.6254008,35.0101332 38.6594586,35.0165592 C38.7767322,35.0455681 38.9008023,35.023739 39.0011322,34.9564446 C39.101462,34.8891502 39.1687339,34.7826401 39.1863906,34.6631292 C39.1992134,34.5958075 39.2046007,34.5272808 39.2024556,34.4587824 C39.2024556,31.62663 39.2024556,28.7951202 39.2024556,25.964253 C39.2036395,25.8880809 39.1980482,25.8119544 39.185748,25.7367726 L39.185748,25.7367726 Z" id="路径_6950" fill="#5AC0A5"></path>
                <path d="M48.2438376,31.2682734 C47.5240635,30.0858463 46.511198,29.1092811 45.3033,28.4331222 C44.2886346,27.8445006 43.2585468,27.2841534 42.2310294,26.7180228 C42.1520572,26.6826327 42.0695583,26.6557074 41.9849136,26.6376978 C41.8760476,26.6146927 41.7625044,26.6365679 41.6699779,26.6983732 C41.5774513,26.7601785 41.5137629,26.8566894 41.4933246,26.9660664 C41.4764241,27.0448168 41.4684484,27.1252203 41.4695484,27.2057562 C41.4695484,30.0092058 41.4695484,32.8130838 41.4695484,35.6173902 C41.4676747,35.6946466 41.4732699,35.7719034 41.486256,35.8480836 C41.5615767,36.2132498 41.7507935,36.5451104 42.0266826,36.7959186 C42.0921868,36.855513 42.1617553,36.9104808 42.234885,36.9604242 C42.2425962,36.9604242 42.2483796,36.9674928 42.2580186,36.9694206 C42.3882424,37.0154882 42.5325052,36.9981385 42.6480931,36.9225085 C42.7636811,36.8468784 42.8373482,36.7216349 42.8472828,36.5838606 C42.8548888,36.5308697 42.8585403,36.4773862 42.858207,36.4238532 L42.858207,33.9986808 C42.9051168,34.0237422 42.9372468,34.0398072 42.967449,34.0565148 L43.2778248,34.2287316 L43.2778248,34.2068832 C43.3247346,34.2319446 43.356222,34.2480096 43.3870668,34.2647172 C44.1254142,34.6740534 44.8605486,35.0917434 45.605322,35.4901554 C46.0792285,35.7142244 46.587231,35.8575684 47.1083634,35.9142714 C47.407939,35.9507953 47.7118856,35.9205104 47.9983644,35.8255926 C48.4840262,35.6553657 48.8419347,35.2389083 48.937203,34.7331726 C48.982185,34.555815 49.001463,34.3707462 49.0310226,34.189533 L49.0310226,33.6709548 C49.011102,33.514803 48.9963222,33.3586512 48.9706182,33.203142 C48.8521941,32.5182191 48.6056224,31.8617845 48.2438376,31.2682734 L48.2438376,31.2682734 Z M47.5472592,33.617619 C47.4342847,34.0106979 47.0466654,34.2584659 46.6424784,34.195959 C46.3264185,34.1745729 46.0183816,34.0870002 45.7383402,33.938919 C45.6477336,33.8913666 45.5584122,33.8406012 45.4678056,33.7917636 C45.418968,33.7699152 45.3662748,33.7570632 45.3187224,33.7320018 C44.6947578,33.4017054 44.0785044,33.0559866 43.4551824,32.7166938 C43.2752544,32.6170908 43.0940412,32.5174878 42.9153984,32.4140292 C42.8850273,32.3948711 42.8640562,32.3638805 42.8575644,32.3285634 C42.8575644,31.1320422 42.8575644,29.9361636 42.8575644,28.7409276 C42.8588569,28.7280632 42.8614403,28.7153614 42.8652756,28.7030142 C43.0066476,28.7826966 43.1422362,28.8585234 43.27911,28.9337076 L43.2848934,28.9099314 C43.5348648,29.0500182 43.7758398,29.1823938 44.0168148,29.3179824 C44.5681656,29.6283582 45.1278702,29.9252394 45.6670116,30.253608 C46.3487668,30.6442232 46.9098903,31.2149062 47.288934,31.9031622 C47.5163062,32.3177389 47.6258653,32.7866429 47.6057358,33.2590482 C47.6017467,33.3805894 47.5820922,33.5011079 47.5472592,33.617619 L47.5472592,33.617619 Z" id="路径_6951" fill="#5AC0A5"></path>
            </g>
            <path d="M51.4677618,28.9247112 C51.4611145,28.349253 51.260771,27.7928186 50.8990608,27.3452004 L50.8990608,27.3092148 L50.8515084,27.281583 C50.6526585,27.0319173 50.4092941,26.8212338 50.1337242,26.6601888 L34.7974326,18.1026846 C34.6659098,18.0286029 34.5171902,17.9904811 34.366248,17.9921044 L0.0012852,36.4457016 L0.0012852,68.363001 L23.085405,81.600561 L51.231285,44.2699992 C51.3861984,44.0333716 51.4684048,43.7566442 51.4684048,43.4738178 L51.4677618,28.9247112 Z" id="路径_6952" fill="url(#linearGradient-4)"></path>
        </g>
    </g>
</svg>