<?xml version="1.0" encoding="UTF-8"?>
<svg width="86px" height="98px" viewBox="0 0 86 98" version="1.1" xmlns="http://www.w3.org/2000/svg" xmlns:xlink="http://www.w3.org/1999/xlink">
    <!-- Generator: Sketch 63.1 (92452) - https://sketch.com -->
    <title>组 884</title>
    <desc>Created with Sketch.</desc>
    <defs>
        <linearGradient x1="0%" y1="50%" x2="100%" y2="50%" id="linearGradient-1">
            <stop stop-color="#FFFFFF" stop-opacity="0" offset="0%"></stop>
            <stop stop-color="#000000" offset="100%"></stop>
        </linearGradient>
        <path d="M0,12.9134127 L0.0210803472,5.38636872 L3.06413047,3.54625841 C3.36197537,3.70742106 4.7294779,3.16613215 6.26970326,2.25763718 C7.9112503,1.29066126 9.11079006,0.285604704 8.9496274,0.013600224 C8.9496274,0.0081601344 8.93466716,0.0074801232 8.93058709,0.0027200448 L19.0267134,5.47613019 L20.3037744,6.05549974 C20.0487702,6.98031497 20.9021843,8.257376 22.3635283,9.03870887 C23.9540745,9.88804286 25.6459424,9.82208177 26.1430306,8.89250646 C26.1650362,8.84047271 26.1829964,8.78681943 26.1967515,8.73202382 L30.0884556,10.7428169 L29.9565334,29.024238 L0,12.9134127 Z" id="path-2"></path>
        <linearGradient x1="100%" y1="54%" x2="-9.3%" y2="42.5%" id="linearGradient-4">
            <stop stop-color="#FFFFFF" stop-opacity="0" offset="24.1%"></stop>
            <stop stop-color="#000000" offset="100%"></stop>
        </linearGradient>
        <linearGradient x1="39.8%" y1="31.9%" x2="113.3%" y2="97.9%" id="linearGradient-5">
            <stop stop-color="#FFFFFF" stop-opacity="0" offset="0%"></stop>
            <stop stop-color="#000000" offset="100%"></stop>
        </linearGradient>
        <path d="M0,0 L0.218963606,37.1782523 L3.26201373,35.3422221 C3.55985863,35.5033848 4.92736116,34.9607358 6.46758652,34.0536009 C8.10913356,33.0852649 9.30867332,32.0815684 9.14751066,31.8054838 C9.14751066,31.8000438 9.13255042,31.8000438 9.12847035,31.7952837 L19.2286767,37.2652938 L20.5057377,37.8460233 C20.2507335,38.7708386 21.1041476,40.0478996 22.5654917,40.8285525 C24.1560379,41.6785665 25.8479057,41.6132854 26.3449939,40.6830301 C26.3671318,40.6308133 26.385095,40.5769236 26.3987148,40.5218674 L30.2897389,42.5326605 L30.9479897,12.7726504 L0,0 Z" id="path-6"></path>
    </defs>
    <g id="组-884" stroke="none" stroke-width="1" fill="none" fill-rule="evenodd">
        <g transform="translate(0.000000, -5.000000)">
            <path d="M84.4913916,88.8176229 C84.3615095,88.8094627 84.2282273,88.7979025 84.0942651,88.7863423 C80.4902057,91.9919151 73.3215276,87.7581654 73.3215276,87.7581654 L67.8508375,84.6756746 L26.5741577,61.4192916 C23.0680199,59.4472591 14.4597582,45.6178713 18.1127783,38.375072 C18.4826128,37.6370946 18.9318078,36.9416405 19.4524004,36.3010379 L19.2293567,35.5088248 C18.3903796,35.5088248 17.5618362,35.6948298 16.8030768,36.0528338 C13.7540408,37.433995 11.6892974,40.3549086 11.4044678,43.6900396 C11.4044678,43.6900396 4.75327829,41.0563562 1.09957811,48.2984755 C-2.55412207,55.5405948 6.05481972,69.3672625 9.56095747,71.342695 L56.3076474,97.6788488 C56.3076474,97.6788488 63.2995226,101.810597 66.9443826,98.8294278 L66.9981035,98.8749885 L83.2673714,89.8049991 C83.3782133,89.7451581 83.484295,89.678517 83.5910568,89.6091559 L83.9310624,89.4017525 L83.911342,89.3840722 C84.1211194,89.2128442 84.3152356,89.0232794 84.4913916,88.8176229 L84.4913916,88.8176229 Z" id="路径_6953" stroke="#FFFFFF" stroke-width="0.5247" fill="#BAC0C3" fill-rule="nonzero" opacity="0.7"></path>
            <path d="M20.4540569,77.4852362 L56.3090074,97.6849689 C56.3090074,97.6849689 56.6966138,97.9114126 57.3215441,98.2160576 L65.0498714,99.7338426 C65.7421006,99.5830179 66.3906199,99.2757388 66.9457426,98.8355479 L66.9994635,98.8811086 L83.2707715,89.8036391 C83.3816133,89.7437981 83.4876951,89.677157 83.5944568,89.6064358 L83.9344624,89.4024325 L83.9133821,89.3847522 C84.1224192,89.213876 84.3156428,89.0245215 84.4907116,88.8189829 C84.3608294,88.8108227 84.2261872,88.7992626 84.093585,88.7877024 C80.4895257,91.9932752 73.3208476,87.7595254 73.3208476,87.7595254 L67.8501575,84.6770347 L45.6967526,72.191349 L33.5639928,70.8422068 L20.4540569,77.4852362 Z" id="路径_6954" fill="#231F20" fill-rule="nonzero" opacity="0.08" style="mix-blend-mode: multiply;"></path>
            <path d="M79.1907043,66.4262141 C79.1907043,66.4262141 78.8506987,44.567254 65.816244,32.847941 C52.7817893,21.128628 44.0892062,30.2142576 44.0892062,30.2142576 C44.0892062,30.2142576 39.0856838,23.6303892 33.821037,26.1341904 C30.7720011,27.5153517 28.7072577,30.4362652 28.4224281,33.7713962 C28.4224281,33.7713962 21.7712386,31.1377128 18.1175384,38.3805121 C14.4638382,45.6233114 23.07278,59.4492991 26.5789178,61.4247317 L73.3222076,87.7608854 C73.3222076,87.7608854 85.5685293,95.0030047 86.094858,83.4156139 C86.6211867,71.828223 79.1907043,66.4262141 79.1907043,66.4262141 Z" id="路径_6955" stroke="#FFFFFF" stroke-width="0.5247" fill="#BAC0C3" fill-rule="nonzero" opacity="0.7"></path>
            <path d="M79.1913843,66.8621012 C79.1913843,66.8621012 78.8513787,45.0031412 65.816924,33.2838282 C52.7824693,21.5645152 44.0898862,30.6501448 44.0898862,30.6501448 C44.0898862,30.6501448 39.0856838,24.0662764 33.8217171,26.5700776 C30.7726811,27.9512389 28.7079377,30.8721524 28.4231081,34.2072834 C28.4231081,34.2072834 25.2821364,31.3070356 21.7719186,34.0209603 L19.3293184,35.5129049 C23.5664681,35.5414654 27.081446,40.1431012 27.081446,40.1431012 C27.081446,40.1431012 35.7726692,31.0574715 48.8084839,42.7767845 C61.8442986,54.4960976 62.1781841,76.3550576 62.1781841,76.3550576 C62.1781841,76.3550576 69.6093465,81.7536665 69.0823378,93.3417374 C68.9538157,96.172624 68.123522,97.873332 66.9457426,98.8375879 L66.9994635,98.8831486 L83.2707715,89.8077192 C83.3809333,89.7478782 83.4876951,89.6812371 83.5937768,89.6118759 L83.9337824,89.4044725 L83.9140621,89.3867922 C85.1149619,88.4293365 85.9642959,86.7184283 86.093498,83.8521811 C86.6218667,72.2607102 79.1913843,66.8621012 79.1913843,66.8621012 Z" id="路径_6956" stroke="#FFFFFF" stroke-width="0.5247" fill="#C5CDD1" fill-rule="nonzero"></path>
            <path d="M55.1244279,91.012019 L28.3007061,76.1755346 C27.4176932,75.6697851 26.8726826,74.7301265 26.8726826,73.7125341 L26.8726826,46.507326 C26.8726826,45.4942244 27.4125436,44.5578888 28.2892315,44.0501555 C29.1659195,43.5424223 30.2467047,43.5402006 31.1254726,44.0443254 L56.4898904,57.9430743 C57.3723883,58.4493415 57.9170031,59.3886723 57.9179165,60.4060749 L57.9179165,88.4572169 C57.919954,90.6400529 56.706134,91.7811117 55.1244279,91.012019 Z" id="路径_6957" fill="#5BC0A4" fill-rule="nonzero"></path>
            <path d="M64.8037073,53.2380768 L39.4392896,39.3386479 C38.2635502,38.6640768 37.1796124,39.0918039 36.0494337,39.7629749 L28.3326666,44.0286852 L28.3326666,44.0286852 C29.2011142,43.5371414 30.2650557,43.5428351 31.1281927,44.0436454 L56.4926105,57.9423943 C57.3751083,58.4486615 57.9197231,59.3879923 57.920634,60.4053949 L57.920634,88.7965425 C57.9247614,89.7607067 57.4335331,90.6594517 56.6197725,91.1765817 L56.6197725,91.1765817 L64.3644201,86.7565089 C65.4871923,86.3529695 66.2346376,85.2866687 66.2310637,84.093585 L66.2310637,55.7010774 C66.2310637,54.6836638 65.6863553,53.7441037 64.8037073,53.2380768 L64.8037073,53.2380768 Z" id="路径_6958" fill="#22877A" fill-rule="nonzero"></path>
            <path d="M57.919954,60.4060749 L57.919954,88.7972225 C57.9240814,89.7613867 57.4328531,90.6601317 56.6190925,91.1772617 L56.6190925,91.1772617 L64.3637401,86.7571889 C65.4863831,86.3534804 66.2337545,85.287285 66.2303823,84.0942651 L66.2303823,55.7010774 C66.2297421,55.1965696 66.094783,54.7013283 65.8393644,54.2662538 L57.4874668,58.9182104 C57.7674246,59.3641896 57.9172173,59.8795141 57.919954,60.4060749 Z" id="路径_6959" fill="url(#linearGradient-1)" fill-rule="nonzero" opacity="0.31" style="mix-blend-mode: multiply;"></path>
            <polygon id="路径_6960" fill="#1D7A6E" fill-rule="nonzero" points="36.3948794 44.6400152 54.6327798 54.6477401 58.712847 53.3312384 41.3310807 43.0630693"></polygon>
            <g id="组_782" transform="translate(32.707859, 30.146257)">
                <g id="组_781-Clipped">
                    <mask id="mask-3" fill="white">
                        <use xlink:href="#path-2"></use>
                    </mask>
                    <g id="路径_6964"></g>
                    <g id="组_781" mask="url(#mask-3)">
                        <g transform="translate(2.720045, -21.760358)" id="组_780">
                            <g transform="translate(0.206723, 0.558289)">
                                <path d="M23.4739866,44.1905278 C23.5120673,43.5975581 22.6851736,17.8740944 22.6851736,17.8740944 L22.5716118,17.7972531 C22.3676084,11.1406235 19.2619973,5.36460836 13.5580633,2.05159379 C8.43009885,-1.62046669 1.29066126,0.653490763 0.450167414,7.9296106 C0.425687011,8.13361396 0.425007,8.3423774 0.406646698,8.54774078 L0.0360405936,33.5109519 C0.0360405936,33.5109519 0.0149602464,33.8985583 0.003400056,34.0923615 C-0.06800112,35.2048598 1.22742022,36.1929161 2.89208763,36.2989979 C3.41816018,36.3337029 3.94605157,36.2686393 4.44795326,36.1072347 L4.46563355,36.1167549 L4.46563355,36.1017946 C5.27069031,35.9290653 5.8915579,35.2869738 6.03713943,34.4765678 C6.08746026,33.6857148 5.44076961,32.9628629 4.46631356,32.5725365 L4.47379368,14.0129908 L4.4261929,13.9449897 L4.4200728,12.7808105 C4.42275095,12.2538886 4.45362225,11.7274874 4.51255432,11.2038645 C5.03412291,6.69403025 8.83878558,4.80019906 12.0185179,7.07891659 C14.7670159,9.0107719 16.6928966,11.9014123 17.4171269,15.1819301 L17.4171269,43.773681 L17.4443273,43.7832011 C17.4443273,43.7913613 17.4388872,43.7988414 17.4388872,43.8063215 C17.367486,44.9188198 18.6629074,45.9082361 20.3275748,46.0136379 C21.0723549,46.0748663 21.8190228,45.920481 22.4784502,45.5689105 L22.5518914,45.5213098 C23.0596251,45.2566006 23.4044881,44.758889 23.4739866,44.1905278 Z" id="路径_6961" fill="#D1D2D3" fill-rule="nonzero"></path>
                                <g id="组_779" transform="translate(4.003906, 0.000000)" fill="#A7A8AB" fill-rule="nonzero">
                                    <path d="M0.508648378,11.2031845 C0.449717602,11.7268075 0.418846299,12.2532086 0.416166854,12.7801305 L0.422286955,13.9443097 L0.469887739,14.0123108 C0.38556635,21.0912274 0.35156579,27.628175 0.462407616,32.5718565 L0.462407616,32.1835701 L0.443367302,32.1992103 L0.443367302,34.4378072 C0.443367302,34.4378072 0.575289475,35.7869494 0.212843506,36.1493954 C0.207403416,36.1534755 0.212843506,36.1602756 0.208763438,36.1650356 C0.285604704,36.1453153 0.369926093,36.1357952 0.443367302,36.1126748 L0.461047594,36.1221949 L0.461047594,36.1072347 C1.26610435,35.9345054 1.88697195,35.2924139 2.03255348,34.4820079 C2.03825557,34.3631436 2.02842579,34.2440432 2.003313,34.1277221 L2.003313,34.1277221 L2.19711619,13.6845454 L2.15087543,13.6165443 L2.14475532,12.4639253 C2.14709307,11.9413468 2.17728305,11.4192643 2.23519681,10.8998995 C2.4093993,8.84144971 3.65511808,7.02700514 5.51353081,6.12486088 C3.10153108,5.94533792 0.896934773,7.84936928 0.508648378,11.2031845 Z" id="路径_6962"></path>
                                    <path d="M19.4381202,43.531597 L19.0695541,16.1380258 C19.0525538,9.05570915 16.1672663,5.06404341 11.5894309,1.77006915 C10.6246905,1.0772841 9.52888089,0.588380874 8.36889784,0.333205488 C5.93821822,-0.278552164 3.37102861,-0.0348240328 1.0988981,1.02341686 C0.70487172,1.17353155 0.334538426,1.37965397 -0.0006800112,1.63542694 C2.69896445,-0.0129202128 5.88413691,0.411406776 9.26651262,2.23587683 C13.9069091,5.56249162 17.4715278,9.03598883 17.668731,17.2022433 C17.6993315,17.1961232 18.7642291,45.111263 17.8727344,45.9102762 L18.2623808,45.7015127 C18.7975496,45.3737473 19.4183998,44.8548988 19.4503604,44.3183699 C19.4666806,44.0654058 19.4381202,43.531597 19.4381202,43.531597 Z" id="路径_6963"></path>
                                </g>
                            </g>
                        </g>
                    </g>
                </g>
            </g>
            <g id="组_783" transform="translate(38.372352, 59.110654)" fill-rule="nonzero">
                <path d="M7.10135696,6.25134296 C6.99196503,4.06874165 5.75039929,2.10183335 3.82710303,1.06421753 C3.04902672,0.55315355 2.0498063,0.522571395 1.24193233,0.985095755 C0.434058365,1.44762012 -0.0454477617,2.32480345 0.0013600224,3.2545336 C-0.0500871611,4.7707299 0.443517896,6.25516387 1.39266294,7.43864252 L1.39266294,11.5615504 C1.39247566,12.1721862 1.71286399,12.7380937 2.23655684,13.052135 L3.81010275,13.9959905 C4.05217634,14.1416689 4.35393875,14.145712 4.59982849,14.0065717 C4.84571822,13.8674313 4.99763532,13.6066669 4.99740231,13.3241395 L4.99740231,8.99042808 C6.27312685,8.71309447 7.16234864,7.55543922 7.10135696,6.25134296 Z" id="路径_6965" fill="#484949"></path>
                <path d="M7.10067695,6.25134296 C6.99128502,4.06874165 5.74971928,2.10183335 3.82642302,1.06421753 C3.51305766,0.887863858 3.16853679,0.773793277 2.81184631,0.728291995 C2.45232633,1.2009722 2.25808123,1.7786901 2.25899721,2.37255908 C2.20809486,3.88867657 2.70163862,5.37292619 3.65030012,6.55666799 L3.65030012,10.6795759 C3.65058957,11.29062 3.97110508,11.8568125 4.49487403,12.1715205 L4.99604229,12.4714054 L4.99604229,8.98974806 C6.27177447,8.71274079 7.16126585,7.55539611 7.10067695,6.25134296 Z" id="路径_6966" fill="#5A615F"></path>
            </g>
            <path d="M79.1907043,66.8621012 C79.1907043,66.8621012 78.8506987,45.0031412 65.816244,33.2838282 C52.7817893,21.5645152 44.0892062,30.6501448 44.0892062,30.6501448 C44.0892062,30.6501448 39.0850037,24.0662764 33.821037,26.5700776 C33.7611961,26.5986381 33.7101952,26.6319586 33.6517143,26.6618791 L33.4599511,26.3150734 L16.8085168,36.0603139 C22.0758836,33.5585527 27.076686,40.1403811 27.076686,40.1403811 C27.076686,40.1403811 35.7679091,31.0547515 48.8037238,42.7740645 C61.8395385,54.4933775 62.1781841,76.3550576 62.1781841,76.3550576 C62.1781841,76.3550576 69.6093465,81.7536665 69.0823378,93.3417374 C69.0666976,93.7001033 69.0381371,94.0394289 69.0000565,94.3617542 C68.9830562,94.5093166 68.9558557,94.6419188 68.9320553,94.7833611 C68.9068949,94.9479238 68.8844545,95.1186066 68.853854,95.2729692 C68.8157734,95.4586122 68.7695327,95.627255 68.7246519,95.7986178 C68.7001715,95.8924594 68.6790912,95.9944611 68.6532507,96.0842225 C68.5954498,96.2800658 68.5267687,96.4595887 68.4580875,96.6370716 C68.4383672,96.6894325 68.4213669,96.7485935 68.3989266,96.8002743 C68.3213922,96.9873502 68.2342344,97.1702909 68.1378023,97.3483634 C68.124202,97.3748838 68.1126418,97.4034443 68.0976816,97.4286047 C67.9989275,97.6072376 67.8899444,97.7800211 67.7712762,97.9460932 L67.7535959,97.9732937 C67.6363192,98.1359452 67.508665,98.2908565 67.3714296,98.4370613 L67.3673496,98.4425014 C67.2349985,98.583604 67.093475,98.7158138 66.9437026,98.8382679 L66.9974235,98.8838286 L83.2687315,89.8083992 C83.3795733,89.7485582 83.485655,89.6819171 83.5917368,89.6125559 L83.9317424,89.4051525 L83.9120221,89.3874722 C85.1129218,88.4300165 85.9622558,86.7191083 86.091458,83.8528611 C86.6218667,72.2607102 79.1907043,66.8621012 79.1907043,66.8621012 Z" id="路径_6967" stroke="#FFFFFF" stroke-width="0.5247" fill="#E2E8E6" fill-rule="nonzero" opacity="0.7"></path>
            <path d="M38.2710303,34.549329 C40.4545463,33.1396658 41.467083,32.4372143 46.8187711,33.8414374 C49.9052352,34.5813215 52.4462175,36.7628503 53.6447235,39.7017739 L55.0931474,38.3186311 C55.0931474,38.3186311 52.4805444,33.6666745 47.6966656,32.3930135 C43.7845611,31.3729967 42.8951065,31.7021221 41.5949251,32.0319276 L38.2710303,34.549329 Z" id="路径_6968" fill="url(#linearGradient-4)" fill-rule="nonzero" opacity="0.5" style="mix-blend-mode: multiply;"></path>
            <path d="M38.7096376,34.549329 C40.8931535,33.1396658 41.9056902,32.4372143 47.2580584,33.8414374 C50.3442652,34.5815167 52.8849602,36.763016 54.0833308,39.7017739 L55.5317546,38.3186311 C55.5317546,38.3186311 52.9205116,33.6666745 48.1352728,32.3930135 C44.2238484,31.3729967 43.3350737,31.7021221 42.0348923,32.0319276 L38.7096376,34.549329 Z" id="路径_6969" fill="url(#linearGradient-5)" fill-rule="nonzero" opacity="0.31" style="mix-blend-mode: multiply;"></path>
            <g id="组_786" transform="translate(32.509975, 0.000000)">
                <g id="组_785-Clipped">
                    <mask id="mask-7" fill="white">
                        <use xlink:href="#path-6"></use>
                    </mask>
                    <g id="路径_6973"></g>
                    <g id="组_785" mask="url(#mask-7)">
                        <g transform="translate(2.720045, 8.160134)">
                            <path d="M23.7901918,45.0187815 C23.8282725,44.4258117 23.0020589,18.702348 23.0020589,18.702348 L22.887137,18.6255068 C22.6831336,11.9695571 19.5782025,6.192862 13.8749485,2.88052744 C8.74494403,-0.795613104 1.60482643,1.48514446 0.765692611,8.7612643 C0.74257223,8.96526766 0.740532197,9.17335109 0.723531917,9.37939448 L0.352925813,34.3419256 C0.352925813,34.3419256 0.331845466,34.730892 0.318925253,34.9233352 C0.250924133,36.0358335 1.54294541,37.0238898 3.20761283,37.1299715 C3.73416339,37.1657958 4.26271039,37.1007084 4.76483848,36.9382084 L4.78251877,36.9484086 L4.78251877,36.9327683 C5.5876769,36.7609088 6.20864745,36.1187016 6.35334464,35.3082215 C6.40366547,34.5160085 5.75697482,33.7945166 4.78387879,33.4041902 L4.79135892,14.8432845 L4.74375813,14.7752834 L4.73763803,13.6111042 C4.74026235,13.0844067 4.77113386,12.5582289 4.83011955,12.0348382 C5.35032812,7.52432393 9.15635081,5.62981272 12.3360832,7.90853026 C15.0840049,9.84094754 17.0097213,12.7313413 17.7346921,16.0115437 L17.7346921,44.5978545 L17.7612125,44.6073747 C17.7612125,44.6148548 17.7571325,44.6223349 17.7571325,44.6304951 C17.6857313,45.7429934 18.9811526,46.7310497 20.64446,46.8371314 C21.3896876,46.8985474 22.1368435,46.7441588 22.7966955,46.3924041 L22.8701367,46.3448033 C23.375967,46.0807023 23.7198684,45.5850573 23.7901918,45.0187815 L23.7901918,45.0187815 Z" id="路径_6970" fill="#D1D2D3" fill-rule="nonzero"></path>
                            <g id="组_784" stroke-width="1" fill="none" fill-rule="evenodd" transform="translate(4.529555, 0.649411)">
                                <path d="M0.299884939,11.3820275 C0.240920046,11.90542 0.210048598,12.4315966 0.207403416,12.9582934 L0.213523517,14.1224726 L0.261124301,14.1904737 L0.253644178,32.7506994 L0.253644178,32.3576529 L0.233923853,32.3732932 L0.233923853,34.6118901 C0.233923853,34.6118901 0.365846026,35.9610323 0.003400056,36.3234783 C-0.0006800112,36.3289183 0.003400056,36.3343584 0.003400056,36.3391185 C0.0802413216,36.3193982 0.16456271,36.310558 0.238683931,36.2867577 L0.256364222,36.2969578 L0.256364222,36.2813176 C1.06152235,36.1094581 1.6824929,35.4672509 1.82719009,34.6567708 C1.83350926,34.5377051 1.82390425,34.4183286 1.79862962,34.301805 L1.79862962,34.301805 L1.99243282,13.8599883 L1.94483203,13.7919872 L1.93871193,12.6359681 C1.94212122,12.1133854 1.97276328,11.5913355 2.03051344,11.0719424 C2.20494663,9.01374293 3.45063135,7.19960635 5.30884744,6.29758372 C2.89276764,6.12418087 0.688171334,8.02821223 0.299884939,11.3820275 Z" id="路径_6971" fill="#A7A8AB" fill-rule="nonzero"></path>
                                <path d="M19.247717,43.5859979 L19.1477554,16.1373458 C19.1307551,9.05638916 16.2454676,5.06472342 11.6676322,1.76938914 C10.7027966,1.07676985 9.60702239,0.587882412 8.44709913,0.332525477 C6.01636762,-0.279357058 3.44906109,-0.0353776894 1.17709939,1.02341686 C0.783545651,1.17277622 0.413294762,1.37747893 0.0775212768,1.63134687 C2.77784575,-0.01700028 5.9623382,0.407326709 9.34471391,2.23179676 C13.9851103,5.55841155 17.549729,9.03190876 17.7469323,17.1981633 C17.7469323,17.1981633 18.8091098,45.1146631 17.9509357,45.9075561 L18.3405821,45.6987927 C18.847063,45.4338605 19.1908356,44.9367632 19.2599572,44.3693708 C19.2762775,44.1204867 19.247717,43.5859979 19.247717,43.5859979 Z" id="路径_6972" fill="#A7A8AB" fill-rule="nonzero"></path>
                            </g>
                        </g>
                    </g>
                </g>
            </g>
            <path d="M73.3222076,87.7581654 L67.8515175,84.6756746 L64.5085825,82.7934036 L56.6204526,91.1779417 C56.6204526,91.1779417 73.46365,94.6786394 82.1548731,89.9382813 C82.3105957,89.8539599 82.4425179,89.7580783 82.5839602,89.6662768 C78.7969778,90.9888986 73.3222076,87.7581654 73.3222076,87.7581654 Z" id="路径_6974" fill="#231F20" fill-rule="nonzero" opacity="0.19" style="mix-blend-mode: multiply;"></path>
            <path d="M62.1775041,76.3523375 C62.1775041,76.3523375 61.8374985,54.4933775 48.8030438,42.7740645 C35.7685891,31.0547515 27.076006,40.1403811 27.076006,40.1403811 C27.076006,40.1403811 22.0724835,33.5565127 16.8078368,36.0603139 C13.7588009,37.4414752 11.6940575,40.3623887 11.4092279,43.6975197 C11.4092279,43.6975197 4.75803837,41.0638363 1.10433819,48.3066356 C-2.54936199,55.5494349 6.0595798,69.3754226 9.56571755,71.3508552 L56.3124075,97.6870089 C56.3124075,97.6870089 68.5587292,104.929128 69.0850579,93.3417374 C69.6113865,81.7543465 62.1775041,76.3523375 62.1775041,76.3523375 Z M66.2113305,91.4832668 C65.7489229,101.669155 53.9514086,93.7273037 53.9514086,93.7273037 L12.8644519,70.5790425 C9.78332113,68.8429739 0.469887739,55.9751219 3.68090063,49.6095371 C6.89191351,43.2439522 13.6090641,47.173737 13.6090641,47.173737 C13.6090641,47.173737 13.1276162,41.9328906 17.7571325,39.7330544 C22.3866487,37.5332182 27.1725675,43.6927596 27.1725675,43.6927596 C27.1725675,43.6927596 35.7951096,34.5561292 47.2532983,44.8569388 C58.711487,55.1577485 58.4462826,77.0772295 58.4462826,77.0772295 C63.5427892,80.032056 66.5448417,85.6015876 66.2113305,91.4832668 L66.2113305,91.4832668 Z" id="路径_6975" fill="#FFFFFF" fill-rule="nonzero" opacity="0.7"></path>
        </g>
    </g>
</svg>