<?xml version="1.0" encoding="UTF-8"?>
<svg width="86px" height="98px" viewBox="0 0 86 98" version="1.1" xmlns="http://www.w3.org/2000/svg" xmlns:xlink="http://www.w3.org/1999/xlink">
    <!-- Generator: Sketch 63.1 (92452) - https://sketch.com -->
    <title>886</title>
    <desc>Created with Sketch.</desc>
    <defs>
        <linearGradient x1="108.1%" y1="26.6%" x2="24.7495%" y2="67.4155%" id="linearGradient-1">
            <stop stop-color="#40B992" offset="0%"></stop>
            <stop stop-color="#40B992" stop-opacity="0.769" offset="16.3%"></stop>
            <stop stop-color="#40B992" stop-opacity="0.443" offset="42%"></stop>
            <stop stop-color="#40B992" stop-opacity="0.204" offset="63.8%"></stop>
            <stop stop-color="#40B992" stop-opacity="0.055" offset="80.6%"></stop>
            <stop stop-color="#40B992" stop-opacity="0.0625819493" offset="100%"></stop>
        </linearGradient>
        <linearGradient x1="90%" y1="52.3%" x2="-13%" y2="49%" id="linearGradient-2">
            <stop stop-color="#40B992" offset="0%"></stop>
            <stop stop-color="#40B992" stop-opacity="0.769" offset="16.3%"></stop>
            <stop stop-color="#40B992" stop-opacity="0.443" offset="42%"></stop>
            <stop stop-color="#40B992" stop-opacity="0.204" offset="63.8%"></stop>
            <stop stop-color="#40B992" stop-opacity="0.055" offset="80.6%"></stop>
            <stop stop-color="#40B992" stop-opacity="0" offset="90.5%"></stop>
        </linearGradient>
        <linearGradient x1="7.8%" y1="21%" x2="88.5%" y2="49.8%" id="linearGradient-3">
            <stop stop-color="#40B992" offset="0%"></stop>
            <stop stop-color="#40B992" stop-opacity="0.769" offset="16.3%"></stop>
            <stop stop-color="#40B992" stop-opacity="0.443" offset="42%"></stop>
            <stop stop-color="#40B992" stop-opacity="0.204" offset="63.8%"></stop>
            <stop stop-color="#40B992" stop-opacity="0.055" offset="80.6%"></stop>
            <stop stop-color="#40B992" stop-opacity="0" offset="90.5%"></stop>
        </linearGradient>
    </defs>
    <g id="886" stroke="none" stroke-width="1" fill="none" fill-rule="evenodd">
        <g transform="translate(8.000000, 1.000000)" fill-rule="nonzero">
            <g id="组_825">
                <g id="组_822">
                    <g id="组_802" transform="translate(22.407354, 0.000000)">
                        <path d="M17.8703087,38.2468397 L21.4190605,55.6196536 C21.45149,55.7809534 21.3763331,55.9447846 21.2329184,56.0254166 L12.0322773,61.1670892 C11.5252245,61.4506118 11.2095147,61.984617 11.205421,62.5655399 C11.2014809,63.1464628 11.509776,63.6847829 12.0128596,63.9752902 L19.1913818,68.0817986 C20.1232455,68.6195871 21.2693156,68.6274714 22.2084904,68.1025554 L32.3900601,62.4111611 C32.6348619,62.2743516 32.7631676,61.9950026 32.7074391,61.7201588 L29.1981923,44.5368349 L17.8703087,38.2468397 Z" id="路径_6996" fill="#EDEEEE"></path>
                        <g id="组_799" transform="translate(10.999791, 44.538174)" fill="#22877A">
                            <path d="M22.7548643,17.5837303 L19.3179316,0.643462351 L18.1977313,0.00200872742 L21.7069781,17.1853327 C21.7627066,17.4601764 21.634401,17.7395255 21.3895992,17.8763349 L11.2080295,23.5677293 C10.2688546,24.0926456 9.12278458,24.0847609 8.19092086,23.5469724 L1.01239862,19.440464 C0.379904347,19.0787558 0.0699179757,18.3367672 0.25711711,17.6326093 L0.103114674,18.2158099 C0.0650077743,18.3172174 0.037192117,18.4221991 0.0200872742,18.5291713 L0.0167393952,18.5425629 L0.0167393952,18.5425629 C-0.0863688018,19.2003072 0.226789257,19.8535187 0.804160545,20.1850323 L8.18958171,24.4354995 C9.12120906,24.9737052 10.2672801,24.9820985 11.2066903,24.4575955 L22.4368158,18.2747325 C22.68237,18.138581 22.8111422,17.8588065 22.7548643,17.5837303 L22.7548643,17.5837303 Z" id="路径_6997"></path>
                        </g>
                        <path d="M32.7067695,61.721498 L29.1975227,44.538174 L17.8703087,38.2441614 L21.4190605,55.6169753 C21.45149,55.7782751 21.3763331,55.9421063 21.2329184,56.0227383 L32.3893906,62.4091523 C32.6329986,62.2729087 32.7611395,61.99527 32.7067695,61.721498 Z" id="路径_6998" fill="#E4E7E9"></path>
                        <path d="M48.4652361,28.2681515 L1.7188011,1.08337366 C1.36512353,0.877899523 0.928635826,0.87695891 0.574075969,1.08090683 C0.219516115,1.28485474 0.000669575808,1.66263528 0.000669575808,2.07166755 L0.000669575808,35.6950863 L49.4602258,64.5049246 L49.4602258,29.9976658 C49.4602258,29.2850735 49.0813227,28.6262369 48.4652361,28.2681515 L48.4652361,28.2681515 Z" id="路径_6999" fill="#E4E7E9"></path>
                        <path d="M1.86945566,33.6281058 L47.1448326,60.0020273 C47.3602998,60.1270666 47.6261496,60.1274782 47.842003,60.0031069 C48.0578564,59.8787356 48.1907101,59.6485293 48.1907101,59.3994091 L48.1907101,30.9919858 C48.1907101,30.6497762 48.0086497,30.3334136 47.7126329,30.1617118 L2.43390806,3.78578162 C2.2426599,3.67472309 2.00661466,3.67445031 1.81511033,3.78506653 C1.62360601,3.89568274 1.50590156,4.10028748 1.50654033,4.32144226 L1.50654033,33.0013828 C1.50734445,33.2599931 1.64555964,33.4986821 1.86945566,33.6281058 L1.86945566,33.6281058 Z" id="路径_7000" fill="#FFFFFF"></path>
                        <path d="M0,38.9579292 C0,40.4671083 0.80258583,41.862416 2.10715507,42.6211785 L47.0142654,68.734635 C47.517606,69.0273166 48.1389462,69.0288553 48.6437302,68.7386699 C49.1485142,68.4484851 49.4602258,67.9107749 49.4602258,67.3285258 L49.4602258,64.504255 L0.000669575808,35.6944167 L0,38.9579292 Z" id="路径_7001" fill="#FFFFFF"></path>
                        <g id="组_800" transform="translate(0.344162, 0.000000)" fill="#22877A">
                            <path d="M49.6282893,27.3354324 L2.88252385,0.150654557 C2.46048085,-0.0802253125 1.94079795,-0.0334141809 1.56680739,0.269169475 L1.56680739,0.269169475 L0.401745485,0.999676681 C0.721661106,0.877521675 1.07981024,0.907839873 1.37463913,1.08203451 L48.1210742,28.2668123 C48.7366964,28.6249468 49.11542,29.2834414 49.1153942,29.995657 L49.1153942,67.3291954 C49.1197356,67.9082398 48.8129766,68.4450682 48.3119033,68.7353046 L48.3119033,68.7353046 L49.8110835,67.8079421 L49.8110835,67.8079421 C50.3156637,67.5200024 50.6262268,66.982785 50.6239733,66.4018329 L50.6239733,29.0649467 C50.6239733,28.35218 50.2447343,27.6932479 49.6282893,27.3354324 L49.6282893,27.3354324 Z" id="路径_7002"></path>
                        </g>
                        <g id="组_801" transform="translate(20.700606, 49.091290)" fill="#22877A">
                            <path d="M0.000669575808,1.66255673 C-0.0453129536,2.51882314 0.385022209,3.33056248 1.11953075,3.77305968 C1.45680308,3.96771266 1.8727472,3.96573077 2.2081493,3.76787265 C2.5435514,3.57001452 2.7464708,3.20692066 2.73923463,2.817575 C2.69703798,1.97575867 2.21819609,1.2171269 1.47641466,0.816882486 C1.17607561,0.6201702 0.790736387,0.60870442 0.479232685,0.787211305 C0.167728983,0.965718193 -0.0172012941,1.30397634 0.000669575808,1.66255673 L0.000669575808,1.66255673 Z" id="路径_7004"></path>
                        </g>
                    </g>
                    <path d="M24.8419321,3.78578162 C24.6737774,3.68837091 24.4691332,3.67741672 24.2915407,3.75632028 L24.2306093,3.68266694 L0.192837833,13.0252582 L0,53.3692094 L71.1993435,96.6097455 C71.1993435,96.6097455 70.5967253,59.734197 70.5967253,59.4000787 L70.5967253,30.9919858 C70.597107,30.6502255 70.4157999,30.3340219 70.1206569,30.1617118 L24.8419321,3.78578162 Z" id="路径_7005" fill="url(#linearGradient-1)" opacity="0.5"></path>
                    <path d="M58.7733557,32.3090415 C58.7733557,32.3090415 55.7723169,52.9855424 43.2512493,50.2864823 C33.073697,42.1698844 33.6763153,20.7454673 33.6763153,20.7454673 L33.6763153,20.7454673 C36.9588419,20.0454274 39.935549,18.3243281 42.179928,15.8287721 L43.0128803,14.9014096 L52.1271462,20.50442 L52.6065625,22.8385612 C53.3060545,26.2411543 55.1444696,29.3036837 57.8185406,31.5209507 L58.7733557,32.3090415 Z" id="路径_7006" fill="#4FBD9B"></path>
                    <g id="组_821" transform="translate(28.019739, 12.622174)" fill="#FFFFFF">
                        <g id="组_811" transform="translate(15.394887, 12.858534)">
                            <g id="组_803" transform="translate(10.927477, 20.970445)">
                                <path d="M2.87515852,0.890535825 C2.42662293,0.596130124 1.85073357,0.578642428 1.38516081,0.845289936 C0.919588043,1.11193744 0.643270717,1.6175095 0.670245384,2.1533558 C0.601340793,3.43324469 1.24541206,4.64641733 2.3441849,5.30638828 C2.84794136,5.59671206 3.46893145,5.59358458 3.96973811,5.29820152 C4.47054478,5.00281846 4.77372326,4.46085786 4.7633623,3.87952223 C4.70003844,2.62152665 3.9840016,1.48805556 2.87515852,0.890535825 L2.87515852,0.890535825 Z M2.38168115,4.57320277 C1.68221895,4.15235717 1.27239853,3.3795971 1.31638604,2.56447534 C1.2993765,2.22287309 1.47577932,1.90069692 1.77274059,1.73100477 C2.06970185,1.56131261 2.43682737,1.57290116 2.72249524,1.76098438 C3.42966466,2.14157214 3.88667286,2.86389898 3.92773169,3.66592755 C3.93440285,4.03729911 3.74018542,4.38337679 3.41971883,4.57115993 C3.09925225,4.75894308 2.70240204,4.75921211 2.38168115,4.57186362 L2.38168115,4.57320277 Z" id="路径_7007"></path>
                            </g>
                            <g id="组_804" transform="translate(14.827756, 16.129412)">
                                <path d="M2.87448894,0.890535825 C2.42626569,0.596151737 1.85067754,0.578496768 1.38525462,0.84485666 C0.919831715,1.11121655 0.64348108,1.61643309 0.670245384,2.15201665 C0.601087235,3.43214008 1.2451918,4.64563309 2.3441849,5.3057187 C2.84790036,5.59569433 3.4686394,5.59238035 3.96923001,5.29704298 C4.46982062,5.0017056 4.77290961,4.4599815 4.76269272,3.87885266 C4.69926983,2.62105917 3.98322785,1.48783387 2.87448894,0.890535825 Z M2.38235072,4.57320277 C1.68288853,4.15235717 1.27306811,3.3795971 1.31705561,2.56447534 C1.30004607,2.22287309 1.47644889,1.90069692 1.77341016,1.73100477 C2.07037143,1.56131261 2.43749695,1.57290116 2.72316481,1.76098438 C3.43071754,2.14149434 3.88783167,2.86424259 3.92840127,3.66659712 C3.93453932,4.03788132 3.74005757,4.38364272 3.41957836,4.57121323 C3.09909915,4.75878375 2.70239519,4.75903234 2.38168115,4.57186362 L2.38235072,4.57320277 Z" id="路径_7008"></path>
                            </g>
                            <g id="组_805" transform="translate(10.090507, 9.143727)">
                                <path d="M2.87448894,0.890535825 C2.42626569,0.596151737 1.85067754,0.578496768 1.38525462,0.84485666 C0.919831715,1.11121655 0.64348108,1.61643309 0.670245384,2.15201665 C0.60078439,3.43220683 1.24496681,4.64584651 2.3441849,5.3057187 C2.84790036,5.59569433 3.4686394,5.59238035 3.96923001,5.29704298 C4.46982062,5.0017056 4.77290961,4.4599815 4.76269272,3.87885266 C4.69926983,2.62105917 3.98322785,1.48783387 2.87448894,0.890535825 Z M2.38168115,4.57320277 C1.68188168,4.15267678 1.27194475,3.37969701 1.31638604,2.56447534 C1.2993765,2.22287309 1.47577932,1.90069692 1.77274059,1.73100477 C2.06970185,1.56131261 2.43682737,1.57290116 2.72249524,1.76098438 C3.42865144,2.14212968 3.88440046,2.86447284 3.92438381,3.66592755 C3.93032741,4.03625982 3.73655829,4.38114758 3.41717624,4.56870136 C3.09779419,4.75625515 2.70220276,4.75746322 2.38168115,4.57186362 L2.38168115,4.57320277 Z" id="路径_7009"></path>
                            </g>
                            <g id="组_806" transform="translate(14.827756, 4.303364)">
                                <path d="M2.87448894,0.890535825 C2.42626569,0.596151737 1.85067754,0.578496768 1.38525462,0.84485666 C0.919831715,1.11121655 0.64348108,1.61643309 0.670245384,2.15201665 C0.601238539,3.43210672 1.24530423,4.64552647 2.3441849,5.3057187 C2.84790036,5.59569433 3.4686394,5.59238035 3.96923001,5.29704298 C4.46982062,5.0017056 4.77290961,4.4599815 4.76269272,3.87885266 C4.69926983,2.62105917 3.98322785,1.48783387 2.87448894,0.890535825 Z M2.38235072,4.57320277 C1.68288853,4.15235717 1.27306811,3.3795971 1.31705561,2.56447534 C1.30004607,2.22287309 1.47644889,1.90069692 1.77341016,1.73100477 C2.07037143,1.56131261 2.43749695,1.57290116 2.72316481,1.76098438 C3.43071754,2.14149434 3.88783167,2.86424259 3.92840127,3.66659712 C3.93453932,4.03788132 3.74005757,4.38364272 3.41957836,4.57121323 C3.09909915,4.75878375 2.70239519,4.75903234 2.38168115,4.57186362 L2.38235072,4.57320277 Z" id="路径_7010"></path>
                            </g>
                            <g id="组_807" transform="translate(4.720509, 0.000000)">
                                <rect id="矩形_159" transform="translate(5.713192, 3.529951) rotate(-60.359000) translate(-5.713192, -3.529951) " x="5.23812774" y="-2.77310062" width="1" height="12.6061037"></rect>
                            </g>
                            <g id="组_808" transform="translate(0.000000, 4.749971)">
                                <rect id="矩形_160" transform="translate(5.713192, 3.529951) rotate(-60.359000) translate(-5.713192, -3.529951) " x="5.23812774" y="-2.77310062" width="1" height="12.6061037"></rect>
                            </g>
                            <g id="组_809" transform="translate(4.720509, 11.821361)">
                                <rect id="矩形_161" transform="translate(5.713192, 3.529951) rotate(-60.359000) translate(-5.713192, -3.529951) " x="5.23812774" y="-2.77310062" width="1" height="12.6061037"></rect>
                            </g>
                            <g id="组_810" transform="translate(1.518598, 12.642261)">
                                <polygon id="路径_7011" points="10.2210747 10.9730083 6.08041791 8.61677107 4.826972 3.57218694 -1.14182935e-13 0.826926123 0.468703066 0.00133915162 5.64988067 2.94747271 6.90332658 7.99205684 10.6904474 10.1467518"></polygon>
                            </g>
                        </g>
                        <g id="组_820">
                            <g id="组_812" transform="translate(0.000000, 17.621896)">
                                <path d="M2.39172479,0.842326366 C2.04151055,0.612430689 1.59186102,0.598695148 1.22826752,0.806785986 C0.864674008,1.01487683 0.648752491,1.40953017 0.669575808,1.82794196 C0.615009192,2.82751402 1.11706296,3.77546572 1.97457906,4.29198093 C2.36827573,4.51872859 2.85348912,4.51625758 3.24485596,4.28551191 C3.6362228,4.05476623 3.87327816,3.63139535 3.86546114,3.17713721 C3.81636938,2.1946819 3.25750604,1.30928596 2.39172479,0.842326366 L2.39172479,0.842326366 Z M2.0067187,3.72150234 C1.46004825,3.39219119 1.139892,2.78793814 1.17443597,2.1506775 C1.16112065,1.88402834 1.29870972,1.63250188 1.53042744,1.49988978 C1.76214517,1.36727768 2.04870958,1.37606102 2.27187072,1.52261539 C2.82275909,1.82077132 3.17812606,2.38478947 3.20927685,3.01041283 C3.2132523,3.29888732 3.06226324,3.56734973 2.81368616,3.71378322 C2.56510908,3.86021672 2.25710573,3.86214069 2.0067187,3.71882404 L2.0067187,3.72150234 Z" id="路径_7012"></path>
                            </g>
                            <g id="组_813" transform="translate(5.045254, 13.116321)">
                                <path d="M1.72348813,0.842326366 C1.37316554,0.6125798 0.923537931,0.598906116 0.559901929,0.806940397 C0.196265925,1.01497467 -0.0198300571,1.40950538 0.000669575808,1.82794196 C-0.05332013,2.82772555 0.449206513,3.77559744 1.30701198,4.29198093 C1.70066754,4.51838079 2.1856301,4.51572351 2.57678106,4.28502343 C2.96793201,4.05432335 3.2048978,3.63118866 3.19722448,3.17713721 C3.14813272,2.1946819 2.58926938,1.30928596 1.72348813,0.842326366 L1.72348813,0.842326366 Z M1.33848204,3.72150234 C0.791586822,3.39240399 0.471353046,2.7880046 0.506199311,2.1506775 C0.492883995,1.88402834 0.630473064,1.63250188 0.862190786,1.49988978 C1.09390851,1.36727768 1.38047293,1.37606102 1.60363406,1.52261539 C2.15452243,1.82077132 2.5098894,2.38478947 2.54104019,3.01041283 C2.54501564,3.29888732 2.39402659,3.56734973 2.14544951,3.71378322 C1.89687242,3.86021672 1.58886908,3.86214069 1.33848204,3.71882404 L1.33848204,3.72150234 Z" id="路径_7013"></path>
                            </g>
                            <g id="组_814" transform="translate(0.944102, 0.000000)">
                                <path d="M2.39172479,0.842326366 C2.04148874,0.612043147 1.59156596,0.598093918 1.22773706,0.806238547 C0.863908167,1.01438318 0.647900117,1.40930799 0.668906232,1.82794196 C0.614463023,2.82782538 1.11710604,3.77591678 1.97524863,4.29198093 C2.36875289,4.51895216 2.8539621,4.51656073 3.24520996,4.28572171 C3.63645783,4.0548827 3.87317897,3.63133011 3.86479156,3.17713721 C3.81583693,2.19482136 3.25724759,1.30945725 2.39172479,0.842326366 Z M2.0067187,3.72150234 C1.45967888,3.39246982 1.13920868,2.78811041 1.17376639,2.1506775 C1.1605925,1.88378145 1.29844268,1.63210659 1.53043805,1.49949741 C1.76243343,1.36688824 2.04924883,1.37582311 2.27254029,1.52261539 C2.82352166,1.82067194 3.17892542,2.38474848 3.20994642,3.01041283 C3.21378058,3.29868131 3.06288144,3.56690958 2.81451914,3.71329805 C2.56615685,3.85968652 2.25840288,3.86179529 2.00805785,3.71882404 L2.0067187,3.72150234 Z" id="路径_7014"></path>
                            </g>
                            <g id="组_815" transform="translate(1.174436, 6.061670)">
                                <path d="M1.72348813,0.84500467 C1.37316554,0.615258103 0.923537931,0.601584419 0.559901929,0.8096187 C0.196265925,1.01765298 -0.0198300571,1.41218368 0.000669575808,1.83062026 C-0.0537736341,2.83050368 0.44886939,3.77859508 1.30701198,4.29465923 C1.70051624,4.52163047 2.18572544,4.51923903 2.57697331,4.28840002 C2.96822117,4.057561 3.20494232,3.63400841 3.19655491,3.17981551 C3.14760028,2.19749967 2.58901093,1.31213555 1.72348813,0.84500467 L1.72348813,0.84500467 Z M1.33848204,3.72418064 C0.791662417,3.3952629 0.471225453,2.79122377 0.505529735,2.15402537 C0.49227127,1.88723243 0.629930991,1.63558966 0.861744828,1.5028621 C1.09355867,1.37013454 1.38026259,1.37880325 1.60363406,1.52529369 C2.15501013,1.82359436 2.51047741,2.38827953 2.54104019,3.01443029 C2.54369739,3.30239534 2.39204109,3.56976191 2.14351839,3.71525211 C1.89499569,3.8607423 1.58761538,3.86210501 1.33781246,3.71882404 L1.33848204,3.72418064 Z" id="路径_7015"></path>
                            </g>
                            <g id="组_816" transform="translate(4.185518, 3.112858)">
                                <polygon id="路径_7016" points="10.3509724 9.31112119 4.59931623 6.2772732 3.10415345 2.43457764 1.89115485e-13 0.644131927 0.370944998 0.00133915162 3.70141507 1.92235214 5.19055166 5.74964746 10.6971431 8.65426732"></polygon>
                            </g>
                            <g id="组_817" transform="translate(3.682667, 9.297730)">
                                <rect id="矩形_162" transform="translate(3.564177, 2.238819) rotate(-60.461218) translate(-3.564177, -2.238819) " x="3.19324156" y="-1.6476344" width="1" height="7.77290736"></rect>
                            </g>
                            <g id="组_818" transform="translate(7.715522, 16.229178)">
                                <rect id="矩形_163" transform="translate(2.942749, 1.958401) rotate(-59.226000) translate(-2.942749, -1.958401) " x="2.5714696" y="-1.24551965" width="1" height="6.40784048"></rect>
                            </g>
                            <g id="组_819" transform="translate(3.530673, 20.866660)">
                                <rect id="矩形_164" transform="translate(4.661441, 2.918052) rotate(-59.871400) translate(-4.661441, -2.918052) " x="4.29011865" y="-2.25601781" width="1" height="10.3481396"></rect>
                            </g>
                        </g>
                    </g>
                    <polygon id="路径_7017" fill="url(#linearGradient-2)" opacity="0.6" points="44.157855 18.6483558 19.6821809 -7.61219564e-14 18.0544421 64.504255 26.095378 68.960282 43.415965 48.3252948"></polygon>
                    <polygon id="路径_7018" fill="url(#linearGradient-3)" opacity="0.8" points="51.5546589 23.194106 63.9759597 26.5808204 63.0044052 91.3669669 26.095378 68.960282 43.415965 48.3252948"></polygon>
                </g>
                <g id="组_824" transform="translate(34.749645, 18.648356)">
                    <path d="M20.3631395,14.8953834 C20.3631395,14.8953834 17.9278923,31.6702661 7.76975768,29.4800837 C-0.485442461,22.8954752 0.00267830323,5.51261763 0.00267830323,5.51261763 L0.00267830323,5.51261763 C2.66609058,4.94486435 5.08144285,3.54862432 6.902657,1.52395454 L7.57825899,0.772020907 L14.9730542,5.31777107 L15.3614082,7.21066188 C15.9290644,9.97142216 17.4207612,12.4562453 19.590449,14.255269 L20.3631395,14.8953834 Z" id="路径_7019" fill="#FFFFFF"></path>
                    <path d="M15.3888608,21.4116952 C16.1099767,19.5628173 16.5827988,17.6264983 16.79497,15.6533432 L16.2218131,15.1906664 C14.6189444,13.9066741 13.5075443,12.1095163 13.0748068,10.1018902 L12.7848805,8.73528599 L8.71252041,6.29803005 L7.29101097,5.44766877 L6.79016827,5.99069475 C5.42491572,7.46093063 3.63420968,8.46760284 1.66858291,8.86987073 C1.65445205,10.3032386 1.7280196,11.7361287 1.88887335,13.1605125 L1.88887335,13.1685474 C2.26517496,20.8787128 7.91974266,26.3062943 8.14806801,26.3531647 C11.8976925,25.8563394 14.154163,24.3631853 15.3587299,21.4652613 L15.3587299,21.4652613 L15.3734606,21.4270954 L15.382165,21.4096865 L15.3888608,21.4116952 Z" id="路径_7020" fill="#DEDEDE"></path>
                    <g id="组_823" transform="translate(0.005357, 0.000000)" fill="#21887A">
                        <path d="M3.86556809e-14,5.51261763 L2.45131703,4.42991355 C2.8879832,4.33509917 3.31934313,4.21731333 3.74359834,4.07704709 C2.57816764,4.74773354 1.31505194,5.23210486 3.86556809e-14,5.51261763 L3.86556809e-14,5.51261763 Z" id="路径_7021"></path>
                        <path d="M20.359122,14.8947138 L19.5884403,14.255269 C17.4185878,12.4563868 15.9268533,9.97150104 15.3593995,7.21066188 L14.9710455,5.31777107 L7.57625027,0.772020907 L9.40419222,4.28186004e-14 L16.7983179,4.54575016 L17.188011,6.43864097 C17.7551613,9.19959851 19.2469521,11.6845782 21.4170518,13.483248 L22.1884031,14.1226929 C22.1884031,14.1226929 21.1070382,25.5161949 14.6221965,28.0900443 L14.6221965,28.0967401 L12.4507621,29.0622684 L12.4467447,29.0542335 C18.7039306,26.2641111 20.359122,14.8947138 20.359122,14.8947138 Z" id="路径_7022"></path>
                    </g>
                </g>
            </g>
            <g id="组_826" transform="translate(36.199946, 26.805798)">
                <path d="M12.7580974,14.2077291 C12.727297,14.3162004 12.7031922,14.4260108 12.6663656,14.5324733 C12.6282536,14.7348396 12.4927629,14.9053766 12.3042521,14.9882518 C12.1157412,15.0711269 11.8984818,15.0556697 11.7236028,14.9469408 C11.4715128,14.827515 11.2458931,14.6588125 11.0600532,14.4507851 C10.7951303,14.1683089 10.5735472,13.8481191 10.4025298,13.500657 C10.2877198,13.2921864 10.2588877,13.0471136 10.3221807,12.8176897 C10.3461388,12.7287513 10.4084839,12.6551154 10.4922529,12.616817 C10.5592105,12.6014167 10.6650035,12.6690439 10.7326306,12.7259578 C10.7889823,12.7863434 10.8343072,12.8561438 10.8665458,12.9321872 C11.0149371,13.238051 11.2251461,13.509818 11.4838947,13.7303215 C11.5621692,13.7919119 11.6487241,13.8421769 11.7410118,13.8796369 C11.8096955,13.9209274 11.895352,13.9217923 11.9648555,13.8818973 C12.034359,13.8420023 12.0768132,13.7676018 12.0757997,13.6874687 C12.121139,13.4804106 12.0771427,13.2638321 11.9546065,13.0908766 C11.8113173,12.8953605 11.6499495,12.7118967 11.4952775,12.5250851 C11.3064571,12.2980989 11.098219,12.0851738 10.9294859,11.8441265 C10.5014825,11.2216181 10.370142,10.4419062 10.5705933,9.71353625 C10.5840236,9.45908579 10.7435432,9.23541566 10.9797455,9.13984416 C11.2159477,9.04427266 11.4861216,9.0940814 11.6727151,9.26759876 C12.1138826,9.55236848 12.463905,9.95793892 12.6810962,10.4360085 C12.7813757,10.6277043 12.8020651,10.8511978 12.7386797,11.0580445 C12.7125663,11.1390631 12.6382434,11.2508823 12.5719554,11.2589172 C12.4763124,11.2553245 12.3863076,11.2127416 12.3228732,11.1410719 C12.2338196,11.04934 12.1849406,10.9194423 12.1019132,10.8203451 C11.959344,10.6467613 11.8066375,10.4817578 11.6445929,10.3261981 C11.5627609,10.2283746 11.4253434,10.1978679 11.309805,10.2518752 C11.1899509,10.3188328 11.1919596,10.444713 11.186603,10.5625584 C11.1784773,10.7649788 11.2471144,10.9629979 11.3787713,11.1169671 C11.5501827,11.3245356 11.7289594,11.5254084 11.9097449,11.7256115 C12.2903346,12.1044928 12.5652474,12.5762996 12.7072097,13.0942245 C12.7386797,13.2281397 12.7607757,13.3620548 12.7868892,13.4999874 L12.7580974,14.2077291 Z" id="路径_7023" fill="#21887A"></path>
                <path d="M0.735194237,5.56417496 C0.759298966,4.8658074 0.780725392,4.16610068 0.810856303,3.46773311 C0.815794218,3.35134231 0.840943485,3.23669789 0.885179218,3.12892775 C0.901531974,3.07533188 0.942153979,3.03255663 0.994834577,3.01345991 C1.04751517,2.99436319 1.10611135,3.00117186 1.15300954,3.03183926 C1.56941775,3.26455814 1.97185109,3.52144475 2.358246,3.80118186 C2.85949292,4.2321388 3.21986863,4.8036084 3.39274062,5.44164259 C3.70613512,6.32334486 3.75638448,7.27715223 3.53736899,8.1869034 C3.4766058,8.41296599 3.37935498,8.62759631 3.2494514,8.82233085 C3.02954949,9.20591322 2.54761976,9.34987389 2.1533558,9.14975342 C1.73758048,8.95271654 1.33834004,8.72253191 0.959502133,8.46142949 C0.732089187,8.2674067 0.621370786,7.96945511 0.666897505,7.67400834 C0.687654355,6.97028416 0.715106963,6.26789914 0.739211692,5.56350539 L0.735194237,5.56417496 Z M1.50118896,4.3703213 L1.50118896,4.37634748 C1.46369272,5.43561641 1.42753562,6.49443895 1.39271768,7.55281511 C1.39451716,7.59343011 1.41380755,7.63127835 1.44561417,7.65659936 C1.63778243,7.77511428 1.82794196,7.89831623 2.02948427,8.00009175 C2.14738685,8.07124041 2.2899081,8.08912244 2.42173327,8.04930692 C2.55355843,8.00949139 2.66235187,7.91570404 2.72115608,7.7911841 C2.78870489,7.67039751 2.83918045,7.5408285 2.87114106,7.40617801 C2.9536346,7.04069461 2.96658204,6.66294745 2.90930689,6.29267344 C2.86780046,5.42850763 2.31482366,4.67241262 1.50386726,4.37099087 L1.50118896,4.3703213 Z" id="路径_7024" fill="#21887A"></path>
                <path d="M7.12294745,9.36535683 C7.12071582,9.73014353 7.05850794,10.0920802 6.9388141,10.4366781 C6.8814129,10.5912074 6.8063704,10.7385963 6.71517578,10.8759198 C6.48879072,11.2658876 5.99625567,11.4096419 5.59564503,11.2026728 C5.19425074,11.0058019 4.8065807,10.7821031 4.43527015,10.533097 C4.24154895,10.3705455 4.13379699,10.1276093 4.1433351,9.87490402 C4.13986259,9.81848984 4.13986259,9.76191551 4.1433351,9.70550134 C4.18797349,8.33287093 4.2346206,6.96024052 4.28327644,5.58761012 C4.28859026,5.45844902 4.31528917,5.33106355 4.36228639,5.21063894 C4.37757373,5.15854959 4.41663204,5.11678083 4.46758022,5.09803823 C4.51852842,5.07929563 4.57534338,5.08579495 4.62074265,5.11555917 C5.03758378,5.34730772 5.4400607,5.60399855 5.82597911,5.8842322 C6.34024023,6.33421275 6.70644792,6.92915433 6.87654355,7.59098094 C7.06053521,8.16377077 7.14390256,8.76410648 7.12294745,9.36535683 Z M4.96691334,6.43931055 C4.9294171,7.51063184 4.89192085,8.56789204 4.85777249,9.62649139 C4.86042709,9.66714998 4.88042522,9.70470742 4.9126777,9.72960607 C5.09681105,9.84410353 5.28027482,9.95994014 5.47244308,10.0603765 C5.59275622,10.1362569 5.73996077,10.1565307 5.87630687,10.1159989 C6.01265297,10.0754671 6.12487791,9.97807212 6.18420216,9.84879056 C6.24450917,9.74411859 6.28960035,9.63139061 6.31811732,9.51400266 C6.4555348,8.88701897 6.40903489,8.23369537 6.18420216,7.63249464 C5.96716295,7.07877185 5.52440274,6.64380497 4.96691334,6.43663224 L4.96691334,6.43931055 Z" id="路径_7025" fill="#21887A"></path>
                <path d="M10.0603765,11.8160043 C10.0262281,12.016877 9.99341893,12.2411849 9.9472182,12.4654928 C9.92579419,12.55791 9.89436169,12.647717 9.85347759,12.7333231 C9.77821734,13.0068734 9.56127852,13.2185714 9.28597004,13.2871211 C9.0106615,13.3556707 8.71978357,13.2704149 8.52503919,13.0640936 C8.3742246,12.9470296 8.24135639,12.8085218 8.13065904,12.652974 C7.50299439,11.7639438 7.28157611,10.6505264 7.52134505,9.58899515 C7.56044292,9.41554147 7.62834146,9.24986913 7.72221779,9.09886565 C7.81263718,8.91263526 7.98033351,8.77555321 8.18082687,8.72397933 C8.38132016,8.67240552 8.59434859,8.71155194 8.76340818,8.83103533 C8.96238361,8.95352318 9.13975457,9.10804413 9.28835561,9.28835561 C9.70423517,9.82860894 9.95679079,10.4766105 10.0161845,11.1558025 C10.0443067,11.3647102 10.0443067,11.5729483 10.0603765,11.8160043 Z M9.39950519,11.3995281 C9.39887425,10.9991826 9.30001085,10.6051083 9.1115876,10.2518752 C9.02243418,10.1043735 8.90663955,9.9747288 8.77010393,9.86954741 C8.69060085,9.8002192 8.58228263,9.77402097 8.47988447,9.79935384 C8.37748624,9.8246867 8.29387758,9.89836689 8.25586971,9.99676681 C8.20554962,10.0880773 8.169425,10.186517 8.14873758,10.2887019 C8.04753448,10.7734632 8.11559813,11.2782687 8.34157542,11.7189158 C8.42154647,11.8719068 8.52994283,12.0082544 8.66096308,12.1206613 C8.74335558,12.2141499 8.87034613,12.254982 8.99178542,12.2270328 C9.11322464,12.1990837 9.20958932,12.1068464 9.24282445,11.9867461 C9.30924711,11.7941614 9.36161142,11.5970119 9.39950519,11.3968498 L9.39950519,11.3995281 Z" id="路径_7026" fill="#21887A"></path>
                <path d="M7.11692126,2.93742907 L7.11156466,3.07737041 C7.09058464,3.70677167 7.0682654,4.33639612 7.04460708,4.96624377 C7.04730694,5.04019077 7.03618,5.11399203 7.01179786,5.18385591 C6.98669901,5.24971249 6.9370049,5.30324771 6.87319567,5.33317131 C6.8062719,5.33305093 6.74281198,5.30340364 6.69977553,5.25215264 C6.57718809,5.10819721 6.51610468,4.92182068 6.52970328,4.73323139 C6.53706861,4.48080131 6.54644267,4.22971038 6.55380801,3.9772803 C6.58126062,3.16106739 6.60603492,2.3441849 6.63616583,1.52797199 C6.63801607,1.43653625 6.65498469,1.34603695 6.68638402,1.26014167 C6.72856729,1.15033124 6.81360342,1.13158312 6.92006598,1.18514918 C7.07359924,1.28021452 7.18133037,1.43418531 7.21802721,1.61099939 C7.36131643,2.04756282 7.5028201,2.48524221 7.64253827,2.92403755 C7.79966542,3.41148874 7.95589975,3.89893993 8.11124134,4.38639112 C8.11927625,4.41049585 8.12931988,4.43326142 8.15141589,4.4921841 C8.15811164,4.42522652 8.16346825,4.38639112 8.16413783,4.35157318 C8.18601066,3.72663576 8.20832983,3.10169833 8.23109541,2.47676091 C8.23182243,2.40750876 8.24149988,2.3386412 8.25988717,2.27187072 C8.31546196,2.09577228 8.45071627,2.0676501 8.57057034,2.20491314 C8.69827197,2.361935 8.76018685,2.56231829 8.7433209,2.76400894 C8.72769749,3.22869455 8.71162767,3.69360335 8.69511144,4.15873534 C8.67502417,4.74930121 8.65560647,5.33919749 8.63284089,5.93043293 C8.63231179,6.01262239 8.61875188,6.09420795 8.59266634,6.1721498 C8.54378731,6.30606496 8.42995942,6.34958739 8.33019263,6.24781186 C8.23056725,6.14719456 8.1536287,6.02642154 8.10454558,5.89360626 C7.92309054,5.37334586 7.75904446,4.8463897 7.58830263,4.32211184 C7.43787124,3.86010453 7.28788626,3.39787404 7.13834769,2.93542034 L7.11692126,2.93742907 Z" id="路径_7027" fill="#21887A"></path>
                <path d="M4.49151452,2.99032556 C4.42455694,3.17981551 4.37500833,3.3599314 4.30336372,3.53067324 C4.27524153,3.59763082 4.20828395,3.68869313 4.15003086,3.69538888 C4.07066088,3.68739588 3.9989847,3.64443927 3.95451472,3.57821312 C3.82125751,3.40603183 3.7828186,3.17866449 3.85206962,2.97224701 C4.16453834,2.0509107 4.48035492,1.13091354 4.79951939,0.212255531 C4.8852251,-0.0321396388 5.07203675,-0.0756620663 5.22403045,0.13257601 C5.33175324,0.283659133 5.40594722,0.456017444 5.44164259,0.638105745 C5.67532455,1.79513274 5.89561499,2.95550762 6.11791416,4.11521292 C6.14809208,4.25936477 6.16800614,4.40547582 6.1775064,4.55244592 C6.18152386,4.66493465 6.16009743,4.79617151 6.02350397,4.82027624 C5.8869105,4.84438097 5.81727462,4.74193587 5.78245668,4.6414995 C5.70699058,4.45720479 5.65589468,4.26385072 5.63046297,4.06633388 C5.62768891,3.76421581 5.44246167,3.49378403 5.1617599,3.38202741 C4.93113063,3.26421542 4.70735734,3.13343882 4.49151452,2.99032556 L4.49151452,2.99032556 Z M5.09413275,1.20456688 L5.06668014,1.20456688 C4.95486098,1.550068 4.84237224,1.89690826 4.73189224,2.24374853 C4.72386239,2.27389259 4.73029518,2.30605651 4.74930121,2.33079339 C4.94414777,2.45399534 5.14234221,2.57184068 5.36865883,2.70910372 L5.09413275,1.20456688 Z" id="路径_7028" fill="#21887A"></path>
                <path d="M10.3007542,4.1018214 L10.294728,4.27390238 C10.2657131,5.13319133 10.2362518,5.99248029 10.206344,6.85176924 C10.2055241,6.93850884 10.1931394,7.02475168 10.1695174,7.10821678 C10.1159513,7.2682454 9.98538402,7.2930197 9.87088656,7.1684786 C9.73331505,7.00795329 9.66685677,6.79842829 9.68675321,6.58795637 C9.71576814,5.70322354 9.74701504,4.81804432 9.78049383,3.93241872 C9.79844361,3.83760152 9.74643231,3.7434189 9.6566223,3.70811082 C9.55216848,3.65722306 9.45574956,3.58959591 9.35531319,3.52799493 C9.11503223,3.36696131 9.00407682,3.07072121 9.07944796,2.79146154 C9.12832699,2.63678953 9.21336312,2.60264117 9.35330446,2.68700772 C9.83272074,2.97626447 10.3114674,3.26641398 10.7895446,3.55745627 C11.0198324,3.73323405 11.1122553,4.03637032 11.0192091,4.31072905 C11.0081623,4.36121235 10.971358,4.4021538 10.9223321,4.41849575 C10.8733062,4.43483771 10.8192979,4.42416715 10.7801705,4.39040857 C10.6275072,4.30068541 10.4775222,4.20828395 10.3007542,4.1018214 Z" id="路径_7029" fill="#21887A"></path>
                <path d="M11.8568484,6.28062108 C11.8387699,6.80556851 11.8220305,7.33118552 11.800604,7.85613296 C11.7997796,7.9296037 11.7878143,8.00252432 11.7651165,8.07240594 C11.75532,8.13814838 11.7057476,8.19090559 11.6407417,8.20477157 C11.5757358,8.21863748 11.5089509,8.19069956 11.4731815,8.13467649 C11.337391,7.98392016 11.2698043,7.78382486 11.2863698,7.58160687 C11.3082427,6.91783408 11.3305618,6.25383805 11.3533274,5.58961885 C11.3673885,5.18787336 11.3794409,4.79148448 11.3961803,4.3924173 C11.3962451,4.31870229 11.4070725,4.24539169 11.4283199,4.17480516 C11.4832251,4.01410697 11.6117837,3.98799351 11.7269507,4.11186504 C11.8602626,4.26415955 11.9264198,4.46383821 11.9104145,4.66560423 C11.8950142,5.20126488 11.8735878,5.74228213 11.8555093,6.2799515 L11.8568484,6.28062108 Z" id="路径_7030" fill="#21887A"></path>
                <path d="M2.36159387,3.80118186 C2.02296896,3.55176987 1.6687068,3.32431746 1.30098579,3.12022327 C1.22233123,3.10792323 1.14589545,3.15272077 1.1181916,3.22735539 C1.07419727,3.3352317 1.04883938,3.44979501 1.04319911,3.56616075 C1.01373777,4.26586747 0.991641772,4.96423504 0.967537043,5.66327218 L0.975571952,5.66327218 C0.951467223,6.36632678 0.924014615,7.06938138 0.903257765,7.77310556 C0.85789152,8.06867326 0.968871695,8.36664741 1.19653197,8.56052671 C1.53332241,8.79104652 1.88619993,8.99713419 2.25245302,9.17720602 C2.62865422,9.3204226 3.05327276,9.17095687 3.25681673,8.82367 C3.38688202,8.62893854 3.4843544,8.4143184 3.5454039,8.18824256 C3.76420452,7.27842676 3.71372247,6.32461838 3.40010595,5.44298174 C3.22607179,4.80410351 2.86429434,4.23216391 2.36159387,3.80118186 L2.36159387,3.80118186 Z M3.09812726,7.50527523 C3.06645185,7.64022683 3.01596285,7.7700557 2.94814228,7.8909509 C2.88940774,8.0155457 2.78050722,8.1093224 2.64857518,8.14891475 C2.51664315,8.18850711 2.37410278,8.17018711 2.25647047,8.0985194 C2.22500041,8.08311915 2.19620865,8.06169273 2.16473859,8.04495333 C2.11656026,8.03560197 2.0696085,8.02077508 2.02479724,8.00076133 C1.8239245,7.89965538 1.63242582,7.77645343 1.44025756,7.65726894 C1.40845094,7.63194793 1.38916055,7.59409969 1.38736107,7.55348469 C1.42128625,6.49421576 1.45744334,5.43539322 1.49583236,4.37701706 L1.49583236,4.37099087 C1.57465339,4.40775412 1.65113041,4.44934689 1.72482728,4.49553197 L1.72482728,4.4754447 L1.72817516,4.46941852 C2.54004943,4.77052166 3.0935413,5.52748767 3.13428436,6.39244024 C3.1925963,6.76211753 3.18032751,7.13949648 3.09812726,7.50460566 L3.09812726,7.50527523 Z" id="路径_7031" fill="#5AC0A5"></path>
                <path d="M7.12093872,9.3633481 C7.14143952,8.7629295 7.0587753,8.16344435 6.87654355,7.59098094 C6.70607685,6.92896243 6.33967333,6.33384841 5.82530953,5.88356262 C5.4834907,5.63115549 5.12562947,5.40122965 4.75398824,5.19523869 C4.68176418,5.19064137 4.61518462,5.2343001 4.59061174,5.30237082 C4.54377059,5.42287124 4.51685876,5.55019356 4.51093222,5.679342 C4.46093722,7.05197241 4.41473649,8.42437965 4.37233003,9.79656365 C4.36840695,9.85296309 4.36840695,9.90956688 4.37233003,9.96596633 C4.36238217,10.2187501 4.4702106,10.4618587 4.66426508,10.6241593 C5.00318475,10.8497518 5.3553459,11.0547879 5.71884698,11.2381604 C6.09425034,11.368303 6.50944996,11.2170417 6.71316705,10.8759198 C6.80436167,10.7385963 6.87940418,10.5912074 6.93680537,10.4366781 C7.05664538,10.0914244 7.11885426,9.72880311 7.12093872,9.3633481 Z M6.54711225,9.60372581 C6.51895066,9.72122713 6.47383958,9.83400479 6.41319709,9.93851372 C6.35401895,10.0677565 6.24191608,10.1651515 6.10567253,10.205691 C5.96942898,10.2462305 5.8223162,10.2259656 5.70210758,10.1500997 C5.68135073,10.1393865 5.66260261,10.1253254 5.64184576,10.1146122 C5.58229014,10.1038993 5.52457008,10.0847345 5.47043435,10.0576982 C5.27826609,9.95726184 5.09480232,9.84142523 4.91066898,9.72692776 C4.87817643,9.70231436 4.85830426,9.66453267 4.85643334,9.62381309 C4.88991213,8.56521374 4.92740837,7.50728396 4.96490462,6.43663224 C5.04592329,6.47345891 5.11823748,6.51765092 5.19456912,6.55916462 L5.19456912,6.52970328 C5.75053217,6.73638084 6.19238644,7.1697145 6.40984921,7.72154822 C6.63673177,8.32216669 6.68509818,8.9755784 6.54912098,9.60305624 L6.54711225,9.60372581 Z" id="路径_7032" fill="#5AC0A5"></path>
                <path d="M10.0175237,11.1571417 C9.95778819,10.4779145 9.70501328,9.82994635 9.28902518,9.28969476 C9.15299597,9.12610279 8.99293106,8.98409875 8.81429594,8.86853158 C8.64819594,8.77605157 8.45146359,8.75564739 8.26991996,8.81207134 C8.08837633,8.86849535 7.93786968,8.99682197 7.85345465,9.16716239 C7.75993473,9.31834785 7.69206144,9.48395872 7.65258191,9.65729188 C7.41307136,10.7188265 7.63446868,11.8321387 8.26189589,12.7212708 C8.37268933,12.8767389 8.50554502,13.0152336 8.65627605,13.1323903 C8.70136762,13.1667577 8.7485521,13.1982886 8.79755654,13.2268005 C9.00158232,13.3212092 9.23686797,13.3207915 9.44055729,13.2256591 C9.6442466,13.1305266 9.79558667,12.950372 9.85414717,12.7333231 C9.89479149,12.6476856 9.92599874,12.5578805 9.9472182,12.4654928 C9.99274936,12.2411849 10.0268977,12.0141987 10.0610461,11.8160043 C10.0456458,11.5729483 10.0429675,11.3653798 10.0175237,11.1571417 Z M9.37205258,12.0496862 C9.34267207,12.157996 9.26017531,12.2438985 9.15314214,12.2776343 C9.04610897,12.3113701 8.92926445,12.2882978 8.8430877,12.2164106 C8.77577551,12.1979976 8.71350911,12.1645751 8.66096308,12.1186525 C8.53022371,12.0059755 8.42187309,11.8696853 8.34157542,11.7169071 C8.11559813,11.27626 8.04753448,10.7714544 8.14873758,10.2866931 C8.16941495,10.1845054 8.20554011,10.0860643 8.25586971,9.99475809 C8.29387758,9.89635816 8.37748624,9.82267797 8.47988447,9.79734511 C8.58228263,9.77201224 8.69060085,9.79821047 8.77010393,9.86753868 L8.77947799,9.87691274 C8.8226276,9.88945356 8.86336761,9.90914452 8.90000164,9.93516584 C9.03661198,10.0402669 9.1524202,10.1699267 9.2414853,10.3174936 C9.4303484,10.6706171 9.52967173,11.0646914 9.53074205,11.4651466 C9.49150357,11.6634464 9.43847832,11.8587671 9.37205258,12.0496862 L9.37205258,12.0496862 Z" id="路径_7033" fill="#5AC0A5"></path>
                <path d="M11.906397,11.7289594 C11.7256115,11.5280867 11.5468348,11.3272139 11.3754234,11.120315 C11.2432361,10.9666505 11.1745243,10.7684157 11.1832551,10.5659063 C11.1886118,10.4480609 11.186603,10.3208415 11.3064571,10.2552231 C11.4220223,10.2014602 11.5592854,10.2319326 11.641245,10.329546 C11.6720455,10.3583377 11.6981589,10.3924861 11.7276203,10.4219475 C11.7688541,10.4385494 11.8074304,10.4611086 11.8421177,10.488905 C12.0037622,10.6446515 12.1562353,10.8096443 12.2987684,10.983052 C12.365726,11.0607228 12.4132659,11.1544634 12.4728582,11.2361516 C12.502393,11.2515625 12.535297,11.2593858 12.5686075,11.2589172 C12.6355651,11.248204 12.7092184,11.1363848 12.7353319,11.0580445 C12.7986085,10.8509632 12.7779261,10.6273051 12.6777483,10.435339 C12.5202954,10.1050005 12.3032983,9.80651595 12.0376339,9.55484678 C11.9820591,9.5126635 11.9305017,9.46780193 11.8702399,9.43030568 C11.6834932,9.25694253 11.4133313,9.20722559 11.1771021,9.30275002 C10.9408729,9.39827438 10.7812037,9.62180275 10.7674486,9.87624317 C10.5669973,10.6046132 10.6983378,11.384325 11.1263412,12.0068334 C11.2950743,12.2478807 11.503982,12.4608058 11.6921328,12.687792 C11.8468048,12.8746036 12.0081725,13.0580674 12.1514618,13.2535835 C12.2743114,13.4264032 12.3183359,13.6431202 12.272655,13.8501756 C12.2732249,13.9292298 12.2313897,14.0025278 12.1630324,14.0422415 C12.0946751,14.0819551 12.0102786,14.0819942 11.9418845,14.0423438 C11.8491934,14.0052872 11.762362,13.9549927 11.6840978,13.8930284 C11.645932,13.862228 11.6171403,13.8220534 11.5856702,13.7892442 C11.5521914,13.7684873 11.5146952,13.7544262 11.4838947,13.7309911 C11.225132,13.510501 11.0149205,13.2387309 10.8665458,12.9328567 C10.8404323,12.886656 10.8096318,12.8438031 10.7801705,12.7989416 C10.7529884,12.7845894 10.7225018,12.7776606 10.6917865,12.7788543 C10.6081904,12.8173805 10.5459255,12.8909216 10.5217142,12.979727 C10.4590659,13.2091996 10.4878691,13.4540268 10.6020633,13.6626944 C10.7728386,14.0104625 10.9946928,14.330718 11.2602564,14.6128224 C11.314492,14.670406 11.3754234,14.719285 11.4343461,14.7728511 C11.524357,14.8409176 11.6213153,14.8992721 11.7236028,14.9469408 C11.8985456,15.0553305 12.1156483,15.070606 12.3040451,14.9877809 C12.4924419,14.9049559 12.6279605,14.7346574 12.6663656,14.5324733 C12.7031922,14.4260108 12.727297,14.3162004 12.7580974,14.2077291 C12.7661324,13.972708 12.7741673,13.739026 12.7822022,13.5040049 C12.7560887,13.3700897 12.7339927,13.2321571 12.7025227,13.098242 C12.5610495,12.5802177 12.2865995,12.1081821 11.906397,11.7289594 L11.906397,11.7289594 Z" id="路径_7034" fill="#5AC0A5"></path>
                <path d="M6.11858373,4.11588249 C5.89561499,2.95617719 5.67599412,1.79580232 5.44164259,0.638775321 C5.405594,0.456796488 5.33143095,0.284510022 5.22403045,0.133245586 C5.19247891,0.0873335654 5.15078115,0.0493015477 5.10216766,0.0220960017 C5.02584477,0.0606865541 4.96941242,0.129767524 4.94682607,0.212255531 C4.62810798,1.13091354 4.31229139,2.0509107 3.9993763,2.97224701 C3.92993777,3.17855433 3.96812369,3.40591125 4.10115182,3.57821312 C4.12701317,3.61254082 4.15959085,3.64124564 4.19690116,3.66257967 C4.24338745,3.62791471 4.28007272,3.58176972 4.30336372,3.52866451 C4.37500833,3.3572531 4.42656567,3.17780678 4.49151452,2.98831683 C4.53235864,3.01309114 4.57186362,3.03786544 4.61203817,3.0639789 C4.62074265,3.03719587 4.62944714,3.01443029 4.63815162,2.98831683 C4.85384066,3.1321186 5.0773795,3.26378298 5.30772743,3.38269698 C5.58854856,3.49430431 5.77383878,3.76482804 5.7764305,4.06700346 C5.8018622,4.26452029 5.8529581,4.45787437 5.9284242,4.64216908 C5.952804,4.70694557 6.00058818,4.76022493 6.06233937,4.79148448 C6.14524583,4.74108129 6.19085542,4.64671661 6.17884556,4.55043719 C6.16887868,4.40436148 6.14874261,4.25915808 6.11858373,4.11588249 L6.11858373,4.11588249 Z M5.35258901,2.60866735 L5.37200671,2.70910372 C5.14635966,2.57518856 4.94749565,2.45533449 4.75331866,2.33213254 C4.73431264,2.30739566 4.72787985,2.27523174 4.73590969,2.24508768 C4.84572012,1.89824742 4.95820886,1.55207672 5.07069759,1.20590603 L5.09681105,1.20590603 L5.14100305,1.44494459 C5.16644693,1.36526507 5.19189082,1.28625513 5.21800427,1.20657561 L5.24411773,1.20657561 L5.51931339,2.71111245 C5.45838199,2.67294663 5.41017253,2.64281571 5.35258901,2.60866735 Z" id="路径_7035" fill="#5AC0A5"></path>
                <polygon id="路径_7036" fill="#21887A" points="4.6388212 2.99032556 4.4921841 2.99032556 4.61270774 3.06598762 4.64618653 3.0472395"></polygon>
                <polygon id="路径_7037" fill="#21887A" points="5.37200671 2.70910372 5.51864381 2.70910372 5.33852792 2.52831825"></polygon>
                <polygon id="路径_7038" fill="#21887A" points="5.24344815 1.20456688 5.09681105 1.20456688 5.14569008 1.4723972 5.22938706 1.29495961"></polygon>
                <path d="M8.69979847,4.16141365 C8.7163147,3.69672804 8.73238452,3.23181924 8.74800793,2.76668724 C8.7647328,2.56501193 8.70283393,2.3646802 8.57525737,2.20759144 C8.5523159,2.17969714 8.52381031,2.15689268 8.4915604,2.14063386 C8.44062463,2.16918106 8.40396073,2.21774255 8.39045445,2.27454902 C8.37163508,2.34122932 8.36194947,2.41015467 8.36166269,2.47943922 C8.33822754,3.10482302 8.31814026,3.72953725 8.29470511,4.35425148 C8.29470511,4.38906942 8.28867893,4.42522652 8.28131359,4.4948624 C8.25921759,4.4366093 8.24917395,4.41384373 8.24113904,4.38906942 L8.17418146,4.18417922 L8.16882486,4.35425148 C8.16882486,4.38906942 8.1621291,4.42522652 8.15476377,4.4948624 C8.13199819,4.4366093 8.12262413,4.41384373 8.11458922,4.38906942 C7.95701573,3.90161823 7.80078133,3.41416704 7.64588615,2.92671586 C7.50527523,2.48836689 7.36377157,2.05068751 7.22137509,1.6136777 C7.18467825,1.43686362 7.07694712,1.28289282 6.92341385,1.18782748 C6.91136149,1.1818013 6.902657,1.18782748 6.89060464,1.18247088 C6.85587656,1.19815949 6.82887129,1.22709367 6.81561215,1.26281997 C6.78406736,1.34869942 6.76687493,1.43918595 6.76472439,1.5306503 C6.73526305,2.34686321 6.70981917,3.16374569 6.68236656,3.9799586 C6.67500123,4.23238868 6.66495759,4.48347961 6.65826183,4.73590969 C6.6442973,4.92454381 6.70542515,5.11105599 6.82833409,5.25483094 C6.85110737,5.27874026 6.87755407,5.29885785 6.90667446,5.31442319 C6.95393982,5.28290781 6.99149887,5.23885705 7.01514574,5.18720378 C7.03930049,5.11729676 7.05020024,5.04349665 7.04728538,4.96959165 C7.07005096,4.34019039 7.09237013,3.71056594 7.11424296,3.08071829 L7.11959957,2.94077695 L7.14705217,2.94077695 L7.23610576,3.21396388 L7.24079279,3.08004872 L7.24614939,2.94010737 L7.273602,2.94010737 C7.42358698,3.40300745 7.57334879,3.86523795 7.72288737,4.32679887 C7.89295962,4.8517463 8.05767527,5.37803289 8.23779117,5.89829329 C8.28726719,6.03087355 8.36441813,6.15139339 8.46410779,6.25182932 C8.47915349,6.26615318 8.49660632,6.27771282 8.51566513,6.28597769 C8.55631019,6.26079087 8.58686608,6.22218149 8.60204041,6.17683683 C8.627402,6.09873693 8.64072301,6.01723043 8.64154538,5.93511996 C8.65828477,5.3418758 8.6797112,4.75130993 8.69979847,4.16141365 Z" id="路径_7039" fill="#5AC0A5"></path>
                <polygon id="路径_7040" fill="#21887A" points="7.26221921 2.93742907 7.1437043 2.93742907 7.25552346 3.28159104"></polygon>
                <polygon id="路径_7041" fill="#21887A" points="8.15677249 4.4948624 8.28265274 4.4948624 8.17619019 4.18350965"></polygon>
                <path d="M10.7902141,3.55611712 C10.3201719,3.2686459 9.84923697,2.98318341 9.37740919,2.69972966 C9.34683402,2.72304922 9.32359471,2.75465471 9.31045161,2.79079197 C9.23529601,3.07004138 9.34620515,3.36615788 9.58631684,3.52732536 C9.68608364,3.58825676 9.78250255,3.65655349 9.88762596,3.70744125 C9.97796626,3.74226434 10.0306115,3.83657522 10.0128366,3.93174914 C9.97734912,4.81692836 9.94587905,5.70277716 9.91842644,6.5872868 C9.89891916,6.79771693 9.96533043,7.00709349 10.1025598,7.16780902 C10.1105947,7.17651351 10.11796,7.17852224 10.1259949,7.185218 C10.1445731,7.16182878 10.1592682,7.13560357 10.1695174,7.1075472 C10.1936034,7.02418126 10.2059973,6.93787468 10.206344,6.85109967 C10.2366981,5.99181072 10.2661595,5.13252176 10.294728,4.27323281 L10.3007542,4.10115182 L10.5277404,4.23506699 L10.5317579,4.10115182 C10.6924561,4.19824032 10.8303887,4.28193729 10.9689909,4.36429512 C10.9857303,4.34621657 11.0058176,4.33885124 11.0185395,4.3093899 C11.1118778,4.03531673 11.020013,3.73224382 10.7902141,3.55611712 Z" id="路径_7042" fill="#5AC0A5"></path>
                <polygon id="路径_7043" fill="#21887A" points="10.533097 4.1018214 10.3014238 4.1018214 10.52841 4.23573656 10.616794 4.23573656"></polygon>
                <path d="M11.7282899,4.11320419 C11.7222637,4.10650843 11.7148983,4.1044997 11.7088722,4.09847352 C11.6509603,4.12168585 11.6079871,4.17165474 11.5937051,4.23238868 C11.5729607,4.30262857 11.5621427,4.37542479 11.5615655,4.44866167 C11.5454957,4.85040715 11.5327737,5.24746561 11.5187126,5.64653279 C11.495947,6.31008241 11.4725119,6.97363204 11.451755,7.63852082 C11.4353852,7.84019169 11.5027003,8.03971578 11.6378971,8.19025128 C11.6419146,8.19560789 11.6466016,8.19627747 11.6519582,8.2009645 C11.7079347,8.17974865 11.750292,8.13290647 11.7657861,8.07508424 C11.7885623,8.00520122 11.8007496,7.93230256 11.8019432,7.85881126 C11.8227,7.33386383 11.8394394,6.80824682 11.857518,6.28329938 L11.857518,6.28329938 C11.8755965,5.74763874 11.897023,5.20729106 11.9124232,4.66895211 C11.9288783,4.46640627 11.8624303,4.26585394 11.7282899,4.11320419 L11.7282899,4.11320419 Z" id="路径_7044" fill="#5AC0A5"></path>
            </g>
            <path d="M52.5878144,34.3847265 C52.5878144,34.3847265 50.6185919,47.9443062 42.4102621,46.1746173 C35.7372696,40.8514896 36.1329889,26.8004413 36.1329889,26.8004413 C38.2860696,26.3420413 40.238495,25.2131085 41.7098858,23.5757642 L42.2562597,22.9677894 L48.2342325,26.643091 L48.5482635,28.1730717 C49.0061689,30.4042824 50.2106243,32.4128889 51.9631002,33.8678139 L52.5878144,34.3847265 Z" id="路径_7045" fill="#F3FFFB" opacity="0.8"></path>
        </g>
    </g>
</svg>