<?xml version="1.0" encoding="UTF-8"?>
<svg width="86px" height="98px" viewBox="0 0 86 98" version="1.1" xmlns="http://www.w3.org/2000/svg" xmlns:xlink="http://www.w3.org/1999/xlink">
    <!-- Generator: Sketch 63.1 (92452) - https://sketch.com -->
    <title>组 989</title>
    <desc>Created with Sketch.</desc>
    <defs>
        <linearGradient x1="28.4%" y1="10.1%" x2="62.9%" y2="73.3%" id="linearGradient-1">
            <stop stop-color="#FFFFFF" stop-opacity="0" offset="0%"></stop>
            <stop stop-color="#000000" offset="100%"></stop>
        </linearGradient>
        <linearGradient x1="30.8%" y1="14.4%" x2="65.2%" y2="77.5%" id="linearGradient-2">
            <stop stop-color="#FFFFFF" stop-opacity="0" offset="0%"></stop>
            <stop stop-color="#000000" offset="100%"></stop>
        </linearGradient>
        <linearGradient x1="28.4%" y1="10.1%" x2="62.9%" y2="73.3%" id="linearGradient-3">
            <stop stop-color="#FFFFFF" stop-opacity="0" offset="0%"></stop>
            <stop stop-color="#000000" offset="100%"></stop>
        </linearGradient>
        <path d="M0.001850688,0 L0.001850688,10.5748312 L1.79084909,9.50883494 L2.83957229,9.68279962 L2.83957229,9.02087021 L17.6574142,17.7548838 L17.6574142,34.4314333 L18.7369822,35.5813275 L17.6574142,36.1982235 L16.5642745,36.8249898 L16.0541015,37.1334378 C15.9344237,37.2049978 13.6334016,38.597332 13.6334016,38.597332 L20.6820553,42.2370184 L20.6820553,11.442187 L0.001850688,0 Z" id="path-4"></path>
        <radialGradient cx="53.8%" cy="31.1%" fx="53.8%" fy="31.1%" r="86.4%" id="radialGradient-6">
            <stop stop-color="#58595B" offset="0%"></stop>
            <stop stop-color="#6D6E71" offset="48.9%"></stop>
            <stop stop-color="#231F20" offset="100%"></stop>
        </radialGradient>
        <radialGradient cx="51.3%" cy="25.1%" fx="51.3%" fy="25.1%" r="83.9%" id="radialGradient-7">
            <stop stop-color="#45EFBE" offset="0%"></stop>
            <stop stop-color="#3FD5AE" offset="48.9%"></stop>
            <stop stop-color="#38A588" offset="67%"></stop>
        </radialGradient>
        <radialGradient cx="49%" cy="33.6%" fx="49%" fy="33.6%" r="74.3%" id="radialGradient-8">
            <stop stop-color="#FFFFFF" offset="0%"></stop>
            <stop stop-color="#E6E7E8" offset="48.9%"></stop>
            <stop stop-color="#939598" offset="100%"></stop>
        </radialGradient>
        <radialGradient cx="48.7%" cy="34.9%" fx="48.7%" fy="34.9%" r="89.8%" id="radialGradient-9">
            <stop stop-color="#58595B" offset="0%"></stop>
            <stop stop-color="#6D6E71" offset="48.9%"></stop>
            <stop stop-color="#231F20" offset="100%"></stop>
        </radialGradient>
    </defs>
    <g id="组-989" stroke="none" stroke-width="1" fill="none" fill-rule="evenodd">
        <g transform="translate(3.000000, 18.000000)">
            <g id="组_974" transform="translate(0.246142, 2.022802)">
                <g id="组_973">
                    <polygon id="路径_7168" fill="#BBBDBF" fill-rule="nonzero" points="38.3912888 39.5072536 23.7282877 47.8353496 4.13011872 36.5005025 18.7937366 28.1724065"></polygon>
                    <polygon id="路径_7169" fill="#E4E7E9" fill-rule="nonzero" points="18.7937366 28.1724065 38.3912888 39.5461181 38.3912888 11.3644581 18.7937366 0.001850688"></polygon>
                    <polygon id="路径_7170" fill="#D0D2D3" fill-rule="nonzero" points="18.7931197 28.1724065 4.12950182 36.5005025 4.12950182 8.31637498 18.7931197 -7.01329554e-14"></polygon>
                    <polygon id="路径_7171" fill="#E4E7E9" fill-rule="nonzero" points="5.08630752 24.2224214 8.74696838 22.0891951 8.74696838 19.3039096 5.08630752 21.4537922"></polygon>
                    <polygon id="路径_7172" fill="#E4E7E9" fill-rule="nonzero" points="10.2491101 20.3452301 11.8715466 19.4001454 11.8715466 18.1663534 10.2491101 19.1182239"></polygon>
                    <g id="组_944" transform="translate(13.917174, 15.080640)" fill-rule="nonzero">
                        <polygon id="路径_7173" fill="#E4E7E9" points="0.199257408 3.47929344 3.24857434 1.70510054 3.24857434 0.119060928 0.199257408 1.90189037"></polygon>
                        <polygon id="路径_7174" fill="#C0C3E2" points="3.25165882 0.119060928 3.04931693 0 7.01329554e-14 1.78282944 7.01329554e-14 3.36023251 0.202341888 3.47929344 0.202341888 1.90189037"></polygon>
                    </g>
                    <g id="组_946" transform="translate(0.000000, 23.555557)" fill-rule="nonzero">
                        <path d="M0.417021696,13.8838614 L15.6839639,22.71226 C15.8147952,22.7877958 15.9759712,22.7878602 16.1068628,22.7124289 C16.2377544,22.6369977 16.3185092,22.4975117 16.3187499,22.3464407 L16.3187499,17.6672845 C16.3187499,17.368035 16.1589716,17.0915497 15.8998775,16.9418148 L0.531147456,8.05296038 C0.421311839,7.98954459 0.285947441,7.9897144 0.176271273,8.05340556 C0.0665951043,8.11709671 -0.000642021886,8.23458168 -4.55702519e-06,8.36140838 L-4.55702519e-06,13.1620931 C0.000570882499,13.4597749 0.159411363,13.7346912 0.417021696,13.8838614 L0.417021696,13.8838614 Z" id="路径_7175" fill="#5A615F"></path>
                        <g id="组_945" transform="translate(0.159776, 0.087599)" fill="#515453">
                            <path d="M29.4765247,8.93450477 L14.1077946,0.046884096 C14.0116465,-0.00935850237 13.8942784,-0.0157896284 13.7925608,0.029611008 L13.7925608,0.029611008 C13.7673021,0.0407975906 13.7433123,0.0546537444 13.7210008,0.07094304 L0.037630656,7.95672461 C0.143170493,7.90225773 0.269181114,7.90528012 0.371988288,7.96474426 L15.7407183,16.8535987 C15.9998125,17.0033336 16.1594498,17.2798189 16.1595907,17.5790684 L16.1595907,22.2582246 C16.1591907,22.3473101 16.1299752,22.4338746 16.0763098,22.504983 L16.0763098,22.504983 L29.640619,14.7253075 C29.6700153,14.712283 29.6979344,14.696152 29.7239,14.6771896 L29.7239,14.6771896 C29.8327783,14.5992967 29.8972478,14.4736198 29.8972478,14.3397475 L29.8972478,9.66120826 C29.8972478,9.36117008 29.7366197,9.08408259 29.4765247,8.93450477 L29.4765247,8.93450477 Z" id="路径_7177"></path>
                        </g>
                        <path d="M16.3187499,17.6666676 L16.3187499,22.3458238 C16.3183057,22.4349019 16.2890947,22.5214529 16.2354689,22.5925822 L16.2354689,22.5925822 L29.7966937,14.8092054 C29.8260752,14.7961517 29.8539912,14.7800224 29.8799747,14.7610875 L29.8799747,14.7610875 C29.9889329,14.6832636 30.0535173,14.5575424 30.0533229,14.4236454 L30.0533229,9.74510611 C30.0512951,9.71612705 30.0475875,9.68729008 30.0422183,9.65874067 L16.1620583,17.1891901 C16.2619914,17.3285282 16.3166908,17.4952107 16.3187499,17.6666676 L16.3187499,17.6666676 Z" id="路径_7178" fill="url(#linearGradient-1)" style="mix-blend-mode: multiply;"></path>
                        <path d="M1.50707693,7.43174611 L17.0337324,16.4384277 C17.0880327,16.4696322 17.1548327,16.4695959 17.2090991,16.4383324 C17.2633655,16.4070689 17.2969043,16.3492987 17.2971469,16.2866713 L30.1902733,9.44467776 C30.1902733,9.38229512 30.1566996,9.32472938 30.1026741,9.29353824 L14.1423408,0.02159136 C14.0881681,-0.00939273523 14.0216034,-0.00922088586 13.9675914,0.0220425083 C13.9135795,0.0533059025 13.8802755,0.110940417 13.88016,0.173347776 L1.41885844,7.2787559 C1.41853338,7.34192738 1.45223979,7.40038324 1.50707693,7.43174611 L1.50707693,7.43174611 Z" id="路径_7179" fill="#221F1F" opacity="0.3"></path>
                    </g>
                    <g id="组_948" transform="translate(2.659439, 16.403882)" fill-rule="nonzero">
                        <path d="M0.417021696,13.7956452 L15.6839639,22.6240439 C15.8147436,22.6999915 15.9761396,22.7002601 16.1071713,22.6247482 C16.238203,22.5492362 16.3187501,22.4094573 16.3187501,22.2582246 L16.3187501,17.5796853 C16.3189225,17.2800291 16.1592602,17.0030303 15.8998775,16.8529818 L0.531147456,7.96536115 C0.42136368,7.90152824 0.285775298,7.90149164 0.175957082,7.96526529 C0.0661388661,8.02903893 -0.00103000418,8.14682074 -1.16781017e-05,8.27380915 L-1.16781017e-05,13.0744938 C0.000537627741,13.3720233 0.159416415,13.6467708 0.417021696,13.7956452 L0.417021696,13.7956452 Z" id="路径_7180" fill="#F1F1F1"></path>
                        <g id="组_947" transform="translate(0.159776, 0.000000)" fill="#E5E6E6">
                            <path d="M29.4765247,8.93450477 L14.1047101,0.046884096 C14.0084423,-0.00895918544 13.8912692,-0.0153796301 13.7894763,0.029611008 L13.7894763,0.029611008 C13.7637564,0.0405179624 13.7395078,0.0546111662 13.7172995,0.071559936 L0.039481344,7.9573415 C0.144908023,7.90305785 0.270744134,7.90631423 0.37322208,7.96597805 L15.7419521,16.8535987 C16.001144,17.0035368 16.1607768,17.2802494 16.1608245,17.5796853 L16.1608245,22.2582246 C16.1603803,22.3473027 16.1311694,22.4338537 16.0775436,22.504983 L16.0775436,22.504983 L29.6381514,14.7234568 C29.6676766,14.7104354 29.6956179,14.6940845 29.7214324,14.674722 L29.7214324,14.674722 C29.8304709,14.5969675 29.8947812,14.4712018 29.8947812,14.3372799 L29.8947812,9.65874067 C29.8942006,9.36009302 29.7349079,9.0842675 29.4765247,8.93450477 Z" id="路径_7182"></path>
                        </g>
                        <path d="M16.3187499,17.6080625 L16.3187499,22.2866018 C16.3180005,22.3756288 16.288821,22.4620866 16.2354689,22.5333602 L16.2354689,22.5333602 L29.7966937,14.7499834 C29.8259907,14.7370103 29.8538942,14.721095 29.8799747,14.7024824 L29.8799747,14.7024824 C29.9887732,14.6245207 30.0533224,14.4988878 30.0533224,14.3650403 L30.0533224,9.68835168 C30.0512954,9.6591683 30.0475879,9.63012601 30.0422183,9.60136934 L16.1620583,17.1324357 C16.262246,17.2709449 16.3169931,17.437126 16.3187499,17.6080625 L16.3187499,17.6080625 Z" id="路径_7183" fill="url(#linearGradient-2)" opacity="0.28" style="mix-blend-mode: multiply;"></path>
                        <path d="M0.82664064,7.84259885 L16.3532961,16.8492804 C16.4075964,16.880485 16.4743965,16.8804487 16.5286628,16.8491851 C16.5829292,16.8179216 16.6164681,16.7601514 16.6167107,16.697524 L29.5098371,9.8555305 C29.5098371,9.79314786 29.4762633,9.73558212 29.4222378,9.70439098 L13.4606707,0.437379264 C13.4064657,0.406227866 13.3397955,0.406204674 13.2855688,0.437318353 C13.2313421,0.468432032 13.197717,0.526001718 13.1972561,0.588518784 L0.735956928,7.69392691 C0.737917249,7.75598899 0.772357172,7.81245172 0.82664064,7.84259885 L0.82664064,7.84259885 Z" id="路径_7184" fill="#4FBD9B" opacity="0.54"></path>
                    </g>
                    <g id="组_950" transform="translate(3.717415, 9.335487)" fill-rule="nonzero">
                        <path d="M0.417021696,13.7962621 L15.6839639,22.6246608 C15.8147436,22.7006084 15.9761396,22.700877 16.1071713,22.6253651 C16.238203,22.5498531 16.3187501,22.4100742 16.3187501,22.2588415 L16.3187501,17.5803022 C16.3187501,17.2808663 16.1590694,17.0041537 15.8998775,16.8542156 L0.531147456,7.96659494 C0.42136368,7.90276203 0.285775298,7.90272544 0.175957082,7.96649908 C0.0661388661,8.03027272 -0.00103000418,8.14805453 -1.16781019e-05,8.27504294 L-1.16781019e-05,13.0757276 C0.000883471615,13.3730025 0.159699083,13.6474058 0.417021696,13.7962621 L0.417021696,13.7962621 Z" id="路径_7185" fill="#4FBD9B"></path>
                        <g id="组_949" transform="translate(0.159776, 0.000000)" fill="#40BA93">
                            <path d="M29.4765247,8.93450477 L14.1077946,0.046884096 C14.0116163,-0.00925804033 13.8942974,-0.015686471 13.7925608,0.029611008 L13.7925608,0.029611008 C13.7668554,0.0405468549 13.7426103,0.0546380335 13.7203839,0.071559936 L0.035779968,7.95487392 C0.141206647,7.90059026 0.267042758,7.90384665 0.369520704,7.96351046 L15.7382508,16.8511311 C15.9974426,17.0010693 16.1570754,17.2777818 16.1571231,17.5772177 L16.1571231,22.255757 C16.1567231,22.3448425 16.1275076,22.431407 16.0738422,22.5025154 L16.0738422,22.5025154 L29.6350669,14.7185217 C29.6646898,14.7062031 29.692665,14.6902469 29.7183479,14.6710207 L29.7183479,14.6710207 C29.8273864,14.5932662 29.8916967,14.4675004 29.8916967,14.3335786 L29.8916967,9.6550393 C29.8904451,9.35834651 29.7325842,9.08437695 29.4765247,8.93450477 L29.4765247,8.93450477 Z" id="路径_7187"></path>
                        </g>
                        <path d="M16.2206634,17.6129977 L16.2206634,22.2921539 C16.22013,22.3813172 16.1906911,22.4679023 16.1367656,22.5389123 L16.1367656,22.5389123 L29.7004579,14.758003 C29.730005,14.7455305 29.7579621,14.7295847 29.7837389,14.710502 L29.7837389,14.710502 C29.8926122,14.632537 29.9573471,14.5069697 29.9577036,14.3730599 L29.9577036,9.69390374 C29.955161,9.66491272 29.9510423,9.6360816 29.9453656,9.6075383 L16.0652056,17.1386047 C16.1646759,17.2769359 16.2189718,17.4426245 16.2206634,17.6129977 Z" id="路径_7188" fill="url(#linearGradient-3)" opacity="0.18" style="mix-blend-mode: multiply;"></path>
                        <path d="M1.36950912,7.43174611 L16.8961645,16.4384277 C16.950318,16.4699879 17.0172061,16.470214 17.0715717,16.4390206 C17.1259374,16.4078273 17.1594973,16.3499671 17.1595791,16.2872882 L30.0527058,9.44591155 C30.0527058,9.38312208 30.01942,9.32504309 29.9651063,9.29353824 L14.0035392,0.02776032 C13.9492904,-0.00385554885 13.8822706,-0.00402317832 13.8278644,0.0273209236 C13.7734582,0.0586650255 13.7399855,0.116727638 13.7401246,0.179516736 L1.27882541,7.28430797 C1.28096961,7.34599747 1.31541882,7.40200673 1.36950912,7.43174611 L1.36950912,7.43174611 Z" id="路径_7189" fill="#221F1F" opacity="0.2"></path>
                    </g>
                    <g id="组_954" transform="translate(3.666830, -0.000000)">
                        <g id="组_951" transform="translate(0.463289, 0.000000)" fill="#FFFFFF" fill-rule="nonzero" opacity="0.7" stroke="#FFFFFF" stroke-width="0.5">
                            <polygon id="路径_7190" points="34.2617869 39.5078705 19.598169 47.8359665 19.598169 19.651839 34.2617869 11.335464"></polygon>
                            <polygon id="路径_7191" points="0 8.31637498 19.5975521 19.6512221 34.26117 11.3348471 14.6636179 0"></polygon>
                        </g>
                        <g id="组_953" transform="translate(0.000000, 6.935762)">
                            <g id="组_952-Clipped">
                                <mask id="mask-5" fill="white">
                                    <use xlink:href="#path-4"></use>
                                </mask>
                                <g id="路径_7193"></g>
                                <g id="组_952" mask="url(#mask-5)" fill="#FFFFFF" fill-rule="nonzero" opacity="0.7" stroke="#FFFFFF" stroke-width="0.5">
                                    <g transform="translate(0.000000, 1.233792)" id="路径_7192">
                                        <path d="M0.463288896,0.146821248 L0.463288896,28.3303319 L20.060841,39.665179 L20.060841,11.4816684 L0.463288896,0.146821248 Z M18.7363653,36.8348602 L1.7883815,27.0317658 L1.7883815,5.77044518 L18.7363653,15.5723057 L18.7363653,36.8348602 Z"></path>
                                    </g>
                                </g>
                            </g>
                        </g>
                    </g>
                    <polygon id="路径_7194" stroke="#FFFFFF" stroke-width="0.5" fill="#FFFFFF" fill-rule="nonzero" opacity="0.7" points="33.0014684 8.95301165 19.8924284 1.24798061 9.51932218 7.17018221 22.6277453 14.959728"></polygon>
                    <polygon id="路径_7195" stroke="#FFFFFF" stroke-width="0.5" fill="#D0D2D3" fill-rule="nonzero" points="22.6277453 14.9609618 33.0008515 8.95301165 33.0008515 10.8123362 22.6277453 16.8202863 9.51932218 9.03074054 9.51932218 9.03074054 9.51932218 7.171416"></polygon>
                    <g id="组_960" transform="translate(1.603313, 35.515320)" fill-rule="nonzero">
                        <g id="组_956" fill="#4FBD9B">
                            <g id="组_955">
                                <path d="M9.25714138,5.75687347 C9.21369063,5.75642222 9.17112949,5.7445051 9.13376218,5.7223273 L0.127080576,0.472542336 C0.00613128601,0.402528018 -0.035159672,0.24772143 0.0348546378,0.126772136 C0.104868948,0.0058228416 0.259675533,-0.0354681262 0.380624832,0.034546176 L9.38730643,5.28556493 C9.48650003,5.34287919 9.5347842,5.45970863 9.50499611,5.57032944 C9.47520803,5.68095025 9.3747869,5.75773618 9.26022586,5.75749096 L9.25714138,5.75687347 Z" id="路径_7196"></path>
                            </g>
                        </g>
                        <g id="组_957" transform="translate(9.533511, 4.136905)" fill="#4FBD9B">
                            <path d="M0.86982336,2.91545125 C0.802692609,2.91561483 0.738264019,2.88901998 0.690795268,2.84155123 C0.643326517,2.79408248 0.616731664,2.72965389 0.616896,2.66252314 L0.616896,0.870440256 C0.612287459,0.777209785 0.659403055,0.689019702 0.739462271,0.641023023 C0.819521487,0.593026343 0.919508337,0.593026343 0.999567553,0.641023023 C1.07962677,0.689019702 1.12674236,0.777209785 1.12213382,0.870440256 L1.12213382,2.66252314 C1.1222977,2.72954685 1.09578742,2.7938816 1.04845226,2.8413325 C1.0011171,2.8887834 0.936847277,2.91545125 0.86982336,2.91545125 L0.86982336,2.91545125 Z" id="路径_7197"></path>
                        </g>
                        <g id="组_958" transform="translate(10.479829, 5.212154)" fill="#F1F1F1">
                            <path d="M0.86982336,2.30102208 C0.802635832,2.30102208 0.738209103,2.27428999 0.690758249,2.2267234 C0.643307395,2.17915681 0.616732128,2.11466515 0.616896,2.04747782 L0.616896,0.25292736 C0.623552941,0.118257898 0.734681018,0.0124873831 0.869514912,0.0124873831 C1.00434881,0.0124873831 1.11547688,0.118257898 1.12213382,0.25292736 L1.12213382,2.04501024 C1.12295732,2.11251676 1.09675845,2.17755089 1.04936944,2.22563509 C1.00198043,2.27371929 0.937334716,2.30086244 0.86982336,2.30102208 Z" id="路径_7198"></path>
                        </g>
                        <g id="组_959" transform="translate(11.425531, 5.755023)" fill="#4FBD9B">
                            <path d="M0.86982336,2.2985545 C0.730135436,2.2985545 0.616896,2.18531506 0.616896,2.04562714 L0.616896,0.25292736 C0.616896,0.113239436 0.730135436,3.50664777e-14 0.86982336,3.50664777e-14 C1.00951128,3.50664777e-14 1.12275072,0.113239436 1.12275072,0.25292736 L1.12275072,2.04562714 C1.12275072,2.11270764 1.09610309,2.17704071 1.04867001,2.22447379 C1.00123693,2.27190687 0.936903867,2.2985545 0.86982336,2.2985545 L0.86982336,2.2985545 Z" id="路径_7199"></path>
                        </g>
                    </g>
                    <g id="组_966" transform="translate(3.832158, 27.815224)" fill-rule="nonzero">
                        <g id="组_962" fill="#5A615F">
                            <g id="组_961">
                                <path d="M9.25775827,5.75687406 C9.21441518,5.75624367 9.17194947,5.7445656 9.13437907,5.72294419 L0.127697472,0.47192544 C0.00674817217,0.401911127 -0.034542793,0.247104532 0.03547152,0.126155232 C0.105485833,0.00520593217 0.260292428,-0.036085033 0.381241728,0.03392928 L9.38792333,5.28494803 C9.48711692,5.3422623 9.5354011,5.45909174 9.50561301,5.56971255 C9.47582492,5.68033336 9.3754038,5.75711928 9.26084275,5.75687406 L9.25775827,5.75687406 Z" id="路径_7200"></path>
                            </g>
                        </g>
                        <g id="组_963" transform="translate(9.533511, 4.753801)" fill="#5A615F">
                            <path d="M0.870440256,2.29855526 C0.803252928,2.29871837 0.738761269,2.2721431 0.691194681,2.22469225 C0.643628093,2.17724139 0.6168958,2.11281466 0.616896,2.04562714 L0.616896,0.253544256 C0.616896,0.113856332 0.730135436,0.000616896 0.86982336,0.000616896 C1.00951128,0.000616896 1.12275072,0.113856332 1.12275072,0.253544256 L1.12275072,2.04562714 C1.12307972,2.11270098 1.09662258,2.17713166 1.04925158,2.22461848 C1.00188059,2.2721053 0.937514706,2.2987197 0.870440256,2.29855526 L0.870440256,2.29855526 Z" id="路径_7201"></path>
                        </g>
                        <g id="组_964" transform="translate(10.479212, 5.212154)" fill="#4FBD9B">
                            <path d="M0.870440256,2.29855525 C0.803252928,2.29871837 0.738761269,2.2721431 0.691194681,2.22469225 C0.643628093,2.17724139 0.6168958,2.11281466 0.616896,2.04562714 L0.616896,0.25292736 C0.616896,0.113239436 0.730135436,0 0.86982336,0 C1.00951128,0 1.12275072,0.113239436 1.12275072,0.25292736 L1.12275072,2.04562714 C1.12291459,2.11265085 1.09640432,2.1769856 1.04906916,2.2244365 C1.00173399,2.2718874 0.937464173,2.29855525 0.870440256,2.29855525 Z" id="路径_7202"></path>
                        </g>
                        <g id="组_965" transform="translate(11.425531, 5.755023)" fill="#5A615F">
                            <path d="M0.86982336,2.29855525 C0.73037641,2.29821438 0.617512481,2.1850745 0.617512896,2.04562714 L0.617512896,0.25292736 C0.617512896,0.113239436 0.730752332,-7.01329554e-14 0.870440256,-7.01329554e-14 C1.01012818,-7.01329554e-14 1.12336762,0.113239436 1.12336762,0.25292736 L1.12336762,2.04562714 C1.12336782,2.11281466 1.09663552,2.17724139 1.04906893,2.22469225 C1.00150235,2.2721431 0.937010688,2.29871837 0.86982336,2.29855525 L0.86982336,2.29855525 Z" id="路径_7203"></path>
                        </g>
                    </g>
                    <g id="组_972" transform="translate(4.791431, 20.509324)" fill-rule="nonzero">
                        <g id="组_968" fill="#F1F1F1">
                            <g id="组_967">
                                <path d="M9.25714138,5.75687406 C9.21380215,5.75621656 9.17134312,5.74454033 9.13376218,5.72294419 L0.127080576,0.47192544 C0.00613127617,0.401911127 -0.035159689,0.247104532 0.034854624,0.126155232 C0.104868937,0.00520593217 0.259675532,-0.036085033 0.380624832,0.03392928 L9.38730643,5.28494803 C9.48650003,5.3422623 9.5347842,5.45909174 9.50499611,5.56971255 C9.47520803,5.68033336 9.3747869,5.75711928 9.26022586,5.75687406 L9.25714138,5.75687406 Z" id="路径_7204"></path>
                            </g>
                        </g>
                        <g id="组_969" transform="translate(9.533511, 4.753801)" fill="#5A615F">
                            <path d="M0.86982336,2.29855754 C0.802642191,2.29888463 0.738117134,2.27234303 0.6906123,2.2248382 C0.643107466,2.17733336 0.616565865,2.11280831 0.616896,2.04562714 L0.616896,0.253544256 C0.616896,0.113685981 0.730273533,0.000308448 0.870131808,0.000308448 C1.00999008,0.000308448 1.12336762,0.113685981 1.12336762,0.253544256 L1.12336762,2.04562714 C1.12353282,2.1128652 1.09685342,2.17738798 1.04925091,2.22487467 C1.00164841,2.27236135 0.937060818,2.29888349 0.86982336,2.29855754 L0.86982336,2.29855754 Z" id="路径_7205"></path>
                        </g>
                        <g id="组_970" transform="translate(10.479829, 5.212154)" fill="#F1F1F1">
                            <path d="M0.871057152,2.29855525 C0.731369228,2.29855525 0.618129792,2.18531506 0.618129792,2.04562714 L0.618129792,0.25292736 C0.618129792,0.113069085 0.731507325,-0.000308448 0.8713656,-0.000308448 C1.01122387,-0.000308448 1.12460141,0.113069085 1.12460141,0.25292736 L1.12460141,2.04562714 C1.12460161,2.11281466 1.09786931,2.17724139 1.05030273,2.22469225 C1.00273614,2.2721431 0.93824448,2.29871837 0.871057152,2.29855525 Z" id="路径_7206"></path>
                        </g>
                        <g id="组_971" transform="translate(11.425531, 5.755023)" fill="#5A615F">
                            <path d="M0.870440256,2.29855525 C0.803252928,2.29871837 0.738761269,2.2721431 0.691194681,2.22469225 C0.643628093,2.17724139 0.6168958,2.11281466 0.616896,2.04562714 L0.616896,0.253544256 C0.616896,0.113856332 0.730135436,0.000616896 0.86982336,0.000616896 C1.00951128,0.000616896 1.12275072,0.113856332 1.12275072,0.253544256 L1.12275072,2.04562714 C1.12275113,2.1850745 1.00988721,2.29821438 0.870440256,2.29855525 Z" id="路径_7207"></path>
                        </g>
                    </g>
                </g>
            </g>
            <g id="组_975" transform="translate(36.105689, 9.466886)" fill="#B6BDC1" fill-rule="nonzero">
                <path d="M0.409618944,6.3077616 L0,5.76982829 L7.55882669,0.0154224 C7.9573415,-0.065390976 8.14734547,0.186302592 7.96967942,0.553972608 L0.409618944,6.3077616 Z" id="路径_7208"></path>
            </g>
            <circle id="椭圆_76" fill="url(#radialGradient-6)" fill-rule="nonzero" cx="66.6451256" cy="14.1645491" r="3.69027187"></circle>
            <circle id="椭圆_77" fill="#FFFFFF" fill-rule="nonzero" opacity="0.47" cx="67.5840413" cy="13.1559241" r="2.10176467"></circle>
            <circle id="椭圆_78" fill="url(#radialGradient-6)" fill-rule="nonzero" cx="19.9331436" cy="10.3280728" r="3.69027187"></circle>
            <circle id="椭圆_79" fill="#FFFFFF" fill-rule="nonzero" opacity="0.47" cx="20.8720593" cy="9.31944787" r="2.10176467"></circle>
            <circle id="椭圆_80" fill="url(#radialGradient-7)" fill-rule="nonzero" cx="48.5435462" cy="6.80744736" r="6.73527053"></circle>
            <g id="组_976" transform="translate(19.730185, 31.666505)" fill="#B6BDC1" fill-rule="nonzero">
                <path d="M0.665630784,21.1354739 C0.565450082,21.2201443 0.432557803,21.2553834 0.30358586,21.2314776 C0.174613918,21.2075718 0.0631796334,21.127045 7.01329554e-14,21.0120947 L3.85004794,0.236888064 C4.10112461,-0.1233792 4.32197338,-0.065390976 4.51567872,0.360267264 L0.665630784,21.1354739 Z" id="路径_7209"></path>
            </g>
            <g id="组_977" transform="translate(46.243758, 11.524234)" fill="#B6BDC1" fill-rule="nonzero">
                <path d="M0.668098368,18.5895441 C0.411469632,18.7838663 0.179516736,18.8140942 0,18.4828211 L2.93334048,0.091917504 C3.14246822,-0.064157184 3.36516768,-0.016656192 3.60205574,0.198640512 L0.668098368,18.5895441 Z" id="路径_7210"></path>
            </g>
            <g id="组_978" transform="translate(21.121902, 11.079452)" fill="#B6BDC1" fill-rule="nonzero">
                <path d="M13.8776924,25.6912508 L-0.002467584,0.982098432 C0.0105169954,0.847724932 0.0884005949,0.728196664 0.206079182,0.662040885 C0.323757769,0.595885107 0.466352772,0.591466157 0.587901888,0.650208384 L14.4680619,25.3605946 C14.5581287,25.8337538 14.3045844,25.8707676 13.8776924,25.6912508 Z" id="路径_7211"></path>
            </g>
            <g id="组_979" transform="translate(52.307229, 15.842506)" fill="#B6BDC1" fill-rule="nonzero">
                <path d="M0.502153344,14.5581287 C0.239972544,14.6259873 0.064157184,14.4964391 7.01329554e-14,14.1047101 L12.7500065,4.33680869e-19 C12.8779772,-0.0117208982 13.0050197,0.0305987237 13.1003977,0.116720149 C13.1957757,0.202841574 13.2508006,0.324919463 13.2521599,0.45341856 L0.502153344,14.5581287 Z" id="路径_7212"></path>
            </g>
            <g id="组_980" transform="translate(53.557677, 8.869114)" fill="#B6BDC1" fill-rule="nonzero">
                <path d="M10.3946976,4.36022093 L0.014188608,0.637253568 C-0.032695488,0.321402816 0.034546176,0.101170944 0.242440128,-3.50664777e-14 L10.6229491,3.72296736 C10.8067841,4.10605978 10.6982104,4.29853133 10.3946976,4.36022093 Z" id="路径_7213"></path>
            </g>
            <g id="组_981" transform="translate(68.648804, 15.012781)" fill="#B6BDC1" fill-rule="nonzero">
                <path d="M7.33365965,10.7389256 L-1.35525272e-20,1.03576838 C-0.00324249608,0.901533651 0.058348468,0.773949485 0.165473373,0.692994362 C0.272598279,0.612039239 0.412150323,0.587618073 0.540400896,0.627383232 L7.87467744,10.3305404 C7.83087782,10.6790867 7.6186656,10.7648352 7.33365965,10.7389256 Z" id="路径_7214"></path>
            </g>
            <circle id="椭圆_81" fill="url(#radialGradient-8)" fill-rule="nonzero" cx="77.657953" cy="28.4148467" r="4.43548224"></circle>
            <circle id="椭圆_82" fill="#FFFFFF" fill-rule="nonzero" opacity="0.47" cx="78.8220357" cy="27.7893141" r="2.06228333"></circle>
            <g id="组_985" transform="translate(28.245200, 23.192205)" fill-rule="nonzero">
                <path d="M18.52477,21.4087588 L16.5389818,31.1322735 C16.5203906,31.2226111 16.5622779,31.3146135 16.6426203,31.3599082 L21.7924681,34.237728 C22.0764015,34.3962243 22.2532093,34.6951219 22.2553998,35.0202903 C22.25755,35.3454588 22.0847477,35.6466899 21.8029553,35.8089621 L17.7851117,38.1068997 C17.263814,38.408332 16.6223144,38.4130196 16.0966673,38.1192376 L10.3977821,34.9342036 C10.2610731,34.8576698 10.1895002,34.7015561 10.2207329,34.5480267 L12.1843129,24.9300012 L18.52477,21.4087588 Z" id="路径_7215" fill="#EDEEEE"></path>
                <g id="组_982" transform="translate(9.626662, 24.929384)" fill="#22877A">
                    <path d="M0.007402752,9.84195878 L1.93150138,0.359650368 L2.55826771,-3.50664777e-14 L0.594687744,9.61802554 C0.563455009,9.77155493 0.635027924,9.92766868 0.771736896,10.0042024 L6.47062214,13.1892365 C6.99626919,13.4830185 7.63776884,13.4783308 8.1590665,13.1768986 L12.1762932,10.878961 C12.529841,10.677059 12.7036745,10.2628444 12.6001008,9.86910221 L12.6858493,10.1954402 C12.7068549,10.2522207 12.7223487,10.3108905 12.7321165,10.3706387 L12.7321165,10.3786583 L12.7321165,10.3786583 C12.7903211,10.7470854 12.614446,11.1130826 12.290419,11.2978333 L8.15721581,13.6772012 C7.63581757,13.9782638 6.99451367,13.98295 6.46877146,13.6895391 L0.183218112,10.2281357 C0.0471344262,10.1510973 -0.0238500081,9.99518065 0.007402752,9.84195878 Z" id="路径_7216"></path>
                </g>
                <path d="M10.2207329,34.5480267 L12.1843129,24.9300012 L18.5241531,21.4081419 L16.5383649,31.1322735 C16.5197737,31.2226111 16.561661,31.3146135 16.6420034,31.3599082 L10.3971652,34.9342036 C10.2606934,34.8574865 10.1893886,34.7014137 10.2207329,34.5480267 Z" id="路径_7217" fill="#E4E7E9"></path>
                <path d="M1.40035392,15.8221486 L27.564764,0.605791872 C27.7630997,0.490396466 28.00802,0.489947626 28.2067773,0.604615319 C28.4055347,0.719283012 28.5277422,0.931536351 28.5271241,1.16099827 L28.5271241,19.9763263 L0.843913728,36.1013708 L0.843913728,16.7900584 C0.843913728,16.3914308 1.05595946,16.0228884 1.40035392,15.8221486 L1.40035392,15.8221486 Z" id="路径_7218" fill="#E4E7E9"></path>
                <path d="M27.4808661,18.8227308 L2.13877843,33.5838182 C2.01823848,33.6537063 1.86956452,33.6539542 1.7487921,33.5844687 C1.62801967,33.5149832 1.55334402,33.3863278 1.55334402,33.246993 L1.55334402,17.3471155 C1.55334402,17.1552483 1.65553195,16.9779095 1.82169389,16.8819759 L27.1650154,2.11903776 C27.2717569,2.0569682 27.4035387,2.05670644 27.5105259,2.11835147 C27.6175132,2.1799965 27.6832092,2.2941393 27.6832092,2.41761542 L27.6832092,18.4698662 C27.6835562,18.6151665 27.6064452,18.7496405 27.4808661,18.8227308 L27.4808661,18.8227308 Z" id="路径_7219" fill="#FFFFFF"></path>
                <path d="M28.5271219,21.804806 C28.5274235,22.6495082 28.0783662,23.4306 27.3482335,23.8553683 L2.21280595,38.4758035 C1.93111147,38.6399141 1.583173,38.640898 1.30055494,38.478383 C1.01793688,38.3158681 0.84391364,38.0146566 0.84391364,37.6886442 L0.84391364,36.106306 L28.5271219,19.9812614 L28.5271219,21.804806 Z" id="路径_7220" fill="#A7A9AC"></path>
                <g id="组_983" transform="translate(-0.000000, 0.000000)" fill="#22877A">
                    <path d="M0.556440192,15.3008715 L26.7208502,0.084514752 C26.9574272,-0.0448916827 27.2487805,-0.0183163574 27.458041,0.151756416 L27.458041,0.151756416 L28.1101,0.560758464 C27.930941,0.491992054 27.7302156,0.508567793 27.564764,0.605791872 L1.40035392,15.8221486 C1.05643397,16.0231996 0.845066397,16.3916837 0.84514752,16.7900584 L0.84514752,37.6867935 C0.843757938,38.0103301 1.01554208,38.3098934 1.2954816,38.4721021 L1.2954816,38.4721021 L0.45650304,37.9532926 L0.45650304,37.9532926 C0.173419323,37.7923861 -0.000682217413,37.4911291 0.00121813888,37.1655164 L0.00121813888,16.2687813 C0.00121813888,15.8704066 0.212520245,15.5019225 0.556440192,15.3008715 L0.556440192,15.3008715 Z" id="路径_7221"></path>
                </g>
                <g id="组_984" transform="translate(15.407594, 27.235958)" fill="#22877A">
                    <path d="M1.53236966,1.1727193 C1.55845208,1.6518923 1.31751628,2.10622837 0.906220224,2.35345824 C0.7175496,2.46213378 0.485015517,2.46096122 0.297450461,2.35038849 C0.109885405,2.23981576 -0.00373286962,2.03692574 5.42101086e-20,1.8192263 C0.023785438,1.3482588 0.291858126,0.923927339 0.706962816,0.70017696 C0.8747909,0.589673154 1.09050289,0.582948189 1.26488843,0.682783258 C1.43927397,0.782618327 1.54269082,0.972043362 1.53236966,1.1727193 L1.53236966,1.1727193 Z" id="路径_7223"></path>
                </g>
            </g>
            <g id="组_986" transform="translate(54.766793, 28.280980)" fill="#B6BDC1" fill-rule="nonzero">
                <path d="M0.289324224,8.75005286 C0.02467584,8.7130391 -0.050585472,8.49404102 0.032695488,8.12328653 L19.8905777,-0.001233792 C20.2767546,0.130165056 20.2823067,0.359033472 20.1472065,0.625532544 L0.289324224,8.75005286 Z" id="路径_7225"></path>
            </g>
            <g id="组_987" transform="translate(21.637627, 50.181405)" fill="#B6BDC1" fill-rule="nonzero">
                <path d="M0.948169152,4.89136838 C0.822825341,4.85864535 0.717428396,4.77393904 0.658506403,4.65856978 C0.59958441,4.54320052 0.592749192,4.40815625 0.639721152,4.2874272 L9.10168358,0 C9.322085,0.115617487 9.4456748,0.357606318 9.41013158,0.603941184 L0.948169152,4.89136838 Z" id="路径_7226"></path>
            </g>
            <g id="组_988" transform="translate(21.461812, 8.420630)" fill="#B6BDC1" fill-rule="nonzero">
                <path d="M0.587284992,44.487455 C0.292408704,44.5158323 0.06477408,44.4485906 0,44.1506298 L25.2736122,0.03392928 C25.6203078,-0.069092352 25.8010583,0.065390976 25.8615141,0.370754496 L0.587284992,44.487455 Z" id="路径_7227"></path>
            </g>
            <circle id="椭圆_83" fill="url(#radialGradient-9)" fill-rule="nonzero" cx="19.9090846" cy="55.5280428" r="3.90556858"></circle>
            <circle id="椭圆_84" fill="#FFFFFF" fill-rule="nonzero" opacity="0.47" cx="20.9022872" cy="55.2467382" r="2.22452698"></circle>
        </g>
    </g>
</svg>